G04 #@! TF.GenerationSoftware,KiCad,Pcbnew,(2018-01-07 revision 6cee19d37)-makepkg*
G04 #@! TF.CreationDate,2018-01-30T19:24:48-07:00*
G04 #@! TF.ProjectId,Copper Receiver Module,436F7070657220526563656976657220,0.1*
G04 #@! TF.SameCoordinates,Original*
G04 #@! TF.FileFunction,Copper,L2,Bot,Signal*
G04 #@! TF.FilePolarity,Positive*
%FSLAX46Y46*%
G04 Gerber Fmt 4.6, Leading zero omitted, Abs format (unit mm)*
G04 Created by KiCad (PCBNEW (2018-01-07 revision 6cee19d37)-makepkg) date 01/30/18 19:24:48*
%MOMM*%
%LPD*%
G01*
G04 APERTURE LIST*
%ADD10C,0.100000*%
%ADD11O,2.032000X6.350000*%
%ADD12O,2.641600X1.778000*%
%ADD13R,2.032000X2.032000*%
%ADD14O,2.032000X2.032000*%
%ADD15C,2.032000*%
%ADD16C,5.080000*%
%ADD17R,1.000000X1.100000*%
%ADD18R,1.100000X1.000000*%
%ADD19C,0.800000*%
%ADD20C,0.906399*%
%ADD21C,0.254000*%
%ADD22C,1.016000*%
%ADD23C,0.508000*%
%ADD24C,0.279000*%
%ADD25C,0.635000*%
G04 APERTURE END LIST*
D10*
X190500000Y-50800000D02*
X63500000Y-50800000D01*
X190500000Y-127000000D02*
X190500000Y-50800000D01*
X63500000Y-127000000D02*
X190500000Y-127000000D01*
X63500000Y-50800000D02*
X63500000Y-127000000D01*
D11*
X134366000Y-121412000D03*
X131826000Y-121412000D03*
X129286000Y-121412000D03*
X126746000Y-121412000D03*
X124206000Y-121412000D03*
X121666000Y-121412000D03*
X119126000Y-121412000D03*
D12*
X175260000Y-82550000D03*
X175260000Y-80010000D03*
X167640000Y-82550000D03*
X167640000Y-80010000D03*
X175260000Y-74930000D03*
X175260000Y-77470000D03*
X167640000Y-77470000D03*
X167640000Y-74930000D03*
D13*
X153035000Y-91059000D03*
D14*
X153035000Y-93599000D03*
X150495000Y-91059000D03*
X150495000Y-93599000D03*
X147955000Y-91059000D03*
X147955000Y-93599000D03*
X145415000Y-91059000D03*
X145415000Y-93599000D03*
D15*
X72542400Y-114604800D03*
X72542400Y-111861600D03*
X72542400Y-109118400D03*
X72542400Y-106375200D03*
X69697600Y-115976400D03*
X69697600Y-113233200D03*
X69697600Y-110490000D03*
X69697600Y-107746800D03*
X69697600Y-105003600D03*
X72542400Y-71424800D03*
X72542400Y-68681600D03*
X72542400Y-65938400D03*
X72542400Y-63195200D03*
X69697600Y-72796400D03*
X69697600Y-70053200D03*
X69697600Y-67310000D03*
X69697600Y-64566800D03*
X69697600Y-61823600D03*
D16*
X178308000Y-64770000D03*
X132715000Y-57150000D03*
X152908000Y-64897000D03*
X133096000Y-66548000D03*
D17*
X121285000Y-80176000D03*
X121285000Y-81876000D03*
D18*
X103290000Y-78740000D03*
X104990000Y-78740000D03*
X103290000Y-74422000D03*
X104990000Y-74422000D03*
D17*
X119507000Y-80176000D03*
X119507000Y-81876000D03*
X119253000Y-95289000D03*
X119253000Y-96989000D03*
X121031000Y-95289000D03*
X121031000Y-96989000D03*
X132588000Y-97116000D03*
X132588000Y-95416000D03*
X134747000Y-97116000D03*
X134747000Y-95416000D03*
X132715000Y-81622000D03*
X132715000Y-79922000D03*
X134620000Y-81622000D03*
X134620000Y-79922000D03*
D18*
X154090000Y-80010000D03*
X155790000Y-80010000D03*
X154090000Y-77470000D03*
X155790000Y-77470000D03*
X137160000Y-87933000D03*
X137160000Y-86233000D03*
D13*
X134366000Y-115316000D03*
D14*
X131826000Y-115316000D03*
X129286000Y-115316000D03*
X126746000Y-115316000D03*
X124206000Y-115316000D03*
X121666000Y-115316000D03*
X119126000Y-115316000D03*
D19*
X119253000Y-64516000D03*
X120523000Y-64516000D03*
X120523000Y-63500000D03*
X119253000Y-63500000D03*
X173101000Y-93091000D03*
X173101000Y-91567000D03*
X174117000Y-91567000D03*
X174117000Y-93091000D03*
X174879000Y-94742000D03*
X152527000Y-121412000D03*
X151638000Y-123825000D03*
X150876000Y-120142000D03*
X152273000Y-120015000D03*
X152273000Y-118491000D03*
X151003000Y-118491000D03*
X108966000Y-116713000D03*
X103505000Y-116713000D03*
X104013000Y-114681000D03*
X104775000Y-118364000D03*
X104775000Y-119761000D03*
X103505000Y-119761000D03*
X103505000Y-118364000D03*
X122555000Y-70958000D03*
X122348000Y-65786000D03*
D20*
X121539000Y-69850000D03*
X131064000Y-101854000D03*
X138938000Y-99187000D03*
X132715000Y-88265000D03*
X138938000Y-83693000D03*
D19*
X150368000Y-78740000D03*
X150368000Y-76200000D03*
X172339000Y-94742000D03*
X168021000Y-94742000D03*
D20*
X152400000Y-84963000D03*
X163830000Y-90932000D03*
X140716000Y-96393000D03*
D19*
X133985000Y-103378000D03*
D20*
X131191000Y-91186000D03*
X162306000Y-72390000D03*
X152908000Y-72390000D03*
X140716000Y-86741000D03*
X148336000Y-86741000D03*
X164084000Y-96393000D03*
X180289201Y-105359201D03*
X84836000Y-116840000D03*
X78232000Y-61849000D03*
X115316000Y-89281000D03*
X103290000Y-83097000D03*
X121285000Y-73406000D03*
X113157000Y-97790000D03*
X114300000Y-69850000D03*
D19*
X150180600Y-121666000D03*
X145539000Y-121666000D03*
D20*
X137668000Y-121285000D03*
X115816000Y-115316000D03*
D19*
X105322000Y-116726600D03*
X122047000Y-60579000D03*
X122428000Y-57658000D03*
X125349000Y-57658000D03*
X118110000Y-67564000D03*
X119888000Y-59690000D03*
X180086000Y-94615000D03*
X177038000Y-94361000D03*
X180086000Y-97663000D03*
X169926000Y-90551000D03*
X177676000Y-92967000D03*
X158242000Y-121539000D03*
X158242000Y-124841000D03*
X147955000Y-117348000D03*
X155705000Y-119891000D03*
X98298000Y-116586000D03*
X98298000Y-113792000D03*
X99819000Y-118929000D03*
X107696000Y-120904000D03*
X82804000Y-68834000D03*
X97663000Y-75565000D03*
X118745000Y-74422000D03*
X117221000Y-86614000D03*
X86487000Y-77470000D03*
X113157000Y-101854000D03*
X164465000Y-76200000D03*
X159639000Y-76200000D03*
X159766000Y-93726000D03*
X159639000Y-82550000D03*
X159639000Y-78740000D03*
X137287000Y-95123000D03*
X135255000Y-104251201D03*
X135255000Y-89662000D03*
X151130000Y-111379000D03*
D20*
X115316000Y-83058000D03*
D19*
X117094000Y-101854000D03*
D20*
X132715000Y-74041000D03*
D19*
X113157000Y-84455000D03*
D20*
X121285000Y-89281000D03*
X121285000Y-103505000D03*
D19*
X145288000Y-112522000D03*
D20*
X185420000Y-100838000D03*
X177800000Y-113030000D03*
X92964000Y-107442000D03*
D19*
X99060000Y-78105000D03*
D20*
X122682000Y-86614000D03*
X108712000Y-75565000D03*
X108712000Y-78105000D03*
D19*
X105029000Y-71120000D03*
D20*
X99060000Y-76835000D03*
D21*
X108966000Y-116713000D02*
X108458000Y-116713000D01*
X108458000Y-116713000D02*
X108444400Y-116726600D01*
X122555000Y-68834000D02*
X122555000Y-70958000D01*
X122555000Y-70866000D02*
X122555000Y-70958000D01*
X122348000Y-68627000D02*
X122555000Y-68834000D01*
X122348000Y-65786000D02*
X122348000Y-68627000D01*
D22*
X114300000Y-69850000D02*
X121539000Y-69850000D01*
X178308000Y-75641200D02*
X178308000Y-64770000D01*
X138938000Y-83693000D02*
X137160000Y-83693000D01*
X137160000Y-83693000D02*
X134620000Y-83693000D01*
X137160000Y-83693000D02*
X137160000Y-86233000D01*
X134620000Y-99187000D02*
X132715000Y-99187000D01*
X138938000Y-99187000D02*
X134620000Y-99187000D01*
X134747000Y-97116000D02*
X134747000Y-99060000D01*
X134747000Y-99060000D02*
X134620000Y-99187000D01*
X132715000Y-99187000D02*
X132588000Y-99060000D01*
X132588000Y-99060000D02*
X132588000Y-97116000D01*
X131064000Y-100838000D02*
X131064000Y-101854000D01*
X132715000Y-99187000D02*
X131064000Y-100838000D01*
X134620000Y-83693000D02*
X133604000Y-83693000D01*
X134620000Y-81622000D02*
X134620000Y-83693000D01*
X133604000Y-83693000D02*
X133220000Y-83693000D01*
X133220000Y-83693000D02*
X132715000Y-83188000D01*
X132715000Y-83188000D02*
X132715000Y-81622000D01*
X132715000Y-84582000D02*
X132715000Y-88265000D01*
X133604000Y-83693000D02*
X132715000Y-84582000D01*
D23*
X150368000Y-76200000D02*
X150368000Y-78740000D01*
D21*
X168021000Y-94742000D02*
X172339000Y-94742000D01*
D22*
X178308000Y-77343000D02*
X178308000Y-84455000D01*
X178308000Y-75641200D02*
X178308000Y-77343000D01*
X175260000Y-77470000D02*
X178181000Y-77470000D01*
X178181000Y-77470000D02*
X178308000Y-77343000D01*
X159315685Y-85852000D02*
X158426685Y-84963000D01*
X163830000Y-90366315D02*
X159315685Y-85852000D01*
X178308000Y-84455000D02*
X176911000Y-85852000D01*
X176911000Y-85852000D02*
X159315685Y-85852000D01*
X175260000Y-74930000D02*
X177596800Y-74930000D01*
X177596800Y-74930000D02*
X178308000Y-75641200D01*
X154051000Y-84963000D02*
X152400000Y-84963000D01*
X158426685Y-84963000D02*
X154051000Y-84963000D01*
X154090000Y-80010000D02*
X154090000Y-81526000D01*
X154090000Y-81526000D02*
X154051000Y-81565000D01*
X154051000Y-81565000D02*
X154051000Y-84963000D01*
X154090000Y-77470000D02*
X154090000Y-80010000D01*
X163830000Y-90932000D02*
X163830000Y-90366315D01*
X152908000Y-72390000D02*
X152908000Y-64897000D01*
D23*
X140716000Y-102108000D02*
X140716000Y-96393000D01*
X139446000Y-103378000D02*
X140716000Y-102108000D01*
X133985000Y-103378000D02*
X139446000Y-103378000D01*
D22*
X134747000Y-93472000D02*
X132842000Y-93472000D01*
X140716000Y-93472000D02*
X134747000Y-93472000D01*
X134747000Y-95416000D02*
X134747000Y-93472000D01*
X132842000Y-93472000D02*
X132207000Y-93472000D01*
X132588000Y-95416000D02*
X132588000Y-93850000D01*
X132588000Y-93850000D02*
X132842000Y-93596000D01*
X132842000Y-93596000D02*
X132842000Y-93472000D01*
X131191000Y-92456000D02*
X131191000Y-91186000D01*
X132207000Y-93472000D02*
X131191000Y-92456000D01*
X140716000Y-87306685D02*
X140716000Y-93472000D01*
X140716000Y-86741000D02*
X140716000Y-87306685D01*
X133604000Y-78232000D02*
X134496000Y-78232000D01*
X134496000Y-78232000D02*
X134620000Y-78356000D01*
X134620000Y-78356000D02*
X134620000Y-79922000D01*
X133604000Y-78232000D02*
X132839000Y-78232000D01*
X132839000Y-78232000D02*
X132715000Y-78356000D01*
X132715000Y-78356000D02*
X132715000Y-79922000D01*
X132715000Y-77343000D02*
X132715000Y-74041000D01*
X133604000Y-78232000D02*
X132715000Y-77343000D01*
X140716000Y-86741000D02*
X140716000Y-78232000D01*
X140716000Y-78232000D02*
X140716000Y-75438000D01*
X140716000Y-78232000D02*
X133604000Y-78232000D01*
X152908000Y-72390000D02*
X162306000Y-72390000D01*
X155790000Y-77470000D02*
X155790000Y-80010000D01*
X152908000Y-72390000D02*
X155790000Y-75272000D01*
X155790000Y-75272000D02*
X155790000Y-77470000D01*
X143764000Y-72390000D02*
X152908000Y-72390000D01*
X140716000Y-75438000D02*
X143764000Y-72390000D01*
X155829000Y-86741000D02*
X161417000Y-92329000D01*
X148336000Y-86741000D02*
X155829000Y-86741000D01*
X161417000Y-92329000D02*
X161417000Y-93726000D01*
X161417000Y-93726000D02*
X164084000Y-96393000D01*
X81991201Y-105359201D02*
X180289201Y-105359201D01*
X69697600Y-105003600D02*
X70713599Y-103987601D01*
X70713599Y-103987601D02*
X80619601Y-103987601D01*
X80619601Y-103987601D02*
X81991201Y-105359201D01*
X72542400Y-106375200D02*
X73558399Y-105359201D01*
X73558399Y-105359201D02*
X81991201Y-105359201D01*
X68072000Y-119761000D02*
X76036640Y-119761000D01*
X76036640Y-119761000D02*
X78957640Y-116840000D01*
X66802000Y-118491000D02*
X68072000Y-119761000D01*
X66802000Y-114691960D02*
X66802000Y-118491000D01*
X69697600Y-113233200D02*
X68260760Y-113233200D01*
X68260760Y-113233200D02*
X66802000Y-114691960D01*
X78957640Y-116840000D02*
X84836000Y-116840000D01*
X72542400Y-111861600D02*
X73979240Y-111861600D01*
X73979240Y-111861600D02*
X78957640Y-116840000D01*
X78232000Y-69534844D02*
X78232000Y-61849000D01*
X73059371Y-74707473D02*
X78232000Y-69534844D01*
X121031000Y-93472000D02*
X121031000Y-95289000D01*
X121031000Y-92837000D02*
X121031000Y-93472000D01*
X119253000Y-94615000D02*
X120396000Y-93472000D01*
X120396000Y-93472000D02*
X121031000Y-93472000D01*
X119253000Y-95289000D02*
X119253000Y-94615000D01*
X121285000Y-92583000D02*
X121031000Y-92837000D01*
X121285000Y-89281000D02*
X121285000Y-92583000D01*
X121285000Y-77851000D02*
X121285000Y-80176000D01*
X121285000Y-73406000D02*
X121285000Y-77851000D01*
X119507000Y-80176000D02*
X119507000Y-78610000D01*
X119507000Y-78610000D02*
X120266000Y-77851000D01*
X120266000Y-77851000D02*
X121285000Y-77851000D01*
X115316000Y-89281000D02*
X121285000Y-89281000D01*
X108712000Y-78105000D02*
X108712000Y-75565000D01*
X108839000Y-83097000D02*
X108712000Y-82970000D01*
X108712000Y-82970000D02*
X108712000Y-78105000D01*
X108839000Y-83097000D02*
X115277000Y-83097000D01*
X103290000Y-83097000D02*
X108839000Y-83097000D01*
X115277000Y-83097000D02*
X115316000Y-83058000D01*
X103290000Y-78740000D02*
X103290000Y-83097000D01*
X103290000Y-74422000D02*
X103290000Y-78740000D01*
X119253000Y-99314000D02*
X114681000Y-99314000D01*
X120904000Y-99314000D02*
X119253000Y-99314000D01*
X119253000Y-96989000D02*
X119253000Y-98555000D01*
X119253000Y-98555000D02*
X119253000Y-99314000D01*
X120904000Y-99314000D02*
X121031000Y-99187000D01*
X121031000Y-99187000D02*
X121031000Y-96989000D01*
X114681000Y-99314000D02*
X113157000Y-97790000D01*
X121285000Y-99695000D02*
X120904000Y-99314000D01*
X121285000Y-103505000D02*
X121285000Y-99695000D01*
X119634000Y-84455000D02*
X120523000Y-84455000D01*
X113157000Y-84455000D02*
X119634000Y-84455000D01*
X119507000Y-81876000D02*
X119507000Y-84328000D01*
X119507000Y-84328000D02*
X119634000Y-84455000D01*
X120523000Y-84455000D02*
X121285000Y-83693000D01*
X121285000Y-83693000D02*
X121285000Y-81876000D01*
X120523000Y-84455000D02*
X122682000Y-86614000D01*
X104990000Y-74422000D02*
X104990000Y-78740000D01*
X105029000Y-71120000D02*
X105029000Y-74383000D01*
X105029000Y-74383000D02*
X104990000Y-74422000D01*
X100203000Y-71120000D02*
X99060000Y-72263000D01*
X105029000Y-71120000D02*
X100203000Y-71120000D01*
X99060000Y-72263000D02*
X99060000Y-76835000D01*
D24*
X119507000Y-81926000D02*
X119507000Y-81876000D01*
D22*
X69697600Y-72796400D02*
X71608673Y-74707473D01*
X71608673Y-74707473D02*
X73059371Y-74707473D01*
D21*
X145539000Y-121666000D02*
X150180600Y-121666000D01*
X150114000Y-121666000D02*
X150180600Y-121666000D01*
D22*
X137668000Y-121285000D02*
X137668000Y-123063000D01*
X137668000Y-123063000D02*
X135128000Y-125603000D01*
X119126000Y-121412000D02*
X119126000Y-115316000D01*
X119126000Y-125603000D02*
X135128000Y-125603000D01*
X119126000Y-125603000D02*
X117221000Y-125603000D01*
X119126000Y-121412000D02*
X119126000Y-125603000D01*
X115816000Y-124198000D02*
X117221000Y-125603000D01*
X115816000Y-115316000D02*
X115816000Y-124198000D01*
D21*
X105322000Y-116726600D02*
X108444400Y-116726600D01*
D25*
X118110000Y-60452000D02*
X118110000Y-67564000D01*
X118872000Y-59690000D02*
X118110000Y-60452000D01*
X119888000Y-59690000D02*
X118872000Y-59690000D01*
D23*
X177038000Y-90551000D02*
X169926000Y-90551000D01*
X177292000Y-90805000D02*
X177038000Y-90551000D01*
X177673000Y-91186000D02*
X177292000Y-90805000D01*
X177673000Y-92398315D02*
X177673000Y-91186000D01*
X177676000Y-92967000D02*
X177676000Y-92401315D01*
X177676000Y-92401315D02*
X177673000Y-92398315D01*
X155067000Y-117348000D02*
X147955000Y-117348000D01*
X155705000Y-117986000D02*
X155067000Y-117348000D01*
X155705000Y-119891000D02*
X155705000Y-117986000D01*
X100330000Y-120904000D02*
X99819000Y-120393000D01*
X107696000Y-120904000D02*
X100330000Y-120904000D01*
X99819000Y-120393000D02*
X99819000Y-118929000D01*
X79629000Y-59182000D02*
X80772000Y-60325000D01*
X66675000Y-62981040D02*
X66675000Y-60071000D01*
X67564000Y-59182000D02*
X79629000Y-59182000D01*
X66675000Y-60071000D02*
X67564000Y-59182000D01*
X69697600Y-64566800D02*
X68260760Y-64566800D01*
X68260760Y-64566800D02*
X66675000Y-62981040D01*
X80772000Y-60325000D02*
X80772000Y-66802000D01*
X80772000Y-66802000D02*
X82804000Y-68834000D01*
X97663000Y-71628000D02*
X97663000Y-75565000D01*
X99133010Y-70157990D02*
X97663000Y-71628000D01*
X100330000Y-70104000D02*
X100276010Y-70157990D01*
X107061000Y-70104000D02*
X100330000Y-70104000D01*
X100276010Y-70157990D02*
X99133010Y-70157990D01*
X108585000Y-70104000D02*
X107061000Y-70104000D01*
X109728000Y-71247000D02*
X108585000Y-70104000D01*
X116135685Y-71247000D02*
X109728000Y-71247000D01*
X118745000Y-74422000D02*
X118745000Y-73856315D01*
X118745000Y-73856315D02*
X116135685Y-71247000D01*
X100711000Y-86614000D02*
X117221000Y-86614000D01*
X99060000Y-84963000D02*
X100711000Y-86614000D01*
X99060000Y-78105000D02*
X99060000Y-84963000D01*
X68453000Y-77470000D02*
X86487000Y-77470000D01*
X66167000Y-75184000D02*
X68453000Y-77470000D01*
X66167000Y-69215000D02*
X66167000Y-75184000D01*
X68072000Y-67310000D02*
X66167000Y-69215000D01*
X69697600Y-67310000D02*
X68072000Y-67310000D01*
X116528315Y-101854000D02*
X113157000Y-101854000D01*
X117094000Y-101854000D02*
X116528315Y-101854000D01*
X164465000Y-76200000D02*
X159639000Y-76200000D01*
X159766000Y-93726000D02*
X153162000Y-93726000D01*
X153162000Y-93726000D02*
X153035000Y-93599000D01*
X159639000Y-78740000D02*
X159639000Y-82550000D01*
X137287000Y-95123000D02*
X143891000Y-95123000D01*
X143891000Y-95123000D02*
X145415000Y-93599000D01*
X140446201Y-104251201D02*
X147955000Y-96742402D01*
X147955000Y-96742402D02*
X147955000Y-93599000D01*
X135255000Y-104251201D02*
X140446201Y-104251201D01*
X136439000Y-89662000D02*
X135255000Y-89662000D01*
X137160000Y-87933000D02*
X137160000Y-88941000D01*
X137160000Y-88941000D02*
X136439000Y-89662000D01*
X125730000Y-111379000D02*
X151130000Y-111379000D01*
X124206000Y-112903000D02*
X125730000Y-111379000D01*
X124206000Y-115316000D02*
X124206000Y-112903000D01*
X124206000Y-121412000D02*
X124206000Y-115316000D01*
D24*
X134620000Y-81672000D02*
X134620000Y-81622000D01*
X134620000Y-79872000D02*
X134620000Y-79922000D01*
D23*
X127762000Y-112522000D02*
X145288000Y-112522000D01*
X127508000Y-112776000D02*
X127762000Y-112522000D01*
X126746000Y-113538000D02*
X127508000Y-112776000D01*
X126746000Y-115316000D02*
X126746000Y-113538000D01*
X126746000Y-121412000D02*
X126746000Y-115316000D01*
D22*
X185420000Y-104648000D02*
X185420000Y-100838000D01*
X182626000Y-107442000D02*
X185420000Y-104648000D01*
X177800000Y-107442000D02*
X182626000Y-107442000D01*
X177800000Y-107442000D02*
X177800000Y-113030000D01*
X92964000Y-107442000D02*
X177800000Y-107442000D01*
X78359000Y-107442000D02*
X92964000Y-107442000D01*
X76682600Y-109118400D02*
X72542400Y-109118400D01*
X76682600Y-109118400D02*
X78359000Y-107442000D01*
D21*
G36*
X106045000Y-116046249D02*
X105043941Y-117923235D01*
X105029000Y-117983000D01*
X105029000Y-120015000D01*
X103251000Y-120015000D01*
X103251000Y-116205000D01*
X103241333Y-116156399D01*
X103213803Y-116115197D01*
X103172601Y-116087667D01*
X103136637Y-116078630D01*
X101981000Y-115963066D01*
X101981000Y-113411000D01*
X106045000Y-113411000D01*
X106045000Y-116046249D01*
X106045000Y-116046249D01*
G37*
X106045000Y-116046249D02*
X105043941Y-117923235D01*
X105029000Y-117983000D01*
X105029000Y-120015000D01*
X103251000Y-120015000D01*
X103251000Y-116205000D01*
X103241333Y-116156399D01*
X103213803Y-116115197D01*
X103172601Y-116087667D01*
X103136637Y-116078630D01*
X101981000Y-115963066D01*
X101981000Y-113411000D01*
X106045000Y-113411000D01*
X106045000Y-116046249D01*
G36*
X100457000Y-117221000D02*
X100466667Y-117269601D01*
X100494197Y-117310803D01*
X100535399Y-117338333D01*
X100584000Y-117348000D01*
X102489000Y-117348000D01*
X102489000Y-118111899D01*
X102470180Y-118157223D01*
X102469821Y-118568971D01*
X102489000Y-118615388D01*
X102489000Y-118999000D01*
X99441000Y-118999000D01*
X99441000Y-118237000D01*
X99431333Y-118188399D01*
X99403803Y-118147197D01*
X98044000Y-116787394D01*
X98044000Y-113411000D01*
X100457000Y-113411000D01*
X100457000Y-117221000D01*
X100457000Y-117221000D01*
G37*
X100457000Y-117221000D02*
X100466667Y-117269601D01*
X100494197Y-117310803D01*
X100535399Y-117338333D01*
X100584000Y-117348000D01*
X102489000Y-117348000D01*
X102489000Y-118111899D01*
X102470180Y-118157223D01*
X102469821Y-118568971D01*
X102489000Y-118615388D01*
X102489000Y-118999000D01*
X99441000Y-118999000D01*
X99441000Y-118237000D01*
X99431333Y-118188399D01*
X99403803Y-118147197D01*
X98044000Y-116787394D01*
X98044000Y-113411000D01*
X100457000Y-113411000D01*
X100457000Y-117221000D01*
G36*
X152527000Y-120396000D02*
X152539088Y-120450076D01*
X153543000Y-122583389D01*
X153543000Y-125095000D01*
X149733000Y-125095000D01*
X149733000Y-122588727D01*
X150732267Y-120840010D01*
X150749000Y-120777000D01*
X150749000Y-118237000D01*
X152527000Y-118237000D01*
X152527000Y-120396000D01*
X152527000Y-120396000D01*
G37*
X152527000Y-120396000D02*
X152539088Y-120450076D01*
X153543000Y-122583389D01*
X153543000Y-125095000D01*
X149733000Y-125095000D01*
X149733000Y-122588727D01*
X150732267Y-120840010D01*
X150749000Y-120777000D01*
X150749000Y-118237000D01*
X152527000Y-118237000D01*
X152527000Y-120396000D01*
G36*
X156247197Y-119342803D02*
X156288399Y-119370333D01*
X156337000Y-119380000D01*
X158496000Y-119380000D01*
X158496000Y-125095000D01*
X155067000Y-125095000D01*
X155067000Y-121285000D01*
X155057333Y-121236399D01*
X155029803Y-121195197D01*
X155003010Y-121174733D01*
X153307834Y-120206061D01*
X153308179Y-119810029D01*
X153289000Y-119763612D01*
X153289000Y-119253000D01*
X156157394Y-119253000D01*
X156247197Y-119342803D01*
X156247197Y-119342803D01*
G37*
X156247197Y-119342803D02*
X156288399Y-119370333D01*
X156337000Y-119380000D01*
X158496000Y-119380000D01*
X158496000Y-125095000D01*
X155067000Y-125095000D01*
X155067000Y-121285000D01*
X155057333Y-121236399D01*
X155029803Y-121195197D01*
X155003010Y-121174733D01*
X153307834Y-120206061D01*
X153308179Y-119810029D01*
X153289000Y-119763612D01*
X153289000Y-119253000D01*
X156157394Y-119253000D01*
X156247197Y-119342803D01*
G36*
X174371000Y-93726000D02*
X174380667Y-93774601D01*
X174413626Y-93820921D01*
X175514000Y-94799031D01*
X175514000Y-98044000D01*
X171704000Y-98044000D01*
X171704000Y-94917735D01*
X172814398Y-93683959D01*
X172839725Y-93641367D01*
X172847000Y-93599000D01*
X172847000Y-91440000D01*
X174371000Y-91440000D01*
X174371000Y-93726000D01*
X174371000Y-93726000D01*
G37*
X174371000Y-93726000D02*
X174380667Y-93774601D01*
X174413626Y-93820921D01*
X175514000Y-94799031D01*
X175514000Y-98044000D01*
X171704000Y-98044000D01*
X171704000Y-94917735D01*
X172814398Y-93683959D01*
X172839725Y-93641367D01*
X172847000Y-93599000D01*
X172847000Y-91440000D01*
X174371000Y-91440000D01*
X174371000Y-93726000D01*
G36*
X178448408Y-92512796D02*
X178478789Y-92551943D01*
X178521839Y-92576483D01*
X178562000Y-92583000D01*
X180467000Y-92583000D01*
X180467000Y-98044000D01*
X177038000Y-98044000D01*
X177038000Y-94869000D01*
X177028333Y-94820399D01*
X176989463Y-94769138D01*
X175260000Y-93410274D01*
X175260000Y-92329000D01*
X178356510Y-92329000D01*
X178448408Y-92512796D01*
X178448408Y-92512796D01*
G37*
X178448408Y-92512796D02*
X178478789Y-92551943D01*
X178521839Y-92576483D01*
X178562000Y-92583000D01*
X180467000Y-92583000D01*
X180467000Y-98044000D01*
X177038000Y-98044000D01*
X177038000Y-94869000D01*
X177028333Y-94820399D01*
X176989463Y-94769138D01*
X175260000Y-93410274D01*
X175260000Y-92329000D01*
X178356510Y-92329000D01*
X178448408Y-92512796D01*
G36*
X125730000Y-65913000D02*
X121983500Y-65913000D01*
X121259600Y-64947800D01*
X121222706Y-64914720D01*
X121158000Y-64897000D01*
X119062500Y-64897000D01*
X119062500Y-63246000D01*
X121539000Y-63246000D01*
X121587601Y-63236333D01*
X121620303Y-63216564D01*
X123108980Y-61976000D01*
X125730000Y-61976000D01*
X125730000Y-65913000D01*
X125730000Y-65913000D01*
G37*
X125730000Y-65913000D02*
X121983500Y-65913000D01*
X121259600Y-64947800D01*
X121222706Y-64914720D01*
X121158000Y-64897000D01*
X119062500Y-64897000D01*
X119062500Y-63246000D01*
X121539000Y-63246000D01*
X121587601Y-63236333D01*
X121620303Y-63216564D01*
X123108980Y-61976000D01*
X125730000Y-61976000D01*
X125730000Y-65913000D01*
G36*
X125730000Y-60452000D02*
X122682000Y-60452000D01*
X122633399Y-60461667D01*
X122589156Y-60492346D01*
X120848812Y-62357000D01*
X119888000Y-62357000D01*
X119888000Y-59353549D01*
X120368170Y-58753336D01*
X120390982Y-58709346D01*
X120396000Y-58674000D01*
X120396000Y-57404000D01*
X125730000Y-57404000D01*
X125730000Y-60452000D01*
X125730000Y-60452000D01*
G37*
X125730000Y-60452000D02*
X122682000Y-60452000D01*
X122633399Y-60461667D01*
X122589156Y-60492346D01*
X120848812Y-62357000D01*
X119888000Y-62357000D01*
X119888000Y-59353549D01*
X120368170Y-58753336D01*
X120390982Y-58709346D01*
X120396000Y-58674000D01*
X120396000Y-57404000D01*
X125730000Y-57404000D01*
X125730000Y-60452000D01*
M02*
