M48
;DRILL file {KiCad (2018-01-07 revision 6cee19d37)-makepkg} date 01/30/18 19:20:31
;FORMAT={-:-/ absolute / metric / decimal}
FMAT,2
METRIC,TZ
T1C0.400
T2C0.500
T3C0.813
T4C1.000
T5C1.016
T6C2.540
%
G90
G05
M71
T1
X82.804Y-68.834
X86.487Y-77.47
X97.663Y-75.565
X98.298Y-113.792
X98.298Y-116.586
X99.06Y-78.105
X99.819Y-118.929
X103.505Y-116.713
X103.505Y-118.364
X103.505Y-119.761
X104.013Y-114.681
X104.775Y-118.364
X104.775Y-119.761
X105.029Y-71.12
X105.322Y-116.727
X107.696Y-120.904
X108.966Y-116.713
X113.157Y-84.455
X113.157Y-101.854
X117.094Y-101.854
X117.221Y-86.614
X118.11Y-67.564
X118.745Y-74.422
X119.253Y-63.5
X119.253Y-64.516
X119.888Y-59.69
X120.523Y-63.5
X120.523Y-64.516
X122.047Y-60.579
X122.348Y-65.786
X122.428Y-57.658
X122.555Y-70.958
X125.349Y-57.658
X133.985Y-103.378
X135.255Y-89.662
X135.255Y-104.251
X137.287Y-95.123
X145.288Y-112.522
X145.539Y-121.666
X147.955Y-117.348
X150.181Y-121.666
X150.368Y-76.2
X150.368Y-78.74
X150.876Y-120.142
X151.003Y-118.491
X151.13Y-111.379
X151.638Y-123.825
X152.273Y-118.491
X152.273Y-120.015
X152.527Y-121.412
X155.705Y-119.891
X158.242Y-121.539
X158.242Y-124.841
X159.639Y-76.2
X159.639Y-78.74
X159.639Y-82.55
X159.766Y-93.726
X164.465Y-76.2
X168.021Y-94.742
X169.926Y-90.551
X172.339Y-94.742
X173.101Y-91.567
X173.101Y-93.091
X174.117Y-91.567
X174.117Y-93.091
X174.879Y-94.742
X177.038Y-94.361
X177.676Y-92.967
X180.086Y-94.615
X180.086Y-97.663
T2
X78.232Y-61.849
X84.836Y-116.84
X92.964Y-107.442
X99.06Y-76.835
X103.29Y-83.097
X108.712Y-75.565
X108.712Y-78.105
X113.157Y-97.79
X114.3Y-69.85
X115.316Y-83.058
X115.316Y-89.281
X115.816Y-115.316
X121.285Y-73.406
X121.285Y-89.281
X121.285Y-103.505
X121.539Y-69.85
X122.682Y-86.614
X131.064Y-101.854
X131.191Y-91.186
X132.715Y-74.041
X132.715Y-88.265
X137.668Y-121.285
X138.938Y-83.693
X138.938Y-99.187
X140.716Y-86.741
X140.716Y-96.393
X148.336Y-86.741
X152.4Y-84.963
X152.908Y-72.39
X162.306Y-72.39
X163.83Y-90.932
X164.084Y-96.393
X177.8Y-113.03
X180.289Y-105.359
X185.42Y-100.838
T3
X167.64Y-74.93
X167.64Y-77.47
X167.64Y-80.01
X167.64Y-82.55
X175.26Y-74.93
X175.26Y-77.47
X175.26Y-80.01
X175.26Y-82.55
T4
X145.415Y-91.059
X145.415Y-93.599
X147.955Y-91.059
X147.955Y-93.599
X150.495Y-91.059
X150.495Y-93.599
X153.035Y-91.059
X153.035Y-93.599
X119.126Y-115.316
X121.666Y-115.316
X124.206Y-115.316
X126.746Y-115.316
X129.286Y-115.316
X131.826Y-115.316
X134.366Y-115.316
T5
X69.698Y-64.567
X69.698Y-105.004
X69.698Y-61.824
X69.698Y-107.747
X69.698Y-110.49
X69.698Y-113.233
X69.698Y-115.976
X69.698Y-67.31
X72.542Y-106.375
X121.666Y-121.412
X69.698Y-70.053
X69.698Y-72.796
X72.542Y-63.195
X72.542Y-65.938
X72.542Y-68.682
X72.542Y-71.425
X72.542Y-109.118
X72.542Y-111.862
X72.542Y-114.605
X119.126Y-121.412
X124.206Y-121.412
X126.746Y-121.412
X129.286Y-121.412
X131.826Y-121.412
X134.366Y-121.412
T6
X152.908Y-64.897
X133.096Y-66.548
X132.715Y-57.15
X178.308Y-64.77
T0
M30
