G04 #@! TF.GenerationSoftware,KiCad,Pcbnew,(2018-01-07 revision 6cee19d37)-makepkg*
G04 #@! TF.CreationDate,2018-01-30T19:24:48-07:00*
G04 #@! TF.ProjectId,Copper Receiver Module,436F7070657220526563656976657220,0.1*
G04 #@! TF.SameCoordinates,Original*
G04 #@! TF.FileFunction,Copper,L1,Top,Signal*
G04 #@! TF.FilePolarity,Positive*
%FSLAX46Y46*%
G04 Gerber Fmt 4.6, Leading zero omitted, Abs format (unit mm)*
G04 Created by KiCad (PCBNEW (2018-01-07 revision 6cee19d37)-makepkg) date 01/30/18 19:24:48*
%MOMM*%
%LPD*%
G01*
G04 APERTURE LIST*
%ADD10C,0.100000*%
%ADD11R,2.700000X1.600000*%
%ADD12R,1.600000X2.700000*%
%ADD13O,2.032000X6.350000*%
%ADD14R,1.200000X1.350000*%
%ADD15R,2.286000X2.286000*%
%ADD16O,2.641600X1.778000*%
%ADD17R,2.032000X2.032000*%
%ADD18O,2.032000X2.032000*%
%ADD19C,2.032000*%
%ADD20C,5.080000*%
%ADD21R,2.159000X1.930400*%
%ADD22R,0.279400X1.397000*%
%ADD23R,1.100000X1.000000*%
%ADD24R,1.000000X1.100000*%
%ADD25R,1.300000X1.500000*%
%ADD26R,1.500000X1.300000*%
%ADD27R,1.930400X2.159000*%
%ADD28R,1.397000X0.279400*%
%ADD29R,2.057400X0.609600*%
%ADD30R,2.200000X0.600000*%
%ADD31R,0.762000X1.524000*%
%ADD32R,1.803000X1.600000*%
%ADD33C,0.800000*%
%ADD34C,0.906399*%
%ADD35C,0.254000*%
%ADD36C,1.016000*%
%ADD37C,0.635000*%
%ADD38C,0.508000*%
%ADD39C,0.279000*%
G04 APERTURE END LIST*
D10*
X190500000Y-50800000D02*
X63500000Y-50800000D01*
X190500000Y-127000000D02*
X190500000Y-50800000D01*
X63500000Y-127000000D02*
X190500000Y-127000000D01*
X63500000Y-50800000D02*
X63500000Y-127000000D01*
D11*
X124587000Y-65275000D03*
X124587000Y-68075000D03*
D12*
X172339000Y-96901000D03*
X169539000Y-96901000D03*
X150371000Y-123825000D03*
X147571000Y-123825000D03*
X105407000Y-114681000D03*
X108207000Y-114681000D03*
D13*
X134366000Y-121412000D03*
X131826000Y-121412000D03*
X129286000Y-121412000D03*
X126746000Y-121412000D03*
X124206000Y-121412000D03*
X121666000Y-121412000D03*
X119126000Y-121412000D03*
D14*
X106188000Y-57658000D03*
X108288000Y-57658000D03*
D15*
X126238000Y-106299000D03*
X126238000Y-108839000D03*
X157099000Y-101854000D03*
X157099000Y-99314000D03*
X147066000Y-101854000D03*
X147066000Y-99314000D03*
X134239000Y-109093000D03*
X134239000Y-106553000D03*
X142621000Y-113030000D03*
X142621000Y-110490000D03*
X157099000Y-107442000D03*
X157099000Y-104902000D03*
X147066000Y-107442000D03*
X147066000Y-104902000D03*
X105918000Y-55118000D03*
X108458000Y-55118000D03*
X105918000Y-62992000D03*
X108458000Y-62992000D03*
X185420000Y-96266000D03*
X182880000Y-96266000D03*
X185420000Y-88392000D03*
X182880000Y-88392000D03*
X173482000Y-118237000D03*
X170942000Y-118237000D03*
X164592000Y-111252000D03*
X162052000Y-111252000D03*
X92202000Y-112776000D03*
X94742000Y-112776000D03*
X93091000Y-120777000D03*
X95631000Y-120777000D03*
D16*
X175260000Y-82550000D03*
X175260000Y-80010000D03*
X167640000Y-82550000D03*
X167640000Y-80010000D03*
X175260000Y-74930000D03*
X175260000Y-77470000D03*
X167640000Y-77470000D03*
X167640000Y-74930000D03*
D17*
X153035000Y-91059000D03*
D18*
X153035000Y-93599000D03*
X150495000Y-91059000D03*
X150495000Y-93599000D03*
X147955000Y-91059000D03*
X147955000Y-93599000D03*
X145415000Y-91059000D03*
X145415000Y-93599000D03*
D19*
X72542400Y-114604800D03*
X72542400Y-111861600D03*
X72542400Y-109118400D03*
X72542400Y-106375200D03*
X69697600Y-115976400D03*
X69697600Y-113233200D03*
X69697600Y-110490000D03*
X69697600Y-107746800D03*
X69697600Y-105003600D03*
X72542400Y-71424800D03*
X72542400Y-68681600D03*
X72542400Y-65938400D03*
X72542400Y-63195200D03*
X69697600Y-72796400D03*
X69697600Y-70053200D03*
X69697600Y-67310000D03*
X69697600Y-64566800D03*
X69697600Y-61823600D03*
D20*
X178308000Y-64770000D03*
X132715000Y-57150000D03*
X152908000Y-64897000D03*
X133096000Y-66548000D03*
D21*
X119888000Y-64008000D03*
D22*
X120888759Y-66192400D03*
X120388381Y-66192400D03*
X119888000Y-66192400D03*
X119387619Y-66192400D03*
X118887241Y-66192400D03*
X118887241Y-61823600D03*
X119387619Y-61823600D03*
X119888000Y-61823600D03*
X120388381Y-61823600D03*
X120888759Y-61823600D03*
D23*
X141351000Y-124167000D03*
X141351000Y-122467000D03*
D24*
X175768000Y-110402000D03*
X175768000Y-112102000D03*
X86868000Y-116801000D03*
X86868000Y-115101000D03*
X101854000Y-61175000D03*
X101854000Y-59475000D03*
D23*
X117436000Y-72898000D03*
X115736000Y-72898000D03*
D24*
X144145000Y-81358000D03*
X144145000Y-83058000D03*
X141351000Y-119038000D03*
X141351000Y-120738000D03*
X114300000Y-115316000D03*
X114300000Y-117016000D03*
X111125000Y-118022000D03*
X111125000Y-119722000D03*
X145034000Y-120357000D03*
X145034000Y-118657000D03*
X166243000Y-93306000D03*
X166243000Y-91606000D03*
D23*
X120230000Y-70866000D03*
X118530000Y-70866000D03*
D11*
X124587000Y-62614000D03*
X124587000Y-59814000D03*
D25*
X118938000Y-57912000D03*
X120838000Y-57912000D03*
D26*
X179832000Y-91125000D03*
X179832000Y-93025000D03*
D12*
X174876000Y-96901000D03*
X177676000Y-96901000D03*
X152905000Y-123825000D03*
X155705000Y-123825000D03*
D26*
X157861000Y-118049000D03*
X157861000Y-119949000D03*
X98044000Y-120838000D03*
X98044000Y-118938000D03*
D12*
X102619000Y-114681000D03*
X99819000Y-114681000D03*
D27*
X151638000Y-119253000D03*
D28*
X149453600Y-120253759D03*
X149453600Y-119753381D03*
X149453600Y-119253000D03*
X149453600Y-118752619D03*
X149453600Y-118252241D03*
X153822400Y-118252241D03*
X153822400Y-118752619D03*
X153822400Y-119253000D03*
X153822400Y-119753381D03*
X153822400Y-120253759D03*
D27*
X104140000Y-118999000D03*
D28*
X106324400Y-117998241D03*
X106324400Y-118498619D03*
X106324400Y-118999000D03*
X106324400Y-119499381D03*
X106324400Y-119999759D03*
X101955600Y-119999759D03*
X101955600Y-119499381D03*
X101955600Y-118999000D03*
X101955600Y-118498619D03*
X101955600Y-117998241D03*
D27*
X173609000Y-92329000D03*
D28*
X171424600Y-93329759D03*
X171424600Y-92829381D03*
X171424600Y-92329000D03*
X171424600Y-91828619D03*
X171424600Y-91328241D03*
X175793400Y-91328241D03*
X175793400Y-91828619D03*
X175793400Y-92329000D03*
X175793400Y-92829381D03*
X175793400Y-93329759D03*
D29*
X106840000Y-73025000D03*
X106840000Y-74295000D03*
X106840000Y-75565000D03*
X106840000Y-76835000D03*
X106840000Y-78105000D03*
X106840000Y-79375000D03*
X106840000Y-80645000D03*
X106840000Y-81915000D03*
X101440000Y-81915000D03*
X101440000Y-80645000D03*
X101440000Y-79375000D03*
X101440000Y-78105000D03*
X101440000Y-76835000D03*
X101440000Y-75565000D03*
X101440000Y-74295000D03*
X101440000Y-73025000D03*
D30*
X157540000Y-82550000D03*
X157540000Y-80010000D03*
X152340000Y-82550000D03*
X152340000Y-80010000D03*
X157540000Y-81280000D03*
X152340000Y-81280000D03*
X157540000Y-78740000D03*
X157540000Y-77470000D03*
X157540000Y-74930000D03*
X152340000Y-78740000D03*
X152340000Y-77470000D03*
X152340000Y-74930000D03*
X157540000Y-76200000D03*
X152340000Y-76200000D03*
D31*
X118745000Y-75965000D03*
X120015000Y-75965000D03*
X121285000Y-75965000D03*
X132715000Y-86595000D03*
X133985000Y-86595000D03*
X135255000Y-86595000D03*
X135255000Y-75965000D03*
X133985000Y-75965000D03*
X132715000Y-75965000D03*
X121285000Y-86595000D03*
X120015000Y-86595000D03*
X118745000Y-86595000D03*
X118745000Y-91205000D03*
X120015000Y-91205000D03*
X121285000Y-91205000D03*
X132715000Y-101835000D03*
X133985000Y-101835000D03*
X135255000Y-101835000D03*
X135255000Y-91205000D03*
X133985000Y-91205000D03*
X132715000Y-91205000D03*
X121285000Y-101835000D03*
X120015000Y-101835000D03*
X118745000Y-101835000D03*
D14*
X106188000Y-60198000D03*
X108288000Y-60198000D03*
X185150000Y-93345000D03*
X183050000Y-93345000D03*
X185150000Y-91059000D03*
X183050000Y-91059000D03*
X173212000Y-115697000D03*
X171112000Y-115697000D03*
X164322000Y-113919000D03*
X162222000Y-113919000D03*
X92472000Y-115316000D03*
X94572000Y-115316000D03*
X93107000Y-118364000D03*
X95207000Y-118364000D03*
D32*
X88900000Y-72238000D03*
X88900000Y-75082000D03*
X88900000Y-78588000D03*
X88900000Y-81432000D03*
X88900000Y-84786000D03*
X88900000Y-87630000D03*
D23*
X110490000Y-76493000D03*
X110490000Y-78193000D03*
X162306000Y-77304000D03*
X162306000Y-75604000D03*
X164465000Y-74129000D03*
X164465000Y-72429000D03*
X147955000Y-76239000D03*
X147955000Y-77939000D03*
X147955000Y-81241000D03*
X147955000Y-79541000D03*
D32*
X153670000Y-102006000D03*
X153670000Y-99162000D03*
X153670000Y-107594000D03*
X153670000Y-104750000D03*
X150495000Y-102006000D03*
X150495000Y-99162000D03*
X150495000Y-107594000D03*
X150495000Y-104750000D03*
X137287000Y-106401000D03*
X137287000Y-109245000D03*
X139827000Y-110338000D03*
X139827000Y-113182000D03*
X129286000Y-106147000D03*
X129286000Y-108991000D03*
D23*
X175768000Y-115658000D03*
X175768000Y-113958000D03*
X86868000Y-111633000D03*
X86868000Y-113333000D03*
X101854000Y-55030000D03*
X101854000Y-56730000D03*
D24*
X111926000Y-72898000D03*
X113626000Y-72898000D03*
D23*
X144145000Y-86741000D03*
X144145000Y-85041000D03*
X114300000Y-118911000D03*
X114300000Y-120611000D03*
X109220000Y-119722000D03*
X109220000Y-118022000D03*
X146812000Y-118657000D03*
X146812000Y-120357000D03*
D24*
X118530000Y-69088000D03*
X120230000Y-69088000D03*
D23*
X168021000Y-91606000D03*
X168021000Y-93306000D03*
D17*
X134366000Y-115316000D03*
D18*
X131826000Y-115316000D03*
X129286000Y-115316000D03*
X126746000Y-115316000D03*
X124206000Y-115316000D03*
X121666000Y-115316000D03*
X119126000Y-115316000D03*
D33*
X119253000Y-64516000D03*
X120523000Y-64516000D03*
X120523000Y-63500000D03*
X119253000Y-63500000D03*
X173101000Y-93091000D03*
X173101000Y-91567000D03*
X174117000Y-91567000D03*
X174117000Y-93091000D03*
X174879000Y-94742000D03*
X152527000Y-121412000D03*
X151638000Y-123825000D03*
X150876000Y-120142000D03*
X152273000Y-120015000D03*
X152273000Y-118491000D03*
X151003000Y-118491000D03*
X108966000Y-116713000D03*
X103505000Y-116713000D03*
X104013000Y-114681000D03*
X104775000Y-118364000D03*
X104775000Y-119761000D03*
X103505000Y-119761000D03*
X103505000Y-118364000D03*
X122555000Y-70958000D03*
X122348000Y-65786000D03*
D34*
X121539000Y-69850000D03*
X131064000Y-101854000D03*
X138938000Y-99187000D03*
X132715000Y-88265000D03*
X138938000Y-83693000D03*
D33*
X150368000Y-78740000D03*
X150368000Y-76200000D03*
X172339000Y-94742000D03*
X168021000Y-94742000D03*
D34*
X152400000Y-84963000D03*
X163830000Y-90932000D03*
X140716000Y-96393000D03*
D33*
X133985000Y-103378000D03*
D34*
X131191000Y-91186000D03*
X162306000Y-72390000D03*
X152908000Y-72390000D03*
X140716000Y-86741000D03*
X148336000Y-86741000D03*
X164084000Y-96393000D03*
X180289201Y-105359201D03*
X84836000Y-116840000D03*
X78232000Y-61849000D03*
X115316000Y-89281000D03*
X103290000Y-83097000D03*
X121285000Y-73406000D03*
X113157000Y-97790000D03*
X114300000Y-69850000D03*
D33*
X150180600Y-121666000D03*
X145539000Y-121666000D03*
D34*
X137668000Y-121285000D03*
X115816000Y-115316000D03*
D33*
X105322000Y-116726600D03*
X122047000Y-60579000D03*
X122428000Y-57658000D03*
X125349000Y-57658000D03*
X118110000Y-67564000D03*
X119888000Y-59690000D03*
X180086000Y-94615000D03*
X177038000Y-94361000D03*
X180086000Y-97663000D03*
X169926000Y-90551000D03*
X177676000Y-92967000D03*
X158242000Y-121539000D03*
X158242000Y-124841000D03*
X147955000Y-117348000D03*
X155705000Y-119891000D03*
X98298000Y-116586000D03*
X98298000Y-113792000D03*
X99819000Y-118929000D03*
X107696000Y-120904000D03*
X82804000Y-68834000D03*
X97663000Y-75565000D03*
X118745000Y-74422000D03*
X117221000Y-86614000D03*
X86487000Y-77470000D03*
X113157000Y-101854000D03*
X164465000Y-76200000D03*
X159639000Y-76200000D03*
X159766000Y-93726000D03*
X159639000Y-82550000D03*
X159639000Y-78740000D03*
X137287000Y-95123000D03*
X135255000Y-104251201D03*
X135255000Y-89662000D03*
X151130000Y-111379000D03*
D34*
X115316000Y-83058000D03*
D33*
X117094000Y-101854000D03*
D34*
X132715000Y-74041000D03*
D33*
X113157000Y-84455000D03*
D34*
X121285000Y-89281000D03*
X121285000Y-103505000D03*
D33*
X145288000Y-112522000D03*
D34*
X185420000Y-100838000D03*
X177800000Y-113030000D03*
X92964000Y-107442000D03*
D33*
X99060000Y-78105000D03*
D34*
X122682000Y-86614000D03*
X108712000Y-75565000D03*
X108712000Y-78105000D03*
D33*
X105029000Y-71120000D03*
D34*
X99060000Y-76835000D03*
D35*
X120888759Y-66192400D02*
X121310400Y-66192400D01*
X121310400Y-66192400D02*
X121920000Y-66802000D01*
X121920000Y-66802000D02*
X122764000Y-66802000D01*
X122764000Y-66802000D02*
X124037000Y-68075000D01*
X124037000Y-68075000D02*
X124587000Y-68075000D01*
X121288000Y-68075000D02*
X124587000Y-68075000D01*
X171424600Y-93329759D02*
X171424600Y-93751400D01*
X171424600Y-93751400D02*
X170815000Y-94361000D01*
X170815000Y-94361000D02*
X170815000Y-95075000D01*
X170815000Y-95075000D02*
X169539000Y-96351000D01*
X169539000Y-96351000D02*
X169539000Y-96901000D01*
X169539000Y-93605000D02*
X169539000Y-96901000D01*
D36*
X93107000Y-118364000D02*
X93107000Y-120761000D01*
X93107000Y-120761000D02*
X93091000Y-120777000D01*
X89750000Y-116801000D02*
X91313000Y-118364000D01*
X86868000Y-116801000D02*
X89750000Y-116801000D01*
X91313000Y-118364000D02*
X93107000Y-118364000D01*
D35*
X106834941Y-117094000D02*
X106834941Y-116603059D01*
X106834941Y-116603059D02*
X108207000Y-115231000D01*
X108207000Y-115231000D02*
X108207000Y-114681000D01*
X106324400Y-117998241D02*
X106324400Y-117604541D01*
X106324400Y-117604541D02*
X106834941Y-117094000D01*
X107297315Y-118498619D02*
X108207000Y-117588934D01*
X106324400Y-118498619D02*
X107297315Y-118498619D01*
X108207000Y-117588934D02*
X108207000Y-114681000D01*
D36*
X95631000Y-120777000D02*
X97983000Y-120777000D01*
X97983000Y-120777000D02*
X98044000Y-120838000D01*
X95207000Y-118364000D02*
X95207000Y-120353000D01*
X95207000Y-120353000D02*
X95631000Y-120777000D01*
D35*
X109189515Y-116936515D02*
X108966000Y-116713000D01*
X109220000Y-116936515D02*
X109189515Y-116936515D01*
X122348000Y-65786000D02*
X124076000Y-65786000D01*
X124076000Y-65786000D02*
X124587000Y-65275000D01*
D36*
X124587000Y-62614000D02*
X127251000Y-62614000D01*
X124587000Y-62614000D02*
X124587000Y-64008000D01*
X124587000Y-65275000D02*
X124587000Y-64008000D01*
X119888000Y-64008000D02*
X124587000Y-64008000D01*
D35*
X122555000Y-70958000D02*
X120322000Y-70958000D01*
X120322000Y-70958000D02*
X120230000Y-70866000D01*
X120388381Y-67175381D02*
X121288000Y-68075000D01*
X120388381Y-66192400D02*
X120388381Y-67175381D01*
D36*
X124587000Y-68075000D02*
X131569000Y-68075000D01*
X131569000Y-68075000D02*
X133096000Y-66548000D01*
X123952000Y-69850000D02*
X124587000Y-69215000D01*
X121539000Y-69850000D02*
X123952000Y-69850000D01*
X124587000Y-69215000D02*
X124587000Y-68075000D01*
D35*
X172339000Y-94742000D02*
X172339000Y-96901000D01*
D36*
X173609000Y-96901000D02*
X172339000Y-96901000D01*
X173609000Y-96901000D02*
X174876000Y-96901000D01*
X173609000Y-92329000D02*
X173609000Y-96901000D01*
X147955000Y-91059000D02*
X145415000Y-91059000D01*
X150495000Y-91059000D02*
X147955000Y-91059000D01*
X153035000Y-91059000D02*
X150495000Y-91059000D01*
X152400000Y-84963000D02*
X152400000Y-90424000D01*
X152400000Y-90424000D02*
X153035000Y-91059000D01*
D37*
X131064000Y-101854000D02*
X132696000Y-101854000D01*
X132696000Y-101854000D02*
X132715000Y-101835000D01*
D36*
X138938000Y-83693000D02*
X138938000Y-99187000D01*
D37*
X132715000Y-88265000D02*
X132715000Y-86595000D01*
D36*
X138938000Y-82423000D02*
X138938000Y-83693000D01*
X139995000Y-81366000D02*
X138938000Y-82423000D01*
X142621000Y-81366000D02*
X139995000Y-81366000D01*
X144145000Y-81358000D02*
X142629000Y-81358000D01*
X142629000Y-81358000D02*
X142621000Y-81366000D01*
D38*
X147955000Y-79541000D02*
X146897000Y-79541000D01*
X146897000Y-79541000D02*
X145080000Y-81358000D01*
X145080000Y-81358000D02*
X144985000Y-81358000D01*
D36*
X144985000Y-81358000D02*
X148590000Y-84963000D01*
X148590000Y-84963000D02*
X149352000Y-84963000D01*
X144145000Y-81358000D02*
X144985000Y-81358000D01*
D38*
X147955000Y-78740000D02*
X147955000Y-79541000D01*
X147955000Y-77939000D02*
X147955000Y-78740000D01*
X150368000Y-78740000D02*
X147955000Y-78740000D01*
X150749000Y-74930000D02*
X150368000Y-75311000D01*
X152340000Y-74930000D02*
X150749000Y-74930000D01*
X150368000Y-75311000D02*
X150368000Y-76200000D01*
X150437315Y-79375000D02*
X150437315Y-79715315D01*
X150437315Y-79715315D02*
X150732000Y-80010000D01*
X150732000Y-80010000D02*
X152340000Y-80010000D01*
X150368000Y-78740000D02*
X150368000Y-79305685D01*
X150368000Y-79305685D02*
X150437315Y-79375000D01*
X150368000Y-78740000D02*
X152340000Y-78740000D01*
X152340000Y-76200000D02*
X150368000Y-76200000D01*
D35*
X166497000Y-94742000D02*
X168021000Y-94742000D01*
X166243000Y-94488000D02*
X166497000Y-94742000D01*
X166243000Y-93306000D02*
X166243000Y-94488000D01*
X175793400Y-91328241D02*
X179628759Y-91328241D01*
X179628759Y-91328241D02*
X179832000Y-91125000D01*
D36*
X152400000Y-84963000D02*
X152400000Y-82610000D01*
X152400000Y-82610000D02*
X152340000Y-82550000D01*
X152400000Y-84963000D02*
X149352000Y-84963000D01*
X163830000Y-92409000D02*
X163830000Y-90932000D01*
X166243000Y-93306000D02*
X164727000Y-93306000D01*
X164727000Y-93306000D02*
X163830000Y-92409000D01*
X168021000Y-93306000D02*
X166243000Y-93306000D01*
D35*
X168825000Y-93306000D02*
X169802000Y-92329000D01*
X168021000Y-93306000D02*
X168825000Y-93306000D01*
X169802000Y-92329000D02*
X171424600Y-92329000D01*
D36*
X183050000Y-91059000D02*
X183050000Y-88562000D01*
X183050000Y-88562000D02*
X182880000Y-88392000D01*
X179832000Y-91125000D02*
X182984000Y-91125000D01*
X182984000Y-91125000D02*
X183050000Y-91059000D01*
X178308000Y-89535000D02*
X174117000Y-89535000D01*
X174117000Y-89535000D02*
X173609000Y-90043000D01*
X179832000Y-91059000D02*
X178308000Y-89535000D01*
X179832000Y-91125000D02*
X179832000Y-91059000D01*
X173609000Y-92329000D02*
X173609000Y-90043000D01*
D35*
X170314619Y-92829381D02*
X169539000Y-93605000D01*
D36*
X169539000Y-96901000D02*
X164592000Y-96901000D01*
X164592000Y-96901000D02*
X164084000Y-96393000D01*
X140716000Y-86741000D02*
X140716000Y-96393000D01*
D38*
X133985000Y-103105000D02*
X133985000Y-103378000D01*
X133985000Y-101835000D02*
X133985000Y-103105000D01*
D37*
X133985000Y-91205000D02*
X133985000Y-86595000D01*
X132715000Y-91205000D02*
X133985000Y-91205000D01*
X131191000Y-91186000D02*
X132696000Y-91186000D01*
X132696000Y-91186000D02*
X132715000Y-91205000D01*
X132715000Y-75965000D02*
X133985000Y-75965000D01*
X132715000Y-74041000D02*
X132715000Y-75965000D01*
D36*
X162306000Y-72390000D02*
X162306000Y-75604000D01*
X162306000Y-72390000D02*
X164426000Y-72390000D01*
X164426000Y-72390000D02*
X164465000Y-72429000D01*
X152908000Y-72390000D02*
X156316000Y-72390000D01*
X156316000Y-72390000D02*
X157540000Y-73614000D01*
X157540000Y-73614000D02*
X157540000Y-74930000D01*
X144145000Y-86741000D02*
X140716000Y-86741000D01*
X145711000Y-86741000D02*
X148336000Y-86741000D01*
X144145000Y-86741000D02*
X145711000Y-86741000D01*
D35*
X171424600Y-92829381D02*
X170314619Y-92829381D01*
D36*
X175768000Y-113958000D02*
X175768000Y-112102000D01*
X188214000Y-101854000D02*
X188214000Y-92507000D01*
X188214000Y-92507000D02*
X186766000Y-91059000D01*
X186766000Y-91059000D02*
X185150000Y-91059000D01*
X184708799Y-105359201D02*
X188214000Y-101854000D01*
X180289201Y-105359201D02*
X184708799Y-105359201D01*
X185150000Y-91059000D02*
X185150000Y-88662000D01*
X185150000Y-88662000D02*
X185420000Y-88392000D01*
X175768000Y-110402000D02*
X165442000Y-110402000D01*
X165442000Y-110402000D02*
X164592000Y-111252000D01*
X180289201Y-108915201D02*
X178802402Y-110402000D01*
X180289201Y-105359201D02*
X180289201Y-108915201D01*
X178802402Y-110402000D02*
X175768000Y-110402000D01*
X164592000Y-111252000D02*
X164592000Y-113649000D01*
X164592000Y-113649000D02*
X164322000Y-113919000D01*
X84836000Y-116840000D02*
X86829000Y-116840000D01*
X86829000Y-116840000D02*
X86868000Y-116801000D01*
X86868000Y-115101000D02*
X86868000Y-113333000D01*
X78232000Y-61849000D02*
X78232000Y-57556400D01*
X78232000Y-57556400D02*
X78206600Y-57531000D01*
X78206600Y-57531000D02*
X92661000Y-57531000D01*
X92661000Y-57531000D02*
X96305000Y-61175000D01*
X72542400Y-63195200D02*
X78206600Y-57531000D01*
X96305000Y-61175000D02*
X101854000Y-61175000D01*
X127251000Y-62614000D02*
X132715000Y-57150000D01*
D38*
X118872000Y-103759000D02*
X119361000Y-103759000D01*
X119361000Y-103759000D02*
X120015000Y-103105000D01*
X120015000Y-103105000D02*
X120015000Y-101835000D01*
D36*
X116205000Y-103759000D02*
X118872000Y-103759000D01*
X116078000Y-103632000D02*
X116205000Y-103759000D01*
X115316000Y-102870000D02*
X116078000Y-103632000D01*
X115316000Y-95504000D02*
X115316000Y-102870000D01*
D37*
X121285000Y-89281000D02*
X121285000Y-91205000D01*
D38*
X120015000Y-91205000D02*
X120015000Y-86595000D01*
X120015000Y-91205000D02*
X121285000Y-91205000D01*
X118745000Y-91205000D02*
X120015000Y-91205000D01*
D36*
X115316000Y-89281000D02*
X115316000Y-95504000D01*
X115316000Y-83058000D02*
X115316000Y-89281000D01*
D38*
X108712000Y-75565000D02*
X106840000Y-75565000D01*
X106840000Y-78105000D02*
X108712000Y-78105000D01*
X110490000Y-78193000D02*
X108800000Y-78193000D01*
X108800000Y-78193000D02*
X108712000Y-78105000D01*
X103290000Y-83097000D02*
X101809200Y-83097000D01*
X101809200Y-83097000D02*
X101440000Y-82727800D01*
X101440000Y-82727800D02*
X101440000Y-81915000D01*
D36*
X117436000Y-73522402D02*
X115316000Y-75642402D01*
X117436000Y-72898000D02*
X117436000Y-73522402D01*
X115316000Y-75642402D02*
X115316000Y-83058000D01*
X117436000Y-72898000D02*
X119714000Y-72898000D01*
X119714000Y-72898000D02*
X120230000Y-72382000D01*
D37*
X120015000Y-75965000D02*
X121285000Y-75965000D01*
X120230000Y-72382000D02*
X121285000Y-73437000D01*
X121285000Y-73437000D02*
X121285000Y-75965000D01*
D36*
X120230000Y-70866000D02*
X120230000Y-72382000D01*
D35*
X120230000Y-69088000D02*
X120230000Y-70866000D01*
X119888000Y-66192400D02*
X119888000Y-68746000D01*
X119888000Y-68746000D02*
X120230000Y-69088000D01*
D36*
X117094000Y-59856000D02*
X117094000Y-63309500D01*
X117094000Y-63309500D02*
X117792500Y-64008000D01*
X117792500Y-64008000D02*
X119888000Y-64008000D01*
X118938000Y-57912000D02*
X118938000Y-58012000D01*
X118938000Y-58012000D02*
X117094000Y-59856000D01*
X113538000Y-60071000D02*
X115697000Y-57912000D01*
X110617000Y-62992000D02*
X113538000Y-60071000D01*
X108288000Y-60198000D02*
X113411000Y-60198000D01*
X113411000Y-60198000D02*
X113538000Y-60071000D01*
X108458000Y-62992000D02*
X110617000Y-62992000D01*
X115697000Y-57912000D02*
X118938000Y-57912000D01*
D35*
X118938000Y-57912000D02*
X118938000Y-58916000D01*
X118938000Y-58916000D02*
X118887241Y-58966759D01*
X118887241Y-58966759D02*
X118887241Y-60871100D01*
X118887241Y-60871100D02*
X118887241Y-61823600D01*
D37*
X122682000Y-86614000D02*
X121304000Y-86614000D01*
X121304000Y-86614000D02*
X121285000Y-86595000D01*
X121285000Y-103505000D02*
X121285000Y-101835000D01*
D36*
X113157000Y-84455000D02*
X113157000Y-97790000D01*
D38*
X99060000Y-76835000D02*
X101440000Y-76835000D01*
X109474000Y-72898000D02*
X108960900Y-72898000D01*
X108960900Y-72898000D02*
X107563900Y-74295000D01*
X107563900Y-74295000D02*
X106840000Y-74295000D01*
X109474000Y-72898000D02*
X109347000Y-73025000D01*
X109347000Y-73025000D02*
X106840000Y-73025000D01*
D36*
X109474000Y-72898000D02*
X107696000Y-71120000D01*
X107696000Y-71120000D02*
X105029000Y-71120000D01*
X111926000Y-72898000D02*
X109474000Y-72898000D01*
X111926000Y-72898000D02*
X111926000Y-74464000D01*
X111926000Y-74464000D02*
X113157000Y-75695000D01*
X113157000Y-75695000D02*
X113157000Y-83889315D01*
X113157000Y-83889315D02*
X113157000Y-84455000D01*
X114300000Y-69850000D02*
X111926000Y-72224000D01*
X111926000Y-72224000D02*
X111926000Y-72898000D01*
D37*
X101854000Y-56730000D02*
X101854000Y-59475000D01*
D36*
X103632000Y-61175000D02*
X103632000Y-61138000D01*
X103632000Y-61138000D02*
X104572000Y-60198000D01*
X104572000Y-60198000D02*
X106188000Y-60198000D01*
X101854000Y-61175000D02*
X103632000Y-61175000D01*
X105918000Y-62992000D02*
X104140000Y-62992000D01*
X104140000Y-62992000D02*
X103632000Y-62484000D01*
X103632000Y-62484000D02*
X103632000Y-61175000D01*
X113626000Y-72898000D02*
X115736000Y-72898000D01*
X144145000Y-85041000D02*
X144145000Y-83058000D01*
D35*
X150180600Y-121666000D02*
X150180600Y-123634600D01*
X150180600Y-123634600D02*
X150371000Y-123825000D01*
D36*
X151638000Y-123825000D02*
X150371000Y-123825000D01*
X151638000Y-123825000D02*
X152905000Y-123825000D01*
X151638000Y-119253000D02*
X151638000Y-123825000D01*
X113665000Y-114681000D02*
X108207000Y-114681000D01*
X113665000Y-114681000D02*
X114300000Y-115316000D01*
D35*
X145034000Y-120357000D02*
X145034000Y-121161000D01*
X145034000Y-121161000D02*
X145539000Y-121666000D01*
D36*
X137668000Y-119761000D02*
X137668000Y-121285000D01*
X138391000Y-119038000D02*
X137668000Y-119761000D01*
X141351000Y-119038000D02*
X138391000Y-119038000D01*
X145034000Y-120357000D02*
X143294402Y-120357000D01*
X143294402Y-120357000D02*
X141975402Y-119038000D01*
X141975402Y-119038000D02*
X141351000Y-119038000D01*
D35*
X146812000Y-120357000D02*
X146862000Y-120357000D01*
X146862000Y-120357000D02*
X147966000Y-119253000D01*
X147966000Y-119253000D02*
X148501100Y-119253000D01*
X148501100Y-119253000D02*
X149453600Y-119253000D01*
D36*
X145034000Y-120357000D02*
X146812000Y-120357000D01*
X151638000Y-119253000D02*
X151638000Y-116713000D01*
X151638000Y-116713000D02*
X152146000Y-116205000D01*
X152146000Y-116205000D02*
X155956000Y-116205000D01*
X155956000Y-116205000D02*
X155956000Y-116244000D01*
X155956000Y-116244000D02*
X157761000Y-118049000D01*
X157761000Y-118049000D02*
X157861000Y-118049000D01*
D35*
X156857000Y-118049000D02*
X156653759Y-118252241D01*
X157861000Y-118049000D02*
X156857000Y-118049000D01*
X156653759Y-118252241D02*
X153822400Y-118252241D01*
D36*
X162052000Y-111252000D02*
X162052000Y-113749000D01*
X162052000Y-113749000D02*
X162222000Y-113919000D01*
X162222000Y-113919000D02*
X161991000Y-113919000D01*
X161991000Y-113919000D02*
X157861000Y-118049000D01*
X114300000Y-115316000D02*
X115816000Y-115316000D01*
X114173000Y-115443000D02*
X114300000Y-115316000D01*
X141351000Y-120738000D02*
X141351000Y-122467000D01*
X114300000Y-118911000D02*
X114300000Y-117016000D01*
X104140000Y-114681000D02*
X104140000Y-118999000D01*
X104140000Y-114681000D02*
X102619000Y-114681000D01*
X105407000Y-114681000D02*
X104140000Y-114681000D01*
X121666000Y-121412000D02*
X121666000Y-115316000D01*
D35*
X109220000Y-116936515D02*
X109220000Y-118022000D01*
X105322000Y-115443000D02*
X105322000Y-116726600D01*
D36*
X120777000Y-125603000D02*
X117776000Y-125603000D01*
X121666000Y-124714000D02*
X120777000Y-125603000D01*
X121666000Y-121412000D02*
X121666000Y-124714000D01*
X114300000Y-120611000D02*
X114300000Y-122127000D01*
X114300000Y-122127000D02*
X117776000Y-125603000D01*
D35*
X109220000Y-118022000D02*
X108416000Y-118022000D01*
X108416000Y-118022000D02*
X107439000Y-118999000D01*
X107439000Y-118999000D02*
X107276900Y-118999000D01*
X107276900Y-118999000D02*
X106324400Y-118999000D01*
D36*
X111125000Y-118022000D02*
X109220000Y-118022000D01*
X111125000Y-118022000D02*
X112641000Y-118022000D01*
X112641000Y-118022000D02*
X113041999Y-118422999D01*
X113041999Y-118422999D02*
X113041999Y-119977401D01*
X113041999Y-119977401D02*
X113675598Y-120611000D01*
X113675598Y-120611000D02*
X114300000Y-120611000D01*
D35*
X100472241Y-119999759D02*
X99634000Y-120838000D01*
X99634000Y-120838000D02*
X98044000Y-120838000D01*
X101955600Y-119999759D02*
X100472241Y-119999759D01*
D36*
X99187000Y-121920000D02*
X103314500Y-121920000D01*
X103314500Y-121920000D02*
X104140000Y-121094500D01*
X104140000Y-121094500D02*
X104140000Y-118999000D01*
X98105000Y-120838000D02*
X99187000Y-121920000D01*
X98044000Y-120838000D02*
X98105000Y-120838000D01*
D35*
X109220000Y-119722000D02*
X108416000Y-119722000D01*
X108416000Y-119722000D02*
X108193381Y-119499381D01*
X108193381Y-119499381D02*
X107276900Y-119499381D01*
X107276900Y-119499381D02*
X106324400Y-119499381D01*
D36*
X111125000Y-119722000D02*
X109220000Y-119722000D01*
D35*
X146812000Y-118657000D02*
X147616000Y-118657000D01*
X147616000Y-118657000D02*
X147711619Y-118752619D01*
X147711619Y-118752619D02*
X148501100Y-118752619D01*
X148501100Y-118752619D02*
X149453600Y-118752619D01*
D36*
X145034000Y-118657000D02*
X146812000Y-118657000D01*
D35*
X149453600Y-120253759D02*
X149453600Y-121392400D01*
X149453600Y-121392400D02*
X147571000Y-123275000D01*
X147571000Y-123275000D02*
X147571000Y-123825000D01*
X149453600Y-119753381D02*
X148470619Y-119753381D01*
X148470619Y-119753381D02*
X147955000Y-120269000D01*
X147955000Y-120269000D02*
X147955000Y-121837000D01*
X147955000Y-121837000D02*
X147571000Y-122221000D01*
X147571000Y-122221000D02*
X147571000Y-123825000D01*
D36*
X145755000Y-123825000D02*
X145413000Y-124167000D01*
X147571000Y-123825000D02*
X145755000Y-123825000D01*
X145413000Y-124167000D02*
X141351000Y-124167000D01*
X134366000Y-121412000D02*
X134366000Y-115316000D01*
X138349000Y-125603000D02*
X136398000Y-125603000D01*
X136398000Y-125603000D02*
X134366000Y-123571000D01*
X134366000Y-123571000D02*
X134366000Y-121412000D01*
X141351000Y-124167000D02*
X139785000Y-124167000D01*
X139785000Y-124167000D02*
X138349000Y-125603000D01*
X168021000Y-91606000D02*
X166243000Y-91606000D01*
D35*
X168021000Y-91606000D02*
X169773248Y-91606000D01*
X169773248Y-91606000D02*
X169995867Y-91828619D01*
X169995867Y-91828619D02*
X170472100Y-91828619D01*
X170472100Y-91828619D02*
X171424600Y-91828619D01*
X118530000Y-69088000D02*
X118530000Y-70866000D01*
X119387619Y-66192400D02*
X119387619Y-68180381D01*
X119387619Y-68180381D02*
X118530000Y-69038000D01*
X118530000Y-69038000D02*
X118530000Y-69088000D01*
D36*
X120838000Y-59678000D02*
X120974000Y-59814000D01*
X120974000Y-59814000D02*
X124587000Y-59814000D01*
X112268000Y-55118000D02*
X119810000Y-55118000D01*
X108458000Y-55118000D02*
X112268000Y-55118000D01*
X108288000Y-57658000D02*
X109904000Y-57658000D01*
X109904000Y-57658000D02*
X112268000Y-55294000D01*
X112268000Y-55294000D02*
X112268000Y-55118000D01*
X119810000Y-55118000D02*
X120838000Y-56146000D01*
X120838000Y-56146000D02*
X120838000Y-57912000D01*
D35*
X118618000Y-67564000D02*
X118887241Y-67294759D01*
X118887241Y-67294759D02*
X118887241Y-66192400D01*
X118110000Y-67564000D02*
X118618000Y-67564000D01*
X120396000Y-59690000D02*
X120850000Y-59690000D01*
X119888000Y-59690000D02*
X120396000Y-59690000D01*
X120388381Y-61823600D02*
X120388381Y-59697619D01*
X120388381Y-59697619D02*
X120396000Y-59690000D01*
X120850000Y-59690000D02*
X120974000Y-59814000D01*
X119888000Y-61823600D02*
X119888000Y-59690000D01*
X120838000Y-59678000D02*
X120888759Y-59728759D01*
X120888759Y-59728759D02*
X120888759Y-61823600D01*
D36*
X120838000Y-57912000D02*
X120838000Y-59678000D01*
X120838000Y-59678000D02*
X120850000Y-59690000D01*
X177676000Y-92967000D02*
X177676000Y-96901000D01*
D35*
X175793400Y-92329000D02*
X177038000Y-92329000D01*
X177038000Y-92329000D02*
X177676000Y-92967000D01*
X175793400Y-92829381D02*
X177538381Y-92829381D01*
X177538381Y-92829381D02*
X177676000Y-92967000D01*
X175793400Y-93329759D02*
X177533759Y-93329759D01*
X177533759Y-93329759D02*
X177676000Y-93472000D01*
D36*
X183050000Y-93345000D02*
X183050000Y-96096000D01*
X183050000Y-96096000D02*
X182880000Y-96266000D01*
X177676000Y-92967000D02*
X179774000Y-92967000D01*
X179774000Y-92967000D02*
X179832000Y-93025000D01*
X179832000Y-93025000D02*
X182730000Y-93025000D01*
X182730000Y-93025000D02*
X183050000Y-93345000D01*
D35*
X169926000Y-91116685D02*
X170137556Y-91328241D01*
X170137556Y-91328241D02*
X171424600Y-91328241D01*
X169926000Y-90551000D02*
X169926000Y-91116685D01*
D36*
X171112000Y-115697000D02*
X162887402Y-115697000D01*
X162887402Y-115697000D02*
X158635402Y-119949000D01*
X158635402Y-119949000D02*
X157861000Y-119949000D01*
X170942000Y-118237000D02*
X170942000Y-115867000D01*
X170942000Y-115867000D02*
X171112000Y-115697000D01*
D35*
X153822400Y-119253000D02*
X155067000Y-119253000D01*
X155067000Y-119253000D02*
X155705000Y-119891000D01*
X153822400Y-119753381D02*
X155567381Y-119753381D01*
X155567381Y-119753381D02*
X155705000Y-119891000D01*
D36*
X155705000Y-120523000D02*
X155705000Y-119891000D01*
X155705000Y-122936000D02*
X155705000Y-120523000D01*
D35*
X153822400Y-120253759D02*
X155435759Y-120253759D01*
X155435759Y-120253759D02*
X155705000Y-120523000D01*
X147955000Y-117913685D02*
X148293556Y-118252241D01*
X148293556Y-118252241D02*
X149453600Y-118252241D01*
X147955000Y-117348000D02*
X147955000Y-117913685D01*
D36*
X155705000Y-119891000D02*
X157803000Y-119891000D01*
X99819000Y-117983000D02*
X99819000Y-114681000D01*
X94572000Y-115316000D02*
X94572000Y-112946000D01*
X94572000Y-112946000D02*
X94742000Y-112776000D01*
X98044000Y-118938000D02*
X98044000Y-118788000D01*
X98044000Y-118788000D02*
X94572000Y-115316000D01*
D35*
X101955600Y-118999000D02*
X99889000Y-118999000D01*
X99889000Y-118999000D02*
X99819000Y-118929000D01*
X101955600Y-118498619D02*
X100334619Y-118498619D01*
X100334619Y-118498619D02*
X99819000Y-117983000D01*
D36*
X99819000Y-117983000D02*
X99819000Y-118929000D01*
D35*
X101955600Y-117998241D02*
X101003100Y-117998241D01*
X101003100Y-117998241D02*
X100987859Y-117983000D01*
X100987859Y-117983000D02*
X99819000Y-117983000D01*
D36*
X99819000Y-118929000D02*
X99810000Y-118938000D01*
X99810000Y-118938000D02*
X98044000Y-118938000D01*
D35*
X107696000Y-120338315D02*
X107357444Y-119999759D01*
X107357444Y-119999759D02*
X106324400Y-119999759D01*
X107696000Y-120904000D02*
X107696000Y-120338315D01*
D38*
X86208000Y-72238000D02*
X87490500Y-72238000D01*
X82804000Y-68834000D02*
X86208000Y-72238000D01*
X87490500Y-72238000D02*
X88900000Y-72238000D01*
X86639000Y-75082000D02*
X77495400Y-65938400D01*
X88900000Y-75082000D02*
X86639000Y-75082000D01*
X77495400Y-65938400D02*
X72542400Y-65938400D01*
X97663000Y-75565000D02*
X101440000Y-75565000D01*
X118745000Y-75965000D02*
X118745000Y-74422000D01*
X117221000Y-86614000D02*
X118726000Y-86614000D01*
X118726000Y-86614000D02*
X118745000Y-86595000D01*
X86487000Y-77470000D02*
X87782000Y-77470000D01*
X87782000Y-77470000D02*
X88900000Y-78588000D01*
X76048100Y-68681600D02*
X72542400Y-68681600D01*
X105360000Y-84786000D02*
X106840000Y-83306000D01*
X106840000Y-83306000D02*
X106840000Y-81915000D01*
X88900000Y-84786000D02*
X105360000Y-84786000D01*
X77114500Y-75946000D02*
X69596000Y-75946000D01*
X69596000Y-75946000D02*
X67183000Y-73533000D01*
X67183000Y-73533000D02*
X67183000Y-72567800D01*
X67183000Y-72567800D02*
X69697600Y-70053200D01*
X88798500Y-87630000D02*
X77114500Y-75946000D01*
X110109000Y-81661000D02*
X109093000Y-80645000D01*
X109093000Y-80645000D02*
X106840000Y-80645000D01*
X110109000Y-84455000D02*
X110109000Y-81661000D01*
X108839000Y-85725000D02*
X110109000Y-84455000D01*
X92214500Y-85725000D02*
X108839000Y-85725000D01*
X88900000Y-87630000D02*
X90309500Y-87630000D01*
X90309500Y-87630000D02*
X92214500Y-85725000D01*
X112522000Y-101854000D02*
X111633000Y-100965000D01*
X111633000Y-100965000D02*
X111633000Y-80391000D01*
X113157000Y-101854000D02*
X112522000Y-101854000D01*
X110617000Y-79375000D02*
X111633000Y-80391000D01*
X108376700Y-79375000D02*
X110617000Y-79375000D01*
X106840000Y-79375000D02*
X108376700Y-79375000D01*
X108712000Y-76835000D02*
X109054000Y-76493000D01*
X109054000Y-76493000D02*
X110490000Y-76493000D01*
X106840000Y-76835000D02*
X108712000Y-76835000D01*
X164465000Y-74129000D02*
X164465000Y-76200000D01*
X167640000Y-74930000D02*
X165266000Y-74930000D01*
X165266000Y-74930000D02*
X164465000Y-74129000D01*
X157540000Y-76200000D02*
X159639000Y-76200000D01*
X148883000Y-76239000D02*
X150114000Y-77470000D01*
X150114000Y-77470000D02*
X152340000Y-77470000D01*
X147955000Y-76239000D02*
X148883000Y-76239000D01*
X159639000Y-70866000D02*
X160782000Y-72009000D01*
X137160000Y-70866000D02*
X159639000Y-70866000D01*
X135255000Y-72771000D02*
X137160000Y-70866000D01*
X135255000Y-75965000D02*
X135255000Y-72771000D01*
X160782000Y-77470000D02*
X160782000Y-77216000D01*
X160782000Y-77216000D02*
X160782000Y-72263000D01*
X160782000Y-72009000D02*
X160782000Y-77216000D01*
X160782000Y-79375000D02*
X160782000Y-77470000D01*
X157540000Y-77470000D02*
X159148000Y-77470000D01*
X159148000Y-77470000D02*
X160782000Y-77470000D01*
X160147000Y-80010000D02*
X160782000Y-79375000D01*
X157540000Y-80010000D02*
X160147000Y-80010000D01*
X159766000Y-83242685D02*
X159766000Y-93726000D01*
X159766000Y-93726000D02*
X159766000Y-95631000D01*
X157099000Y-99314000D02*
X153822000Y-99314000D01*
X153822000Y-99314000D02*
X153670000Y-99162000D01*
X159639000Y-82550000D02*
X159639000Y-83115685D01*
X159639000Y-83115685D02*
X159766000Y-83242685D01*
X159766000Y-95631000D02*
X159131000Y-95631000D01*
X159131000Y-95631000D02*
X157099000Y-97663000D01*
X157099000Y-97663000D02*
X157099000Y-99314000D01*
X157540000Y-78740000D02*
X159639000Y-78740000D01*
X147955000Y-81241000D02*
X152301000Y-81241000D01*
X152301000Y-81241000D02*
X152340000Y-81280000D01*
X162306000Y-77304000D02*
X167474000Y-77304000D01*
X167474000Y-77304000D02*
X167640000Y-77470000D01*
X162306000Y-77304000D02*
X162306000Y-80001202D01*
X162306000Y-80001202D02*
X161027202Y-81280000D01*
X161027202Y-81280000D02*
X159148000Y-81280000D01*
X159148000Y-81280000D02*
X157540000Y-81280000D01*
X147066000Y-99314000D02*
X150343000Y-99314000D01*
X150343000Y-99314000D02*
X150495000Y-99162000D01*
X151384000Y-96774000D02*
X150495000Y-95885000D01*
X150495000Y-95885000D02*
X150495000Y-93599000D01*
X157540000Y-94301000D02*
X155067000Y-96774000D01*
X157540000Y-82550000D02*
X157540000Y-94301000D01*
X155067000Y-96774000D02*
X151384000Y-96774000D01*
X151384000Y-96774000D02*
X150495000Y-97663000D01*
X150495000Y-97663000D02*
X150495000Y-99162000D01*
X137287000Y-106401000D02*
X134391000Y-106401000D01*
X134391000Y-106401000D02*
X134239000Y-106553000D01*
X137287000Y-100965000D02*
X137287000Y-106401000D01*
X137287000Y-89916000D02*
X137287000Y-95123000D01*
X137287000Y-95123000D02*
X137287000Y-100965000D01*
X135255000Y-87884000D02*
X137287000Y-89916000D01*
X135255000Y-87757000D02*
X135255000Y-87884000D01*
X135255000Y-86595000D02*
X135255000Y-87757000D01*
X126238000Y-106299000D02*
X129134000Y-106299000D01*
X129134000Y-106299000D02*
X129286000Y-106147000D01*
X131905799Y-104251201D02*
X131283299Y-104251201D01*
X131283299Y-104251201D02*
X131267500Y-104267000D01*
X131267500Y-104267000D02*
X129858000Y-104267000D01*
X129858000Y-104267000D02*
X129286000Y-104839000D01*
X129286000Y-104839000D02*
X129286000Y-106147000D01*
X135255000Y-104251201D02*
X131905799Y-104251201D01*
X131905799Y-104251201D02*
X131890000Y-104267000D01*
X135255000Y-103371922D02*
X135255000Y-104251201D01*
X135255000Y-104267000D02*
X135255000Y-104251201D01*
X135255000Y-101835000D02*
X135255000Y-103371922D01*
X135255000Y-89662000D02*
X135255000Y-91205000D01*
X129286000Y-115316000D02*
X129286000Y-121412000D01*
X129286000Y-108991000D02*
X129286000Y-115316000D01*
X126238000Y-108839000D02*
X129134000Y-108839000D01*
X129134000Y-108839000D02*
X129286000Y-108991000D01*
X153670000Y-102006000D02*
X153670000Y-104750000D01*
X157099000Y-104902000D02*
X153822000Y-104902000D01*
X153822000Y-104902000D02*
X153670000Y-104750000D01*
X153670000Y-102006000D02*
X156947000Y-102006000D01*
X156947000Y-102006000D02*
X157099000Y-101854000D01*
X150495000Y-102006000D02*
X150495000Y-104750000D01*
X150495000Y-102006000D02*
X147218000Y-102006000D01*
X147218000Y-102006000D02*
X147066000Y-101854000D01*
X147066000Y-104902000D02*
X150343000Y-104902000D01*
X150343000Y-104902000D02*
X150495000Y-104750000D01*
X139827000Y-110338000D02*
X142469000Y-110338000D01*
X142469000Y-110338000D02*
X142621000Y-110490000D01*
X137287000Y-109245000D02*
X138734000Y-109245000D01*
X138734000Y-109245000D02*
X139827000Y-110338000D01*
X134239000Y-109093000D02*
X137135000Y-109093000D01*
X137135000Y-109093000D02*
X137287000Y-109245000D01*
X131826000Y-115316000D02*
X131826000Y-116752840D01*
X131826000Y-116752840D02*
X131826000Y-121412000D01*
X139827000Y-113182000D02*
X132523160Y-113182000D01*
X132523160Y-113182000D02*
X131826000Y-113879160D01*
X131826000Y-113879160D02*
X131826000Y-115316000D01*
X142621000Y-113030000D02*
X139979000Y-113030000D01*
X139979000Y-113030000D02*
X139827000Y-113182000D01*
X151130000Y-111379000D02*
X151695685Y-111379000D01*
X151695685Y-111379000D02*
X153670000Y-109404685D01*
X153670000Y-109404685D02*
X153670000Y-108902000D01*
X153670000Y-108902000D02*
X153670000Y-107594000D01*
X153670000Y-107594000D02*
X156947000Y-107594000D01*
X156947000Y-107594000D02*
X157099000Y-107442000D01*
D39*
X117094000Y-101854000D02*
X118726000Y-101854000D01*
X118726000Y-101854000D02*
X118745000Y-101835000D01*
D38*
X99060000Y-78105000D02*
X101440000Y-78105000D01*
D39*
X88798500Y-87630000D02*
X88900000Y-87630000D01*
D38*
X145288000Y-112522000D02*
X145853685Y-112522000D01*
X145853685Y-112522000D02*
X147066000Y-111309685D01*
X147066000Y-111309685D02*
X147066000Y-109093000D01*
X147066000Y-109093000D02*
X147066000Y-107442000D01*
X150495000Y-107594000D02*
X147218000Y-107594000D01*
X147218000Y-107594000D02*
X147066000Y-107442000D01*
D36*
X101854000Y-55030000D02*
X76491200Y-55030000D01*
X76491200Y-55030000D02*
X69697600Y-61823600D01*
X103632000Y-55030000D02*
X105830000Y-55030000D01*
X101854000Y-55030000D02*
X103632000Y-55030000D01*
X106188000Y-57658000D02*
X104572000Y-57658000D01*
X104572000Y-57658000D02*
X103632000Y-56718000D01*
X103632000Y-56718000D02*
X103632000Y-55030000D01*
X105830000Y-55030000D02*
X105918000Y-55118000D01*
X173482000Y-118237000D02*
X173482000Y-115967000D01*
X173482000Y-115967000D02*
X173212000Y-115697000D01*
X175768000Y-115658000D02*
X173251000Y-115658000D01*
X173251000Y-115658000D02*
X173212000Y-115697000D01*
X185420000Y-100838000D02*
X185420000Y-96266000D01*
X185150000Y-93345000D02*
X185150000Y-95996000D01*
X185150000Y-95996000D02*
X185420000Y-96266000D01*
X177800000Y-113030000D02*
X177800000Y-115192000D01*
X177800000Y-115192000D02*
X177334000Y-115658000D01*
X177334000Y-115658000D02*
X175768000Y-115658000D01*
X68260760Y-107746800D02*
X69697600Y-107746800D01*
X66167000Y-105653040D02*
X66167000Y-103505000D01*
X68260760Y-107746800D02*
X66167000Y-105653040D01*
X87757000Y-102235000D02*
X92964000Y-107442000D01*
X66167000Y-103505000D02*
X67437000Y-102235000D01*
X67437000Y-102235000D02*
X87757000Y-102235000D01*
D39*
X104140000Y-118999000D02*
X104140000Y-119113300D01*
X104140000Y-119113300D02*
X103289218Y-119964082D01*
D38*
X76048100Y-68681600D02*
X88798500Y-81432000D01*
D39*
X88798500Y-81432000D02*
X88900000Y-81432000D01*
D38*
X72542400Y-71424800D02*
X75437300Y-71424800D01*
X75437300Y-71424800D02*
X88798500Y-84786000D01*
D39*
X108712000Y-78105000D02*
X108712000Y-78232000D01*
X119888000Y-63772859D02*
X119888000Y-64008000D01*
X119214000Y-64682000D02*
X119888000Y-64008000D01*
X118887241Y-66192400D02*
X118887241Y-66751200D01*
D38*
X91288000Y-72238000D02*
X92075000Y-73025000D01*
X92075000Y-73025000D02*
X101440000Y-73025000D01*
X88900000Y-72238000D02*
X91288000Y-72238000D01*
X91288000Y-75082000D02*
X92075000Y-74295000D01*
X92075000Y-74295000D02*
X101440000Y-74295000D01*
X88900000Y-75082000D02*
X91288000Y-75082000D01*
X94209000Y-78588000D02*
X94996000Y-79375000D01*
X94996000Y-79375000D02*
X101440000Y-79375000D01*
X88900000Y-78588000D02*
X94209000Y-78588000D01*
X94209000Y-81432000D02*
X94996000Y-80645000D01*
X94996000Y-80645000D02*
X101440000Y-80645000D01*
X88900000Y-81432000D02*
X94209000Y-81432000D01*
D36*
X73507601Y-116992399D02*
X74625200Y-115874800D01*
X74625200Y-115874800D02*
X74625200Y-114604800D01*
X69697600Y-115976400D02*
X70713599Y-116992399D01*
X70713599Y-116992399D02*
X73507601Y-116992399D01*
X74625200Y-114604800D02*
X77597000Y-111633000D01*
X77597000Y-111633000D02*
X86868000Y-111633000D01*
X72542400Y-114604800D02*
X74625200Y-114604800D01*
X86868000Y-111633000D02*
X91059000Y-111633000D01*
X91059000Y-111633000D02*
X92202000Y-112776000D01*
X92472000Y-115316000D02*
X92472000Y-113046000D01*
X92472000Y-113046000D02*
X92202000Y-112776000D01*
D35*
G36*
X98384000Y-114395250D02*
X98542750Y-114554000D01*
X99692000Y-114554000D01*
X99692000Y-114534000D01*
X99946000Y-114534000D01*
X99946000Y-114554000D01*
X99966000Y-114554000D01*
X99966000Y-114808000D01*
X99946000Y-114808000D01*
X99946000Y-116507250D01*
X100104750Y-116666000D01*
X100457000Y-116666000D01*
X100457000Y-117221000D01*
X100466667Y-117269601D01*
X100494197Y-117310803D01*
X100535399Y-117338333D01*
X100584000Y-117348000D01*
X100869616Y-117348000D01*
X100718773Y-117498842D01*
X100622100Y-117732231D01*
X100622100Y-117769641D01*
X100780850Y-117928391D01*
X100789602Y-117928391D01*
X100718773Y-117999220D01*
X100626179Y-118222762D01*
X100622100Y-118226841D01*
X100622100Y-118270019D01*
X100626179Y-118274098D01*
X100718773Y-118497640D01*
X100719754Y-118498621D01*
X100718773Y-118499601D01*
X100626181Y-118723138D01*
X100622100Y-118727219D01*
X100622100Y-118770400D01*
X100626181Y-118774481D01*
X100718773Y-118998018D01*
X100719755Y-118999000D01*
X99441000Y-118999000D01*
X99441000Y-118237000D01*
X99431333Y-118188399D01*
X99429000Y-118184907D01*
X99429000Y-118161691D01*
X99332327Y-117928302D01*
X99153699Y-117749673D01*
X98920310Y-117653000D01*
X98909606Y-117653000D01*
X98044000Y-116787394D01*
X98044000Y-114966750D01*
X98384000Y-114966750D01*
X98384000Y-116157310D01*
X98480673Y-116390699D01*
X98659302Y-116569327D01*
X98892691Y-116666000D01*
X99533250Y-116666000D01*
X99692000Y-116507250D01*
X99692000Y-114808000D01*
X98542750Y-114808000D01*
X98384000Y-114966750D01*
X98044000Y-114966750D01*
X98044000Y-113411000D01*
X98384000Y-113411000D01*
X98384000Y-114395250D01*
X98384000Y-114395250D01*
G37*
X98384000Y-114395250D02*
X98542750Y-114554000D01*
X99692000Y-114554000D01*
X99692000Y-114534000D01*
X99946000Y-114534000D01*
X99946000Y-114554000D01*
X99966000Y-114554000D01*
X99966000Y-114808000D01*
X99946000Y-114808000D01*
X99946000Y-116507250D01*
X100104750Y-116666000D01*
X100457000Y-116666000D01*
X100457000Y-117221000D01*
X100466667Y-117269601D01*
X100494197Y-117310803D01*
X100535399Y-117338333D01*
X100584000Y-117348000D01*
X100869616Y-117348000D01*
X100718773Y-117498842D01*
X100622100Y-117732231D01*
X100622100Y-117769641D01*
X100780850Y-117928391D01*
X100789602Y-117928391D01*
X100718773Y-117999220D01*
X100626179Y-118222762D01*
X100622100Y-118226841D01*
X100622100Y-118270019D01*
X100626179Y-118274098D01*
X100718773Y-118497640D01*
X100719754Y-118498621D01*
X100718773Y-118499601D01*
X100626181Y-118723138D01*
X100622100Y-118727219D01*
X100622100Y-118770400D01*
X100626181Y-118774481D01*
X100718773Y-118998018D01*
X100719755Y-118999000D01*
X99441000Y-118999000D01*
X99441000Y-118237000D01*
X99431333Y-118188399D01*
X99429000Y-118184907D01*
X99429000Y-118161691D01*
X99332327Y-117928302D01*
X99153699Y-117749673D01*
X98920310Y-117653000D01*
X98909606Y-117653000D01*
X98044000Y-116787394D01*
X98044000Y-114966750D01*
X98384000Y-114966750D01*
X98384000Y-116157310D01*
X98480673Y-116390699D01*
X98659302Y-116569327D01*
X98892691Y-116666000D01*
X99533250Y-116666000D01*
X99692000Y-116507250D01*
X99692000Y-114808000D01*
X98542750Y-114808000D01*
X98384000Y-114966750D01*
X98044000Y-114966750D01*
X98044000Y-113411000D01*
X98384000Y-113411000D01*
X98384000Y-114395250D01*
G36*
X102082600Y-118137941D02*
X101828600Y-118137941D01*
X101828600Y-117858541D01*
X102082600Y-117858541D01*
X102082600Y-118137941D01*
X102082600Y-118137941D01*
G37*
X102082600Y-118137941D02*
X101828600Y-118137941D01*
X101828600Y-117858541D01*
X102082600Y-117858541D01*
X102082600Y-118137941D01*
G36*
X104130750Y-114554000D02*
X105280000Y-114554000D01*
X105280000Y-114534000D01*
X105534000Y-114534000D01*
X105534000Y-114554000D01*
X105554000Y-114554000D01*
X105554000Y-114808000D01*
X105534000Y-114808000D01*
X105534000Y-116507250D01*
X105692750Y-116666000D01*
X105714466Y-116666000D01*
X105399755Y-117256084D01*
X105378135Y-117260384D01*
X105299744Y-117312764D01*
X105231509Y-117284500D01*
X104425750Y-117284500D01*
X104267000Y-117443250D01*
X104267000Y-117856000D01*
X104013000Y-117856000D01*
X104013000Y-117443250D01*
X103854250Y-117284500D01*
X103251000Y-117284500D01*
X103251000Y-116666000D01*
X103545309Y-116666000D01*
X103778698Y-116569327D01*
X103957327Y-116390699D01*
X104013000Y-116256293D01*
X104068673Y-116390699D01*
X104247302Y-116569327D01*
X104480691Y-116666000D01*
X105121250Y-116666000D01*
X105280000Y-116507250D01*
X105280000Y-114808000D01*
X104130750Y-114808000D01*
X104013000Y-114925750D01*
X103895250Y-114808000D01*
X102746000Y-114808000D01*
X102746000Y-114828000D01*
X102492000Y-114828000D01*
X102492000Y-114808000D01*
X102472000Y-114808000D01*
X102472000Y-114554000D01*
X102492000Y-114554000D01*
X102492000Y-114534000D01*
X102746000Y-114534000D01*
X102746000Y-114554000D01*
X103895250Y-114554000D01*
X104013000Y-114436250D01*
X104130750Y-114554000D01*
X104130750Y-114554000D01*
G37*
X104130750Y-114554000D02*
X105280000Y-114554000D01*
X105280000Y-114534000D01*
X105534000Y-114534000D01*
X105534000Y-114554000D01*
X105554000Y-114554000D01*
X105554000Y-114808000D01*
X105534000Y-114808000D01*
X105534000Y-116507250D01*
X105692750Y-116666000D01*
X105714466Y-116666000D01*
X105399755Y-117256084D01*
X105378135Y-117260384D01*
X105299744Y-117312764D01*
X105231509Y-117284500D01*
X104425750Y-117284500D01*
X104267000Y-117443250D01*
X104267000Y-117856000D01*
X104013000Y-117856000D01*
X104013000Y-117443250D01*
X103854250Y-117284500D01*
X103251000Y-117284500D01*
X103251000Y-116666000D01*
X103545309Y-116666000D01*
X103778698Y-116569327D01*
X103957327Y-116390699D01*
X104013000Y-116256293D01*
X104068673Y-116390699D01*
X104247302Y-116569327D01*
X104480691Y-116666000D01*
X105121250Y-116666000D01*
X105280000Y-116507250D01*
X105280000Y-114808000D01*
X104130750Y-114808000D01*
X104013000Y-114925750D01*
X103895250Y-114808000D01*
X102746000Y-114808000D01*
X102746000Y-114828000D01*
X102492000Y-114828000D01*
X102492000Y-114808000D01*
X102472000Y-114808000D01*
X102472000Y-114554000D01*
X102492000Y-114554000D01*
X102492000Y-114534000D01*
X102746000Y-114534000D01*
X102746000Y-114554000D01*
X103895250Y-114554000D01*
X104013000Y-114436250D01*
X104130750Y-114554000D01*
G36*
X104267000Y-118872000D02*
X104287000Y-118872000D01*
X104287000Y-119126000D01*
X104267000Y-119126000D01*
X104267000Y-120554750D01*
X104425750Y-120713500D01*
X105029000Y-120713500D01*
X105029000Y-123444000D01*
X99314000Y-123444000D01*
X99314000Y-121866025D01*
X99332327Y-121847698D01*
X99429000Y-121614309D01*
X99429000Y-121123750D01*
X99314000Y-121008750D01*
X99314000Y-120667250D01*
X99429000Y-120552250D01*
X99429000Y-120081000D01*
X99810000Y-120081000D01*
X100141803Y-120015000D01*
X100622100Y-120015000D01*
X100622100Y-120126761D01*
X100723698Y-120126761D01*
X100622100Y-120228359D01*
X100622100Y-120265769D01*
X100718773Y-120499158D01*
X100897402Y-120677786D01*
X101130791Y-120774459D01*
X101669850Y-120774459D01*
X101828600Y-120615709D01*
X101828600Y-120286521D01*
X102082600Y-120286521D01*
X102082600Y-120615709D01*
X102241350Y-120774459D01*
X102780409Y-120774459D01*
X102988034Y-120688458D01*
X103048491Y-120713500D01*
X103854250Y-120713500D01*
X104013000Y-120554750D01*
X104013000Y-119126000D01*
X103993000Y-119126000D01*
X103993000Y-118872000D01*
X104013000Y-118872000D01*
X104013000Y-118852000D01*
X104267000Y-118852000D01*
X104267000Y-118872000D01*
X104267000Y-118872000D01*
G37*
X104267000Y-118872000D02*
X104287000Y-118872000D01*
X104287000Y-119126000D01*
X104267000Y-119126000D01*
X104267000Y-120554750D01*
X104425750Y-120713500D01*
X105029000Y-120713500D01*
X105029000Y-123444000D01*
X99314000Y-123444000D01*
X99314000Y-121866025D01*
X99332327Y-121847698D01*
X99429000Y-121614309D01*
X99429000Y-121123750D01*
X99314000Y-121008750D01*
X99314000Y-120667250D01*
X99429000Y-120552250D01*
X99429000Y-120081000D01*
X99810000Y-120081000D01*
X100141803Y-120015000D01*
X100622100Y-120015000D01*
X100622100Y-120126761D01*
X100723698Y-120126761D01*
X100622100Y-120228359D01*
X100622100Y-120265769D01*
X100718773Y-120499158D01*
X100897402Y-120677786D01*
X101130791Y-120774459D01*
X101669850Y-120774459D01*
X101828600Y-120615709D01*
X101828600Y-120286521D01*
X102082600Y-120286521D01*
X102082600Y-120615709D01*
X102241350Y-120774459D01*
X102780409Y-120774459D01*
X102988034Y-120688458D01*
X103048491Y-120713500D01*
X103854250Y-120713500D01*
X104013000Y-120554750D01*
X104013000Y-119126000D01*
X103993000Y-119126000D01*
X103993000Y-118872000D01*
X104013000Y-118872000D01*
X104013000Y-118852000D01*
X104267000Y-118852000D01*
X104267000Y-118872000D01*
G36*
X151765000Y-120808750D02*
X151923750Y-120967500D01*
X152729509Y-120967500D01*
X152733445Y-120965870D01*
X153177257Y-121853493D01*
X153032000Y-121998750D01*
X153032000Y-123698000D01*
X153052000Y-123698000D01*
X153052000Y-123952000D01*
X153032000Y-123952000D01*
X153032000Y-123972000D01*
X152778000Y-123972000D01*
X152778000Y-123952000D01*
X150498000Y-123952000D01*
X150498000Y-123972000D01*
X150244000Y-123972000D01*
X150244000Y-123952000D01*
X150224000Y-123952000D01*
X150224000Y-123698000D01*
X150244000Y-123698000D01*
X150244000Y-121998750D01*
X150498000Y-121998750D01*
X150498000Y-123698000D01*
X152778000Y-123698000D01*
X152778000Y-121998750D01*
X152619250Y-121840000D01*
X151978691Y-121840000D01*
X151745302Y-121936673D01*
X151638000Y-122043974D01*
X151530698Y-121936673D01*
X151297309Y-121840000D01*
X150656750Y-121840000D01*
X150498000Y-121998750D01*
X150244000Y-121998750D01*
X150153265Y-121908015D01*
X150730161Y-120970560D01*
X150731027Y-120967500D01*
X151352250Y-120967500D01*
X151511000Y-120808750D01*
X151511000Y-120396000D01*
X151765000Y-120396000D01*
X151765000Y-120808750D01*
X151765000Y-120808750D01*
G37*
X151765000Y-120808750D02*
X151923750Y-120967500D01*
X152729509Y-120967500D01*
X152733445Y-120965870D01*
X153177257Y-121853493D01*
X153032000Y-121998750D01*
X153032000Y-123698000D01*
X153052000Y-123698000D01*
X153052000Y-123952000D01*
X153032000Y-123952000D01*
X153032000Y-123972000D01*
X152778000Y-123972000D01*
X152778000Y-123952000D01*
X150498000Y-123952000D01*
X150498000Y-123972000D01*
X150244000Y-123972000D01*
X150244000Y-123952000D01*
X150224000Y-123952000D01*
X150224000Y-123698000D01*
X150244000Y-123698000D01*
X150244000Y-121998750D01*
X150498000Y-121998750D01*
X150498000Y-123698000D01*
X152778000Y-123698000D01*
X152778000Y-121998750D01*
X152619250Y-121840000D01*
X151978691Y-121840000D01*
X151745302Y-121936673D01*
X151638000Y-122043974D01*
X151530698Y-121936673D01*
X151297309Y-121840000D01*
X150656750Y-121840000D01*
X150498000Y-121998750D01*
X150244000Y-121998750D01*
X150153265Y-121908015D01*
X150730161Y-120970560D01*
X150731027Y-120967500D01*
X151352250Y-120967500D01*
X151511000Y-120808750D01*
X151511000Y-120396000D01*
X151765000Y-120396000D01*
X151765000Y-120808750D01*
G36*
X158496000Y-116764000D02*
X158146750Y-116764000D01*
X157988000Y-116922750D01*
X157988000Y-117922000D01*
X158008000Y-117922000D01*
X158008000Y-118176000D01*
X157988000Y-118176000D01*
X157988000Y-118196000D01*
X157734000Y-118196000D01*
X157734000Y-118176000D01*
X156634750Y-118176000D01*
X156543462Y-118267288D01*
X156512601Y-118246667D01*
X156464000Y-118237000D01*
X155155900Y-118237000D01*
X155155900Y-118125239D01*
X155054302Y-118125239D01*
X155155900Y-118023641D01*
X155155900Y-117986231D01*
X155059227Y-117752842D01*
X154880598Y-117574214D01*
X154647209Y-117477541D01*
X154108150Y-117477541D01*
X153949400Y-117636291D01*
X153949400Y-117965479D01*
X153695400Y-117965479D01*
X153695400Y-117636291D01*
X153536650Y-117477541D01*
X152997591Y-117477541D01*
X152789966Y-117563542D01*
X152729509Y-117538500D01*
X151923750Y-117538500D01*
X151765000Y-117697250D01*
X151765000Y-118491000D01*
X151511000Y-118491000D01*
X151511000Y-117697250D01*
X151352250Y-117538500D01*
X150749000Y-117538500D01*
X150749000Y-117272691D01*
X156476000Y-117272691D01*
X156476000Y-117763250D01*
X156634750Y-117922000D01*
X157734000Y-117922000D01*
X157734000Y-116922750D01*
X157575250Y-116764000D01*
X156984690Y-116764000D01*
X156751301Y-116860673D01*
X156572673Y-117039302D01*
X156476000Y-117272691D01*
X150749000Y-117272691D01*
X150749000Y-115824000D01*
X158496000Y-115824000D01*
X158496000Y-116764000D01*
X158496000Y-116764000D01*
G37*
X158496000Y-116764000D02*
X158146750Y-116764000D01*
X157988000Y-116922750D01*
X157988000Y-117922000D01*
X158008000Y-117922000D01*
X158008000Y-118176000D01*
X157988000Y-118176000D01*
X157988000Y-118196000D01*
X157734000Y-118196000D01*
X157734000Y-118176000D01*
X156634750Y-118176000D01*
X156543462Y-118267288D01*
X156512601Y-118246667D01*
X156464000Y-118237000D01*
X155155900Y-118237000D01*
X155155900Y-118125239D01*
X155054302Y-118125239D01*
X155155900Y-118023641D01*
X155155900Y-117986231D01*
X155059227Y-117752842D01*
X154880598Y-117574214D01*
X154647209Y-117477541D01*
X154108150Y-117477541D01*
X153949400Y-117636291D01*
X153949400Y-117965479D01*
X153695400Y-117965479D01*
X153695400Y-117636291D01*
X153536650Y-117477541D01*
X152997591Y-117477541D01*
X152789966Y-117563542D01*
X152729509Y-117538500D01*
X151923750Y-117538500D01*
X151765000Y-117697250D01*
X151765000Y-118491000D01*
X151511000Y-118491000D01*
X151511000Y-117697250D01*
X151352250Y-117538500D01*
X150749000Y-117538500D01*
X150749000Y-117272691D01*
X156476000Y-117272691D01*
X156476000Y-117763250D01*
X156634750Y-117922000D01*
X157734000Y-117922000D01*
X157734000Y-116922750D01*
X157575250Y-116764000D01*
X156984690Y-116764000D01*
X156751301Y-116860673D01*
X156572673Y-117039302D01*
X156476000Y-117272691D01*
X150749000Y-117272691D01*
X150749000Y-115824000D01*
X158496000Y-115824000D01*
X158496000Y-116764000D01*
G36*
X98171000Y-120711000D02*
X98191000Y-120711000D01*
X98191000Y-120965000D01*
X98171000Y-120965000D01*
X98171000Y-121964250D01*
X98329750Y-122123000D01*
X98920310Y-122123000D01*
X99060000Y-122065138D01*
X99060000Y-123444000D01*
X97531383Y-123444000D01*
X97482457Y-122123000D01*
X97758250Y-122123000D01*
X97917000Y-121964250D01*
X97917000Y-120965000D01*
X97897000Y-120965000D01*
X97897000Y-120711000D01*
X97917000Y-120711000D01*
X97917000Y-120691000D01*
X98171000Y-120691000D01*
X98171000Y-120711000D01*
X98171000Y-120711000D01*
G37*
X98171000Y-120711000D02*
X98191000Y-120711000D01*
X98191000Y-120965000D01*
X98171000Y-120965000D01*
X98171000Y-121964250D01*
X98329750Y-122123000D01*
X98920310Y-122123000D01*
X99060000Y-122065138D01*
X99060000Y-123444000D01*
X97531383Y-123444000D01*
X97482457Y-122123000D01*
X97758250Y-122123000D01*
X97917000Y-121964250D01*
X97917000Y-120965000D01*
X97897000Y-120965000D01*
X97897000Y-120711000D01*
X97917000Y-120711000D01*
X97917000Y-120691000D01*
X98171000Y-120691000D01*
X98171000Y-120711000D01*
G36*
X156247197Y-119342803D02*
X156288399Y-119370333D01*
X156337000Y-119380000D01*
X156476000Y-119380000D01*
X156476000Y-119663250D01*
X156634750Y-119822000D01*
X157734000Y-119822000D01*
X157734000Y-119802000D01*
X157988000Y-119802000D01*
X157988000Y-119822000D01*
X158008000Y-119822000D01*
X158008000Y-120076000D01*
X157988000Y-120076000D01*
X157988000Y-121075250D01*
X158146750Y-121234000D01*
X158496000Y-121234000D01*
X158496000Y-125095000D01*
X157140000Y-125095000D01*
X157140000Y-124110750D01*
X156981250Y-123952000D01*
X155832000Y-123952000D01*
X155832000Y-123972000D01*
X155578000Y-123972000D01*
X155578000Y-123952000D01*
X155558000Y-123952000D01*
X155558000Y-123698000D01*
X155578000Y-123698000D01*
X155578000Y-121998750D01*
X155832000Y-121998750D01*
X155832000Y-123698000D01*
X156981250Y-123698000D01*
X157140000Y-123539250D01*
X157140000Y-122348690D01*
X157043327Y-122115301D01*
X156864698Y-121936673D01*
X156631309Y-121840000D01*
X155990750Y-121840000D01*
X155832000Y-121998750D01*
X155578000Y-121998750D01*
X155419250Y-121840000D01*
X155067000Y-121840000D01*
X155067000Y-121285000D01*
X155057333Y-121236399D01*
X155029803Y-121195197D01*
X155003010Y-121174733D01*
X154705081Y-121004488D01*
X154880598Y-120931786D01*
X155059227Y-120753158D01*
X155155900Y-120519769D01*
X155155900Y-120482359D01*
X154997150Y-120323609D01*
X154988398Y-120323609D01*
X155059227Y-120252780D01*
X155066695Y-120234750D01*
X156476000Y-120234750D01*
X156476000Y-120725309D01*
X156572673Y-120958698D01*
X156751301Y-121137327D01*
X156984690Y-121234000D01*
X157575250Y-121234000D01*
X157734000Y-121075250D01*
X157734000Y-120076000D01*
X156634750Y-120076000D01*
X156476000Y-120234750D01*
X155066695Y-120234750D01*
X155151821Y-120029238D01*
X155155900Y-120025159D01*
X155155900Y-119981981D01*
X155151821Y-119977902D01*
X155059227Y-119754360D01*
X155058246Y-119753379D01*
X155059227Y-119752399D01*
X155151819Y-119528862D01*
X155155900Y-119524781D01*
X155155900Y-119481600D01*
X155151819Y-119477519D01*
X155059227Y-119253982D01*
X155058245Y-119253000D01*
X156157394Y-119253000D01*
X156247197Y-119342803D01*
X156247197Y-119342803D01*
G37*
X156247197Y-119342803D02*
X156288399Y-119370333D01*
X156337000Y-119380000D01*
X156476000Y-119380000D01*
X156476000Y-119663250D01*
X156634750Y-119822000D01*
X157734000Y-119822000D01*
X157734000Y-119802000D01*
X157988000Y-119802000D01*
X157988000Y-119822000D01*
X158008000Y-119822000D01*
X158008000Y-120076000D01*
X157988000Y-120076000D01*
X157988000Y-121075250D01*
X158146750Y-121234000D01*
X158496000Y-121234000D01*
X158496000Y-125095000D01*
X157140000Y-125095000D01*
X157140000Y-124110750D01*
X156981250Y-123952000D01*
X155832000Y-123952000D01*
X155832000Y-123972000D01*
X155578000Y-123972000D01*
X155578000Y-123952000D01*
X155558000Y-123952000D01*
X155558000Y-123698000D01*
X155578000Y-123698000D01*
X155578000Y-121998750D01*
X155832000Y-121998750D01*
X155832000Y-123698000D01*
X156981250Y-123698000D01*
X157140000Y-123539250D01*
X157140000Y-122348690D01*
X157043327Y-122115301D01*
X156864698Y-121936673D01*
X156631309Y-121840000D01*
X155990750Y-121840000D01*
X155832000Y-121998750D01*
X155578000Y-121998750D01*
X155419250Y-121840000D01*
X155067000Y-121840000D01*
X155067000Y-121285000D01*
X155057333Y-121236399D01*
X155029803Y-121195197D01*
X155003010Y-121174733D01*
X154705081Y-121004488D01*
X154880598Y-120931786D01*
X155059227Y-120753158D01*
X155155900Y-120519769D01*
X155155900Y-120482359D01*
X154997150Y-120323609D01*
X154988398Y-120323609D01*
X155059227Y-120252780D01*
X155066695Y-120234750D01*
X156476000Y-120234750D01*
X156476000Y-120725309D01*
X156572673Y-120958698D01*
X156751301Y-121137327D01*
X156984690Y-121234000D01*
X157575250Y-121234000D01*
X157734000Y-121075250D01*
X157734000Y-120076000D01*
X156634750Y-120076000D01*
X156476000Y-120234750D01*
X155066695Y-120234750D01*
X155151821Y-120029238D01*
X155155900Y-120025159D01*
X155155900Y-119981981D01*
X155151821Y-119977902D01*
X155059227Y-119754360D01*
X155058246Y-119753379D01*
X155059227Y-119752399D01*
X155151819Y-119528862D01*
X155155900Y-119524781D01*
X155155900Y-119481600D01*
X155151819Y-119477519D01*
X155059227Y-119253982D01*
X155058245Y-119253000D01*
X156157394Y-119253000D01*
X156247197Y-119342803D01*
G36*
X173736000Y-92202000D02*
X173756000Y-92202000D01*
X173756000Y-92456000D01*
X173736000Y-92456000D01*
X173736000Y-93884750D01*
X173894750Y-94043500D01*
X174664027Y-94043500D01*
X175514000Y-94799031D01*
X175514000Y-94916000D01*
X175161750Y-94916000D01*
X175003000Y-95074750D01*
X175003000Y-96774000D01*
X175023000Y-96774000D01*
X175023000Y-97028000D01*
X175003000Y-97028000D01*
X175003000Y-97048000D01*
X174749000Y-97048000D01*
X174749000Y-97028000D01*
X172466000Y-97028000D01*
X172466000Y-97048000D01*
X172212000Y-97048000D01*
X172212000Y-97028000D01*
X172192000Y-97028000D01*
X172192000Y-96774000D01*
X172212000Y-96774000D01*
X172212000Y-95074750D01*
X172466000Y-95074750D01*
X172466000Y-96774000D01*
X174749000Y-96774000D01*
X174749000Y-95074750D01*
X174590250Y-94916000D01*
X173949691Y-94916000D01*
X173716302Y-95012673D01*
X173607500Y-95121474D01*
X173498698Y-95012673D01*
X173265309Y-94916000D01*
X172624750Y-94916000D01*
X172466000Y-95074750D01*
X172212000Y-95074750D01*
X172053250Y-94916000D01*
X171705561Y-94916000D01*
X172498056Y-94035450D01*
X172517491Y-94043500D01*
X173323250Y-94043500D01*
X173482000Y-93884750D01*
X173482000Y-92456000D01*
X173462000Y-92456000D01*
X173462000Y-92202000D01*
X173482000Y-92202000D01*
X173482000Y-92182000D01*
X173736000Y-92182000D01*
X173736000Y-92202000D01*
X173736000Y-92202000D01*
G37*
X173736000Y-92202000D02*
X173756000Y-92202000D01*
X173756000Y-92456000D01*
X173736000Y-92456000D01*
X173736000Y-93884750D01*
X173894750Y-94043500D01*
X174664027Y-94043500D01*
X175514000Y-94799031D01*
X175514000Y-94916000D01*
X175161750Y-94916000D01*
X175003000Y-95074750D01*
X175003000Y-96774000D01*
X175023000Y-96774000D01*
X175023000Y-97028000D01*
X175003000Y-97028000D01*
X175003000Y-97048000D01*
X174749000Y-97048000D01*
X174749000Y-97028000D01*
X172466000Y-97028000D01*
X172466000Y-97048000D01*
X172212000Y-97048000D01*
X172212000Y-97028000D01*
X172192000Y-97028000D01*
X172192000Y-96774000D01*
X172212000Y-96774000D01*
X172212000Y-95074750D01*
X172466000Y-95074750D01*
X172466000Y-96774000D01*
X174749000Y-96774000D01*
X174749000Y-95074750D01*
X174590250Y-94916000D01*
X173949691Y-94916000D01*
X173716302Y-95012673D01*
X173607500Y-95121474D01*
X173498698Y-95012673D01*
X173265309Y-94916000D01*
X172624750Y-94916000D01*
X172466000Y-95074750D01*
X172212000Y-95074750D01*
X172053250Y-94916000D01*
X171705561Y-94916000D01*
X172498056Y-94035450D01*
X172517491Y-94043500D01*
X173323250Y-94043500D01*
X173482000Y-93884750D01*
X173482000Y-92456000D01*
X173462000Y-92456000D01*
X173462000Y-92202000D01*
X173482000Y-92202000D01*
X173482000Y-92182000D01*
X173736000Y-92182000D01*
X173736000Y-92202000D01*
G36*
X180340000Y-89840000D02*
X180117750Y-89840000D01*
X179959000Y-89998750D01*
X179959000Y-90998000D01*
X179979000Y-90998000D01*
X179979000Y-91252000D01*
X179959000Y-91252000D01*
X179959000Y-91272000D01*
X179705000Y-91272000D01*
X179705000Y-91252000D01*
X178605750Y-91252000D01*
X178514462Y-91343288D01*
X178483601Y-91322667D01*
X178435000Y-91313000D01*
X177126900Y-91313000D01*
X177126900Y-91201239D01*
X177025302Y-91201239D01*
X177126900Y-91099641D01*
X177126900Y-91062231D01*
X177030227Y-90828842D01*
X176851598Y-90650214D01*
X176618209Y-90553541D01*
X176079150Y-90553541D01*
X175920400Y-90712291D01*
X175920400Y-91041479D01*
X175666400Y-91041479D01*
X175666400Y-90712291D01*
X175507650Y-90553541D01*
X174968591Y-90553541D01*
X174760966Y-90639542D01*
X174700509Y-90614500D01*
X173894750Y-90614500D01*
X173736000Y-90773250D01*
X173736000Y-91186000D01*
X173482000Y-91186000D01*
X173482000Y-90773250D01*
X173323250Y-90614500D01*
X172847000Y-90614500D01*
X172847000Y-90348691D01*
X178447000Y-90348691D01*
X178447000Y-90839250D01*
X178605750Y-90998000D01*
X179705000Y-90998000D01*
X179705000Y-89998750D01*
X179546250Y-89840000D01*
X178955690Y-89840000D01*
X178722301Y-89936673D01*
X178543673Y-90115302D01*
X178447000Y-90348691D01*
X172847000Y-90348691D01*
X172847000Y-89154000D01*
X180340000Y-89154000D01*
X180340000Y-89840000D01*
X180340000Y-89840000D01*
G37*
X180340000Y-89840000D02*
X180117750Y-89840000D01*
X179959000Y-89998750D01*
X179959000Y-90998000D01*
X179979000Y-90998000D01*
X179979000Y-91252000D01*
X179959000Y-91252000D01*
X179959000Y-91272000D01*
X179705000Y-91272000D01*
X179705000Y-91252000D01*
X178605750Y-91252000D01*
X178514462Y-91343288D01*
X178483601Y-91322667D01*
X178435000Y-91313000D01*
X177126900Y-91313000D01*
X177126900Y-91201239D01*
X177025302Y-91201239D01*
X177126900Y-91099641D01*
X177126900Y-91062231D01*
X177030227Y-90828842D01*
X176851598Y-90650214D01*
X176618209Y-90553541D01*
X176079150Y-90553541D01*
X175920400Y-90712291D01*
X175920400Y-91041479D01*
X175666400Y-91041479D01*
X175666400Y-90712291D01*
X175507650Y-90553541D01*
X174968591Y-90553541D01*
X174760966Y-90639542D01*
X174700509Y-90614500D01*
X173894750Y-90614500D01*
X173736000Y-90773250D01*
X173736000Y-91186000D01*
X173482000Y-91186000D01*
X173482000Y-90773250D01*
X173323250Y-90614500D01*
X172847000Y-90614500D01*
X172847000Y-90348691D01*
X178447000Y-90348691D01*
X178447000Y-90839250D01*
X178605750Y-90998000D01*
X179705000Y-90998000D01*
X179705000Y-89998750D01*
X179546250Y-89840000D01*
X178955690Y-89840000D01*
X178722301Y-89936673D01*
X178543673Y-90115302D01*
X178447000Y-90348691D01*
X172847000Y-90348691D01*
X172847000Y-89154000D01*
X180340000Y-89154000D01*
X180340000Y-89840000D01*
G36*
X178447000Y-92509980D02*
X178447000Y-92739250D01*
X178605750Y-92898000D01*
X179705000Y-92898000D01*
X179705000Y-92878000D01*
X179959000Y-92878000D01*
X179959000Y-92898000D01*
X179979000Y-92898000D01*
X179979000Y-93152000D01*
X179959000Y-93152000D01*
X179959000Y-94151250D01*
X180117750Y-94310000D01*
X180467000Y-94310000D01*
X180467000Y-98044000D01*
X179111000Y-98044000D01*
X179111000Y-97186750D01*
X178952250Y-97028000D01*
X177803000Y-97028000D01*
X177803000Y-97048000D01*
X177549000Y-97048000D01*
X177549000Y-97028000D01*
X177529000Y-97028000D01*
X177529000Y-96774000D01*
X177549000Y-96774000D01*
X177549000Y-95074750D01*
X177803000Y-95074750D01*
X177803000Y-96774000D01*
X178952250Y-96774000D01*
X179111000Y-96615250D01*
X179111000Y-95424690D01*
X179014327Y-95191301D01*
X178835698Y-95012673D01*
X178602309Y-94916000D01*
X177961750Y-94916000D01*
X177803000Y-95074750D01*
X177549000Y-95074750D01*
X177390250Y-94916000D01*
X177038000Y-94916000D01*
X177038000Y-94869000D01*
X177028333Y-94820399D01*
X176989463Y-94769138D01*
X176143508Y-94104459D01*
X176618209Y-94104459D01*
X176851598Y-94007786D01*
X177030227Y-93829158D01*
X177126900Y-93595769D01*
X177126900Y-93558359D01*
X176968150Y-93399609D01*
X176959398Y-93399609D01*
X177030227Y-93328780D01*
X177037695Y-93310750D01*
X178447000Y-93310750D01*
X178447000Y-93801309D01*
X178543673Y-94034698D01*
X178722301Y-94213327D01*
X178955690Y-94310000D01*
X179546250Y-94310000D01*
X179705000Y-94151250D01*
X179705000Y-93152000D01*
X178605750Y-93152000D01*
X178447000Y-93310750D01*
X177037695Y-93310750D01*
X177122821Y-93105238D01*
X177126900Y-93101159D01*
X177126900Y-93057981D01*
X177122821Y-93053902D01*
X177030227Y-92830360D01*
X177029246Y-92829379D01*
X177030227Y-92828399D01*
X177122819Y-92604862D01*
X177126900Y-92600781D01*
X177126900Y-92557600D01*
X177122819Y-92553519D01*
X177030227Y-92329982D01*
X177029245Y-92329000D01*
X178356510Y-92329000D01*
X178447000Y-92509980D01*
X178447000Y-92509980D01*
G37*
X178447000Y-92509980D02*
X178447000Y-92739250D01*
X178605750Y-92898000D01*
X179705000Y-92898000D01*
X179705000Y-92878000D01*
X179959000Y-92878000D01*
X179959000Y-92898000D01*
X179979000Y-92898000D01*
X179979000Y-93152000D01*
X179959000Y-93152000D01*
X179959000Y-94151250D01*
X180117750Y-94310000D01*
X180467000Y-94310000D01*
X180467000Y-98044000D01*
X179111000Y-98044000D01*
X179111000Y-97186750D01*
X178952250Y-97028000D01*
X177803000Y-97028000D01*
X177803000Y-97048000D01*
X177549000Y-97048000D01*
X177549000Y-97028000D01*
X177529000Y-97028000D01*
X177529000Y-96774000D01*
X177549000Y-96774000D01*
X177549000Y-95074750D01*
X177803000Y-95074750D01*
X177803000Y-96774000D01*
X178952250Y-96774000D01*
X179111000Y-96615250D01*
X179111000Y-95424690D01*
X179014327Y-95191301D01*
X178835698Y-95012673D01*
X178602309Y-94916000D01*
X177961750Y-94916000D01*
X177803000Y-95074750D01*
X177549000Y-95074750D01*
X177390250Y-94916000D01*
X177038000Y-94916000D01*
X177038000Y-94869000D01*
X177028333Y-94820399D01*
X176989463Y-94769138D01*
X176143508Y-94104459D01*
X176618209Y-94104459D01*
X176851598Y-94007786D01*
X177030227Y-93829158D01*
X177126900Y-93595769D01*
X177126900Y-93558359D01*
X176968150Y-93399609D01*
X176959398Y-93399609D01*
X177030227Y-93328780D01*
X177037695Y-93310750D01*
X178447000Y-93310750D01*
X178447000Y-93801309D01*
X178543673Y-94034698D01*
X178722301Y-94213327D01*
X178955690Y-94310000D01*
X179546250Y-94310000D01*
X179705000Y-94151250D01*
X179705000Y-93152000D01*
X178605750Y-93152000D01*
X178447000Y-93310750D01*
X177037695Y-93310750D01*
X177122821Y-93105238D01*
X177126900Y-93101159D01*
X177126900Y-93057981D01*
X177122821Y-93053902D01*
X177030227Y-92830360D01*
X177029246Y-92829379D01*
X177030227Y-92828399D01*
X177122819Y-92604862D01*
X177126900Y-92600781D01*
X177126900Y-92557600D01*
X177122819Y-92553519D01*
X177030227Y-92329982D01*
X177029245Y-92329000D01*
X178356510Y-92329000D01*
X178447000Y-92509980D01*
G36*
X175920400Y-93469459D02*
X175666400Y-93469459D01*
X175666400Y-93190059D01*
X175920400Y-93190059D01*
X175920400Y-93469459D01*
X175920400Y-93469459D01*
G37*
X175920400Y-93469459D02*
X175666400Y-93469459D01*
X175666400Y-93190059D01*
X175920400Y-93190059D01*
X175920400Y-93469459D01*
G36*
X122760750Y-62487000D02*
X124460000Y-62487000D01*
X124460000Y-62467000D01*
X124714000Y-62467000D01*
X124714000Y-62487000D01*
X124734000Y-62487000D01*
X124734000Y-62741000D01*
X124714000Y-62741000D01*
X124714000Y-63890250D01*
X124768250Y-63944500D01*
X124714000Y-63998750D01*
X124714000Y-65148000D01*
X124734000Y-65148000D01*
X124734000Y-65402000D01*
X124714000Y-65402000D01*
X124714000Y-65422000D01*
X124460000Y-65422000D01*
X124460000Y-65402000D01*
X122760750Y-65402000D01*
X122602000Y-65560750D01*
X122602000Y-65913000D01*
X122108631Y-65913000D01*
X121849215Y-65653585D01*
X121728389Y-65572851D01*
X121675899Y-65502865D01*
X121675899Y-65493900D01*
X121626616Y-65246135D01*
X121574236Y-65167744D01*
X121602500Y-65099509D01*
X121602500Y-64293750D01*
X121443750Y-64135000D01*
X120015000Y-64135000D01*
X120015000Y-64155000D01*
X119761000Y-64155000D01*
X119761000Y-64135000D01*
X119741000Y-64135000D01*
X119741000Y-63881000D01*
X119761000Y-63881000D01*
X119761000Y-63861000D01*
X120015000Y-63861000D01*
X120015000Y-63881000D01*
X121443750Y-63881000D01*
X121602500Y-63722250D01*
X121602500Y-63246000D01*
X121666000Y-63246000D01*
X121714601Y-63236333D01*
X121747303Y-63216564D01*
X122127479Y-62899750D01*
X122602000Y-62899750D01*
X122602000Y-63540309D01*
X122698673Y-63773698D01*
X122869474Y-63944500D01*
X122698673Y-64115302D01*
X122602000Y-64348691D01*
X122602000Y-64989250D01*
X122760750Y-65148000D01*
X124460000Y-65148000D01*
X124460000Y-63998750D01*
X124405750Y-63944500D01*
X124460000Y-63890250D01*
X124460000Y-62741000D01*
X122760750Y-62741000D01*
X122602000Y-62899750D01*
X122127479Y-62899750D01*
X122698036Y-62424286D01*
X122760750Y-62487000D01*
X122760750Y-62487000D01*
G37*
X122760750Y-62487000D02*
X124460000Y-62487000D01*
X124460000Y-62467000D01*
X124714000Y-62467000D01*
X124714000Y-62487000D01*
X124734000Y-62487000D01*
X124734000Y-62741000D01*
X124714000Y-62741000D01*
X124714000Y-63890250D01*
X124768250Y-63944500D01*
X124714000Y-63998750D01*
X124714000Y-65148000D01*
X124734000Y-65148000D01*
X124734000Y-65402000D01*
X124714000Y-65402000D01*
X124714000Y-65422000D01*
X124460000Y-65422000D01*
X124460000Y-65402000D01*
X122760750Y-65402000D01*
X122602000Y-65560750D01*
X122602000Y-65913000D01*
X122108631Y-65913000D01*
X121849215Y-65653585D01*
X121728389Y-65572851D01*
X121675899Y-65502865D01*
X121675899Y-65493900D01*
X121626616Y-65246135D01*
X121574236Y-65167744D01*
X121602500Y-65099509D01*
X121602500Y-64293750D01*
X121443750Y-64135000D01*
X120015000Y-64135000D01*
X120015000Y-64155000D01*
X119761000Y-64155000D01*
X119761000Y-64135000D01*
X119741000Y-64135000D01*
X119741000Y-63881000D01*
X119761000Y-63881000D01*
X119761000Y-63861000D01*
X120015000Y-63861000D01*
X120015000Y-63881000D01*
X121443750Y-63881000D01*
X121602500Y-63722250D01*
X121602500Y-63246000D01*
X121666000Y-63246000D01*
X121714601Y-63236333D01*
X121747303Y-63216564D01*
X122127479Y-62899750D01*
X122602000Y-62899750D01*
X122602000Y-63540309D01*
X122698673Y-63773698D01*
X122869474Y-63944500D01*
X122698673Y-64115302D01*
X122602000Y-64348691D01*
X122602000Y-64989250D01*
X122760750Y-65148000D01*
X124460000Y-65148000D01*
X124460000Y-63998750D01*
X124405750Y-63944500D01*
X124460000Y-63890250D01*
X124460000Y-62741000D01*
X122760750Y-62741000D01*
X122602000Y-62899750D01*
X122127479Y-62899750D01*
X122698036Y-62424286D01*
X122760750Y-62487000D01*
G36*
X121028459Y-61950600D02*
X120749059Y-61950600D01*
X120749059Y-61696600D01*
X121028459Y-61696600D01*
X121028459Y-61950600D01*
X121028459Y-61950600D01*
G37*
X121028459Y-61950600D02*
X120749059Y-61950600D01*
X120749059Y-61696600D01*
X121028459Y-61696600D01*
X121028459Y-61950600D01*
G36*
X125730000Y-58379000D02*
X124872750Y-58379000D01*
X124714000Y-58537750D01*
X124714000Y-59687000D01*
X124734000Y-59687000D01*
X124734000Y-59941000D01*
X124714000Y-59941000D01*
X124714000Y-59961000D01*
X124460000Y-59961000D01*
X124460000Y-59941000D01*
X122760750Y-59941000D01*
X122602000Y-60099750D01*
X122602000Y-60483440D01*
X122589156Y-60492346D01*
X121663459Y-61484164D01*
X121663459Y-60998791D01*
X121566786Y-60765402D01*
X121388158Y-60586773D01*
X121154769Y-60490100D01*
X121117359Y-60490100D01*
X120958609Y-60648850D01*
X120958609Y-60657602D01*
X120887780Y-60586773D01*
X120664238Y-60494179D01*
X120660159Y-60490100D01*
X120616981Y-60490100D01*
X120612902Y-60494179D01*
X120389360Y-60586773D01*
X120388380Y-60587754D01*
X120387399Y-60586773D01*
X120163862Y-60494181D01*
X120159781Y-60490100D01*
X120116600Y-60490100D01*
X120112519Y-60494181D01*
X119888982Y-60586773D01*
X119888000Y-60587755D01*
X119888000Y-59353549D01*
X119965210Y-59257036D01*
X120061691Y-59297000D01*
X120552250Y-59297000D01*
X120711000Y-59138250D01*
X120711000Y-58039000D01*
X120965000Y-58039000D01*
X120965000Y-59138250D01*
X121123750Y-59297000D01*
X121614309Y-59297000D01*
X121847698Y-59200327D01*
X122026327Y-59021699D01*
X122081834Y-58887691D01*
X122602000Y-58887691D01*
X122602000Y-59528250D01*
X122760750Y-59687000D01*
X124460000Y-59687000D01*
X124460000Y-58537750D01*
X124301250Y-58379000D01*
X123110690Y-58379000D01*
X122877301Y-58475673D01*
X122698673Y-58654302D01*
X122602000Y-58887691D01*
X122081834Y-58887691D01*
X122123000Y-58788310D01*
X122123000Y-58197750D01*
X121964250Y-58039000D01*
X120965000Y-58039000D01*
X120711000Y-58039000D01*
X120691000Y-58039000D01*
X120691000Y-57785000D01*
X120711000Y-57785000D01*
X120711000Y-57765000D01*
X120965000Y-57765000D01*
X120965000Y-57785000D01*
X121964250Y-57785000D01*
X122123000Y-57626250D01*
X122123000Y-57404000D01*
X125730000Y-57404000D01*
X125730000Y-58379000D01*
X125730000Y-58379000D01*
G37*
X125730000Y-58379000D02*
X124872750Y-58379000D01*
X124714000Y-58537750D01*
X124714000Y-59687000D01*
X124734000Y-59687000D01*
X124734000Y-59941000D01*
X124714000Y-59941000D01*
X124714000Y-59961000D01*
X124460000Y-59961000D01*
X124460000Y-59941000D01*
X122760750Y-59941000D01*
X122602000Y-60099750D01*
X122602000Y-60483440D01*
X122589156Y-60492346D01*
X121663459Y-61484164D01*
X121663459Y-60998791D01*
X121566786Y-60765402D01*
X121388158Y-60586773D01*
X121154769Y-60490100D01*
X121117359Y-60490100D01*
X120958609Y-60648850D01*
X120958609Y-60657602D01*
X120887780Y-60586773D01*
X120664238Y-60494179D01*
X120660159Y-60490100D01*
X120616981Y-60490100D01*
X120612902Y-60494179D01*
X120389360Y-60586773D01*
X120388380Y-60587754D01*
X120387399Y-60586773D01*
X120163862Y-60494181D01*
X120159781Y-60490100D01*
X120116600Y-60490100D01*
X120112519Y-60494181D01*
X119888982Y-60586773D01*
X119888000Y-60587755D01*
X119888000Y-59353549D01*
X119965210Y-59257036D01*
X120061691Y-59297000D01*
X120552250Y-59297000D01*
X120711000Y-59138250D01*
X120711000Y-58039000D01*
X120965000Y-58039000D01*
X120965000Y-59138250D01*
X121123750Y-59297000D01*
X121614309Y-59297000D01*
X121847698Y-59200327D01*
X122026327Y-59021699D01*
X122081834Y-58887691D01*
X122602000Y-58887691D01*
X122602000Y-59528250D01*
X122760750Y-59687000D01*
X124460000Y-59687000D01*
X124460000Y-58537750D01*
X124301250Y-58379000D01*
X123110690Y-58379000D01*
X122877301Y-58475673D01*
X122698673Y-58654302D01*
X122602000Y-58887691D01*
X122081834Y-58887691D01*
X122123000Y-58788310D01*
X122123000Y-58197750D01*
X121964250Y-58039000D01*
X120965000Y-58039000D01*
X120711000Y-58039000D01*
X120691000Y-58039000D01*
X120691000Y-57785000D01*
X120711000Y-57785000D01*
X120711000Y-57765000D01*
X120965000Y-57765000D01*
X120965000Y-57785000D01*
X121964250Y-57785000D01*
X122123000Y-57626250D01*
X122123000Y-57404000D01*
X125730000Y-57404000D01*
X125730000Y-58379000D01*
G36*
X117653000Y-57626250D02*
X117811750Y-57785000D01*
X118811000Y-57785000D01*
X118811000Y-57765000D01*
X119065000Y-57765000D01*
X119065000Y-57785000D01*
X119085000Y-57785000D01*
X119085000Y-58039000D01*
X119065000Y-58039000D01*
X119065000Y-58059000D01*
X118811000Y-58059000D01*
X118811000Y-58039000D01*
X117811750Y-58039000D01*
X117653000Y-58197750D01*
X117653000Y-58788310D01*
X117749673Y-59021699D01*
X117928302Y-59200327D01*
X118161691Y-59297000D01*
X118652250Y-59297000D01*
X118810998Y-59138252D01*
X118810998Y-59297000D01*
X118873704Y-59297000D01*
X118872000Y-59309000D01*
X118872000Y-59437899D01*
X118853180Y-59483223D01*
X118852821Y-59894971D01*
X118872000Y-59941388D01*
X118872000Y-60490100D01*
X118760239Y-60490100D01*
X118760239Y-60591698D01*
X118658641Y-60490100D01*
X118621231Y-60490100D01*
X118387842Y-60586773D01*
X118209214Y-60765402D01*
X118112541Y-60998791D01*
X118112541Y-61537850D01*
X118271291Y-61696600D01*
X118600479Y-61696600D01*
X118600479Y-61950600D01*
X118271291Y-61950600D01*
X118112541Y-62109350D01*
X118112541Y-62648409D01*
X118198542Y-62856034D01*
X118173500Y-62916491D01*
X118173500Y-63722250D01*
X118332250Y-63881000D01*
X118872000Y-63881000D01*
X118872000Y-64135000D01*
X118332250Y-64135000D01*
X118173500Y-64293750D01*
X118173500Y-64770000D01*
X116586000Y-64770000D01*
X116586000Y-57277000D01*
X117653000Y-57277000D01*
X117653000Y-57626250D01*
X117653000Y-57626250D01*
G37*
X117653000Y-57626250D02*
X117811750Y-57785000D01*
X118811000Y-57785000D01*
X118811000Y-57765000D01*
X119065000Y-57765000D01*
X119065000Y-57785000D01*
X119085000Y-57785000D01*
X119085000Y-58039000D01*
X119065000Y-58039000D01*
X119065000Y-58059000D01*
X118811000Y-58059000D01*
X118811000Y-58039000D01*
X117811750Y-58039000D01*
X117653000Y-58197750D01*
X117653000Y-58788310D01*
X117749673Y-59021699D01*
X117928302Y-59200327D01*
X118161691Y-59297000D01*
X118652250Y-59297000D01*
X118810998Y-59138252D01*
X118810998Y-59297000D01*
X118873704Y-59297000D01*
X118872000Y-59309000D01*
X118872000Y-59437899D01*
X118853180Y-59483223D01*
X118852821Y-59894971D01*
X118872000Y-59941388D01*
X118872000Y-60490100D01*
X118760239Y-60490100D01*
X118760239Y-60591698D01*
X118658641Y-60490100D01*
X118621231Y-60490100D01*
X118387842Y-60586773D01*
X118209214Y-60765402D01*
X118112541Y-60998791D01*
X118112541Y-61537850D01*
X118271291Y-61696600D01*
X118600479Y-61696600D01*
X118600479Y-61950600D01*
X118271291Y-61950600D01*
X118112541Y-62109350D01*
X118112541Y-62648409D01*
X118198542Y-62856034D01*
X118173500Y-62916491D01*
X118173500Y-63722250D01*
X118332250Y-63881000D01*
X118872000Y-63881000D01*
X118872000Y-64135000D01*
X118332250Y-64135000D01*
X118173500Y-64293750D01*
X118173500Y-64770000D01*
X116586000Y-64770000D01*
X116586000Y-57277000D01*
X117653000Y-57277000D01*
X117653000Y-57626250D01*
M02*
