G04 #@! TF.GenerationSoftware,KiCad,Pcbnew,(2018-01-07 revision 6cee19d37)-makepkg*
G04 #@! TF.CreationDate,2018-01-30T19:24:48-07:00*
G04 #@! TF.ProjectId,Copper Receiver Module,436F7070657220526563656976657220,0.1*
G04 #@! TF.SameCoordinates,Original*
G04 #@! TF.FileFunction,Paste,Top*
G04 #@! TF.FilePolarity,Positive*
%FSLAX46Y46*%
G04 Gerber Fmt 4.6, Leading zero omitted, Abs format (unit mm)*
G04 Created by KiCad (PCBNEW (2018-01-07 revision 6cee19d37)-makepkg) date 01/30/18 19:24:48*
%MOMM*%
%LPD*%
G01*
G04 APERTURE LIST*
%ADD10C,0.100000*%
%ADD11R,2.700000X1.600000*%
%ADD12R,1.600000X2.700000*%
%ADD13R,1.200000X1.350000*%
%ADD14R,2.159000X1.930400*%
%ADD15R,0.279400X1.397000*%
%ADD16R,1.100000X1.000000*%
%ADD17R,1.000000X1.100000*%
%ADD18R,1.300000X1.500000*%
%ADD19R,1.500000X1.300000*%
%ADD20R,1.930400X2.159000*%
%ADD21R,1.397000X0.279400*%
%ADD22R,2.057400X0.609600*%
%ADD23R,2.200000X0.600000*%
%ADD24R,0.762000X1.524000*%
%ADD25R,1.803000X1.600000*%
G04 APERTURE END LIST*
D10*
X190500000Y-50800000D02*
X63500000Y-50800000D01*
X190500000Y-127000000D02*
X190500000Y-50800000D01*
X63500000Y-127000000D02*
X190500000Y-127000000D01*
X63500000Y-50800000D02*
X63500000Y-127000000D01*
G36*
X120967500Y-63042800D02*
X118808500Y-63042800D01*
X118808500Y-64973200D01*
X120967500Y-64973200D01*
X120967500Y-63042800D01*
G37*
G36*
X152603200Y-120332500D02*
X152603200Y-118173500D01*
X150672800Y-118173500D01*
X150672800Y-120332500D01*
X152603200Y-120332500D01*
G37*
G36*
X103174800Y-117919500D02*
X103174800Y-120078500D01*
X105105200Y-120078500D01*
X105105200Y-117919500D01*
X103174800Y-117919500D01*
G37*
G36*
X174574200Y-93408500D02*
X174574200Y-91249500D01*
X172643800Y-91249500D01*
X172643800Y-93408500D01*
X174574200Y-93408500D01*
G37*
D11*
X124587000Y-65275000D03*
X124587000Y-68075000D03*
D12*
X172339000Y-96901000D03*
X169539000Y-96901000D03*
X150371000Y-123825000D03*
X147571000Y-123825000D03*
X105407000Y-114681000D03*
X108207000Y-114681000D03*
D13*
X106188000Y-57658000D03*
X108288000Y-57658000D03*
D14*
X119888000Y-64008000D03*
D15*
X120888759Y-66192400D03*
X120388381Y-66192400D03*
X119888000Y-66192400D03*
X119387619Y-66192400D03*
X118887241Y-66192400D03*
X118887241Y-61823600D03*
X119387619Y-61823600D03*
X119888000Y-61823600D03*
X120388381Y-61823600D03*
X120888759Y-61823600D03*
D16*
X141351000Y-124167000D03*
X141351000Y-122467000D03*
D17*
X175768000Y-110402000D03*
X175768000Y-112102000D03*
X86868000Y-116801000D03*
X86868000Y-115101000D03*
X101854000Y-61175000D03*
X101854000Y-59475000D03*
D16*
X117436000Y-72898000D03*
X115736000Y-72898000D03*
D17*
X144145000Y-81358000D03*
X144145000Y-83058000D03*
X141351000Y-119038000D03*
X141351000Y-120738000D03*
X114300000Y-115316000D03*
X114300000Y-117016000D03*
X111125000Y-118022000D03*
X111125000Y-119722000D03*
X145034000Y-120357000D03*
X145034000Y-118657000D03*
X166243000Y-93306000D03*
X166243000Y-91606000D03*
D16*
X120230000Y-70866000D03*
X118530000Y-70866000D03*
D11*
X124587000Y-62614000D03*
X124587000Y-59814000D03*
D18*
X118938000Y-57912000D03*
X120838000Y-57912000D03*
D19*
X179832000Y-91125000D03*
X179832000Y-93025000D03*
D12*
X174876000Y-96901000D03*
X177676000Y-96901000D03*
X152905000Y-123825000D03*
X155705000Y-123825000D03*
D19*
X157861000Y-118049000D03*
X157861000Y-119949000D03*
X98044000Y-120838000D03*
X98044000Y-118938000D03*
D12*
X102619000Y-114681000D03*
X99819000Y-114681000D03*
D20*
X151638000Y-119253000D03*
D21*
X149453600Y-120253759D03*
X149453600Y-119753381D03*
X149453600Y-119253000D03*
X149453600Y-118752619D03*
X149453600Y-118252241D03*
X153822400Y-118252241D03*
X153822400Y-118752619D03*
X153822400Y-119253000D03*
X153822400Y-119753381D03*
X153822400Y-120253759D03*
D20*
X104140000Y-118999000D03*
D21*
X106324400Y-117998241D03*
X106324400Y-118498619D03*
X106324400Y-118999000D03*
X106324400Y-119499381D03*
X106324400Y-119999759D03*
X101955600Y-119999759D03*
X101955600Y-119499381D03*
X101955600Y-118999000D03*
X101955600Y-118498619D03*
X101955600Y-117998241D03*
D20*
X173609000Y-92329000D03*
D21*
X171424600Y-93329759D03*
X171424600Y-92829381D03*
X171424600Y-92329000D03*
X171424600Y-91828619D03*
X171424600Y-91328241D03*
X175793400Y-91328241D03*
X175793400Y-91828619D03*
X175793400Y-92329000D03*
X175793400Y-92829381D03*
X175793400Y-93329759D03*
D22*
X106840000Y-73025000D03*
X106840000Y-74295000D03*
X106840000Y-75565000D03*
X106840000Y-76835000D03*
X106840000Y-78105000D03*
X106840000Y-79375000D03*
X106840000Y-80645000D03*
X106840000Y-81915000D03*
X101440000Y-81915000D03*
X101440000Y-80645000D03*
X101440000Y-79375000D03*
X101440000Y-78105000D03*
X101440000Y-76835000D03*
X101440000Y-75565000D03*
X101440000Y-74295000D03*
X101440000Y-73025000D03*
D23*
X157540000Y-82550000D03*
X157540000Y-80010000D03*
X152340000Y-82550000D03*
X152340000Y-80010000D03*
X157540000Y-81280000D03*
X152340000Y-81280000D03*
X157540000Y-78740000D03*
X157540000Y-77470000D03*
X157540000Y-74930000D03*
X152340000Y-78740000D03*
X152340000Y-77470000D03*
X152340000Y-74930000D03*
X157540000Y-76200000D03*
X152340000Y-76200000D03*
D24*
X118745000Y-75965000D03*
X120015000Y-75965000D03*
X121285000Y-75965000D03*
X132715000Y-86595000D03*
X133985000Y-86595000D03*
X135255000Y-86595000D03*
X135255000Y-75965000D03*
X133985000Y-75965000D03*
X132715000Y-75965000D03*
X121285000Y-86595000D03*
X120015000Y-86595000D03*
X118745000Y-86595000D03*
X118745000Y-91205000D03*
X120015000Y-91205000D03*
X121285000Y-91205000D03*
X132715000Y-101835000D03*
X133985000Y-101835000D03*
X135255000Y-101835000D03*
X135255000Y-91205000D03*
X133985000Y-91205000D03*
X132715000Y-91205000D03*
X121285000Y-101835000D03*
X120015000Y-101835000D03*
X118745000Y-101835000D03*
D13*
X106188000Y-60198000D03*
X108288000Y-60198000D03*
X185150000Y-93345000D03*
X183050000Y-93345000D03*
X185150000Y-91059000D03*
X183050000Y-91059000D03*
X173212000Y-115697000D03*
X171112000Y-115697000D03*
X164322000Y-113919000D03*
X162222000Y-113919000D03*
X92472000Y-115316000D03*
X94572000Y-115316000D03*
X93107000Y-118364000D03*
X95207000Y-118364000D03*
D25*
X88900000Y-72238000D03*
X88900000Y-75082000D03*
X88900000Y-78588000D03*
X88900000Y-81432000D03*
X88900000Y-84786000D03*
X88900000Y-87630000D03*
D16*
X110490000Y-76493000D03*
X110490000Y-78193000D03*
X162306000Y-77304000D03*
X162306000Y-75604000D03*
X164465000Y-74129000D03*
X164465000Y-72429000D03*
X147955000Y-76239000D03*
X147955000Y-77939000D03*
X147955000Y-81241000D03*
X147955000Y-79541000D03*
D25*
X153670000Y-102006000D03*
X153670000Y-99162000D03*
X153670000Y-107594000D03*
X153670000Y-104750000D03*
X150495000Y-102006000D03*
X150495000Y-99162000D03*
X150495000Y-107594000D03*
X150495000Y-104750000D03*
X137287000Y-106401000D03*
X137287000Y-109245000D03*
X139827000Y-110338000D03*
X139827000Y-113182000D03*
X129286000Y-106147000D03*
X129286000Y-108991000D03*
D16*
X175768000Y-115658000D03*
X175768000Y-113958000D03*
X86868000Y-111633000D03*
X86868000Y-113333000D03*
X101854000Y-55030000D03*
X101854000Y-56730000D03*
D17*
X111926000Y-72898000D03*
X113626000Y-72898000D03*
D16*
X144145000Y-86741000D03*
X144145000Y-85041000D03*
X114300000Y-118911000D03*
X114300000Y-120611000D03*
X109220000Y-119722000D03*
X109220000Y-118022000D03*
X146812000Y-118657000D03*
X146812000Y-120357000D03*
D17*
X118530000Y-69088000D03*
X120230000Y-69088000D03*
D16*
X168021000Y-91606000D03*
X168021000Y-93306000D03*
M02*
