G04 #@! TF.GenerationSoftware,KiCad,Pcbnew,(2018-01-07 revision 6cee19d37)-makepkg*
G04 #@! TF.CreationDate,2018-01-30T19:24:48-07:00*
G04 #@! TF.ProjectId,Copper Receiver Module,436F7070657220526563656976657220,0.1*
G04 #@! TF.SameCoordinates,Original*
G04 #@! TF.FileFunction,Legend,Bot*
G04 #@! TF.FilePolarity,Positive*
%FSLAX46Y46*%
G04 Gerber Fmt 4.6, Leading zero omitted, Abs format (unit mm)*
G04 Created by KiCad (PCBNEW (2018-01-07 revision 6cee19d37)-makepkg) date 01/30/18 19:24:48*
%MOMM*%
%LPD*%
G01*
G04 APERTURE LIST*
%ADD10C,0.100000*%
%ADD11C,0.101600*%
G04 APERTURE END LIST*
D10*
X190500000Y-50800000D02*
X63500000Y-50800000D01*
X190500000Y-127000000D02*
X190500000Y-50800000D01*
X63500000Y-127000000D02*
X190500000Y-127000000D01*
X63500000Y-50800000D02*
X63500000Y-127000000D01*
D11*
X123525642Y-78766730D02*
X123583095Y-78709278D01*
X123640547Y-78536920D01*
X123640547Y-78422016D01*
X123583095Y-78249659D01*
X123468190Y-78134754D01*
X123353285Y-78077301D01*
X123123476Y-78019849D01*
X122951119Y-78019849D01*
X122721309Y-78077301D01*
X122606404Y-78134754D01*
X122491500Y-78249659D01*
X122434047Y-78422016D01*
X122434047Y-78536920D01*
X122491500Y-78709278D01*
X122548952Y-78766730D01*
X122951119Y-79456159D02*
X122893666Y-79341254D01*
X122836214Y-79283801D01*
X122721309Y-79226349D01*
X122663857Y-79226349D01*
X122548952Y-79283801D01*
X122491500Y-79341254D01*
X122434047Y-79456159D01*
X122434047Y-79685968D01*
X122491500Y-79800873D01*
X122548952Y-79858325D01*
X122663857Y-79915778D01*
X122721309Y-79915778D01*
X122836214Y-79858325D01*
X122893666Y-79800873D01*
X122951119Y-79685968D01*
X122951119Y-79456159D01*
X123008571Y-79341254D01*
X123066023Y-79283801D01*
X123180928Y-79226349D01*
X123410738Y-79226349D01*
X123525642Y-79283801D01*
X123583095Y-79341254D01*
X123640547Y-79456159D01*
X123640547Y-79685968D01*
X123583095Y-79800873D01*
X123525642Y-79858325D01*
X123410738Y-79915778D01*
X123180928Y-79915778D01*
X123066023Y-79858325D01*
X123008571Y-79800873D01*
X122951119Y-79685968D01*
X123767547Y-83154278D02*
X123767547Y-82464849D01*
X123767547Y-82809563D02*
X122561047Y-82809563D01*
X122733404Y-82694659D01*
X122848309Y-82579754D01*
X122905761Y-82464849D01*
X122963214Y-83671349D02*
X123767547Y-83671349D01*
X123078119Y-83671349D02*
X123020666Y-83728801D01*
X122963214Y-83843706D01*
X122963214Y-84016063D01*
X123020666Y-84130968D01*
X123135571Y-84188420D01*
X123767547Y-84188420D01*
X123135571Y-85165111D02*
X123135571Y-84762944D01*
X123767547Y-84762944D02*
X122561047Y-84762944D01*
X122561047Y-85337468D01*
X103732269Y-77932642D02*
X103789721Y-77990095D01*
X103962079Y-78047547D01*
X104076983Y-78047547D01*
X104249340Y-77990095D01*
X104364245Y-77875190D01*
X104421698Y-77760285D01*
X104479150Y-77530476D01*
X104479150Y-77358119D01*
X104421698Y-77128309D01*
X104364245Y-77013404D01*
X104249340Y-76898500D01*
X104076983Y-76841047D01*
X103962079Y-76841047D01*
X103789721Y-76898500D01*
X103732269Y-76955952D01*
X102698126Y-77243214D02*
X102698126Y-78047547D01*
X102985388Y-76783595D02*
X103272650Y-77645380D01*
X102525769Y-77645380D01*
X103789721Y-80587547D02*
X104479150Y-80587547D01*
X104134436Y-80587547D02*
X104134436Y-79381047D01*
X104249340Y-79553404D01*
X104364245Y-79668309D01*
X104479150Y-79725761D01*
X103272650Y-79783214D02*
X103272650Y-80587547D01*
X103272650Y-79898119D02*
X103215198Y-79840666D01*
X103100293Y-79783214D01*
X102927936Y-79783214D01*
X102813031Y-79840666D01*
X102755579Y-79955571D01*
X102755579Y-80587547D01*
X101778888Y-79955571D02*
X102181055Y-79955571D01*
X102181055Y-80587547D02*
X102181055Y-79381047D01*
X101606531Y-79381047D01*
X103732269Y-73614642D02*
X103789721Y-73672095D01*
X103962079Y-73729547D01*
X104076983Y-73729547D01*
X104249340Y-73672095D01*
X104364245Y-73557190D01*
X104421698Y-73442285D01*
X104479150Y-73212476D01*
X104479150Y-73040119D01*
X104421698Y-72810309D01*
X104364245Y-72695404D01*
X104249340Y-72580500D01*
X104076983Y-72523047D01*
X103962079Y-72523047D01*
X103789721Y-72580500D01*
X103732269Y-72637952D01*
X102640674Y-72523047D02*
X103215198Y-72523047D01*
X103272650Y-73097571D01*
X103215198Y-73040119D01*
X103100293Y-72982666D01*
X102813031Y-72982666D01*
X102698126Y-73040119D01*
X102640674Y-73097571D01*
X102583221Y-73212476D01*
X102583221Y-73499738D01*
X102640674Y-73614642D01*
X102698126Y-73672095D01*
X102813031Y-73729547D01*
X103100293Y-73729547D01*
X103215198Y-73672095D01*
X103272650Y-73614642D01*
X103789721Y-76269547D02*
X104479150Y-76269547D01*
X104134436Y-76269547D02*
X104134436Y-75063047D01*
X104249340Y-75235404D01*
X104364245Y-75350309D01*
X104479150Y-75407761D01*
X103042840Y-75063047D02*
X102927936Y-75063047D01*
X102813031Y-75120500D01*
X102755579Y-75177952D01*
X102698126Y-75292857D01*
X102640674Y-75522666D01*
X102640674Y-75809928D01*
X102698126Y-76039738D01*
X102755579Y-76154642D01*
X102813031Y-76212095D01*
X102927936Y-76269547D01*
X103042840Y-76269547D01*
X103157745Y-76212095D01*
X103215198Y-76154642D01*
X103272650Y-76039738D01*
X103330102Y-75809928D01*
X103330102Y-75522666D01*
X103272650Y-75292857D01*
X103215198Y-75177952D01*
X103157745Y-75120500D01*
X103042840Y-75063047D01*
X101893793Y-75063047D02*
X101778888Y-75063047D01*
X101663983Y-75120500D01*
X101606531Y-75177952D01*
X101549079Y-75292857D01*
X101491626Y-75522666D01*
X101491626Y-75809928D01*
X101549079Y-76039738D01*
X101606531Y-76154642D01*
X101663983Y-76212095D01*
X101778888Y-76269547D01*
X101893793Y-76269547D01*
X102008698Y-76212095D01*
X102066150Y-76154642D01*
X102123602Y-76039738D01*
X102181055Y-75809928D01*
X102181055Y-75522666D01*
X102123602Y-75292857D01*
X102066150Y-75177952D01*
X102008698Y-75120500D01*
X101893793Y-75063047D01*
X100974555Y-75465214D02*
X100974555Y-76269547D01*
X100974555Y-75580119D02*
X100917102Y-75522666D01*
X100802198Y-75465214D01*
X100629840Y-75465214D01*
X100514936Y-75522666D01*
X100457483Y-75637571D01*
X100457483Y-76269547D01*
X99480793Y-75637571D02*
X99882960Y-75637571D01*
X99882960Y-76269547D02*
X99882960Y-75063047D01*
X99308436Y-75063047D01*
X117556642Y-78512730D02*
X117614095Y-78455278D01*
X117671547Y-78282920D01*
X117671547Y-78168016D01*
X117614095Y-77995659D01*
X117499190Y-77880754D01*
X117384285Y-77823301D01*
X117154476Y-77765849D01*
X116982119Y-77765849D01*
X116752309Y-77823301D01*
X116637404Y-77880754D01*
X116522500Y-77995659D01*
X116465047Y-78168016D01*
X116465047Y-78282920D01*
X116522500Y-78455278D01*
X116579952Y-78512730D01*
X116465047Y-78914897D02*
X116465047Y-79719230D01*
X117671547Y-79202159D01*
X117544547Y-81884278D02*
X117544547Y-81194849D01*
X117544547Y-81539563D02*
X116338047Y-81539563D01*
X116510404Y-81424659D01*
X116625309Y-81309754D01*
X116682761Y-81194849D01*
X116338047Y-82631159D02*
X116338047Y-82746063D01*
X116395500Y-82860968D01*
X116452952Y-82918420D01*
X116567857Y-82975873D01*
X116797666Y-83033325D01*
X117084928Y-83033325D01*
X117314738Y-82975873D01*
X117429642Y-82918420D01*
X117487095Y-82860968D01*
X117544547Y-82746063D01*
X117544547Y-82631159D01*
X117487095Y-82516254D01*
X117429642Y-82458801D01*
X117314738Y-82401349D01*
X117084928Y-82343897D01*
X116797666Y-82343897D01*
X116567857Y-82401349D01*
X116452952Y-82458801D01*
X116395500Y-82516254D01*
X116338047Y-82631159D01*
X116338047Y-83780206D02*
X116338047Y-83895111D01*
X116395500Y-84010016D01*
X116452952Y-84067468D01*
X116567857Y-84124920D01*
X116797666Y-84182373D01*
X117084928Y-84182373D01*
X117314738Y-84124920D01*
X117429642Y-84067468D01*
X117487095Y-84010016D01*
X117544547Y-83895111D01*
X117544547Y-83780206D01*
X117487095Y-83665301D01*
X117429642Y-83607849D01*
X117314738Y-83550397D01*
X117084928Y-83492944D01*
X116797666Y-83492944D01*
X116567857Y-83550397D01*
X116452952Y-83607849D01*
X116395500Y-83665301D01*
X116338047Y-83780206D01*
X116740214Y-84699444D02*
X117544547Y-84699444D01*
X116855119Y-84699444D02*
X116797666Y-84756897D01*
X116740214Y-84871801D01*
X116740214Y-85044159D01*
X116797666Y-85159063D01*
X116912571Y-85216516D01*
X117544547Y-85216516D01*
X116912571Y-86193206D02*
X116912571Y-85791040D01*
X117544547Y-85791040D02*
X116338047Y-85791040D01*
X116338047Y-86365563D01*
X117048642Y-99086730D02*
X117106095Y-99029278D01*
X117163547Y-98856920D01*
X117163547Y-98742016D01*
X117106095Y-98569659D01*
X116991190Y-98454754D01*
X116876285Y-98397301D01*
X116646476Y-98339849D01*
X116474119Y-98339849D01*
X116244309Y-98397301D01*
X116129404Y-98454754D01*
X116014500Y-98569659D01*
X115957047Y-98742016D01*
X115957047Y-98856920D01*
X116014500Y-99029278D01*
X116071952Y-99086730D01*
X117163547Y-99661254D02*
X117163547Y-99891063D01*
X117106095Y-100005968D01*
X117048642Y-100063420D01*
X116876285Y-100178325D01*
X116646476Y-100235778D01*
X116186857Y-100235778D01*
X116071952Y-100178325D01*
X116014500Y-100120873D01*
X115957047Y-100005968D01*
X115957047Y-99776159D01*
X116014500Y-99661254D01*
X116071952Y-99603801D01*
X116186857Y-99546349D01*
X116474119Y-99546349D01*
X116589023Y-99603801D01*
X116646476Y-99661254D01*
X116703928Y-99776159D01*
X116703928Y-100005968D01*
X116646476Y-100120873D01*
X116589023Y-100178325D01*
X116474119Y-100235778D01*
X117290547Y-92806278D02*
X117290547Y-92116849D01*
X117290547Y-92461563D02*
X116084047Y-92461563D01*
X116256404Y-92346659D01*
X116371309Y-92231754D01*
X116428761Y-92116849D01*
X116084047Y-93553159D02*
X116084047Y-93668063D01*
X116141500Y-93782968D01*
X116198952Y-93840420D01*
X116313857Y-93897873D01*
X116543666Y-93955325D01*
X116830928Y-93955325D01*
X117060738Y-93897873D01*
X117175642Y-93840420D01*
X117233095Y-93782968D01*
X117290547Y-93668063D01*
X117290547Y-93553159D01*
X117233095Y-93438254D01*
X117175642Y-93380801D01*
X117060738Y-93323349D01*
X116830928Y-93265897D01*
X116543666Y-93265897D01*
X116313857Y-93323349D01*
X116198952Y-93380801D01*
X116141500Y-93438254D01*
X116084047Y-93553159D01*
X116084047Y-94702206D02*
X116084047Y-94817111D01*
X116141500Y-94932016D01*
X116198952Y-94989468D01*
X116313857Y-95046920D01*
X116543666Y-95104373D01*
X116830928Y-95104373D01*
X117060738Y-95046920D01*
X117175642Y-94989468D01*
X117233095Y-94932016D01*
X117290547Y-94817111D01*
X117290547Y-94702206D01*
X117233095Y-94587301D01*
X117175642Y-94529849D01*
X117060738Y-94472397D01*
X116830928Y-94414944D01*
X116543666Y-94414944D01*
X116313857Y-94472397D01*
X116198952Y-94529849D01*
X116141500Y-94587301D01*
X116084047Y-94702206D01*
X116486214Y-95621444D02*
X117290547Y-95621444D01*
X116601119Y-95621444D02*
X116543666Y-95678897D01*
X116486214Y-95793801D01*
X116486214Y-95966159D01*
X116543666Y-96081063D01*
X116658571Y-96138516D01*
X117290547Y-96138516D01*
X116658571Y-97115206D02*
X116658571Y-96713040D01*
X117290547Y-96713040D02*
X116084047Y-96713040D01*
X116084047Y-97287563D01*
X123144642Y-98324730D02*
X123202095Y-98267278D01*
X123259547Y-98094920D01*
X123259547Y-97980016D01*
X123202095Y-97807659D01*
X123087190Y-97692754D01*
X122972285Y-97635301D01*
X122742476Y-97577849D01*
X122570119Y-97577849D01*
X122340309Y-97635301D01*
X122225404Y-97692754D01*
X122110500Y-97807659D01*
X122053047Y-97980016D01*
X122053047Y-98094920D01*
X122110500Y-98267278D01*
X122167952Y-98324730D01*
X123259547Y-99473778D02*
X123259547Y-98784349D01*
X123259547Y-99129063D02*
X122053047Y-99129063D01*
X122225404Y-99014159D01*
X122340309Y-98899254D01*
X122397761Y-98784349D01*
X122053047Y-100220659D02*
X122053047Y-100335563D01*
X122110500Y-100450468D01*
X122167952Y-100507920D01*
X122282857Y-100565373D01*
X122512666Y-100622825D01*
X122799928Y-100622825D01*
X123029738Y-100565373D01*
X123144642Y-100507920D01*
X123202095Y-100450468D01*
X123259547Y-100335563D01*
X123259547Y-100220659D01*
X123202095Y-100105754D01*
X123144642Y-100048301D01*
X123029738Y-99990849D01*
X122799928Y-99933397D01*
X122512666Y-99933397D01*
X122282857Y-99990849D01*
X122167952Y-100048301D01*
X122110500Y-100105754D01*
X122053047Y-100220659D01*
X123259547Y-93441278D02*
X123259547Y-92751849D01*
X123259547Y-93096563D02*
X122053047Y-93096563D01*
X122225404Y-92981659D01*
X122340309Y-92866754D01*
X122397761Y-92751849D01*
X122455214Y-93958349D02*
X123259547Y-93958349D01*
X122570119Y-93958349D02*
X122512666Y-94015801D01*
X122455214Y-94130706D01*
X122455214Y-94303063D01*
X122512666Y-94417968D01*
X122627571Y-94475420D01*
X123259547Y-94475420D01*
X122627571Y-95452111D02*
X122627571Y-95049944D01*
X123259547Y-95049944D02*
X122053047Y-95049944D01*
X122053047Y-95624468D01*
X131145642Y-97943730D02*
X131203095Y-97886278D01*
X131260547Y-97713920D01*
X131260547Y-97599016D01*
X131203095Y-97426659D01*
X131088190Y-97311754D01*
X130973285Y-97254301D01*
X130743476Y-97196849D01*
X130571119Y-97196849D01*
X130341309Y-97254301D01*
X130226404Y-97311754D01*
X130111500Y-97426659D01*
X130054047Y-97599016D01*
X130054047Y-97713920D01*
X130111500Y-97886278D01*
X130168952Y-97943730D01*
X131260547Y-99092778D02*
X131260547Y-98403349D01*
X131260547Y-98748063D02*
X130054047Y-98748063D01*
X130226404Y-98633159D01*
X130341309Y-98518254D01*
X130398761Y-98403349D01*
X131260547Y-100241825D02*
X131260547Y-99552397D01*
X131260547Y-99897111D02*
X130054047Y-99897111D01*
X130226404Y-99782206D01*
X130341309Y-99667301D01*
X130398761Y-99552397D01*
X131133547Y-93187278D02*
X131133547Y-92497849D01*
X131133547Y-92842563D02*
X129927047Y-92842563D01*
X130099404Y-92727659D01*
X130214309Y-92612754D01*
X130271761Y-92497849D01*
X130329214Y-93704349D02*
X131133547Y-93704349D01*
X130444119Y-93704349D02*
X130386666Y-93761801D01*
X130329214Y-93876706D01*
X130329214Y-94049063D01*
X130386666Y-94163968D01*
X130501571Y-94221420D01*
X131133547Y-94221420D01*
X130501571Y-95198111D02*
X130501571Y-94795944D01*
X131133547Y-94795944D02*
X129927047Y-94795944D01*
X129927047Y-95370468D01*
X137368642Y-99594730D02*
X137426095Y-99537278D01*
X137483547Y-99364920D01*
X137483547Y-99250016D01*
X137426095Y-99077659D01*
X137311190Y-98962754D01*
X137196285Y-98905301D01*
X136966476Y-98847849D01*
X136794119Y-98847849D01*
X136564309Y-98905301D01*
X136449404Y-98962754D01*
X136334500Y-99077659D01*
X136277047Y-99250016D01*
X136277047Y-99364920D01*
X136334500Y-99537278D01*
X136391952Y-99594730D01*
X137483547Y-100743778D02*
X137483547Y-100054349D01*
X137483547Y-100399063D02*
X136277047Y-100399063D01*
X136449404Y-100284159D01*
X136564309Y-100169254D01*
X136621761Y-100054349D01*
X136391952Y-101203397D02*
X136334500Y-101260849D01*
X136277047Y-101375754D01*
X136277047Y-101663016D01*
X136334500Y-101777920D01*
X136391952Y-101835373D01*
X136506857Y-101892825D01*
X136621761Y-101892825D01*
X136794119Y-101835373D01*
X137483547Y-101145944D01*
X137483547Y-101892825D01*
X139896547Y-97505278D02*
X139896547Y-96815849D01*
X139896547Y-97160563D02*
X138690047Y-97160563D01*
X138862404Y-97045659D01*
X138977309Y-96930754D01*
X139034761Y-96815849D01*
X138690047Y-98252159D02*
X138690047Y-98367063D01*
X138747500Y-98481968D01*
X138804952Y-98539420D01*
X138919857Y-98596873D01*
X139149666Y-98654325D01*
X139436928Y-98654325D01*
X139666738Y-98596873D01*
X139781642Y-98539420D01*
X139839095Y-98481968D01*
X139896547Y-98367063D01*
X139896547Y-98252159D01*
X139839095Y-98137254D01*
X139781642Y-98079801D01*
X139666738Y-98022349D01*
X139436928Y-97964897D01*
X139149666Y-97964897D01*
X138919857Y-98022349D01*
X138804952Y-98079801D01*
X138747500Y-98137254D01*
X138690047Y-98252159D01*
X138690047Y-99401206D02*
X138690047Y-99516111D01*
X138747500Y-99631016D01*
X138804952Y-99688468D01*
X138919857Y-99745920D01*
X139149666Y-99803373D01*
X139436928Y-99803373D01*
X139666738Y-99745920D01*
X139781642Y-99688468D01*
X139839095Y-99631016D01*
X139896547Y-99516111D01*
X139896547Y-99401206D01*
X139839095Y-99286301D01*
X139781642Y-99228849D01*
X139666738Y-99171397D01*
X139436928Y-99113944D01*
X139149666Y-99113944D01*
X138919857Y-99171397D01*
X138804952Y-99228849D01*
X138747500Y-99286301D01*
X138690047Y-99401206D01*
X139092214Y-100320444D02*
X139896547Y-100320444D01*
X139207119Y-100320444D02*
X139149666Y-100377897D01*
X139092214Y-100492801D01*
X139092214Y-100665159D01*
X139149666Y-100780063D01*
X139264571Y-100837516D01*
X139896547Y-100837516D01*
X139264571Y-101814206D02*
X139264571Y-101412040D01*
X139896547Y-101412040D02*
X138690047Y-101412040D01*
X138690047Y-101986563D01*
X131399642Y-78004730D02*
X131457095Y-77947278D01*
X131514547Y-77774920D01*
X131514547Y-77660016D01*
X131457095Y-77487659D01*
X131342190Y-77372754D01*
X131227285Y-77315301D01*
X130997476Y-77257849D01*
X130825119Y-77257849D01*
X130595309Y-77315301D01*
X130480404Y-77372754D01*
X130365500Y-77487659D01*
X130308047Y-77660016D01*
X130308047Y-77774920D01*
X130365500Y-77947278D01*
X130422952Y-78004730D01*
X131514547Y-79153778D02*
X131514547Y-78464349D01*
X131514547Y-78809063D02*
X130308047Y-78809063D01*
X130480404Y-78694159D01*
X130595309Y-78579254D01*
X130652761Y-78464349D01*
X130308047Y-79555944D02*
X130308047Y-80302825D01*
X130767666Y-79900659D01*
X130767666Y-80073016D01*
X130825119Y-80187920D01*
X130882571Y-80245373D01*
X130997476Y-80302825D01*
X131284738Y-80302825D01*
X131399642Y-80245373D01*
X131457095Y-80187920D01*
X131514547Y-80073016D01*
X131514547Y-79728301D01*
X131457095Y-79613397D01*
X131399642Y-79555944D01*
X131387547Y-81884278D02*
X131387547Y-81194849D01*
X131387547Y-81539563D02*
X130181047Y-81539563D01*
X130353404Y-81424659D01*
X130468309Y-81309754D01*
X130525761Y-81194849D01*
X130583214Y-82401349D02*
X131387547Y-82401349D01*
X130698119Y-82401349D02*
X130640666Y-82458801D01*
X130583214Y-82573706D01*
X130583214Y-82746063D01*
X130640666Y-82860968D01*
X130755571Y-82918420D01*
X131387547Y-82918420D01*
X130755571Y-83895111D02*
X130755571Y-83492944D01*
X131387547Y-83492944D02*
X130181047Y-83492944D01*
X130181047Y-84067468D01*
X136987642Y-78131730D02*
X137045095Y-78074278D01*
X137102547Y-77901920D01*
X137102547Y-77787016D01*
X137045095Y-77614659D01*
X136930190Y-77499754D01*
X136815285Y-77442301D01*
X136585476Y-77384849D01*
X136413119Y-77384849D01*
X136183309Y-77442301D01*
X136068404Y-77499754D01*
X135953500Y-77614659D01*
X135896047Y-77787016D01*
X135896047Y-77901920D01*
X135953500Y-78074278D01*
X136010952Y-78131730D01*
X137102547Y-79280778D02*
X137102547Y-78591349D01*
X137102547Y-78936063D02*
X135896047Y-78936063D01*
X136068404Y-78821159D01*
X136183309Y-78706254D01*
X136240761Y-78591349D01*
X136298214Y-80314920D02*
X137102547Y-80314920D01*
X135838595Y-80027659D02*
X136700380Y-79740397D01*
X136700380Y-80487278D01*
X138753547Y-78074278D02*
X138753547Y-77384849D01*
X138753547Y-77729563D02*
X137547047Y-77729563D01*
X137719404Y-77614659D01*
X137834309Y-77499754D01*
X137891761Y-77384849D01*
X137547047Y-78821159D02*
X137547047Y-78936063D01*
X137604500Y-79050968D01*
X137661952Y-79108420D01*
X137776857Y-79165873D01*
X138006666Y-79223325D01*
X138293928Y-79223325D01*
X138523738Y-79165873D01*
X138638642Y-79108420D01*
X138696095Y-79050968D01*
X138753547Y-78936063D01*
X138753547Y-78821159D01*
X138696095Y-78706254D01*
X138638642Y-78648801D01*
X138523738Y-78591349D01*
X138293928Y-78533897D01*
X138006666Y-78533897D01*
X137776857Y-78591349D01*
X137661952Y-78648801D01*
X137604500Y-78706254D01*
X137547047Y-78821159D01*
X137547047Y-79970206D02*
X137547047Y-80085111D01*
X137604500Y-80200016D01*
X137661952Y-80257468D01*
X137776857Y-80314920D01*
X138006666Y-80372373D01*
X138293928Y-80372373D01*
X138523738Y-80314920D01*
X138638642Y-80257468D01*
X138696095Y-80200016D01*
X138753547Y-80085111D01*
X138753547Y-79970206D01*
X138696095Y-79855301D01*
X138638642Y-79797849D01*
X138523738Y-79740397D01*
X138293928Y-79682944D01*
X138006666Y-79682944D01*
X137776857Y-79740397D01*
X137661952Y-79797849D01*
X137604500Y-79855301D01*
X137547047Y-79970206D01*
X137949214Y-80889444D02*
X138753547Y-80889444D01*
X138064119Y-80889444D02*
X138006666Y-80946897D01*
X137949214Y-81061801D01*
X137949214Y-81234159D01*
X138006666Y-81349063D01*
X138121571Y-81406516D01*
X138753547Y-81406516D01*
X138121571Y-82383206D02*
X138121571Y-81981040D01*
X138753547Y-81981040D02*
X137547047Y-81981040D01*
X137547047Y-82555563D01*
X155929269Y-82504642D02*
X155986721Y-82562095D01*
X156159079Y-82619547D01*
X156273983Y-82619547D01*
X156446340Y-82562095D01*
X156561245Y-82447190D01*
X156618698Y-82332285D01*
X156676150Y-82102476D01*
X156676150Y-81930119D01*
X156618698Y-81700309D01*
X156561245Y-81585404D01*
X156446340Y-81470500D01*
X156273983Y-81413047D01*
X156159079Y-81413047D01*
X155986721Y-81470500D01*
X155929269Y-81527952D01*
X154780221Y-82619547D02*
X155469650Y-82619547D01*
X155124936Y-82619547D02*
X155124936Y-81413047D01*
X155239840Y-81585404D01*
X155354745Y-81700309D01*
X155469650Y-81757761D01*
X153688626Y-81413047D02*
X154263150Y-81413047D01*
X154320602Y-81987571D01*
X154263150Y-81930119D01*
X154148245Y-81872666D01*
X153860983Y-81872666D01*
X153746079Y-81930119D01*
X153688626Y-81987571D01*
X153631174Y-82102476D01*
X153631174Y-82389738D01*
X153688626Y-82504642D01*
X153746079Y-82562095D01*
X153860983Y-82619547D01*
X154148245Y-82619547D01*
X154263150Y-82562095D01*
X154320602Y-82504642D01*
X157002721Y-84778547D02*
X157692150Y-84778547D01*
X157347436Y-84778547D02*
X157347436Y-83572047D01*
X157462340Y-83744404D01*
X157577245Y-83859309D01*
X157692150Y-83916761D01*
X156255840Y-83572047D02*
X156140936Y-83572047D01*
X156026031Y-83629500D01*
X155968579Y-83686952D01*
X155911126Y-83801857D01*
X155853674Y-84031666D01*
X155853674Y-84318928D01*
X155911126Y-84548738D01*
X155968579Y-84663642D01*
X156026031Y-84721095D01*
X156140936Y-84778547D01*
X156255840Y-84778547D01*
X156370745Y-84721095D01*
X156428198Y-84663642D01*
X156485650Y-84548738D01*
X156543102Y-84318928D01*
X156543102Y-84031666D01*
X156485650Y-83801857D01*
X156428198Y-83686952D01*
X156370745Y-83629500D01*
X156255840Y-83572047D01*
X155106793Y-83572047D02*
X154991888Y-83572047D01*
X154876983Y-83629500D01*
X154819531Y-83686952D01*
X154762079Y-83801857D01*
X154704626Y-84031666D01*
X154704626Y-84318928D01*
X154762079Y-84548738D01*
X154819531Y-84663642D01*
X154876983Y-84721095D01*
X154991888Y-84778547D01*
X155106793Y-84778547D01*
X155221698Y-84721095D01*
X155279150Y-84663642D01*
X155336602Y-84548738D01*
X155394055Y-84318928D01*
X155394055Y-84031666D01*
X155336602Y-83801857D01*
X155279150Y-83686952D01*
X155221698Y-83629500D01*
X155106793Y-83572047D01*
X154187555Y-83974214D02*
X154187555Y-84778547D01*
X154187555Y-84089119D02*
X154130102Y-84031666D01*
X154015198Y-83974214D01*
X153842840Y-83974214D01*
X153727936Y-84031666D01*
X153670483Y-84146571D01*
X153670483Y-84778547D01*
X152693793Y-84146571D02*
X153095960Y-84146571D01*
X153095960Y-84778547D02*
X153095960Y-83572047D01*
X152521436Y-83572047D01*
X155294269Y-76154642D02*
X155351721Y-76212095D01*
X155524079Y-76269547D01*
X155638983Y-76269547D01*
X155811340Y-76212095D01*
X155926245Y-76097190D01*
X155983698Y-75982285D01*
X156041150Y-75752476D01*
X156041150Y-75580119D01*
X155983698Y-75350309D01*
X155926245Y-75235404D01*
X155811340Y-75120500D01*
X155638983Y-75063047D01*
X155524079Y-75063047D01*
X155351721Y-75120500D01*
X155294269Y-75177952D01*
X154145221Y-76269547D02*
X154834650Y-76269547D01*
X154489936Y-76269547D02*
X154489936Y-75063047D01*
X154604840Y-75235404D01*
X154719745Y-75350309D01*
X154834650Y-75407761D01*
X153111079Y-75063047D02*
X153340888Y-75063047D01*
X153455793Y-75120500D01*
X153513245Y-75177952D01*
X153628150Y-75350309D01*
X153685602Y-75580119D01*
X153685602Y-76039738D01*
X153628150Y-76154642D01*
X153570698Y-76212095D01*
X153455793Y-76269547D01*
X153225983Y-76269547D01*
X153111079Y-76212095D01*
X153053626Y-76154642D01*
X152996174Y-76039738D01*
X152996174Y-75752476D01*
X153053626Y-75637571D01*
X153111079Y-75580119D01*
X153225983Y-75522666D01*
X153455793Y-75522666D01*
X153570698Y-75580119D01*
X153628150Y-75637571D01*
X153685602Y-75752476D01*
X155351721Y-74364547D02*
X156041150Y-74364547D01*
X155696436Y-74364547D02*
X155696436Y-73158047D01*
X155811340Y-73330404D01*
X155926245Y-73445309D01*
X156041150Y-73502761D01*
X154834650Y-73560214D02*
X154834650Y-74364547D01*
X154834650Y-73675119D02*
X154777198Y-73617666D01*
X154662293Y-73560214D01*
X154489936Y-73560214D01*
X154375031Y-73617666D01*
X154317579Y-73732571D01*
X154317579Y-74364547D01*
X153340888Y-73732571D02*
X153743055Y-73732571D01*
X153743055Y-74364547D02*
X153743055Y-73158047D01*
X153168531Y-73158047D01*
X139388547Y-85497730D02*
X138814023Y-85095563D01*
X139388547Y-84808301D02*
X138182047Y-84808301D01*
X138182047Y-85267920D01*
X138239500Y-85382825D01*
X138296952Y-85440278D01*
X138411857Y-85497730D01*
X138584214Y-85497730D01*
X138699119Y-85440278D01*
X138756571Y-85382825D01*
X138814023Y-85267920D01*
X138814023Y-84808301D01*
X138296952Y-85957349D02*
X138239500Y-86014801D01*
X138182047Y-86129706D01*
X138182047Y-86416968D01*
X138239500Y-86531873D01*
X138296952Y-86589325D01*
X138411857Y-86646778D01*
X138526761Y-86646778D01*
X138699119Y-86589325D01*
X139388547Y-85899897D01*
X139388547Y-86646778D01*
X139388547Y-87795825D02*
X139388547Y-87106397D01*
X139388547Y-87451111D02*
X138182047Y-87451111D01*
X138354404Y-87336206D01*
X138469309Y-87221301D01*
X138526761Y-87106397D01*
X139388547Y-89123278D02*
X139388547Y-88433849D01*
X139388547Y-88778563D02*
X138182047Y-88778563D01*
X138354404Y-88663659D01*
X138469309Y-88548754D01*
X138526761Y-88433849D01*
X139388547Y-89640349D02*
X138182047Y-89640349D01*
X139388547Y-90329778D02*
X138699119Y-89812706D01*
X138182047Y-90329778D02*
X138871476Y-89640349D01*
M02*
