G04 #@! TF.GenerationSoftware,KiCad,Pcbnew,(2018-01-07 revision 6cee19d37)-makepkg*
G04 #@! TF.CreationDate,2018-01-30T19:24:48-07:00*
G04 #@! TF.ProjectId,Copper Receiver Module,436F7070657220526563656976657220,0.1*
G04 #@! TF.SameCoordinates,Original*
G04 #@! TF.FileFunction,Legend,Top*
G04 #@! TF.FilePolarity,Positive*
%FSLAX46Y46*%
G04 Gerber Fmt 4.6, Leading zero omitted, Abs format (unit mm)*
G04 Created by KiCad (PCBNEW (2018-01-07 revision 6cee19d37)-makepkg) date 01/30/18 19:24:48*
%MOMM*%
%LPD*%
G01*
G04 APERTURE LIST*
%ADD10C,0.127000*%
%ADD11C,0.300000*%
%ADD12C,0.100000*%
%ADD13C,0.152400*%
%ADD14C,0.150000*%
%ADD15C,0.120000*%
%ADD16C,0.101600*%
%ADD17C,0.118872*%
%ADD18C,0.076200*%
G04 APERTURE END LIST*
D10*
X167600428Y-71060571D02*
X167886142Y-71060571D01*
X168029000Y-71132000D01*
X168171857Y-71274857D01*
X168243285Y-71560571D01*
X168243285Y-72060571D01*
X168171857Y-72346285D01*
X168029000Y-72489142D01*
X167886142Y-72560571D01*
X167600428Y-72560571D01*
X167457571Y-72489142D01*
X167314714Y-72346285D01*
X167243285Y-72060571D01*
X167243285Y-71560571D01*
X167314714Y-71274857D01*
X167457571Y-71132000D01*
X167600428Y-71060571D01*
X168886142Y-72560571D02*
X168886142Y-71060571D01*
X169743285Y-72560571D01*
X169743285Y-71060571D01*
X96524142Y-81934857D02*
X96738428Y-82006285D01*
X96809857Y-82077714D01*
X96881285Y-82220571D01*
X96881285Y-82434857D01*
X96809857Y-82577714D01*
X96738428Y-82649142D01*
X96595571Y-82720571D01*
X96024142Y-82720571D01*
X96024142Y-81220571D01*
X96524142Y-81220571D01*
X96667000Y-81292000D01*
X96738428Y-81363428D01*
X96809857Y-81506285D01*
X96809857Y-81649142D01*
X96738428Y-81792000D01*
X96667000Y-81863428D01*
X96524142Y-81934857D01*
X96024142Y-81934857D01*
X98381285Y-82577714D02*
X98309857Y-82649142D01*
X98095571Y-82720571D01*
X97952714Y-82720571D01*
X97738428Y-82649142D01*
X97595571Y-82506285D01*
X97524142Y-82363428D01*
X97452714Y-82077714D01*
X97452714Y-81863428D01*
X97524142Y-81577714D01*
X97595571Y-81434857D01*
X97738428Y-81292000D01*
X97952714Y-81220571D01*
X98095571Y-81220571D01*
X98309857Y-81292000D01*
X98381285Y-81363428D01*
X99024142Y-82720571D02*
X99024142Y-81220571D01*
X99881285Y-82720571D02*
X99238428Y-81863428D01*
X99881285Y-81220571D02*
X99024142Y-82077714D01*
X92365000Y-72560571D02*
X92365000Y-71060571D01*
X92722142Y-71060571D01*
X92936428Y-71132000D01*
X93079285Y-71274857D01*
X93150714Y-71417714D01*
X93222142Y-71703428D01*
X93222142Y-71917714D01*
X93150714Y-72203428D01*
X93079285Y-72346285D01*
X92936428Y-72489142D01*
X92722142Y-72560571D01*
X92365000Y-72560571D01*
X93793571Y-72132000D02*
X94507857Y-72132000D01*
X93650714Y-72560571D02*
X94150714Y-71060571D01*
X94650714Y-72560571D01*
X94936428Y-71060571D02*
X95793571Y-71060571D01*
X95365000Y-72560571D02*
X95365000Y-71060571D01*
X96222142Y-72132000D02*
X96936428Y-72132000D01*
X96079285Y-72560571D02*
X96579285Y-71060571D01*
X97079285Y-72560571D01*
X94000142Y-87927571D02*
X93285857Y-87927571D01*
X93285857Y-86427571D01*
X95357285Y-87927571D02*
X94857285Y-87213285D01*
X94500142Y-87927571D02*
X94500142Y-86427571D01*
X95071571Y-86427571D01*
X95214428Y-86499000D01*
X95285857Y-86570428D01*
X95357285Y-86713285D01*
X95357285Y-86927571D01*
X95285857Y-87070428D01*
X95214428Y-87141857D01*
X95071571Y-87213285D01*
X94500142Y-87213285D01*
X96857285Y-87784714D02*
X96785857Y-87856142D01*
X96571571Y-87927571D01*
X96428714Y-87927571D01*
X96214428Y-87856142D01*
X96071571Y-87713285D01*
X96000142Y-87570428D01*
X95928714Y-87284714D01*
X95928714Y-87070428D01*
X96000142Y-86784714D01*
X96071571Y-86641857D01*
X96214428Y-86499000D01*
X96428714Y-86427571D01*
X96571571Y-86427571D01*
X96785857Y-86499000D01*
X96857285Y-86570428D01*
X98214428Y-87927571D02*
X97500142Y-87927571D01*
X97500142Y-86427571D01*
X98714428Y-87927571D02*
X98714428Y-86427571D01*
X99571571Y-87927571D02*
X98928714Y-87070428D01*
X99571571Y-86427571D02*
X98714428Y-87284714D01*
D11*
X69068428Y-85006571D02*
X69068428Y-83506571D01*
X69425571Y-83506571D01*
X69639857Y-83578000D01*
X69782714Y-83720857D01*
X69854142Y-83863714D01*
X69925571Y-84149428D01*
X69925571Y-84363714D01*
X69854142Y-84649428D01*
X69782714Y-84792285D01*
X69639857Y-84935142D01*
X69425571Y-85006571D01*
X69068428Y-85006571D01*
X71211285Y-85006571D02*
X71211285Y-84220857D01*
X71139857Y-84078000D01*
X70997000Y-84006571D01*
X70711285Y-84006571D01*
X70568428Y-84078000D01*
X71211285Y-84935142D02*
X71068428Y-85006571D01*
X70711285Y-85006571D01*
X70568428Y-84935142D01*
X70497000Y-84792285D01*
X70497000Y-84649428D01*
X70568428Y-84506571D01*
X70711285Y-84435142D01*
X71068428Y-84435142D01*
X71211285Y-84363714D01*
X71711285Y-84006571D02*
X72282714Y-84006571D01*
X71925571Y-83506571D02*
X71925571Y-84792285D01*
X71997000Y-84935142D01*
X72139857Y-85006571D01*
X72282714Y-85006571D01*
X73425571Y-85006571D02*
X73425571Y-84220857D01*
X73354142Y-84078000D01*
X73211285Y-84006571D01*
X72925571Y-84006571D01*
X72782714Y-84078000D01*
X73425571Y-84935142D02*
X73282714Y-85006571D01*
X72925571Y-85006571D01*
X72782714Y-84935142D01*
X72711285Y-84792285D01*
X72711285Y-84649428D01*
X72782714Y-84506571D01*
X72925571Y-84435142D01*
X73282714Y-84435142D01*
X73425571Y-84363714D01*
X66171571Y-94023571D02*
X65314428Y-94023571D01*
X65743000Y-94023571D02*
X65743000Y-92523571D01*
X65600142Y-92737857D01*
X65457285Y-92880714D01*
X65314428Y-92952142D01*
X66743000Y-92666428D02*
X66814428Y-92595000D01*
X66957285Y-92523571D01*
X67314428Y-92523571D01*
X67457285Y-92595000D01*
X67528714Y-92666428D01*
X67600142Y-92809285D01*
X67600142Y-92952142D01*
X67528714Y-93166428D01*
X66671571Y-94023571D01*
X67600142Y-94023571D01*
X68028714Y-92523571D02*
X68528714Y-94023571D01*
X69028714Y-92523571D01*
X70671571Y-94023571D02*
X70671571Y-92523571D01*
X71243000Y-92523571D01*
X71385857Y-92595000D01*
X71457285Y-92666428D01*
X71528714Y-92809285D01*
X71528714Y-93023571D01*
X71457285Y-93166428D01*
X71385857Y-93237857D01*
X71243000Y-93309285D01*
X70671571Y-93309285D01*
X72385857Y-94023571D02*
X72243000Y-93952142D01*
X72171571Y-93880714D01*
X72100142Y-93737857D01*
X72100142Y-93309285D01*
X72171571Y-93166428D01*
X72243000Y-93095000D01*
X72385857Y-93023571D01*
X72600142Y-93023571D01*
X72743000Y-93095000D01*
X72814428Y-93166428D01*
X72885857Y-93309285D01*
X72885857Y-93737857D01*
X72814428Y-93880714D01*
X72743000Y-93952142D01*
X72600142Y-94023571D01*
X72385857Y-94023571D01*
X73385857Y-93023571D02*
X73671571Y-94023571D01*
X73957285Y-93309285D01*
X74243000Y-94023571D01*
X74528714Y-93023571D01*
X75671571Y-93952142D02*
X75528714Y-94023571D01*
X75243000Y-94023571D01*
X75100142Y-93952142D01*
X75028714Y-93809285D01*
X75028714Y-93237857D01*
X75100142Y-93095000D01*
X75243000Y-93023571D01*
X75528714Y-93023571D01*
X75671571Y-93095000D01*
X75743000Y-93237857D01*
X75743000Y-93380714D01*
X75028714Y-93523571D01*
X76385857Y-94023571D02*
X76385857Y-93023571D01*
X76385857Y-93309285D02*
X76457285Y-93166428D01*
X76528714Y-93095000D01*
X76671571Y-93023571D01*
X76814428Y-93023571D01*
X172891428Y-53740857D02*
X172391428Y-53740857D01*
X172391428Y-54526571D02*
X172391428Y-53026571D01*
X173105714Y-53026571D01*
X174248571Y-54455142D02*
X174105714Y-54526571D01*
X173820000Y-54526571D01*
X173677142Y-54455142D01*
X173605714Y-54312285D01*
X173605714Y-53740857D01*
X173677142Y-53598000D01*
X173820000Y-53526571D01*
X174105714Y-53526571D01*
X174248571Y-53598000D01*
X174320000Y-53740857D01*
X174320000Y-53883714D01*
X173605714Y-54026571D01*
X174962857Y-54526571D02*
X174962857Y-53026571D01*
X174962857Y-53598000D02*
X175105714Y-53526571D01*
X175391428Y-53526571D01*
X175534285Y-53598000D01*
X175605714Y-53669428D01*
X175677142Y-53812285D01*
X175677142Y-54240857D01*
X175605714Y-54383714D01*
X175534285Y-54455142D01*
X175391428Y-54526571D01*
X175105714Y-54526571D01*
X174962857Y-54455142D01*
X178248571Y-54526571D02*
X177391428Y-54526571D01*
X177820000Y-54526571D02*
X177820000Y-53026571D01*
X177677142Y-53240857D01*
X177534285Y-53383714D01*
X177391428Y-53455142D01*
X178962857Y-54455142D02*
X178962857Y-54526571D01*
X178891428Y-54669428D01*
X178820000Y-54740857D01*
X180677142Y-53169428D02*
X180748571Y-53098000D01*
X180891428Y-53026571D01*
X181248571Y-53026571D01*
X181391428Y-53098000D01*
X181462857Y-53169428D01*
X181534285Y-53312285D01*
X181534285Y-53455142D01*
X181462857Y-53669428D01*
X180605714Y-54526571D01*
X181534285Y-54526571D01*
X182462857Y-53026571D02*
X182605714Y-53026571D01*
X182748571Y-53098000D01*
X182820000Y-53169428D01*
X182891428Y-53312285D01*
X182962857Y-53598000D01*
X182962857Y-53955142D01*
X182891428Y-54240857D01*
X182820000Y-54383714D01*
X182748571Y-54455142D01*
X182605714Y-54526571D01*
X182462857Y-54526571D01*
X182320000Y-54455142D01*
X182248571Y-54383714D01*
X182177142Y-54240857D01*
X182105714Y-53955142D01*
X182105714Y-53598000D01*
X182177142Y-53312285D01*
X182248571Y-53169428D01*
X182320000Y-53098000D01*
X182462857Y-53026571D01*
X184391428Y-54526571D02*
X183534285Y-54526571D01*
X183962857Y-54526571D02*
X183962857Y-53026571D01*
X183820000Y-53240857D01*
X183677142Y-53383714D01*
X183534285Y-53455142D01*
X185248571Y-53669428D02*
X185105714Y-53598000D01*
X185034285Y-53526571D01*
X184962857Y-53383714D01*
X184962857Y-53312285D01*
X185034285Y-53169428D01*
X185105714Y-53098000D01*
X185248571Y-53026571D01*
X185534285Y-53026571D01*
X185677142Y-53098000D01*
X185748571Y-53169428D01*
X185820000Y-53312285D01*
X185820000Y-53383714D01*
X185748571Y-53526571D01*
X185677142Y-53598000D01*
X185534285Y-53669428D01*
X185248571Y-53669428D01*
X185105714Y-53740857D01*
X185034285Y-53812285D01*
X184962857Y-53955142D01*
X184962857Y-54240857D01*
X185034285Y-54383714D01*
X185105714Y-54455142D01*
X185248571Y-54526571D01*
X185534285Y-54526571D01*
X185677142Y-54455142D01*
X185748571Y-54383714D01*
X185820000Y-54240857D01*
X185820000Y-53955142D01*
X185748571Y-53812285D01*
X185677142Y-53740857D01*
X185534285Y-53669428D01*
X149543428Y-56923714D02*
X149472000Y-56995142D01*
X149257714Y-57066571D01*
X149114857Y-57066571D01*
X148900571Y-56995142D01*
X148757714Y-56852285D01*
X148686285Y-56709428D01*
X148614857Y-56423714D01*
X148614857Y-56209428D01*
X148686285Y-55923714D01*
X148757714Y-55780857D01*
X148900571Y-55638000D01*
X149114857Y-55566571D01*
X149257714Y-55566571D01*
X149472000Y-55638000D01*
X149543428Y-55709428D01*
X150043428Y-55566571D02*
X150400571Y-57066571D01*
X150686285Y-55995142D01*
X150972000Y-57066571D01*
X151329142Y-55566571D01*
X154257714Y-57066571D02*
X154186285Y-57066571D01*
X154043428Y-56995142D01*
X153829142Y-56780857D01*
X153472000Y-56352285D01*
X153329142Y-56138000D01*
X153257714Y-55923714D01*
X153257714Y-55780857D01*
X153329142Y-55638000D01*
X153472000Y-55566571D01*
X153543428Y-55566571D01*
X153686285Y-55638000D01*
X153757714Y-55780857D01*
X153757714Y-55852285D01*
X153686285Y-55995142D01*
X153614857Y-56066571D01*
X153186285Y-56352285D01*
X153114857Y-56423714D01*
X153043428Y-56566571D01*
X153043428Y-56780857D01*
X153114857Y-56923714D01*
X153186285Y-56995142D01*
X153329142Y-57066571D01*
X153543428Y-57066571D01*
X153686285Y-56995142D01*
X153757714Y-56923714D01*
X153972000Y-56638000D01*
X154043428Y-56423714D01*
X154043428Y-56280857D01*
X156757714Y-57066571D02*
X156043428Y-57066571D01*
X156043428Y-55566571D01*
X157257714Y-57066571D02*
X157257714Y-55566571D01*
X157757714Y-56638000D01*
X158257714Y-55566571D01*
X158257714Y-57066571D01*
X161329142Y-57066571D02*
X161257714Y-57066571D01*
X161114857Y-56995142D01*
X160900571Y-56780857D01*
X160543428Y-56352285D01*
X160400571Y-56138000D01*
X160329142Y-55923714D01*
X160329142Y-55780857D01*
X160400571Y-55638000D01*
X160543428Y-55566571D01*
X160614857Y-55566571D01*
X160757714Y-55638000D01*
X160829142Y-55780857D01*
X160829142Y-55852285D01*
X160757714Y-55995142D01*
X160686285Y-56066571D01*
X160257714Y-56352285D01*
X160186285Y-56423714D01*
X160114857Y-56566571D01*
X160114857Y-56780857D01*
X160186285Y-56923714D01*
X160257714Y-56995142D01*
X160400571Y-57066571D01*
X160614857Y-57066571D01*
X160757714Y-56995142D01*
X160829142Y-56923714D01*
X161043428Y-56638000D01*
X161114857Y-56423714D01*
X161114857Y-56280857D01*
X163114857Y-57066571D02*
X163114857Y-55566571D01*
X163972000Y-57066571D01*
X163972000Y-55566571D01*
X165186285Y-56280857D02*
X164686285Y-56280857D01*
X164686285Y-57066571D02*
X164686285Y-55566571D01*
X165400571Y-55566571D01*
X150154571Y-54272571D02*
X150154571Y-52772571D01*
X150511714Y-52772571D01*
X150726000Y-52844000D01*
X150868857Y-52986857D01*
X150940285Y-53129714D01*
X151011714Y-53415428D01*
X151011714Y-53629714D01*
X150940285Y-53915428D01*
X150868857Y-54058285D01*
X150726000Y-54201142D01*
X150511714Y-54272571D01*
X150154571Y-54272571D01*
X151583142Y-53844000D02*
X152297428Y-53844000D01*
X151440285Y-54272571D02*
X151940285Y-52772571D01*
X152440285Y-54272571D01*
X153797428Y-54129714D02*
X153726000Y-54201142D01*
X153511714Y-54272571D01*
X153368857Y-54272571D01*
X153154571Y-54201142D01*
X153011714Y-54058285D01*
X152940285Y-53915428D01*
X152868857Y-53629714D01*
X152868857Y-53415428D01*
X152940285Y-53129714D01*
X153011714Y-52986857D01*
X153154571Y-52844000D01*
X153368857Y-52772571D01*
X153511714Y-52772571D01*
X153726000Y-52844000D01*
X153797428Y-52915428D01*
X156440285Y-54272571D02*
X155940285Y-53558285D01*
X155583142Y-54272571D02*
X155583142Y-52772571D01*
X156154571Y-52772571D01*
X156297428Y-52844000D01*
X156368857Y-52915428D01*
X156440285Y-53058285D01*
X156440285Y-53272571D01*
X156368857Y-53415428D01*
X156297428Y-53486857D01*
X156154571Y-53558285D01*
X155583142Y-53558285D01*
X157654571Y-54201142D02*
X157511714Y-54272571D01*
X157226000Y-54272571D01*
X157083142Y-54201142D01*
X157011714Y-54058285D01*
X157011714Y-53486857D01*
X157083142Y-53344000D01*
X157226000Y-53272571D01*
X157511714Y-53272571D01*
X157654571Y-53344000D01*
X157726000Y-53486857D01*
X157726000Y-53629714D01*
X157011714Y-53772571D01*
X159011714Y-54201142D02*
X158868857Y-54272571D01*
X158583142Y-54272571D01*
X158440285Y-54201142D01*
X158368857Y-54129714D01*
X158297428Y-53986857D01*
X158297428Y-53558285D01*
X158368857Y-53415428D01*
X158440285Y-53344000D01*
X158583142Y-53272571D01*
X158868857Y-53272571D01*
X159011714Y-53344000D01*
X160226000Y-54201142D02*
X160083142Y-54272571D01*
X159797428Y-54272571D01*
X159654571Y-54201142D01*
X159583142Y-54058285D01*
X159583142Y-53486857D01*
X159654571Y-53344000D01*
X159797428Y-53272571D01*
X160083142Y-53272571D01*
X160226000Y-53344000D01*
X160297428Y-53486857D01*
X160297428Y-53629714D01*
X159583142Y-53772571D01*
X160940285Y-54272571D02*
X160940285Y-53272571D01*
X160940285Y-52772571D02*
X160868857Y-52844000D01*
X160940285Y-52915428D01*
X161011714Y-52844000D01*
X160940285Y-52772571D01*
X160940285Y-52915428D01*
X161511714Y-53272571D02*
X161868857Y-54272571D01*
X162226000Y-53272571D01*
X163368857Y-54201142D02*
X163226000Y-54272571D01*
X162940285Y-54272571D01*
X162797428Y-54201142D01*
X162726000Y-54058285D01*
X162726000Y-53486857D01*
X162797428Y-53344000D01*
X162940285Y-53272571D01*
X163226000Y-53272571D01*
X163368857Y-53344000D01*
X163440285Y-53486857D01*
X163440285Y-53629714D01*
X162726000Y-53772571D01*
X164083142Y-54272571D02*
X164083142Y-53272571D01*
X164083142Y-53558285D02*
X164154571Y-53415428D01*
X164226000Y-53344000D01*
X164368857Y-53272571D01*
X164511714Y-53272571D01*
D12*
X190500000Y-50800000D02*
X63500000Y-50800000D01*
X190500000Y-127000000D02*
X190500000Y-50800000D01*
X63500000Y-127000000D02*
X190500000Y-127000000D01*
X63500000Y-50800000D02*
X63500000Y-127000000D01*
D13*
X135001000Y-122682000D02*
X133731000Y-122682000D01*
X133096000Y-122047000D02*
X133731000Y-122682000D01*
X133731000Y-120142000D02*
X133096000Y-120777000D01*
X135636000Y-122047000D02*
X135001000Y-122682000D01*
X135636000Y-120777000D02*
X135636000Y-122047000D01*
X135001000Y-120142000D02*
X135636000Y-120777000D01*
X133731000Y-120142000D02*
X135001000Y-120142000D01*
X119761000Y-122682000D02*
X118491000Y-122682000D01*
X117856000Y-122047000D02*
X118491000Y-122682000D01*
X118491000Y-120142000D02*
X117856000Y-120777000D01*
X117856000Y-120777000D02*
X117856000Y-122047000D01*
X121031000Y-122682000D02*
X120396000Y-122047000D01*
X122301000Y-122682000D02*
X121031000Y-122682000D01*
X122936000Y-122047000D02*
X122301000Y-122682000D01*
X122936000Y-120777000D02*
X122936000Y-122047000D01*
X122301000Y-120142000D02*
X122936000Y-120777000D01*
X121031000Y-120142000D02*
X122301000Y-120142000D01*
X120396000Y-120777000D02*
X121031000Y-120142000D01*
X120396000Y-122047000D02*
X119761000Y-122682000D01*
X120396000Y-120777000D02*
X120396000Y-122047000D01*
X119761000Y-120142000D02*
X120396000Y-120777000D01*
X118491000Y-120142000D02*
X119761000Y-120142000D01*
X127381000Y-122682000D02*
X126111000Y-122682000D01*
X125476000Y-122047000D02*
X126111000Y-122682000D01*
X126111000Y-120142000D02*
X125476000Y-120777000D01*
X123571000Y-122682000D02*
X122936000Y-122047000D01*
X124841000Y-122682000D02*
X123571000Y-122682000D01*
X125476000Y-122047000D02*
X124841000Y-122682000D01*
X125476000Y-120777000D02*
X125476000Y-122047000D01*
X124841000Y-120142000D02*
X125476000Y-120777000D01*
X123571000Y-120142000D02*
X124841000Y-120142000D01*
X122936000Y-120777000D02*
X123571000Y-120142000D01*
X128651000Y-122682000D02*
X128016000Y-122047000D01*
X129921000Y-122682000D02*
X128651000Y-122682000D01*
X130556000Y-122047000D02*
X129921000Y-122682000D01*
X130556000Y-120777000D02*
X130556000Y-122047000D01*
X129921000Y-120142000D02*
X130556000Y-120777000D01*
X128651000Y-120142000D02*
X129921000Y-120142000D01*
X128016000Y-120777000D02*
X128651000Y-120142000D01*
X128016000Y-122047000D02*
X127381000Y-122682000D01*
X128016000Y-120777000D02*
X128016000Y-122047000D01*
X127381000Y-120142000D02*
X128016000Y-120777000D01*
X126111000Y-120142000D02*
X127381000Y-120142000D01*
X131191000Y-122682000D02*
X130556000Y-122047000D01*
X132461000Y-122682000D02*
X131191000Y-122682000D01*
X133096000Y-122047000D02*
X132461000Y-122682000D01*
X133096000Y-120777000D02*
X133096000Y-122047000D01*
X132461000Y-120142000D02*
X133096000Y-120777000D01*
X131191000Y-120142000D02*
X132461000Y-120142000D01*
X130556000Y-120777000D02*
X131191000Y-120142000D01*
D14*
X127508000Y-105156000D02*
X127508000Y-109982000D01*
X124968000Y-105156000D02*
X124968000Y-109982000D01*
X155829000Y-102997000D02*
X155829000Y-98171000D01*
X158369000Y-102997000D02*
X158369000Y-98171000D01*
X145796000Y-102997000D02*
X145796000Y-98171000D01*
X148336000Y-102997000D02*
X148336000Y-98171000D01*
X132969000Y-110236000D02*
X132969000Y-105410000D01*
X135509000Y-110236000D02*
X135509000Y-105410000D01*
X141351000Y-114173000D02*
X141351000Y-109347000D01*
X143891000Y-114173000D02*
X143891000Y-109347000D01*
X155829000Y-108585000D02*
X155829000Y-103759000D01*
X158369000Y-108585000D02*
X158369000Y-103759000D01*
X145796000Y-108585000D02*
X145796000Y-103759000D01*
X148336000Y-108585000D02*
X148336000Y-103759000D01*
X104775000Y-53848000D02*
X109601000Y-53848000D01*
X104775000Y-56388000D02*
X109601000Y-56388000D01*
X104775000Y-61722000D02*
X109601000Y-61722000D01*
X104775000Y-64262000D02*
X109601000Y-64262000D01*
X186563000Y-97536000D02*
X181737000Y-97536000D01*
X186563000Y-94996000D02*
X181737000Y-94996000D01*
X186563000Y-89662000D02*
X181737000Y-89662000D01*
X186563000Y-87122000D02*
X181737000Y-87122000D01*
X174625000Y-119507000D02*
X169799000Y-119507000D01*
X174625000Y-116967000D02*
X169799000Y-116967000D01*
X165735000Y-112522000D02*
X160909000Y-112522000D01*
X165735000Y-109982000D02*
X160909000Y-109982000D01*
X91059000Y-111506000D02*
X95885000Y-111506000D01*
X91059000Y-114046000D02*
X95885000Y-114046000D01*
X91948000Y-119507000D02*
X96774000Y-119507000D01*
X91948000Y-122047000D02*
X96774000Y-122047000D01*
D12*
G36*
X169545000Y-81788000D02*
X169545000Y-83312000D01*
X171450000Y-83312000D01*
X171450000Y-81788000D01*
X169545000Y-81788000D01*
G37*
G36*
X169545000Y-79248000D02*
X169545000Y-80772000D01*
X171450000Y-80772000D01*
X171450000Y-79248000D01*
X169545000Y-79248000D01*
G37*
G36*
X169545000Y-76708000D02*
X169545000Y-78232000D01*
X171450000Y-78232000D01*
X171450000Y-76708000D01*
X169545000Y-76708000D01*
G37*
G36*
X169545000Y-74168000D02*
X169545000Y-75692000D01*
X171450000Y-75692000D01*
X171450000Y-74168000D01*
X169545000Y-74168000D01*
G37*
D13*
X169545000Y-72898000D02*
X169545000Y-73533000D01*
X169545000Y-73533000D02*
X173355000Y-73533000D01*
X173355000Y-72898000D02*
X173355000Y-73533000D01*
X169545000Y-75692000D02*
X169545000Y-74168000D01*
X169545000Y-75692000D02*
X173355000Y-75692000D01*
X173355000Y-74168000D02*
X173355000Y-75692000D01*
X173355000Y-74168000D02*
X169545000Y-74168000D01*
X169545000Y-78232000D02*
X169545000Y-76708000D01*
X169545000Y-78232000D02*
X173355000Y-78232000D01*
X173355000Y-76708000D02*
X173355000Y-78232000D01*
X173355000Y-76708000D02*
X169545000Y-76708000D01*
X169545000Y-80772000D02*
X169545000Y-79248000D01*
X169545000Y-80772000D02*
X173355000Y-80772000D01*
X173355000Y-79248000D02*
X173355000Y-80772000D01*
X173355000Y-79248000D02*
X169545000Y-79248000D01*
X169545000Y-83312000D02*
X169545000Y-81788000D01*
X169545000Y-83312000D02*
X173355000Y-83312000D01*
X173355000Y-81788000D02*
X173355000Y-83312000D01*
X173355000Y-81788000D02*
X169545000Y-81788000D01*
X166370000Y-84582000D02*
X176530000Y-84582000D01*
X169545000Y-72898000D02*
X166370000Y-72898000D01*
X173355000Y-72898000D02*
X169545000Y-72898000D01*
X176530000Y-72898000D02*
X173355000Y-72898000D01*
X176530000Y-84582000D02*
X176530000Y-72898000D01*
X166370000Y-72898000D02*
X166370000Y-84582000D01*
D15*
X144085000Y-89729000D02*
X144085000Y-94929000D01*
X151765000Y-89729000D02*
X144085000Y-89729000D01*
X154365000Y-94929000D02*
X144085000Y-94929000D01*
X151765000Y-89729000D02*
X151765000Y-92329000D01*
X151765000Y-92329000D02*
X154365000Y-92329000D01*
X154365000Y-92329000D02*
X154365000Y-94929000D01*
X153035000Y-89729000D02*
X154365000Y-89729000D01*
X154365000Y-89729000D02*
X154365000Y-91059000D01*
D13*
X72771000Y-97967800D02*
G75*
G03X72771000Y-97967800I-1651000J0D01*
G01*
X72771000Y-123012200D02*
G75*
G03X72771000Y-123012200I-1651000J0D01*
G01*
X64897000Y-120650000D02*
X64897000Y-123190000D01*
X65024000Y-120650000D02*
X64897000Y-120650000D01*
X65024000Y-123190000D02*
X65024000Y-120650000D01*
X64897000Y-123190000D02*
X64897000Y-125349000D01*
X64897000Y-123190000D02*
X65024000Y-123190000D01*
X64897000Y-97790000D02*
X64897000Y-100330000D01*
X65024000Y-97790000D02*
X64897000Y-97790000D01*
X65024000Y-100330000D02*
X65024000Y-97790000D01*
X64897000Y-100330000D02*
X64897000Y-120650000D01*
X64897000Y-100330000D02*
X65024000Y-100330000D01*
X77343000Y-97790000D02*
X77343000Y-95631000D01*
X77216000Y-97790000D02*
X77343000Y-97790000D01*
X77216000Y-100330000D02*
X77216000Y-97790000D01*
X77343000Y-100330000D02*
X77343000Y-97790000D01*
X77343000Y-100330000D02*
X77216000Y-100330000D01*
X64897000Y-125349000D02*
G75*
G03X65532000Y-125984000I635000J0D01*
G01*
X65532000Y-125984000D02*
X76708000Y-125984000D01*
X65532000Y-94996000D02*
G75*
G03X64897000Y-95631000I0J-635000D01*
G01*
X65532000Y-94996000D02*
X76708000Y-94996000D01*
X64897000Y-95631000D02*
X64897000Y-97790000D01*
X76708000Y-94996000D02*
G75*
G02X77343000Y-95631000I0J-635000D01*
G01*
X77343000Y-125349000D02*
G75*
G02X76708000Y-125984000I-635000J0D01*
G01*
X77343000Y-125349000D02*
X77343000Y-123190000D01*
X77343000Y-120650000D02*
X77343000Y-100330000D01*
X77216000Y-120650000D02*
X77343000Y-120650000D01*
X77216000Y-123190000D02*
X77216000Y-120650000D01*
X77343000Y-123190000D02*
X77343000Y-120650000D01*
X77343000Y-123190000D02*
X77216000Y-123190000D01*
X75057000Y-116713000D02*
X75057000Y-104267000D01*
X75057000Y-116713000D02*
G75*
G02X74049500Y-118015900I-1346200J-4D01*
G01*
X67183000Y-117475000D02*
G75*
G03X68793200Y-118795100I1346233J0D01*
G01*
X67183000Y-117475000D02*
X67183000Y-103505000D01*
X68808600Y-102184200D02*
X74041000Y-102971600D01*
X68816202Y-102189501D02*
G75*
G03X67183000Y-103505000I-286801J-1315500D01*
G01*
X74024999Y-102958299D02*
G75*
G02X75057000Y-104267000I-314200J-1309021D01*
G01*
X74066400Y-118008400D02*
X68783200Y-118795800D01*
X72771000Y-54787800D02*
G75*
G03X72771000Y-54787800I-1651000J0D01*
G01*
X72771000Y-79832200D02*
G75*
G03X72771000Y-79832200I-1651000J0D01*
G01*
X64897000Y-77470000D02*
X64897000Y-80010000D01*
X65024000Y-77470000D02*
X64897000Y-77470000D01*
X65024000Y-80010000D02*
X65024000Y-77470000D01*
X64897000Y-80010000D02*
X64897000Y-82169000D01*
X64897000Y-80010000D02*
X65024000Y-80010000D01*
X64897000Y-54610000D02*
X64897000Y-57150000D01*
X65024000Y-54610000D02*
X64897000Y-54610000D01*
X65024000Y-57150000D02*
X65024000Y-54610000D01*
X64897000Y-57150000D02*
X64897000Y-77470000D01*
X64897000Y-57150000D02*
X65024000Y-57150000D01*
X77343000Y-54610000D02*
X77343000Y-52451000D01*
X77216000Y-54610000D02*
X77343000Y-54610000D01*
X77216000Y-57150000D02*
X77216000Y-54610000D01*
X77343000Y-57150000D02*
X77343000Y-54610000D01*
X77343000Y-57150000D02*
X77216000Y-57150000D01*
X64897000Y-82169000D02*
G75*
G03X65532000Y-82804000I635000J0D01*
G01*
X65532000Y-82804000D02*
X76708000Y-82804000D01*
X65532000Y-51816000D02*
G75*
G03X64897000Y-52451000I0J-635000D01*
G01*
X65532000Y-51816000D02*
X76708000Y-51816000D01*
X64897000Y-52451000D02*
X64897000Y-54610000D01*
X76708000Y-51816000D02*
G75*
G02X77343000Y-52451000I0J-635000D01*
G01*
X77343000Y-82169000D02*
G75*
G02X76708000Y-82804000I-635000J0D01*
G01*
X77343000Y-82169000D02*
X77343000Y-80010000D01*
X77343000Y-77470000D02*
X77343000Y-57150000D01*
X77216000Y-77470000D02*
X77343000Y-77470000D01*
X77216000Y-80010000D02*
X77216000Y-77470000D01*
X77343000Y-80010000D02*
X77343000Y-77470000D01*
X77343000Y-80010000D02*
X77216000Y-80010000D01*
X75057000Y-73533000D02*
X75057000Y-61087000D01*
X75057000Y-73533000D02*
G75*
G02X74049500Y-74835900I-1346200J-4D01*
G01*
X67183000Y-74295000D02*
G75*
G03X68793200Y-75615100I1346233J0D01*
G01*
X67183000Y-74295000D02*
X67183000Y-60325000D01*
X68808600Y-59004200D02*
X74041000Y-59791600D01*
X68816202Y-59009501D02*
G75*
G03X67183000Y-60325000I-286801J-1315500D01*
G01*
X74024999Y-59778299D02*
G75*
G02X75057000Y-61087000I-314200J-1309021D01*
G01*
X74066400Y-74828400D02*
X68783200Y-75615800D01*
D12*
X121920000Y-61468000D02*
G75*
G03X121920000Y-61468000I-381000J0D01*
G01*
G36*
X121079259Y-67398900D02*
X120698259Y-67398900D01*
X120698259Y-67144900D01*
X121079259Y-67144900D01*
X121079259Y-67398900D01*
G37*
D13*
X121564400Y-65684400D02*
X121564400Y-62331600D01*
X118211600Y-62331600D02*
X118211600Y-65684400D01*
D12*
X154559000Y-120904000D02*
G75*
G03X154559000Y-120904000I-381000J0D01*
G01*
G36*
X148247100Y-120444259D02*
X148247100Y-120063259D01*
X148501100Y-120063259D01*
X148501100Y-120444259D01*
X148247100Y-120444259D01*
G37*
D13*
X149961600Y-120929400D02*
X153314400Y-120929400D01*
X153314400Y-117576600D02*
X149961600Y-117576600D01*
D12*
X101981000Y-117348000D02*
G75*
G03X101981000Y-117348000I-381000J0D01*
G01*
G36*
X107530900Y-117807741D02*
X107530900Y-118188741D01*
X107276900Y-118188741D01*
X107276900Y-117807741D01*
X107530900Y-117807741D01*
G37*
D13*
X105816400Y-117322600D02*
X102463600Y-117322600D01*
X102463600Y-120675400D02*
X105816400Y-120675400D01*
D12*
X176530000Y-93980000D02*
G75*
G03X176530000Y-93980000I-381000J0D01*
G01*
G36*
X170218100Y-93520259D02*
X170218100Y-93139259D01*
X170472100Y-93139259D01*
X170472100Y-93520259D01*
X170218100Y-93520259D01*
G37*
D13*
X171932600Y-94005400D02*
X175285400Y-94005400D01*
X175285400Y-90652600D02*
X171932600Y-90652600D01*
D12*
X100340000Y-71970000D02*
G75*
G03X100340000Y-71970000I-500000J0D01*
G01*
X103847600Y-71970000D02*
G75*
G03X104457200Y-71970000I304800J0D01*
G01*
D13*
X103847600Y-71970000D02*
X102140000Y-71970000D01*
X104457200Y-71970000D02*
X103847600Y-71970000D01*
X106140000Y-71970000D02*
X104457200Y-71970000D01*
X102140000Y-82970000D02*
X106140000Y-82970000D01*
D10*
X156845000Y-83312000D02*
X153035000Y-83312000D01*
X156845000Y-74168000D02*
X153035000Y-74168000D01*
D12*
X152019000Y-73914000D02*
G75*
G03X152019000Y-73914000I-381000J0D01*
G01*
D13*
X119659400Y-84378800D02*
G75*
G03X119659400Y-84378800I-533400J0D01*
G01*
X118186000Y-77032000D02*
X118186000Y-85528000D01*
X135839000Y-77032000D02*
X118186000Y-77032000D01*
X135839000Y-85528000D02*
X135839000Y-77032000D01*
X118186000Y-85528000D02*
X135839000Y-85528000D01*
X119659400Y-99618800D02*
G75*
G03X119659400Y-99618800I-533400J0D01*
G01*
X118186000Y-92272000D02*
X118186000Y-100768000D01*
X135839000Y-92272000D02*
X118186000Y-92272000D01*
X135839000Y-100768000D02*
X135839000Y-92272000D01*
X118186000Y-100768000D02*
X135839000Y-100768000D01*
D15*
X117796000Y-113986000D02*
X117796000Y-116646000D01*
X133096000Y-113986000D02*
X117796000Y-113986000D01*
X133096000Y-116646000D02*
X117796000Y-116646000D01*
X133096000Y-113986000D02*
X133096000Y-116646000D01*
X134366000Y-113986000D02*
X135696000Y-113986000D01*
X135696000Y-113986000D02*
X135696000Y-115316000D01*
D16*
X127589642Y-67283269D02*
X127647095Y-67340721D01*
X127704547Y-67513079D01*
X127704547Y-67627983D01*
X127647095Y-67800340D01*
X127532190Y-67915245D01*
X127417285Y-67972698D01*
X127187476Y-68030150D01*
X127015119Y-68030150D01*
X126785309Y-67972698D01*
X126670404Y-67915245D01*
X126555500Y-67800340D01*
X126498047Y-67627983D01*
X126498047Y-67513079D01*
X126555500Y-67340721D01*
X126612952Y-67283269D01*
X126498047Y-66249126D02*
X126498047Y-66478936D01*
X126555500Y-66593840D01*
X126612952Y-66651293D01*
X126785309Y-66766198D01*
X127015119Y-66823650D01*
X127474738Y-66823650D01*
X127589642Y-66766198D01*
X127647095Y-66708745D01*
X127704547Y-66593840D01*
X127704547Y-66364031D01*
X127647095Y-66249126D01*
X127589642Y-66191674D01*
X127474738Y-66134221D01*
X127187476Y-66134221D01*
X127072571Y-66191674D01*
X127015119Y-66249126D01*
X126957666Y-66364031D01*
X126957666Y-66593840D01*
X127015119Y-66708745D01*
X127072571Y-66766198D01*
X127187476Y-66823650D01*
X127704547Y-65559698D02*
X127704547Y-65329888D01*
X127647095Y-65214983D01*
X127589642Y-65157531D01*
X127417285Y-65042626D01*
X127187476Y-64985174D01*
X126727857Y-64985174D01*
X126612952Y-65042626D01*
X126555500Y-65100079D01*
X126498047Y-65214983D01*
X126498047Y-65444793D01*
X126555500Y-65559698D01*
X126612952Y-65617150D01*
X126727857Y-65674602D01*
X127015119Y-65674602D01*
X127130023Y-65617150D01*
X127187476Y-65559698D01*
X127244928Y-65444793D01*
X127244928Y-65214983D01*
X127187476Y-65100079D01*
X127130023Y-65042626D01*
X127015119Y-64985174D01*
X129355547Y-67848721D02*
X129355547Y-68538150D01*
X129355547Y-68193436D02*
X128149047Y-68193436D01*
X128321404Y-68308340D01*
X128436309Y-68423245D01*
X128493761Y-68538150D01*
X128149047Y-67101840D02*
X128149047Y-66986936D01*
X128206500Y-66872031D01*
X128263952Y-66814579D01*
X128378857Y-66757126D01*
X128608666Y-66699674D01*
X128895928Y-66699674D01*
X129125738Y-66757126D01*
X129240642Y-66814579D01*
X129298095Y-66872031D01*
X129355547Y-66986936D01*
X129355547Y-67101840D01*
X129298095Y-67216745D01*
X129240642Y-67274198D01*
X129125738Y-67331650D01*
X128895928Y-67389102D01*
X128608666Y-67389102D01*
X128378857Y-67331650D01*
X128263952Y-67274198D01*
X128206500Y-67216745D01*
X128149047Y-67101840D01*
X128551214Y-65665531D02*
X129355547Y-65665531D01*
X128551214Y-66182602D02*
X129183190Y-66182602D01*
X129298095Y-66125150D01*
X129355547Y-66010245D01*
X129355547Y-65837888D01*
X129298095Y-65722983D01*
X129240642Y-65665531D01*
X128723571Y-64688840D02*
X128723571Y-65091007D01*
X129355547Y-65091007D02*
X128149047Y-65091007D01*
X128149047Y-64516483D01*
X170206730Y-99903642D02*
X170149278Y-99961095D01*
X169976920Y-100018547D01*
X169862016Y-100018547D01*
X169689659Y-99961095D01*
X169574754Y-99846190D01*
X169517301Y-99731285D01*
X169459849Y-99501476D01*
X169459849Y-99329119D01*
X169517301Y-99099309D01*
X169574754Y-98984404D01*
X169689659Y-98869500D01*
X169862016Y-98812047D01*
X169976920Y-98812047D01*
X170149278Y-98869500D01*
X170206730Y-98926952D01*
X171240873Y-98812047D02*
X171011063Y-98812047D01*
X170896159Y-98869500D01*
X170838706Y-98926952D01*
X170723801Y-99099309D01*
X170666349Y-99329119D01*
X170666349Y-99788738D01*
X170723801Y-99903642D01*
X170781254Y-99961095D01*
X170896159Y-100018547D01*
X171125968Y-100018547D01*
X171240873Y-99961095D01*
X171298325Y-99903642D01*
X171355778Y-99788738D01*
X171355778Y-99501476D01*
X171298325Y-99386571D01*
X171240873Y-99329119D01*
X171125968Y-99271666D01*
X170896159Y-99271666D01*
X170781254Y-99329119D01*
X170723801Y-99386571D01*
X170666349Y-99501476D01*
X172389920Y-99214214D02*
X172389920Y-100018547D01*
X172102659Y-98754595D02*
X171815397Y-99616380D01*
X172562278Y-99616380D01*
X169641278Y-101796547D02*
X168951849Y-101796547D01*
X169296563Y-101796547D02*
X169296563Y-100590047D01*
X169181659Y-100762404D01*
X169066754Y-100877309D01*
X168951849Y-100934761D01*
X170388159Y-100590047D02*
X170503063Y-100590047D01*
X170617968Y-100647500D01*
X170675420Y-100704952D01*
X170732873Y-100819857D01*
X170790325Y-101049666D01*
X170790325Y-101336928D01*
X170732873Y-101566738D01*
X170675420Y-101681642D01*
X170617968Y-101739095D01*
X170503063Y-101796547D01*
X170388159Y-101796547D01*
X170273254Y-101739095D01*
X170215801Y-101681642D01*
X170158349Y-101566738D01*
X170100897Y-101336928D01*
X170100897Y-101049666D01*
X170158349Y-100819857D01*
X170215801Y-100704952D01*
X170273254Y-100647500D01*
X170388159Y-100590047D01*
X171824468Y-100992214D02*
X171824468Y-101796547D01*
X171307397Y-100992214D02*
X171307397Y-101624190D01*
X171364849Y-101739095D01*
X171479754Y-101796547D01*
X171652111Y-101796547D01*
X171767016Y-101739095D01*
X171824468Y-101681642D01*
X172801159Y-101164571D02*
X172398992Y-101164571D01*
X172398992Y-101796547D02*
X172398992Y-100590047D01*
X172973516Y-100590047D01*
X147346730Y-126573642D02*
X147289278Y-126631095D01*
X147116920Y-126688547D01*
X147002016Y-126688547D01*
X146829659Y-126631095D01*
X146714754Y-126516190D01*
X146657301Y-126401285D01*
X146599849Y-126171476D01*
X146599849Y-125999119D01*
X146657301Y-125769309D01*
X146714754Y-125654404D01*
X146829659Y-125539500D01*
X147002016Y-125482047D01*
X147116920Y-125482047D01*
X147289278Y-125539500D01*
X147346730Y-125596952D01*
X148380873Y-125482047D02*
X148151063Y-125482047D01*
X148036159Y-125539500D01*
X147978706Y-125596952D01*
X147863801Y-125769309D01*
X147806349Y-125999119D01*
X147806349Y-126458738D01*
X147863801Y-126573642D01*
X147921254Y-126631095D01*
X148036159Y-126688547D01*
X148265968Y-126688547D01*
X148380873Y-126631095D01*
X148438325Y-126573642D01*
X148495778Y-126458738D01*
X148495778Y-126171476D01*
X148438325Y-126056571D01*
X148380873Y-125999119D01*
X148265968Y-125941666D01*
X148036159Y-125941666D01*
X147921254Y-125999119D01*
X147863801Y-126056571D01*
X147806349Y-126171476D01*
X148897944Y-125482047D02*
X149644825Y-125482047D01*
X149242659Y-125941666D01*
X149415016Y-125941666D01*
X149529920Y-125999119D01*
X149587373Y-126056571D01*
X149644825Y-126171476D01*
X149644825Y-126458738D01*
X149587373Y-126573642D01*
X149529920Y-126631095D01*
X149415016Y-126688547D01*
X149070301Y-126688547D01*
X148955397Y-126631095D01*
X148897944Y-126573642D01*
X151607278Y-126688547D02*
X150917849Y-126688547D01*
X151262563Y-126688547D02*
X151262563Y-125482047D01*
X151147659Y-125654404D01*
X151032754Y-125769309D01*
X150917849Y-125826761D01*
X152354159Y-125482047D02*
X152469063Y-125482047D01*
X152583968Y-125539500D01*
X152641420Y-125596952D01*
X152698873Y-125711857D01*
X152756325Y-125941666D01*
X152756325Y-126228928D01*
X152698873Y-126458738D01*
X152641420Y-126573642D01*
X152583968Y-126631095D01*
X152469063Y-126688547D01*
X152354159Y-126688547D01*
X152239254Y-126631095D01*
X152181801Y-126573642D01*
X152124349Y-126458738D01*
X152066897Y-126228928D01*
X152066897Y-125941666D01*
X152124349Y-125711857D01*
X152181801Y-125596952D01*
X152239254Y-125539500D01*
X152354159Y-125482047D01*
X153790468Y-125884214D02*
X153790468Y-126688547D01*
X153273397Y-125884214D02*
X153273397Y-126516190D01*
X153330849Y-126631095D01*
X153445754Y-126688547D01*
X153618111Y-126688547D01*
X153733016Y-126631095D01*
X153790468Y-126573642D01*
X154767159Y-126056571D02*
X154364992Y-126056571D01*
X154364992Y-126688547D02*
X154364992Y-125482047D01*
X154939516Y-125482047D01*
X106198730Y-111079642D02*
X106141278Y-111137095D01*
X105968920Y-111194547D01*
X105854016Y-111194547D01*
X105681659Y-111137095D01*
X105566754Y-111022190D01*
X105509301Y-110907285D01*
X105451849Y-110677476D01*
X105451849Y-110505119D01*
X105509301Y-110275309D01*
X105566754Y-110160404D01*
X105681659Y-110045500D01*
X105854016Y-109988047D01*
X105968920Y-109988047D01*
X106141278Y-110045500D01*
X106198730Y-110102952D01*
X107290325Y-109988047D02*
X106715801Y-109988047D01*
X106658349Y-110562571D01*
X106715801Y-110505119D01*
X106830706Y-110447666D01*
X107117968Y-110447666D01*
X107232873Y-110505119D01*
X107290325Y-110562571D01*
X107347778Y-110677476D01*
X107347778Y-110964738D01*
X107290325Y-111079642D01*
X107232873Y-111137095D01*
X107117968Y-111194547D01*
X106830706Y-111194547D01*
X106715801Y-111137095D01*
X106658349Y-111079642D01*
X108037206Y-110505119D02*
X107922301Y-110447666D01*
X107864849Y-110390214D01*
X107807397Y-110275309D01*
X107807397Y-110217857D01*
X107864849Y-110102952D01*
X107922301Y-110045500D01*
X108037206Y-109988047D01*
X108267016Y-109988047D01*
X108381920Y-110045500D01*
X108439373Y-110102952D01*
X108496825Y-110217857D01*
X108496825Y-110275309D01*
X108439373Y-110390214D01*
X108381920Y-110447666D01*
X108267016Y-110505119D01*
X108037206Y-110505119D01*
X107922301Y-110562571D01*
X107864849Y-110620023D01*
X107807397Y-110734928D01*
X107807397Y-110964738D01*
X107864849Y-111079642D01*
X107922301Y-111137095D01*
X108037206Y-111194547D01*
X108267016Y-111194547D01*
X108381920Y-111137095D01*
X108439373Y-111079642D01*
X108496825Y-110964738D01*
X108496825Y-110734928D01*
X108439373Y-110620023D01*
X108381920Y-110562571D01*
X108267016Y-110505119D01*
X105887278Y-112718547D02*
X105197849Y-112718547D01*
X105542563Y-112718547D02*
X105542563Y-111512047D01*
X105427659Y-111684404D01*
X105312754Y-111799309D01*
X105197849Y-111856761D01*
X106634159Y-111512047D02*
X106749063Y-111512047D01*
X106863968Y-111569500D01*
X106921420Y-111626952D01*
X106978873Y-111741857D01*
X107036325Y-111971666D01*
X107036325Y-112258928D01*
X106978873Y-112488738D01*
X106921420Y-112603642D01*
X106863968Y-112661095D01*
X106749063Y-112718547D01*
X106634159Y-112718547D01*
X106519254Y-112661095D01*
X106461801Y-112603642D01*
X106404349Y-112488738D01*
X106346897Y-112258928D01*
X106346897Y-111971666D01*
X106404349Y-111741857D01*
X106461801Y-111626952D01*
X106519254Y-111569500D01*
X106634159Y-111512047D01*
X108070468Y-111914214D02*
X108070468Y-112718547D01*
X107553397Y-111914214D02*
X107553397Y-112546190D01*
X107610849Y-112661095D01*
X107725754Y-112718547D01*
X107898111Y-112718547D01*
X108013016Y-112661095D01*
X108070468Y-112603642D01*
X109047159Y-112086571D02*
X108644992Y-112086571D01*
X108644992Y-112718547D02*
X108644992Y-111512047D01*
X109219516Y-111512047D01*
X134483928Y-113692698D02*
X134483928Y-112773460D01*
X134943547Y-113233079D02*
X134024309Y-113233079D01*
X133737047Y-112371293D02*
X134943547Y-111969126D01*
X133737047Y-111566960D01*
X134943547Y-110590269D02*
X134943547Y-111164793D01*
X133737047Y-111164793D01*
X132288642Y-112368269D02*
X132346095Y-112425721D01*
X132403547Y-112598079D01*
X132403547Y-112712983D01*
X132346095Y-112885340D01*
X132231190Y-113000245D01*
X132116285Y-113057698D01*
X131886476Y-113115150D01*
X131714119Y-113115150D01*
X131484309Y-113057698D01*
X131369404Y-113000245D01*
X131254500Y-112885340D01*
X131197047Y-112712983D01*
X131197047Y-112598079D01*
X131254500Y-112425721D01*
X131311952Y-112368269D01*
X132403547Y-111276674D02*
X132403547Y-111851198D01*
X131197047Y-111851198D01*
X132403547Y-110874507D02*
X131197047Y-110874507D01*
X132403547Y-110185079D02*
X131714119Y-110702150D01*
X131197047Y-110185079D02*
X131886476Y-110874507D01*
X129863547Y-112483174D02*
X129863547Y-113057698D01*
X128657047Y-113057698D01*
X129231571Y-112081007D02*
X129231571Y-111678840D01*
X129863547Y-111506483D02*
X129863547Y-112081007D01*
X128657047Y-112081007D01*
X128657047Y-111506483D01*
X127323547Y-113057698D02*
X126117047Y-113057698D01*
X126117047Y-112770436D01*
X126174500Y-112598079D01*
X126289404Y-112483174D01*
X126404309Y-112425721D01*
X126634119Y-112368269D01*
X126806476Y-112368269D01*
X127036285Y-112425721D01*
X127151190Y-112483174D01*
X127266095Y-112598079D01*
X127323547Y-112770436D01*
X127323547Y-113057698D01*
X126863928Y-111851198D02*
X126863928Y-110931960D01*
X127323547Y-111391579D02*
X126404309Y-111391579D01*
X124783547Y-113057698D02*
X123577047Y-113057698D01*
X123577047Y-112770436D01*
X123634500Y-112598079D01*
X123749404Y-112483174D01*
X123864309Y-112425721D01*
X124094119Y-112368269D01*
X124266476Y-112368269D01*
X124496285Y-112425721D01*
X124611190Y-112483174D01*
X124726095Y-112598079D01*
X124783547Y-112770436D01*
X124783547Y-113057698D01*
X124323928Y-111851198D02*
X124323928Y-110931960D01*
X121656928Y-113057698D02*
X121656928Y-112138460D01*
X120910047Y-111736293D02*
X122116547Y-111334126D01*
X120910047Y-110931960D01*
X122116547Y-109955269D02*
X122116547Y-110529793D01*
X120910047Y-110529793D01*
X119703547Y-113057698D02*
X118497047Y-113057698D01*
X118497047Y-112770436D01*
X118554500Y-112598079D01*
X118669404Y-112483174D01*
X118784309Y-112425721D01*
X119014119Y-112368269D01*
X119186476Y-112368269D01*
X119416285Y-112425721D01*
X119531190Y-112483174D01*
X119646095Y-112598079D01*
X119703547Y-112770436D01*
X119703547Y-113057698D01*
X118554500Y-111219221D02*
X118497047Y-111334126D01*
X118497047Y-111506483D01*
X118554500Y-111678840D01*
X118669404Y-111793745D01*
X118784309Y-111851198D01*
X119014119Y-111908650D01*
X119186476Y-111908650D01*
X119416285Y-111851198D01*
X119531190Y-111793745D01*
X119646095Y-111678840D01*
X119703547Y-111506483D01*
X119703547Y-111391579D01*
X119646095Y-111219221D01*
X119588642Y-111161769D01*
X119186476Y-111161769D01*
X119186476Y-111391579D01*
X119703547Y-110644698D02*
X118497047Y-110644698D01*
X119703547Y-109955269D01*
X118497047Y-109955269D01*
X119703547Y-109380745D02*
X118497047Y-109380745D01*
X118497047Y-109093483D01*
X118554500Y-108921126D01*
X118669404Y-108806221D01*
X118784309Y-108748769D01*
X119014119Y-108691317D01*
X119186476Y-108691317D01*
X119416285Y-108748769D01*
X119531190Y-108806221D01*
X119646095Y-108921126D01*
X119703547Y-109093483D01*
X119703547Y-109380745D01*
X106591825Y-53282547D02*
X106017301Y-53282547D01*
X106017301Y-52076047D01*
X106879087Y-52076047D02*
X107683420Y-52076047D01*
X107166349Y-53282547D01*
X108085587Y-52190952D02*
X108143040Y-52133500D01*
X108257944Y-52076047D01*
X108545206Y-52076047D01*
X108660111Y-52133500D01*
X108717563Y-52190952D01*
X108775016Y-52305857D01*
X108775016Y-52420761D01*
X108717563Y-52593119D01*
X108028135Y-53282547D01*
X108775016Y-53282547D01*
D14*
X154817380Y-93090904D02*
X154817380Y-92519476D01*
X155817380Y-92805190D02*
X154817380Y-92805190D01*
X154912619Y-92233761D02*
X154865000Y-92186142D01*
X154817380Y-92090904D01*
X154817380Y-91852809D01*
X154865000Y-91757571D01*
X154912619Y-91709952D01*
X155007857Y-91662333D01*
X155103095Y-91662333D01*
X155245952Y-91709952D01*
X155817380Y-92281380D01*
X155817380Y-91662333D01*
D17*
X74631187Y-114715856D02*
X74631187Y-114536604D01*
X74586374Y-114446978D01*
X74541561Y-114402166D01*
X74407122Y-114312540D01*
X74227871Y-114267727D01*
X73869368Y-114267727D01*
X73779742Y-114312540D01*
X73734930Y-114357353D01*
X73690117Y-114446978D01*
X73690117Y-114626230D01*
X73734930Y-114715856D01*
X73779742Y-114760668D01*
X73869368Y-114805481D01*
X74093432Y-114805481D01*
X74183058Y-114760668D01*
X74227871Y-114715856D01*
X74272684Y-114626230D01*
X74272684Y-114446978D01*
X74227871Y-114357353D01*
X74183058Y-114312540D01*
X74093432Y-114267727D01*
X74093432Y-111832230D02*
X74048620Y-111921856D01*
X74003807Y-111966668D01*
X73914181Y-112011481D01*
X73869368Y-112011481D01*
X73779742Y-111966668D01*
X73734930Y-111921856D01*
X73690117Y-111832230D01*
X73690117Y-111652978D01*
X73734930Y-111563353D01*
X73779742Y-111518540D01*
X73869368Y-111473727D01*
X73914181Y-111473727D01*
X74003807Y-111518540D01*
X74048620Y-111563353D01*
X74093432Y-111652978D01*
X74093432Y-111832230D01*
X74138245Y-111921856D01*
X74183058Y-111966668D01*
X74272684Y-112011481D01*
X74451935Y-112011481D01*
X74541561Y-111966668D01*
X74586374Y-111921856D01*
X74631187Y-111832230D01*
X74631187Y-111652978D01*
X74586374Y-111563353D01*
X74541561Y-111518540D01*
X74451935Y-111473727D01*
X74272684Y-111473727D01*
X74183058Y-111518540D01*
X74138245Y-111563353D01*
X74093432Y-111652978D01*
X73690117Y-109262294D02*
X73690117Y-108634914D01*
X74631187Y-109038230D01*
X73690117Y-105975353D02*
X73690117Y-106154604D01*
X73734930Y-106244230D01*
X73779742Y-106289043D01*
X73914181Y-106378668D01*
X74093432Y-106423481D01*
X74451935Y-106423481D01*
X74541561Y-106378668D01*
X74586374Y-106333856D01*
X74631187Y-106244230D01*
X74631187Y-106064978D01*
X74586374Y-105975353D01*
X74541561Y-105930540D01*
X74451935Y-105885727D01*
X74227871Y-105885727D01*
X74138245Y-105930540D01*
X74093432Y-105975353D01*
X74048620Y-106064978D01*
X74048620Y-106244230D01*
X74093432Y-106333856D01*
X74138245Y-106378668D01*
X74227871Y-106423481D01*
X67594117Y-115709540D02*
X67594117Y-116157668D01*
X68042245Y-116202481D01*
X67997432Y-116157668D01*
X67952620Y-116068043D01*
X67952620Y-115843978D01*
X67997432Y-115754353D01*
X68042245Y-115709540D01*
X68131871Y-115664727D01*
X68355935Y-115664727D01*
X68445561Y-115709540D01*
X68490374Y-115754353D01*
X68535187Y-115843978D01*
X68535187Y-116068043D01*
X68490374Y-116157668D01*
X68445561Y-116202481D01*
X67907807Y-112960353D02*
X68535187Y-112960353D01*
X67549304Y-113184417D02*
X68221497Y-113408481D01*
X68221497Y-112825914D01*
X67594117Y-110786294D02*
X67594117Y-110203727D01*
X67952620Y-110517417D01*
X67952620Y-110382978D01*
X67997432Y-110293353D01*
X68042245Y-110248540D01*
X68131871Y-110203727D01*
X68355935Y-110203727D01*
X68445561Y-110248540D01*
X68490374Y-110293353D01*
X68535187Y-110382978D01*
X68535187Y-110651856D01*
X68490374Y-110741481D01*
X68445561Y-110786294D01*
X67683742Y-107947481D02*
X67638930Y-107902668D01*
X67594117Y-107813043D01*
X67594117Y-107588978D01*
X67638930Y-107499353D01*
X67683742Y-107454540D01*
X67773368Y-107409727D01*
X67862994Y-107409727D01*
X67997432Y-107454540D01*
X68535187Y-107992294D01*
X68535187Y-107409727D01*
X68535187Y-104615727D02*
X68535187Y-105153481D01*
X68535187Y-104884604D02*
X67594117Y-104884604D01*
X67728555Y-104974230D01*
X67818181Y-105063856D01*
X67862994Y-105153481D01*
X74631187Y-71535856D02*
X74631187Y-71356604D01*
X74586374Y-71266978D01*
X74541561Y-71222166D01*
X74407122Y-71132540D01*
X74227871Y-71087727D01*
X73869368Y-71087727D01*
X73779742Y-71132540D01*
X73734930Y-71177353D01*
X73690117Y-71266978D01*
X73690117Y-71446230D01*
X73734930Y-71535856D01*
X73779742Y-71580668D01*
X73869368Y-71625481D01*
X74093432Y-71625481D01*
X74183058Y-71580668D01*
X74227871Y-71535856D01*
X74272684Y-71446230D01*
X74272684Y-71266978D01*
X74227871Y-71177353D01*
X74183058Y-71132540D01*
X74093432Y-71087727D01*
X74093432Y-68652230D02*
X74048620Y-68741856D01*
X74003807Y-68786668D01*
X73914181Y-68831481D01*
X73869368Y-68831481D01*
X73779742Y-68786668D01*
X73734930Y-68741856D01*
X73690117Y-68652230D01*
X73690117Y-68472978D01*
X73734930Y-68383353D01*
X73779742Y-68338540D01*
X73869368Y-68293727D01*
X73914181Y-68293727D01*
X74003807Y-68338540D01*
X74048620Y-68383353D01*
X74093432Y-68472978D01*
X74093432Y-68652230D01*
X74138245Y-68741856D01*
X74183058Y-68786668D01*
X74272684Y-68831481D01*
X74451935Y-68831481D01*
X74541561Y-68786668D01*
X74586374Y-68741856D01*
X74631187Y-68652230D01*
X74631187Y-68472978D01*
X74586374Y-68383353D01*
X74541561Y-68338540D01*
X74451935Y-68293727D01*
X74272684Y-68293727D01*
X74183058Y-68338540D01*
X74138245Y-68383353D01*
X74093432Y-68472978D01*
X73690117Y-66082294D02*
X73690117Y-65454914D01*
X74631187Y-65858230D01*
X73690117Y-62795353D02*
X73690117Y-62974604D01*
X73734930Y-63064230D01*
X73779742Y-63109043D01*
X73914181Y-63198668D01*
X74093432Y-63243481D01*
X74451935Y-63243481D01*
X74541561Y-63198668D01*
X74586374Y-63153856D01*
X74631187Y-63064230D01*
X74631187Y-62884978D01*
X74586374Y-62795353D01*
X74541561Y-62750540D01*
X74451935Y-62705727D01*
X74227871Y-62705727D01*
X74138245Y-62750540D01*
X74093432Y-62795353D01*
X74048620Y-62884978D01*
X74048620Y-63064230D01*
X74093432Y-63153856D01*
X74138245Y-63198668D01*
X74227871Y-63243481D01*
X67594117Y-72529540D02*
X67594117Y-72977668D01*
X68042245Y-73022481D01*
X67997432Y-72977668D01*
X67952620Y-72888043D01*
X67952620Y-72663978D01*
X67997432Y-72574353D01*
X68042245Y-72529540D01*
X68131871Y-72484727D01*
X68355935Y-72484727D01*
X68445561Y-72529540D01*
X68490374Y-72574353D01*
X68535187Y-72663978D01*
X68535187Y-72888043D01*
X68490374Y-72977668D01*
X68445561Y-73022481D01*
X67907807Y-69780353D02*
X68535187Y-69780353D01*
X67549304Y-70004417D02*
X68221497Y-70228481D01*
X68221497Y-69645914D01*
X67594117Y-67606294D02*
X67594117Y-67023727D01*
X67952620Y-67337417D01*
X67952620Y-67202978D01*
X67997432Y-67113353D01*
X68042245Y-67068540D01*
X68131871Y-67023727D01*
X68355935Y-67023727D01*
X68445561Y-67068540D01*
X68490374Y-67113353D01*
X68535187Y-67202978D01*
X68535187Y-67471856D01*
X68490374Y-67561481D01*
X68445561Y-67606294D01*
X67683742Y-64767481D02*
X67638930Y-64722668D01*
X67594117Y-64633043D01*
X67594117Y-64408978D01*
X67638930Y-64319353D01*
X67683742Y-64274540D01*
X67773368Y-64229727D01*
X67862994Y-64229727D01*
X67997432Y-64274540D01*
X68535187Y-64812294D01*
X68535187Y-64229727D01*
X68535187Y-61435727D02*
X68535187Y-61973481D01*
X68535187Y-61704604D02*
X67594117Y-61704604D01*
X67728555Y-61794230D01*
X67818181Y-61883856D01*
X67862994Y-61973481D01*
D14*
X175736571Y-60539380D02*
X175831809Y-60539380D01*
X175927047Y-60587000D01*
X175974666Y-60634619D01*
X176022285Y-60729857D01*
X176069904Y-60920333D01*
X176069904Y-61158428D01*
X176022285Y-61348904D01*
X175974666Y-61444142D01*
X175927047Y-61491761D01*
X175831809Y-61539380D01*
X175736571Y-61539380D01*
X175641333Y-61491761D01*
X175593714Y-61444142D01*
X175546095Y-61348904D01*
X175498476Y-61158428D01*
X175498476Y-60920333D01*
X175546095Y-60729857D01*
X175593714Y-60634619D01*
X175641333Y-60587000D01*
X175736571Y-60539380D01*
X176355619Y-60539380D02*
X176688952Y-61539380D01*
X177022285Y-60539380D01*
X177117523Y-61634619D02*
X177879428Y-61634619D01*
X178117523Y-61539380D02*
X178117523Y-60539380D01*
X178546095Y-61491761D02*
X178688952Y-61539380D01*
X178927047Y-61539380D01*
X179022285Y-61491761D01*
X179069904Y-61444142D01*
X179117523Y-61348904D01*
X179117523Y-61253666D01*
X179069904Y-61158428D01*
X179022285Y-61110809D01*
X178927047Y-61063190D01*
X178736571Y-61015571D01*
X178641333Y-60967952D01*
X178593714Y-60920333D01*
X178546095Y-60825095D01*
X178546095Y-60729857D01*
X178593714Y-60634619D01*
X178641333Y-60587000D01*
X178736571Y-60539380D01*
X178974666Y-60539380D01*
X179117523Y-60587000D01*
X179736571Y-60539380D02*
X179927047Y-60539380D01*
X180022285Y-60587000D01*
X180117523Y-60682238D01*
X180165142Y-60872714D01*
X180165142Y-61206047D01*
X180117523Y-61396523D01*
X180022285Y-61491761D01*
X179927047Y-61539380D01*
X179736571Y-61539380D01*
X179641333Y-61491761D01*
X179546095Y-61396523D01*
X179498476Y-61206047D01*
X179498476Y-60872714D01*
X179546095Y-60682238D01*
X179641333Y-60587000D01*
X179736571Y-60539380D01*
X181117523Y-61539380D02*
X180546095Y-61539380D01*
X180831809Y-61539380D02*
X180831809Y-60539380D01*
X180736571Y-60682238D01*
X180641333Y-60777476D01*
X180546095Y-60825095D01*
X129953095Y-52538380D02*
X130048333Y-52538380D01*
X130143571Y-52586000D01*
X130191190Y-52633619D01*
X130238809Y-52728857D01*
X130286428Y-52919333D01*
X130286428Y-53157428D01*
X130238809Y-53347904D01*
X130191190Y-53443142D01*
X130143571Y-53490761D01*
X130048333Y-53538380D01*
X129953095Y-53538380D01*
X129857857Y-53490761D01*
X129810238Y-53443142D01*
X129762619Y-53347904D01*
X129715000Y-53157428D01*
X129715000Y-52919333D01*
X129762619Y-52728857D01*
X129810238Y-52633619D01*
X129857857Y-52586000D01*
X129953095Y-52538380D01*
X130572142Y-52538380D02*
X130905476Y-53538380D01*
X131238809Y-52538380D01*
X131334047Y-53633619D02*
X132095952Y-53633619D01*
X132905476Y-53538380D02*
X132572142Y-53062190D01*
X132334047Y-53538380D02*
X132334047Y-52538380D01*
X132715000Y-52538380D01*
X132810238Y-52586000D01*
X132857857Y-52633619D01*
X132905476Y-52728857D01*
X132905476Y-52871714D01*
X132857857Y-52966952D01*
X132810238Y-53014571D01*
X132715000Y-53062190D01*
X132334047Y-53062190D01*
X133905476Y-53443142D02*
X133857857Y-53490761D01*
X133715000Y-53538380D01*
X133619761Y-53538380D01*
X133476904Y-53490761D01*
X133381666Y-53395523D01*
X133334047Y-53300285D01*
X133286428Y-53109809D01*
X133286428Y-52966952D01*
X133334047Y-52776476D01*
X133381666Y-52681238D01*
X133476904Y-52586000D01*
X133619761Y-52538380D01*
X133715000Y-52538380D01*
X133857857Y-52586000D01*
X133905476Y-52633619D01*
X134191190Y-52538380D02*
X134524523Y-53538380D01*
X134857857Y-52538380D01*
X135715000Y-53538380D02*
X135143571Y-53538380D01*
X135429285Y-53538380D02*
X135429285Y-52538380D01*
X135334047Y-52681238D01*
X135238809Y-52776476D01*
X135143571Y-52824095D01*
X149828666Y-60539380D02*
X150447714Y-60539380D01*
X150114380Y-60920333D01*
X150257238Y-60920333D01*
X150352476Y-60967952D01*
X150400095Y-61015571D01*
X150447714Y-61110809D01*
X150447714Y-61348904D01*
X150400095Y-61444142D01*
X150352476Y-61491761D01*
X150257238Y-61539380D01*
X149971523Y-61539380D01*
X149876285Y-61491761D01*
X149828666Y-61444142D01*
X150733428Y-60539380D02*
X151066761Y-61539380D01*
X151400095Y-60539380D01*
X151638190Y-60539380D02*
X152257238Y-60539380D01*
X151923904Y-60920333D01*
X152066761Y-60920333D01*
X152162000Y-60967952D01*
X152209619Y-61015571D01*
X152257238Y-61110809D01*
X152257238Y-61348904D01*
X152209619Y-61444142D01*
X152162000Y-61491761D01*
X152066761Y-61539380D01*
X151781047Y-61539380D01*
X151685809Y-61491761D01*
X151638190Y-61444142D01*
X152447714Y-61634619D02*
X153209619Y-61634619D01*
X153447714Y-61539380D02*
X153447714Y-60539380D01*
X153876285Y-61491761D02*
X154019142Y-61539380D01*
X154257238Y-61539380D01*
X154352476Y-61491761D01*
X154400095Y-61444142D01*
X154447714Y-61348904D01*
X154447714Y-61253666D01*
X154400095Y-61158428D01*
X154352476Y-61110809D01*
X154257238Y-61063190D01*
X154066761Y-61015571D01*
X153971523Y-60967952D01*
X153923904Y-60920333D01*
X153876285Y-60825095D01*
X153876285Y-60729857D01*
X153923904Y-60634619D01*
X153971523Y-60587000D01*
X154066761Y-60539380D01*
X154304857Y-60539380D01*
X154447714Y-60587000D01*
X155066761Y-60539380D02*
X155257238Y-60539380D01*
X155352476Y-60587000D01*
X155447714Y-60682238D01*
X155495333Y-60872714D01*
X155495333Y-61206047D01*
X155447714Y-61396523D01*
X155352476Y-61491761D01*
X155257238Y-61539380D01*
X155066761Y-61539380D01*
X154971523Y-61491761D01*
X154876285Y-61396523D01*
X154828666Y-61206047D01*
X154828666Y-60872714D01*
X154876285Y-60682238D01*
X154971523Y-60587000D01*
X155066761Y-60539380D01*
X156447714Y-61539380D02*
X155876285Y-61539380D01*
X156162000Y-61539380D02*
X156162000Y-60539380D01*
X156066761Y-60682238D01*
X155971523Y-60777476D01*
X155876285Y-60825095D01*
X136303190Y-66127380D02*
X136922238Y-66127380D01*
X136588904Y-66508333D01*
X136731761Y-66508333D01*
X136827000Y-66555952D01*
X136874619Y-66603571D01*
X136922238Y-66698809D01*
X136922238Y-66936904D01*
X136874619Y-67032142D01*
X136827000Y-67079761D01*
X136731761Y-67127380D01*
X136446047Y-67127380D01*
X136350809Y-67079761D01*
X136303190Y-67032142D01*
X137207952Y-66127380D02*
X137541285Y-67127380D01*
X137874619Y-66127380D01*
X138112714Y-66127380D02*
X138731761Y-66127380D01*
X138398428Y-66508333D01*
X138541285Y-66508333D01*
X138636523Y-66555952D01*
X138684142Y-66603571D01*
X138731761Y-66698809D01*
X138731761Y-66936904D01*
X138684142Y-67032142D01*
X138636523Y-67079761D01*
X138541285Y-67127380D01*
X138255571Y-67127380D01*
X138160333Y-67079761D01*
X138112714Y-67032142D01*
X138922238Y-67222619D02*
X139684142Y-67222619D01*
X140493666Y-67127380D02*
X140160333Y-66651190D01*
X139922238Y-67127380D02*
X139922238Y-66127380D01*
X140303190Y-66127380D01*
X140398428Y-66175000D01*
X140446047Y-66222619D01*
X140493666Y-66317857D01*
X140493666Y-66460714D01*
X140446047Y-66555952D01*
X140398428Y-66603571D01*
X140303190Y-66651190D01*
X139922238Y-66651190D01*
X141493666Y-67032142D02*
X141446047Y-67079761D01*
X141303190Y-67127380D01*
X141207952Y-67127380D01*
X141065095Y-67079761D01*
X140969857Y-66984523D01*
X140922238Y-66889285D01*
X140874619Y-66698809D01*
X140874619Y-66555952D01*
X140922238Y-66365476D01*
X140969857Y-66270238D01*
X141065095Y-66175000D01*
X141207952Y-66127380D01*
X141303190Y-66127380D01*
X141446047Y-66175000D01*
X141493666Y-66222619D01*
X141779380Y-66127380D02*
X142112714Y-67127380D01*
X142446047Y-66127380D01*
X143303190Y-67127380D02*
X142731761Y-67127380D01*
X143017476Y-67127380D02*
X143017476Y-66127380D01*
X142922238Y-66270238D01*
X142827000Y-66365476D01*
X142731761Y-66413095D01*
D16*
X117481047Y-63852273D02*
X117481047Y-64426797D01*
X116274547Y-64426797D01*
X116274547Y-63622464D02*
X116274547Y-62933035D01*
X117481047Y-63277750D02*
X116274547Y-63277750D01*
X116274547Y-62645773D02*
X116274547Y-61898892D01*
X116734166Y-62301059D01*
X116734166Y-62128702D01*
X116791619Y-62013797D01*
X116849071Y-61956345D01*
X116963976Y-61898892D01*
X117251238Y-61898892D01*
X117366142Y-61956345D01*
X117423595Y-62013797D01*
X117481047Y-62128702D01*
X117481047Y-62473416D01*
X117423595Y-62588321D01*
X117366142Y-62645773D01*
X116274547Y-61152011D02*
X116274547Y-61037107D01*
X116332000Y-60922202D01*
X116389452Y-60864750D01*
X116504357Y-60807297D01*
X116734166Y-60749845D01*
X117021428Y-60749845D01*
X117251238Y-60807297D01*
X117366142Y-60864750D01*
X117423595Y-60922202D01*
X117481047Y-61037107D01*
X117481047Y-61152011D01*
X117423595Y-61266916D01*
X117366142Y-61324369D01*
X117251238Y-61381821D01*
X117021428Y-61439273D01*
X116734166Y-61439273D01*
X116504357Y-61381821D01*
X116389452Y-61324369D01*
X116332000Y-61266916D01*
X116274547Y-61152011D01*
X116676714Y-59715702D02*
X117481047Y-59715702D01*
X116217095Y-60002964D02*
X117078880Y-60290226D01*
X117078880Y-59543345D01*
X116389452Y-59141178D02*
X116332000Y-59083726D01*
X116274547Y-58968821D01*
X116274547Y-58681559D01*
X116332000Y-58566654D01*
X116389452Y-58509202D01*
X116504357Y-58451750D01*
X116619261Y-58451750D01*
X116791619Y-58509202D01*
X117481047Y-59198630D01*
X117481047Y-58451750D01*
X138245547Y-124306269D02*
X137671023Y-124708436D01*
X138245547Y-124995698D02*
X137039047Y-124995698D01*
X137039047Y-124536079D01*
X137096500Y-124421174D01*
X137153952Y-124363721D01*
X137268857Y-124306269D01*
X137441214Y-124306269D01*
X137556119Y-124363721D01*
X137613571Y-124421174D01*
X137671023Y-124536079D01*
X137671023Y-124995698D01*
X137039047Y-123214674D02*
X137039047Y-123789198D01*
X137613571Y-123846650D01*
X137556119Y-123789198D01*
X137498666Y-123674293D01*
X137498666Y-123387031D01*
X137556119Y-123272126D01*
X137613571Y-123214674D01*
X137728476Y-123157221D01*
X138015738Y-123157221D01*
X138130642Y-123214674D01*
X138188095Y-123272126D01*
X138245547Y-123387031D01*
X138245547Y-123674293D01*
X138188095Y-123789198D01*
X138130642Y-123846650D01*
X137039047Y-122123079D02*
X137039047Y-122352888D01*
X137096500Y-122467793D01*
X137153952Y-122525245D01*
X137326309Y-122640150D01*
X137556119Y-122697602D01*
X138015738Y-122697602D01*
X138130642Y-122640150D01*
X138188095Y-122582698D01*
X138245547Y-122467793D01*
X138245547Y-122237983D01*
X138188095Y-122123079D01*
X138130642Y-122065626D01*
X138015738Y-122008174D01*
X137728476Y-122008174D01*
X137613571Y-122065626D01*
X137556119Y-122123079D01*
X137498666Y-122237983D01*
X137498666Y-122467793D01*
X137556119Y-122582698D01*
X137613571Y-122640150D01*
X137728476Y-122697602D01*
X140023547Y-124490721D02*
X140023547Y-125180150D01*
X140023547Y-124835436D02*
X138817047Y-124835436D01*
X138989404Y-124950340D01*
X139104309Y-125065245D01*
X139161761Y-125180150D01*
X138817047Y-123743840D02*
X138817047Y-123628936D01*
X138874500Y-123514031D01*
X138931952Y-123456579D01*
X139046857Y-123399126D01*
X139276666Y-123341674D01*
X139563928Y-123341674D01*
X139793738Y-123399126D01*
X139908642Y-123456579D01*
X139966095Y-123514031D01*
X140023547Y-123628936D01*
X140023547Y-123743840D01*
X139966095Y-123858745D01*
X139908642Y-123916198D01*
X139793738Y-123973650D01*
X139563928Y-124031102D01*
X139276666Y-124031102D01*
X139046857Y-123973650D01*
X138931952Y-123916198D01*
X138874500Y-123858745D01*
X138817047Y-123743840D01*
X140023547Y-122135174D02*
X139449023Y-122537340D01*
X140023547Y-122824602D02*
X138817047Y-122824602D01*
X138817047Y-122364983D01*
X138874500Y-122250079D01*
X138931952Y-122192626D01*
X139046857Y-122135174D01*
X139219214Y-122135174D01*
X139334119Y-122192626D01*
X139391571Y-122250079D01*
X139449023Y-122364983D01*
X139449023Y-122824602D01*
X178262642Y-110717269D02*
X178320095Y-110774721D01*
X178377547Y-110947079D01*
X178377547Y-111061983D01*
X178320095Y-111234340D01*
X178205190Y-111349245D01*
X178090285Y-111406698D01*
X177860476Y-111464150D01*
X177688119Y-111464150D01*
X177458309Y-111406698D01*
X177343404Y-111349245D01*
X177228500Y-111234340D01*
X177171047Y-111061983D01*
X177171047Y-110947079D01*
X177228500Y-110774721D01*
X177285952Y-110717269D01*
X177171047Y-109625674D02*
X177171047Y-110200198D01*
X177745571Y-110257650D01*
X177688119Y-110200198D01*
X177630666Y-110085293D01*
X177630666Y-109798031D01*
X177688119Y-109683126D01*
X177745571Y-109625674D01*
X177860476Y-109568221D01*
X178147738Y-109568221D01*
X178262642Y-109625674D01*
X178320095Y-109683126D01*
X178377547Y-109798031D01*
X178377547Y-110085293D01*
X178320095Y-110200198D01*
X178262642Y-110257650D01*
X178377547Y-108419174D02*
X178377547Y-109108602D01*
X178377547Y-108763888D02*
X177171047Y-108763888D01*
X177343404Y-108878793D01*
X177458309Y-108993698D01*
X177515761Y-109108602D01*
X180155547Y-110774721D02*
X180155547Y-111464150D01*
X180155547Y-111119436D02*
X178949047Y-111119436D01*
X179121404Y-111234340D01*
X179236309Y-111349245D01*
X179293761Y-111464150D01*
X179351214Y-110257650D02*
X180155547Y-110257650D01*
X179466119Y-110257650D02*
X179408666Y-110200198D01*
X179351214Y-110085293D01*
X179351214Y-109912936D01*
X179408666Y-109798031D01*
X179523571Y-109740579D01*
X180155547Y-109740579D01*
X179523571Y-108763888D02*
X179523571Y-109166055D01*
X180155547Y-109166055D02*
X178949047Y-109166055D01*
X178949047Y-108591531D01*
X81869642Y-116940269D02*
X81927095Y-116997721D01*
X81984547Y-117170079D01*
X81984547Y-117284983D01*
X81927095Y-117457340D01*
X81812190Y-117572245D01*
X81697285Y-117629698D01*
X81467476Y-117687150D01*
X81295119Y-117687150D01*
X81065309Y-117629698D01*
X80950404Y-117572245D01*
X80835500Y-117457340D01*
X80778047Y-117284983D01*
X80778047Y-117170079D01*
X80835500Y-116997721D01*
X80892952Y-116940269D01*
X80778047Y-115848674D02*
X80778047Y-116423198D01*
X81352571Y-116480650D01*
X81295119Y-116423198D01*
X81237666Y-116308293D01*
X81237666Y-116021031D01*
X81295119Y-115906126D01*
X81352571Y-115848674D01*
X81467476Y-115791221D01*
X81754738Y-115791221D01*
X81869642Y-115848674D01*
X81927095Y-115906126D01*
X81984547Y-116021031D01*
X81984547Y-116308293D01*
X81927095Y-116423198D01*
X81869642Y-116480650D01*
X80892952Y-115331602D02*
X80835500Y-115274150D01*
X80778047Y-115159245D01*
X80778047Y-114871983D01*
X80835500Y-114757079D01*
X80892952Y-114699626D01*
X81007857Y-114642174D01*
X81122761Y-114642174D01*
X81295119Y-114699626D01*
X81984547Y-115389055D01*
X81984547Y-114642174D01*
X83889547Y-116870721D02*
X83889547Y-117560150D01*
X83889547Y-117215436D02*
X82683047Y-117215436D01*
X82855404Y-117330340D01*
X82970309Y-117445245D01*
X83027761Y-117560150D01*
X83085214Y-116353650D02*
X83889547Y-116353650D01*
X83200119Y-116353650D02*
X83142666Y-116296198D01*
X83085214Y-116181293D01*
X83085214Y-116008936D01*
X83142666Y-115894031D01*
X83257571Y-115836579D01*
X83889547Y-115836579D01*
X83257571Y-114859888D02*
X83257571Y-115262055D01*
X83889547Y-115262055D02*
X82683047Y-115262055D01*
X82683047Y-114687531D01*
X99903642Y-64489269D02*
X99961095Y-64546721D01*
X100018547Y-64719079D01*
X100018547Y-64833983D01*
X99961095Y-65006340D01*
X99846190Y-65121245D01*
X99731285Y-65178698D01*
X99501476Y-65236150D01*
X99329119Y-65236150D01*
X99099309Y-65178698D01*
X98984404Y-65121245D01*
X98869500Y-65006340D01*
X98812047Y-64833983D01*
X98812047Y-64719079D01*
X98869500Y-64546721D01*
X98926952Y-64489269D01*
X98812047Y-63397674D02*
X98812047Y-63972198D01*
X99386571Y-64029650D01*
X99329119Y-63972198D01*
X99271666Y-63857293D01*
X99271666Y-63570031D01*
X99329119Y-63455126D01*
X99386571Y-63397674D01*
X99501476Y-63340221D01*
X99788738Y-63340221D01*
X99903642Y-63397674D01*
X99961095Y-63455126D01*
X100018547Y-63570031D01*
X100018547Y-63857293D01*
X99961095Y-63972198D01*
X99903642Y-64029650D01*
X98812047Y-62938055D02*
X98812047Y-62191174D01*
X99271666Y-62593340D01*
X99271666Y-62420983D01*
X99329119Y-62306079D01*
X99386571Y-62248626D01*
X99501476Y-62191174D01*
X99788738Y-62191174D01*
X99903642Y-62248626D01*
X99961095Y-62306079D01*
X100018547Y-62420983D01*
X100018547Y-62765698D01*
X99961095Y-62880602D01*
X99903642Y-62938055D01*
X102050547Y-64292721D02*
X102050547Y-64982150D01*
X102050547Y-64637436D02*
X100844047Y-64637436D01*
X101016404Y-64752340D01*
X101131309Y-64867245D01*
X101188761Y-64982150D01*
X101246214Y-63775650D02*
X102050547Y-63775650D01*
X101361119Y-63775650D02*
X101303666Y-63718198D01*
X101246214Y-63603293D01*
X101246214Y-63430936D01*
X101303666Y-63316031D01*
X101418571Y-63258579D01*
X102050547Y-63258579D01*
X101418571Y-62281888D02*
X101418571Y-62684055D01*
X102050547Y-62684055D02*
X100844047Y-62684055D01*
X100844047Y-62109531D01*
X115088730Y-70185642D02*
X115031278Y-70243095D01*
X114858920Y-70300547D01*
X114744016Y-70300547D01*
X114571659Y-70243095D01*
X114456754Y-70128190D01*
X114399301Y-70013285D01*
X114341849Y-69783476D01*
X114341849Y-69611119D01*
X114399301Y-69381309D01*
X114456754Y-69266404D01*
X114571659Y-69151500D01*
X114744016Y-69094047D01*
X114858920Y-69094047D01*
X115031278Y-69151500D01*
X115088730Y-69208952D01*
X116180325Y-69094047D02*
X115605801Y-69094047D01*
X115548349Y-69668571D01*
X115605801Y-69611119D01*
X115720706Y-69553666D01*
X116007968Y-69553666D01*
X116122873Y-69611119D01*
X116180325Y-69668571D01*
X116237778Y-69783476D01*
X116237778Y-70070738D01*
X116180325Y-70185642D01*
X116122873Y-70243095D01*
X116007968Y-70300547D01*
X115720706Y-70300547D01*
X115605801Y-70243095D01*
X115548349Y-70185642D01*
X117271920Y-69496214D02*
X117271920Y-70300547D01*
X116984659Y-69036595D02*
X116697397Y-69898380D01*
X117444278Y-69898380D01*
X115285278Y-71824547D02*
X114595849Y-71824547D01*
X114940563Y-71824547D02*
X114940563Y-70618047D01*
X114825659Y-70790404D01*
X114710754Y-70905309D01*
X114595849Y-70962761D01*
X115802349Y-71020214D02*
X115802349Y-71824547D01*
X115802349Y-71135119D02*
X115859801Y-71077666D01*
X115974706Y-71020214D01*
X116147063Y-71020214D01*
X116261968Y-71077666D01*
X116319420Y-71192571D01*
X116319420Y-71824547D01*
X117296111Y-71192571D02*
X116893944Y-71192571D01*
X116893944Y-71824547D02*
X116893944Y-70618047D01*
X117468468Y-70618047D01*
X142194642Y-79094269D02*
X142252095Y-79151721D01*
X142309547Y-79324079D01*
X142309547Y-79438983D01*
X142252095Y-79611340D01*
X142137190Y-79726245D01*
X142022285Y-79783698D01*
X141792476Y-79841150D01*
X141620119Y-79841150D01*
X141390309Y-79783698D01*
X141275404Y-79726245D01*
X141160500Y-79611340D01*
X141103047Y-79438983D01*
X141103047Y-79324079D01*
X141160500Y-79151721D01*
X141217952Y-79094269D01*
X141103047Y-78002674D02*
X141103047Y-78577198D01*
X141677571Y-78634650D01*
X141620119Y-78577198D01*
X141562666Y-78462293D01*
X141562666Y-78175031D01*
X141620119Y-78060126D01*
X141677571Y-78002674D01*
X141792476Y-77945221D01*
X142079738Y-77945221D01*
X142194642Y-78002674D01*
X142252095Y-78060126D01*
X142309547Y-78175031D01*
X142309547Y-78462293D01*
X142252095Y-78577198D01*
X142194642Y-78634650D01*
X141103047Y-76853626D02*
X141103047Y-77428150D01*
X141677571Y-77485602D01*
X141620119Y-77428150D01*
X141562666Y-77313245D01*
X141562666Y-77025983D01*
X141620119Y-76911079D01*
X141677571Y-76853626D01*
X141792476Y-76796174D01*
X142079738Y-76796174D01*
X142194642Y-76853626D01*
X142252095Y-76911079D01*
X142309547Y-77025983D01*
X142309547Y-77313245D01*
X142252095Y-77428150D01*
X142194642Y-77485602D01*
X143960547Y-79151721D02*
X143960547Y-79841150D01*
X143960547Y-79496436D02*
X142754047Y-79496436D01*
X142926404Y-79611340D01*
X143041309Y-79726245D01*
X143098761Y-79841150D01*
X143156214Y-78634650D02*
X143960547Y-78634650D01*
X143271119Y-78634650D02*
X143213666Y-78577198D01*
X143156214Y-78462293D01*
X143156214Y-78289936D01*
X143213666Y-78175031D01*
X143328571Y-78117579D01*
X143960547Y-78117579D01*
X143328571Y-77140888D02*
X143328571Y-77543055D01*
X143960547Y-77543055D02*
X142754047Y-77543055D01*
X142754047Y-76968531D01*
X138257642Y-119480269D02*
X138315095Y-119537721D01*
X138372547Y-119710079D01*
X138372547Y-119824983D01*
X138315095Y-119997340D01*
X138200190Y-120112245D01*
X138085285Y-120169698D01*
X137855476Y-120227150D01*
X137683119Y-120227150D01*
X137453309Y-120169698D01*
X137338404Y-120112245D01*
X137223500Y-119997340D01*
X137166047Y-119824983D01*
X137166047Y-119710079D01*
X137223500Y-119537721D01*
X137280952Y-119480269D01*
X137166047Y-118388674D02*
X137166047Y-118963198D01*
X137740571Y-119020650D01*
X137683119Y-118963198D01*
X137625666Y-118848293D01*
X137625666Y-118561031D01*
X137683119Y-118446126D01*
X137740571Y-118388674D01*
X137855476Y-118331221D01*
X138142738Y-118331221D01*
X138257642Y-118388674D01*
X138315095Y-118446126D01*
X138372547Y-118561031D01*
X138372547Y-118848293D01*
X138315095Y-118963198D01*
X138257642Y-119020650D01*
X137166047Y-117297079D02*
X137166047Y-117526888D01*
X137223500Y-117641793D01*
X137280952Y-117699245D01*
X137453309Y-117814150D01*
X137683119Y-117871602D01*
X138142738Y-117871602D01*
X138257642Y-117814150D01*
X138315095Y-117756698D01*
X138372547Y-117641793D01*
X138372547Y-117411983D01*
X138315095Y-117297079D01*
X138257642Y-117239626D01*
X138142738Y-117182174D01*
X137855476Y-117182174D01*
X137740571Y-117239626D01*
X137683119Y-117297079D01*
X137625666Y-117411983D01*
X137625666Y-117641793D01*
X137683119Y-117756698D01*
X137740571Y-117814150D01*
X137855476Y-117871602D01*
X140023547Y-119410721D02*
X140023547Y-120100150D01*
X140023547Y-119755436D02*
X138817047Y-119755436D01*
X138989404Y-119870340D01*
X139104309Y-119985245D01*
X139161761Y-120100150D01*
X139219214Y-118893650D02*
X140023547Y-118893650D01*
X139334119Y-118893650D02*
X139276666Y-118836198D01*
X139219214Y-118721293D01*
X139219214Y-118548936D01*
X139276666Y-118434031D01*
X139391571Y-118376579D01*
X140023547Y-118376579D01*
X139391571Y-117399888D02*
X139391571Y-117802055D01*
X140023547Y-117802055D02*
X138817047Y-117802055D01*
X138817047Y-117227531D01*
X114508642Y-113130269D02*
X114566095Y-113187721D01*
X114623547Y-113360079D01*
X114623547Y-113474983D01*
X114566095Y-113647340D01*
X114451190Y-113762245D01*
X114336285Y-113819698D01*
X114106476Y-113877150D01*
X113934119Y-113877150D01*
X113704309Y-113819698D01*
X113589404Y-113762245D01*
X113474500Y-113647340D01*
X113417047Y-113474983D01*
X113417047Y-113360079D01*
X113474500Y-113187721D01*
X113531952Y-113130269D01*
X113417047Y-112038674D02*
X113417047Y-112613198D01*
X113991571Y-112670650D01*
X113934119Y-112613198D01*
X113876666Y-112498293D01*
X113876666Y-112211031D01*
X113934119Y-112096126D01*
X113991571Y-112038674D01*
X114106476Y-111981221D01*
X114393738Y-111981221D01*
X114508642Y-112038674D01*
X114566095Y-112096126D01*
X114623547Y-112211031D01*
X114623547Y-112498293D01*
X114566095Y-112613198D01*
X114508642Y-112670650D01*
X113417047Y-111579055D02*
X113417047Y-110774721D01*
X114623547Y-111291793D01*
X116147547Y-113060721D02*
X116147547Y-113750150D01*
X116147547Y-113405436D02*
X114941047Y-113405436D01*
X115113404Y-113520340D01*
X115228309Y-113635245D01*
X115285761Y-113750150D01*
X115343214Y-112543650D02*
X116147547Y-112543650D01*
X115458119Y-112543650D02*
X115400666Y-112486198D01*
X115343214Y-112371293D01*
X115343214Y-112198936D01*
X115400666Y-112084031D01*
X115515571Y-112026579D01*
X116147547Y-112026579D01*
X115515571Y-111049888D02*
X115515571Y-111452055D01*
X116147547Y-111452055D02*
X114941047Y-111452055D01*
X114941047Y-110877531D01*
X110698642Y-115797269D02*
X110756095Y-115854721D01*
X110813547Y-116027079D01*
X110813547Y-116141983D01*
X110756095Y-116314340D01*
X110641190Y-116429245D01*
X110526285Y-116486698D01*
X110296476Y-116544150D01*
X110124119Y-116544150D01*
X109894309Y-116486698D01*
X109779404Y-116429245D01*
X109664500Y-116314340D01*
X109607047Y-116141983D01*
X109607047Y-116027079D01*
X109664500Y-115854721D01*
X109721952Y-115797269D01*
X109607047Y-114705674D02*
X109607047Y-115280198D01*
X110181571Y-115337650D01*
X110124119Y-115280198D01*
X110066666Y-115165293D01*
X110066666Y-114878031D01*
X110124119Y-114763126D01*
X110181571Y-114705674D01*
X110296476Y-114648221D01*
X110583738Y-114648221D01*
X110698642Y-114705674D01*
X110756095Y-114763126D01*
X110813547Y-114878031D01*
X110813547Y-115165293D01*
X110756095Y-115280198D01*
X110698642Y-115337650D01*
X110813547Y-114073698D02*
X110813547Y-113843888D01*
X110756095Y-113728983D01*
X110698642Y-113671531D01*
X110526285Y-113556626D01*
X110296476Y-113499174D01*
X109836857Y-113499174D01*
X109721952Y-113556626D01*
X109664500Y-113614079D01*
X109607047Y-113728983D01*
X109607047Y-113958793D01*
X109664500Y-114073698D01*
X109721952Y-114131150D01*
X109836857Y-114188602D01*
X110124119Y-114188602D01*
X110239023Y-114131150D01*
X110296476Y-114073698D01*
X110353928Y-113958793D01*
X110353928Y-113728983D01*
X110296476Y-113614079D01*
X110239023Y-113556626D01*
X110124119Y-113499174D01*
X111660214Y-115969626D02*
X112464547Y-115969626D01*
X111200595Y-116256888D02*
X112062380Y-116544150D01*
X112062380Y-115797269D01*
X111258047Y-115452555D02*
X111258047Y-114648221D01*
X112464547Y-115165293D01*
X111258047Y-113958793D02*
X111258047Y-113843888D01*
X111315500Y-113728983D01*
X111372952Y-113671531D01*
X111487857Y-113614079D01*
X111717666Y-113556626D01*
X112004928Y-113556626D01*
X112234738Y-113614079D01*
X112349642Y-113671531D01*
X112407095Y-113728983D01*
X112464547Y-113843888D01*
X112464547Y-113958793D01*
X112407095Y-114073698D01*
X112349642Y-114131150D01*
X112234738Y-114188602D01*
X112004928Y-114246055D01*
X111717666Y-114246055D01*
X111487857Y-114188602D01*
X111372952Y-114131150D01*
X111315500Y-114073698D01*
X111258047Y-113958793D01*
X111660214Y-113039555D02*
X112464547Y-113039555D01*
X111775119Y-113039555D02*
X111717666Y-112982102D01*
X111660214Y-112867198D01*
X111660214Y-112694840D01*
X111717666Y-112579936D01*
X111832571Y-112522483D01*
X112464547Y-112522483D01*
X111832571Y-111545793D02*
X111832571Y-111947960D01*
X112464547Y-111947960D02*
X111258047Y-111947960D01*
X111258047Y-111373436D01*
X145750642Y-124687269D02*
X145808095Y-124744721D01*
X145865547Y-124917079D01*
X145865547Y-125031983D01*
X145808095Y-125204340D01*
X145693190Y-125319245D01*
X145578285Y-125376698D01*
X145348476Y-125434150D01*
X145176119Y-125434150D01*
X144946309Y-125376698D01*
X144831404Y-125319245D01*
X144716500Y-125204340D01*
X144659047Y-125031983D01*
X144659047Y-124917079D01*
X144716500Y-124744721D01*
X144773952Y-124687269D01*
X144659047Y-123653126D02*
X144659047Y-123882936D01*
X144716500Y-123997840D01*
X144773952Y-124055293D01*
X144946309Y-124170198D01*
X145176119Y-124227650D01*
X145635738Y-124227650D01*
X145750642Y-124170198D01*
X145808095Y-124112745D01*
X145865547Y-123997840D01*
X145865547Y-123768031D01*
X145808095Y-123653126D01*
X145750642Y-123595674D01*
X145635738Y-123538221D01*
X145348476Y-123538221D01*
X145233571Y-123595674D01*
X145176119Y-123653126D01*
X145118666Y-123768031D01*
X145118666Y-123997840D01*
X145176119Y-124112745D01*
X145233571Y-124170198D01*
X145348476Y-124227650D01*
X144773952Y-123078602D02*
X144716500Y-123021150D01*
X144659047Y-122906245D01*
X144659047Y-122618983D01*
X144716500Y-122504079D01*
X144773952Y-122446626D01*
X144888857Y-122389174D01*
X145003761Y-122389174D01*
X145176119Y-122446626D01*
X145865547Y-123136055D01*
X145865547Y-122389174D01*
X143537214Y-125494626D02*
X144341547Y-125494626D01*
X143077595Y-125781888D02*
X143939380Y-126069150D01*
X143939380Y-125322269D01*
X143135047Y-124977555D02*
X143135047Y-124173221D01*
X144341547Y-124690293D01*
X143135047Y-123483793D02*
X143135047Y-123368888D01*
X143192500Y-123253983D01*
X143249952Y-123196531D01*
X143364857Y-123139079D01*
X143594666Y-123081626D01*
X143881928Y-123081626D01*
X144111738Y-123139079D01*
X144226642Y-123196531D01*
X144284095Y-123253983D01*
X144341547Y-123368888D01*
X144341547Y-123483793D01*
X144284095Y-123598698D01*
X144226642Y-123656150D01*
X144111738Y-123713602D01*
X143881928Y-123771055D01*
X143594666Y-123771055D01*
X143364857Y-123713602D01*
X143249952Y-123656150D01*
X143192500Y-123598698D01*
X143135047Y-123483793D01*
X143537214Y-122564555D02*
X144341547Y-122564555D01*
X143652119Y-122564555D02*
X143594666Y-122507102D01*
X143537214Y-122392198D01*
X143537214Y-122219840D01*
X143594666Y-122104936D01*
X143709571Y-122047483D01*
X144341547Y-122047483D01*
X143709571Y-121070793D02*
X143709571Y-121472960D01*
X144341547Y-121472960D02*
X143135047Y-121472960D01*
X143135047Y-120898436D01*
X165054642Y-93826269D02*
X165112095Y-93883721D01*
X165169547Y-94056079D01*
X165169547Y-94170983D01*
X165112095Y-94343340D01*
X164997190Y-94458245D01*
X164882285Y-94515698D01*
X164652476Y-94573150D01*
X164480119Y-94573150D01*
X164250309Y-94515698D01*
X164135404Y-94458245D01*
X164020500Y-94343340D01*
X163963047Y-94170983D01*
X163963047Y-94056079D01*
X164020500Y-93883721D01*
X164077952Y-93826269D01*
X163963047Y-92792126D02*
X163963047Y-93021936D01*
X164020500Y-93136840D01*
X164077952Y-93194293D01*
X164250309Y-93309198D01*
X164480119Y-93366650D01*
X164939738Y-93366650D01*
X165054642Y-93309198D01*
X165112095Y-93251745D01*
X165169547Y-93136840D01*
X165169547Y-92907031D01*
X165112095Y-92792126D01*
X165054642Y-92734674D01*
X164939738Y-92677221D01*
X164652476Y-92677221D01*
X164537571Y-92734674D01*
X164480119Y-92792126D01*
X164422666Y-92907031D01*
X164422666Y-93136840D01*
X164480119Y-93251745D01*
X164537571Y-93309198D01*
X164652476Y-93366650D01*
X163963047Y-91585626D02*
X163963047Y-92160150D01*
X164537571Y-92217602D01*
X164480119Y-92160150D01*
X164422666Y-92045245D01*
X164422666Y-91757983D01*
X164480119Y-91643079D01*
X164537571Y-91585626D01*
X164652476Y-91528174D01*
X164939738Y-91528174D01*
X165054642Y-91585626D01*
X165112095Y-91643079D01*
X165169547Y-91757983D01*
X165169547Y-92045245D01*
X165112095Y-92160150D01*
X165054642Y-92217602D01*
X165254214Y-89807626D02*
X166058547Y-89807626D01*
X164794595Y-90094888D02*
X165656380Y-90382150D01*
X165656380Y-89635269D01*
X164852047Y-89290555D02*
X164852047Y-88486221D01*
X166058547Y-89003293D01*
X164852047Y-87796793D02*
X164852047Y-87681888D01*
X164909500Y-87566983D01*
X164966952Y-87509531D01*
X165081857Y-87452079D01*
X165311666Y-87394626D01*
X165598928Y-87394626D01*
X165828738Y-87452079D01*
X165943642Y-87509531D01*
X166001095Y-87566983D01*
X166058547Y-87681888D01*
X166058547Y-87796793D01*
X166001095Y-87911698D01*
X165943642Y-87969150D01*
X165828738Y-88026602D01*
X165598928Y-88084055D01*
X165311666Y-88084055D01*
X165081857Y-88026602D01*
X164966952Y-87969150D01*
X164909500Y-87911698D01*
X164852047Y-87796793D01*
X165254214Y-86877555D02*
X166058547Y-86877555D01*
X165369119Y-86877555D02*
X165311666Y-86820102D01*
X165254214Y-86705198D01*
X165254214Y-86532840D01*
X165311666Y-86417936D01*
X165426571Y-86360483D01*
X166058547Y-86360483D01*
X165426571Y-85383793D02*
X165426571Y-85785960D01*
X166058547Y-85785960D02*
X164852047Y-85785960D01*
X164852047Y-85211436D01*
X122454730Y-71836642D02*
X122397278Y-71894095D01*
X122224920Y-71951547D01*
X122110016Y-71951547D01*
X121937659Y-71894095D01*
X121822754Y-71779190D01*
X121765301Y-71664285D01*
X121707849Y-71434476D01*
X121707849Y-71262119D01*
X121765301Y-71032309D01*
X121822754Y-70917404D01*
X121937659Y-70802500D01*
X122110016Y-70745047D01*
X122224920Y-70745047D01*
X122397278Y-70802500D01*
X122454730Y-70859952D01*
X123488873Y-70745047D02*
X123259063Y-70745047D01*
X123144159Y-70802500D01*
X123086706Y-70859952D01*
X122971801Y-71032309D01*
X122914349Y-71262119D01*
X122914349Y-71721738D01*
X122971801Y-71836642D01*
X123029254Y-71894095D01*
X123144159Y-71951547D01*
X123373968Y-71951547D01*
X123488873Y-71894095D01*
X123546325Y-71836642D01*
X123603778Y-71721738D01*
X123603778Y-71434476D01*
X123546325Y-71319571D01*
X123488873Y-71262119D01*
X123373968Y-71204666D01*
X123144159Y-71204666D01*
X123029254Y-71262119D01*
X122971801Y-71319571D01*
X122914349Y-71434476D01*
X124293206Y-71262119D02*
X124178301Y-71204666D01*
X124120849Y-71147214D01*
X124063397Y-71032309D01*
X124063397Y-70974857D01*
X124120849Y-70859952D01*
X124178301Y-70802500D01*
X124293206Y-70745047D01*
X124523016Y-70745047D01*
X124637920Y-70802500D01*
X124695373Y-70859952D01*
X124752825Y-70974857D01*
X124752825Y-71032309D01*
X124695373Y-71147214D01*
X124637920Y-71204666D01*
X124523016Y-71262119D01*
X124293206Y-71262119D01*
X124178301Y-71319571D01*
X124120849Y-71377023D01*
X124063397Y-71491928D01*
X124063397Y-71721738D01*
X124120849Y-71836642D01*
X124178301Y-71894095D01*
X124293206Y-71951547D01*
X124523016Y-71951547D01*
X124637920Y-71894095D01*
X124695373Y-71836642D01*
X124752825Y-71721738D01*
X124752825Y-71491928D01*
X124695373Y-71377023D01*
X124637920Y-71319571D01*
X124523016Y-71262119D01*
X123171373Y-72671214D02*
X123171373Y-73475547D01*
X122884111Y-72211595D02*
X122596849Y-73073380D01*
X123343730Y-73073380D01*
X123688444Y-72269047D02*
X124492778Y-72269047D01*
X123975706Y-73475547D01*
X125182206Y-72269047D02*
X125297111Y-72269047D01*
X125412016Y-72326500D01*
X125469468Y-72383952D01*
X125526920Y-72498857D01*
X125584373Y-72728666D01*
X125584373Y-73015928D01*
X125526920Y-73245738D01*
X125469468Y-73360642D01*
X125412016Y-73418095D01*
X125297111Y-73475547D01*
X125182206Y-73475547D01*
X125067301Y-73418095D01*
X125009849Y-73360642D01*
X124952397Y-73245738D01*
X124894944Y-73015928D01*
X124894944Y-72728666D01*
X124952397Y-72498857D01*
X125009849Y-72383952D01*
X125067301Y-72326500D01*
X125182206Y-72269047D01*
X126101444Y-72671214D02*
X126101444Y-73475547D01*
X126101444Y-72786119D02*
X126158897Y-72728666D01*
X126273801Y-72671214D01*
X126446159Y-72671214D01*
X126561063Y-72728666D01*
X126618516Y-72843571D01*
X126618516Y-73475547D01*
X127595206Y-72843571D02*
X127193040Y-72843571D01*
X127193040Y-73475547D02*
X127193040Y-72269047D01*
X127767563Y-72269047D01*
X127716642Y-61949269D02*
X127774095Y-62006721D01*
X127831547Y-62179079D01*
X127831547Y-62293983D01*
X127774095Y-62466340D01*
X127659190Y-62581245D01*
X127544285Y-62638698D01*
X127314476Y-62696150D01*
X127142119Y-62696150D01*
X126912309Y-62638698D01*
X126797404Y-62581245D01*
X126682500Y-62466340D01*
X126625047Y-62293983D01*
X126625047Y-62179079D01*
X126682500Y-62006721D01*
X126739952Y-61949269D01*
X126625047Y-61547102D02*
X126625047Y-60742769D01*
X127831547Y-61259840D01*
X126625047Y-60053340D02*
X126625047Y-59938436D01*
X126682500Y-59823531D01*
X126739952Y-59766079D01*
X126854857Y-59708626D01*
X127084666Y-59651174D01*
X127371928Y-59651174D01*
X127601738Y-59708626D01*
X127716642Y-59766079D01*
X127774095Y-59823531D01*
X127831547Y-59938436D01*
X127831547Y-60053340D01*
X127774095Y-60168245D01*
X127716642Y-60225698D01*
X127601738Y-60283150D01*
X127371928Y-60340602D01*
X127084666Y-60340602D01*
X126854857Y-60283150D01*
X126739952Y-60225698D01*
X126682500Y-60168245D01*
X126625047Y-60053340D01*
X129609547Y-62260721D02*
X129609547Y-62950150D01*
X129609547Y-62605436D02*
X128403047Y-62605436D01*
X128575404Y-62720340D01*
X128690309Y-62835245D01*
X128747761Y-62950150D01*
X128403047Y-61513840D02*
X128403047Y-61398936D01*
X128460500Y-61284031D01*
X128517952Y-61226579D01*
X128632857Y-61169126D01*
X128862666Y-61111674D01*
X129149928Y-61111674D01*
X129379738Y-61169126D01*
X129494642Y-61226579D01*
X129552095Y-61284031D01*
X129609547Y-61398936D01*
X129609547Y-61513840D01*
X129552095Y-61628745D01*
X129494642Y-61686198D01*
X129379738Y-61743650D01*
X129149928Y-61801102D01*
X128862666Y-61801102D01*
X128632857Y-61743650D01*
X128517952Y-61686198D01*
X128460500Y-61628745D01*
X128403047Y-61513840D01*
X128805214Y-60077531D02*
X129609547Y-60077531D01*
X128805214Y-60594602D02*
X129437190Y-60594602D01*
X129552095Y-60537150D01*
X129609547Y-60422245D01*
X129609547Y-60249888D01*
X129552095Y-60134983D01*
X129494642Y-60077531D01*
X128977571Y-59100840D02*
X128977571Y-59503007D01*
X129609547Y-59503007D02*
X128403047Y-59503007D01*
X128403047Y-58928483D01*
X118898730Y-54691642D02*
X118841278Y-54749095D01*
X118668920Y-54806547D01*
X118554016Y-54806547D01*
X118381659Y-54749095D01*
X118266754Y-54634190D01*
X118209301Y-54519285D01*
X118151849Y-54289476D01*
X118151849Y-54117119D01*
X118209301Y-53887309D01*
X118266754Y-53772404D01*
X118381659Y-53657500D01*
X118554016Y-53600047D01*
X118668920Y-53600047D01*
X118841278Y-53657500D01*
X118898730Y-53714952D01*
X119300897Y-53600047D02*
X120105230Y-53600047D01*
X119588159Y-54806547D01*
X121196825Y-54806547D02*
X120507397Y-54806547D01*
X120852111Y-54806547D02*
X120852111Y-53600047D01*
X120737206Y-53772404D01*
X120622301Y-53887309D01*
X120507397Y-53944761D01*
X118726373Y-55780214D02*
X118726373Y-56584547D01*
X118439111Y-55320595D02*
X118151849Y-56182380D01*
X118898730Y-56182380D01*
X119243444Y-55378047D02*
X120047778Y-55378047D01*
X119530706Y-56584547D01*
X121024468Y-55780214D02*
X121024468Y-56584547D01*
X120507397Y-55780214D02*
X120507397Y-56412190D01*
X120564849Y-56527095D01*
X120679754Y-56584547D01*
X120852111Y-56584547D01*
X120967016Y-56527095D01*
X121024468Y-56469642D01*
X122001159Y-55952571D02*
X121598992Y-55952571D01*
X121598992Y-56584547D02*
X121598992Y-55378047D01*
X122173516Y-55378047D01*
X178897642Y-88492269D02*
X178955095Y-88549721D01*
X179012547Y-88722079D01*
X179012547Y-88836983D01*
X178955095Y-89009340D01*
X178840190Y-89124245D01*
X178725285Y-89181698D01*
X178495476Y-89239150D01*
X178323119Y-89239150D01*
X178093309Y-89181698D01*
X177978404Y-89124245D01*
X177863500Y-89009340D01*
X177806047Y-88836983D01*
X177806047Y-88722079D01*
X177863500Y-88549721D01*
X177920952Y-88492269D01*
X177806047Y-88090102D02*
X177806047Y-87285769D01*
X179012547Y-87802840D01*
X177806047Y-86309079D02*
X177806047Y-86538888D01*
X177863500Y-86653793D01*
X177920952Y-86711245D01*
X178093309Y-86826150D01*
X178323119Y-86883602D01*
X178782738Y-86883602D01*
X178897642Y-86826150D01*
X178955095Y-86768698D01*
X179012547Y-86653793D01*
X179012547Y-86423983D01*
X178955095Y-86309079D01*
X178897642Y-86251626D01*
X178782738Y-86194174D01*
X178495476Y-86194174D01*
X178380571Y-86251626D01*
X178323119Y-86309079D01*
X178265666Y-86423983D01*
X178265666Y-86653793D01*
X178323119Y-86768698D01*
X178380571Y-86826150D01*
X178495476Y-86883602D01*
X179986214Y-88791626D02*
X180790547Y-88791626D01*
X179526595Y-89078888D02*
X180388380Y-89366150D01*
X180388380Y-88619269D01*
X179584047Y-88274555D02*
X179584047Y-87470221D01*
X180790547Y-87987293D01*
X179986214Y-86493531D02*
X180790547Y-86493531D01*
X179986214Y-87010602D02*
X180618190Y-87010602D01*
X180733095Y-86953150D01*
X180790547Y-86838245D01*
X180790547Y-86665888D01*
X180733095Y-86550983D01*
X180675642Y-86493531D01*
X180158571Y-85516840D02*
X180158571Y-85919007D01*
X180790547Y-85919007D02*
X179584047Y-85919007D01*
X179584047Y-85344483D01*
X175540730Y-100030642D02*
X175483278Y-100088095D01*
X175310920Y-100145547D01*
X175196016Y-100145547D01*
X175023659Y-100088095D01*
X174908754Y-99973190D01*
X174851301Y-99858285D01*
X174793849Y-99628476D01*
X174793849Y-99456119D01*
X174851301Y-99226309D01*
X174908754Y-99111404D01*
X175023659Y-98996500D01*
X175196016Y-98939047D01*
X175310920Y-98939047D01*
X175483278Y-98996500D01*
X175540730Y-99053952D01*
X175942897Y-98939047D02*
X176747230Y-98939047D01*
X176230159Y-100145547D01*
X177091944Y-98939047D02*
X177896278Y-98939047D01*
X177379206Y-100145547D01*
X174975278Y-101796547D02*
X174285849Y-101796547D01*
X174630563Y-101796547D02*
X174630563Y-100590047D01*
X174515659Y-100762404D01*
X174400754Y-100877309D01*
X174285849Y-100934761D01*
X175722159Y-100590047D02*
X175837063Y-100590047D01*
X175951968Y-100647500D01*
X176009420Y-100704952D01*
X176066873Y-100819857D01*
X176124325Y-101049666D01*
X176124325Y-101336928D01*
X176066873Y-101566738D01*
X176009420Y-101681642D01*
X175951968Y-101739095D01*
X175837063Y-101796547D01*
X175722159Y-101796547D01*
X175607254Y-101739095D01*
X175549801Y-101681642D01*
X175492349Y-101566738D01*
X175434897Y-101336928D01*
X175434897Y-101049666D01*
X175492349Y-100819857D01*
X175549801Y-100704952D01*
X175607254Y-100647500D01*
X175722159Y-100590047D01*
X177158468Y-100992214D02*
X177158468Y-101796547D01*
X176641397Y-100992214D02*
X176641397Y-101624190D01*
X176698849Y-101739095D01*
X176813754Y-101796547D01*
X176986111Y-101796547D01*
X177101016Y-101739095D01*
X177158468Y-101681642D01*
X178135159Y-101164571D02*
X177732992Y-101164571D01*
X177732992Y-101796547D02*
X177732992Y-100590047D01*
X178307516Y-100590047D01*
X157760730Y-125430642D02*
X157703278Y-125488095D01*
X157530920Y-125545547D01*
X157416016Y-125545547D01*
X157243659Y-125488095D01*
X157128754Y-125373190D01*
X157071301Y-125258285D01*
X157013849Y-125028476D01*
X157013849Y-124856119D01*
X157071301Y-124626309D01*
X157128754Y-124511404D01*
X157243659Y-124396500D01*
X157416016Y-124339047D01*
X157530920Y-124339047D01*
X157703278Y-124396500D01*
X157760730Y-124453952D01*
X158162897Y-124339047D02*
X158967230Y-124339047D01*
X158450159Y-125545547D01*
X159599206Y-124856119D02*
X159484301Y-124798666D01*
X159426849Y-124741214D01*
X159369397Y-124626309D01*
X159369397Y-124568857D01*
X159426849Y-124453952D01*
X159484301Y-124396500D01*
X159599206Y-124339047D01*
X159829016Y-124339047D01*
X159943920Y-124396500D01*
X160001373Y-124453952D01*
X160058825Y-124568857D01*
X160058825Y-124626309D01*
X160001373Y-124741214D01*
X159943920Y-124798666D01*
X159829016Y-124856119D01*
X159599206Y-124856119D01*
X159484301Y-124913571D01*
X159426849Y-124971023D01*
X159369397Y-125085928D01*
X159369397Y-125315738D01*
X159426849Y-125430642D01*
X159484301Y-125488095D01*
X159599206Y-125545547D01*
X159829016Y-125545547D01*
X159943920Y-125488095D01*
X160001373Y-125430642D01*
X160058825Y-125315738D01*
X160058825Y-125085928D01*
X160001373Y-124971023D01*
X159943920Y-124913571D01*
X159829016Y-124856119D01*
X160101642Y-121639269D02*
X160159095Y-121696721D01*
X160216547Y-121869079D01*
X160216547Y-121983983D01*
X160159095Y-122156340D01*
X160044190Y-122271245D01*
X159929285Y-122328698D01*
X159699476Y-122386150D01*
X159527119Y-122386150D01*
X159297309Y-122328698D01*
X159182404Y-122271245D01*
X159067500Y-122156340D01*
X159010047Y-121983983D01*
X159010047Y-121869079D01*
X159067500Y-121696721D01*
X159124952Y-121639269D01*
X159010047Y-121237102D02*
X159010047Y-120432769D01*
X160216547Y-120949840D01*
X160216547Y-119915698D02*
X160216547Y-119685888D01*
X160159095Y-119570983D01*
X160101642Y-119513531D01*
X159929285Y-119398626D01*
X159699476Y-119341174D01*
X159239857Y-119341174D01*
X159124952Y-119398626D01*
X159067500Y-119456079D01*
X159010047Y-119570983D01*
X159010047Y-119800793D01*
X159067500Y-119915698D01*
X159124952Y-119973150D01*
X159239857Y-120030602D01*
X159527119Y-120030602D01*
X159642023Y-119973150D01*
X159699476Y-119915698D01*
X159756928Y-119800793D01*
X159756928Y-119570983D01*
X159699476Y-119456079D01*
X159642023Y-119398626D01*
X159527119Y-119341174D01*
X159412214Y-118001626D02*
X160216547Y-118001626D01*
X158952595Y-118288888D02*
X159814380Y-118576150D01*
X159814380Y-117829269D01*
X159010047Y-117484555D02*
X159010047Y-116680221D01*
X160216547Y-117197293D01*
X159412214Y-115703531D02*
X160216547Y-115703531D01*
X159412214Y-116220602D02*
X160044190Y-116220602D01*
X160159095Y-116163150D01*
X160216547Y-116048245D01*
X160216547Y-115875888D01*
X160159095Y-115760983D01*
X160101642Y-115703531D01*
X159584571Y-114726840D02*
X159584571Y-115129007D01*
X160216547Y-115129007D02*
X159010047Y-115129007D01*
X159010047Y-114554483D01*
X98760642Y-124687269D02*
X98818095Y-124744721D01*
X98875547Y-124917079D01*
X98875547Y-125031983D01*
X98818095Y-125204340D01*
X98703190Y-125319245D01*
X98588285Y-125376698D01*
X98358476Y-125434150D01*
X98186119Y-125434150D01*
X97956309Y-125376698D01*
X97841404Y-125319245D01*
X97726500Y-125204340D01*
X97669047Y-125031983D01*
X97669047Y-124917079D01*
X97726500Y-124744721D01*
X97783952Y-124687269D01*
X98186119Y-123997840D02*
X98128666Y-124112745D01*
X98071214Y-124170198D01*
X97956309Y-124227650D01*
X97898857Y-124227650D01*
X97783952Y-124170198D01*
X97726500Y-124112745D01*
X97669047Y-123997840D01*
X97669047Y-123768031D01*
X97726500Y-123653126D01*
X97783952Y-123595674D01*
X97898857Y-123538221D01*
X97956309Y-123538221D01*
X98071214Y-123595674D01*
X98128666Y-123653126D01*
X98186119Y-123768031D01*
X98186119Y-123997840D01*
X98243571Y-124112745D01*
X98301023Y-124170198D01*
X98415928Y-124227650D01*
X98645738Y-124227650D01*
X98760642Y-124170198D01*
X98818095Y-124112745D01*
X98875547Y-123997840D01*
X98875547Y-123768031D01*
X98818095Y-123653126D01*
X98760642Y-123595674D01*
X98645738Y-123538221D01*
X98415928Y-123538221D01*
X98301023Y-123595674D01*
X98243571Y-123653126D01*
X98186119Y-123768031D01*
X98071214Y-122504079D02*
X98875547Y-122504079D01*
X97611595Y-122791340D02*
X98473380Y-123078602D01*
X98473380Y-122331721D01*
X99849214Y-124859626D02*
X100653547Y-124859626D01*
X99389595Y-125146888D02*
X100251380Y-125434150D01*
X100251380Y-124687269D01*
X99447047Y-124342555D02*
X99447047Y-123538221D01*
X100653547Y-124055293D01*
X99849214Y-122561531D02*
X100653547Y-122561531D01*
X99849214Y-123078602D02*
X100481190Y-123078602D01*
X100596095Y-123021150D01*
X100653547Y-122906245D01*
X100653547Y-122733888D01*
X100596095Y-122618983D01*
X100538642Y-122561531D01*
X100021571Y-121584840D02*
X100021571Y-121987007D01*
X100653547Y-121987007D02*
X99447047Y-121987007D01*
X99447047Y-121412483D01*
X100229730Y-110952642D02*
X100172278Y-111010095D01*
X99999920Y-111067547D01*
X99885016Y-111067547D01*
X99712659Y-111010095D01*
X99597754Y-110895190D01*
X99540301Y-110780285D01*
X99482849Y-110550476D01*
X99482849Y-110378119D01*
X99540301Y-110148309D01*
X99597754Y-110033404D01*
X99712659Y-109918500D01*
X99885016Y-109861047D01*
X99999920Y-109861047D01*
X100172278Y-109918500D01*
X100229730Y-109975952D01*
X100919159Y-110378119D02*
X100804254Y-110320666D01*
X100746801Y-110263214D01*
X100689349Y-110148309D01*
X100689349Y-110090857D01*
X100746801Y-109975952D01*
X100804254Y-109918500D01*
X100919159Y-109861047D01*
X101148968Y-109861047D01*
X101263873Y-109918500D01*
X101321325Y-109975952D01*
X101378778Y-110090857D01*
X101378778Y-110148309D01*
X101321325Y-110263214D01*
X101263873Y-110320666D01*
X101148968Y-110378119D01*
X100919159Y-110378119D01*
X100804254Y-110435571D01*
X100746801Y-110493023D01*
X100689349Y-110607928D01*
X100689349Y-110837738D01*
X100746801Y-110952642D01*
X100804254Y-111010095D01*
X100919159Y-111067547D01*
X101148968Y-111067547D01*
X101263873Y-111010095D01*
X101321325Y-110952642D01*
X101378778Y-110837738D01*
X101378778Y-110607928D01*
X101321325Y-110493023D01*
X101263873Y-110435571D01*
X101148968Y-110378119D01*
X102470373Y-109861047D02*
X101895849Y-109861047D01*
X101838397Y-110435571D01*
X101895849Y-110378119D01*
X102010754Y-110320666D01*
X102298016Y-110320666D01*
X102412920Y-110378119D01*
X102470373Y-110435571D01*
X102527825Y-110550476D01*
X102527825Y-110837738D01*
X102470373Y-110952642D01*
X102412920Y-111010095D01*
X102298016Y-111067547D01*
X102010754Y-111067547D01*
X101895849Y-111010095D01*
X101838397Y-110952642D01*
X99791278Y-112591547D02*
X99101849Y-112591547D01*
X99446563Y-112591547D02*
X99446563Y-111385047D01*
X99331659Y-111557404D01*
X99216754Y-111672309D01*
X99101849Y-111729761D01*
X100538159Y-111385047D02*
X100653063Y-111385047D01*
X100767968Y-111442500D01*
X100825420Y-111499952D01*
X100882873Y-111614857D01*
X100940325Y-111844666D01*
X100940325Y-112131928D01*
X100882873Y-112361738D01*
X100825420Y-112476642D01*
X100767968Y-112534095D01*
X100653063Y-112591547D01*
X100538159Y-112591547D01*
X100423254Y-112534095D01*
X100365801Y-112476642D01*
X100308349Y-112361738D01*
X100250897Y-112131928D01*
X100250897Y-111844666D01*
X100308349Y-111614857D01*
X100365801Y-111499952D01*
X100423254Y-111442500D01*
X100538159Y-111385047D01*
X101974468Y-111787214D02*
X101974468Y-112591547D01*
X101457397Y-111787214D02*
X101457397Y-112419190D01*
X101514849Y-112534095D01*
X101629754Y-112591547D01*
X101802111Y-112591547D01*
X101917016Y-112534095D01*
X101974468Y-112476642D01*
X102951159Y-111959571D02*
X102548992Y-111959571D01*
X102548992Y-112591547D02*
X102548992Y-111385047D01*
X103123516Y-111385047D01*
X149507726Y-115195047D02*
X148933202Y-115195047D01*
X148933202Y-113988547D01*
X149737535Y-113988547D02*
X150426964Y-113988547D01*
X150082250Y-115195047D02*
X150082250Y-113988547D01*
X150714226Y-113988547D02*
X151461107Y-113988547D01*
X151058940Y-114448166D01*
X151231297Y-114448166D01*
X151346202Y-114505619D01*
X151403654Y-114563071D01*
X151461107Y-114677976D01*
X151461107Y-114965238D01*
X151403654Y-115080142D01*
X151346202Y-115137595D01*
X151231297Y-115195047D01*
X150886583Y-115195047D01*
X150771678Y-115137595D01*
X150714226Y-115080142D01*
X152207988Y-113988547D02*
X152322892Y-113988547D01*
X152437797Y-114046000D01*
X152495250Y-114103452D01*
X152552702Y-114218357D01*
X152610154Y-114448166D01*
X152610154Y-114735428D01*
X152552702Y-114965238D01*
X152495250Y-115080142D01*
X152437797Y-115137595D01*
X152322892Y-115195047D01*
X152207988Y-115195047D01*
X152093083Y-115137595D01*
X152035630Y-115080142D01*
X151978178Y-114965238D01*
X151920726Y-114735428D01*
X151920726Y-114448166D01*
X151978178Y-114218357D01*
X152035630Y-114103452D01*
X152093083Y-114046000D01*
X152207988Y-113988547D01*
X153644297Y-114390714D02*
X153644297Y-115195047D01*
X153357035Y-113931095D02*
X153069773Y-114792880D01*
X153816654Y-114792880D01*
X154218821Y-114103452D02*
X154276273Y-114046000D01*
X154391178Y-113988547D01*
X154678440Y-113988547D01*
X154793345Y-114046000D01*
X154850797Y-114103452D01*
X154908250Y-114218357D01*
X154908250Y-114333261D01*
X154850797Y-114505619D01*
X154161369Y-115195047D01*
X154908250Y-115195047D01*
X101501726Y-109099047D02*
X100927202Y-109099047D01*
X100927202Y-107892547D01*
X101731535Y-107892547D02*
X102420964Y-107892547D01*
X102076250Y-109099047D02*
X102076250Y-107892547D01*
X102708226Y-107892547D02*
X103455107Y-107892547D01*
X103052940Y-108352166D01*
X103225297Y-108352166D01*
X103340202Y-108409619D01*
X103397654Y-108467071D01*
X103455107Y-108581976D01*
X103455107Y-108869238D01*
X103397654Y-108984142D01*
X103340202Y-109041595D01*
X103225297Y-109099047D01*
X102880583Y-109099047D01*
X102765678Y-109041595D01*
X102708226Y-108984142D01*
X104201988Y-107892547D02*
X104316892Y-107892547D01*
X104431797Y-107950000D01*
X104489250Y-108007452D01*
X104546702Y-108122357D01*
X104604154Y-108352166D01*
X104604154Y-108639428D01*
X104546702Y-108869238D01*
X104489250Y-108984142D01*
X104431797Y-109041595D01*
X104316892Y-109099047D01*
X104201988Y-109099047D01*
X104087083Y-109041595D01*
X104029630Y-108984142D01*
X103972178Y-108869238D01*
X103914726Y-108639428D01*
X103914726Y-108352166D01*
X103972178Y-108122357D01*
X104029630Y-108007452D01*
X104087083Y-107950000D01*
X104201988Y-107892547D01*
X105638297Y-108294714D02*
X105638297Y-109099047D01*
X105351035Y-107835095D02*
X105063773Y-108696880D01*
X105810654Y-108696880D01*
X106212821Y-108007452D02*
X106270273Y-107950000D01*
X106385178Y-107892547D01*
X106672440Y-107892547D01*
X106787345Y-107950000D01*
X106844797Y-108007452D01*
X106902250Y-108122357D01*
X106902250Y-108237261D01*
X106844797Y-108409619D01*
X106155369Y-109099047D01*
X106902250Y-109099047D01*
X171097726Y-89795047D02*
X170523202Y-89795047D01*
X170523202Y-88588547D01*
X171327535Y-88588547D02*
X172016964Y-88588547D01*
X171672250Y-89795047D02*
X171672250Y-88588547D01*
X172304226Y-88588547D02*
X173051107Y-88588547D01*
X172648940Y-89048166D01*
X172821297Y-89048166D01*
X172936202Y-89105619D01*
X172993654Y-89163071D01*
X173051107Y-89277976D01*
X173051107Y-89565238D01*
X172993654Y-89680142D01*
X172936202Y-89737595D01*
X172821297Y-89795047D01*
X172476583Y-89795047D01*
X172361678Y-89737595D01*
X172304226Y-89680142D01*
X173797988Y-88588547D02*
X173912892Y-88588547D01*
X174027797Y-88646000D01*
X174085250Y-88703452D01*
X174142702Y-88818357D01*
X174200154Y-89048166D01*
X174200154Y-89335428D01*
X174142702Y-89565238D01*
X174085250Y-89680142D01*
X174027797Y-89737595D01*
X173912892Y-89795047D01*
X173797988Y-89795047D01*
X173683083Y-89737595D01*
X173625630Y-89680142D01*
X173568178Y-89565238D01*
X173510726Y-89335428D01*
X173510726Y-89048166D01*
X173568178Y-88818357D01*
X173625630Y-88703452D01*
X173683083Y-88646000D01*
X173797988Y-88588547D01*
X175234297Y-88990714D02*
X175234297Y-89795047D01*
X174947035Y-88531095D02*
X174659773Y-89392880D01*
X175406654Y-89392880D01*
X175808821Y-88703452D02*
X175866273Y-88646000D01*
X175981178Y-88588547D01*
X176268440Y-88588547D01*
X176383345Y-88646000D01*
X176440797Y-88703452D01*
X176498250Y-88818357D01*
X176498250Y-88933261D01*
X176440797Y-89105619D01*
X175751369Y-89795047D01*
X176498250Y-89795047D01*
D18*
X98975333Y-70569666D02*
X98975333Y-69680666D01*
X99314000Y-69680666D01*
X99398666Y-69723000D01*
X99441000Y-69765333D01*
X99483333Y-69850000D01*
X99483333Y-69977000D01*
X99441000Y-70061666D01*
X99398666Y-70104000D01*
X99314000Y-70146333D01*
X98975333Y-70146333D01*
X100033666Y-69680666D02*
X100203000Y-69680666D01*
X100287666Y-69723000D01*
X100372333Y-69807666D01*
X100414666Y-69977000D01*
X100414666Y-70273333D01*
X100372333Y-70442666D01*
X100287666Y-70527333D01*
X100203000Y-70569666D01*
X100033666Y-70569666D01*
X99949000Y-70527333D01*
X99864333Y-70442666D01*
X99822000Y-70273333D01*
X99822000Y-69977000D01*
X99864333Y-69807666D01*
X99949000Y-69723000D01*
X100033666Y-69680666D01*
X101261333Y-70569666D02*
X100753333Y-70569666D01*
X101007333Y-70569666D02*
X101007333Y-69680666D01*
X100922666Y-69807666D01*
X100838000Y-69892333D01*
X100753333Y-69934666D01*
X101811666Y-69680666D02*
X101896333Y-69680666D01*
X101981000Y-69723000D01*
X102023333Y-69765333D01*
X102065666Y-69850000D01*
X102108000Y-70019333D01*
X102108000Y-70231000D01*
X102065666Y-70400333D01*
X102023333Y-70485000D01*
X101981000Y-70527333D01*
X101896333Y-70569666D01*
X101811666Y-70569666D01*
X101727000Y-70527333D01*
X101684666Y-70485000D01*
X101642333Y-70400333D01*
X101600000Y-70231000D01*
X101600000Y-70019333D01*
X101642333Y-69850000D01*
X101684666Y-69765333D01*
X101727000Y-69723000D01*
X101811666Y-69680666D01*
X102658333Y-69680666D02*
X102743000Y-69680666D01*
X102827666Y-69723000D01*
X102870000Y-69765333D01*
X102912333Y-69850000D01*
X102954666Y-70019333D01*
X102954666Y-70231000D01*
X102912333Y-70400333D01*
X102870000Y-70485000D01*
X102827666Y-70527333D01*
X102743000Y-70569666D01*
X102658333Y-70569666D01*
X102573666Y-70527333D01*
X102531333Y-70485000D01*
X102489000Y-70400333D01*
X102446666Y-70231000D01*
X102446666Y-70019333D01*
X102489000Y-69850000D01*
X102531333Y-69765333D01*
X102573666Y-69723000D01*
X102658333Y-69680666D01*
X103335666Y-70569666D02*
X103335666Y-69680666D01*
X103335666Y-70104000D02*
X103843666Y-70104000D01*
X103843666Y-70569666D02*
X103843666Y-69680666D01*
X104224666Y-70527333D02*
X104351666Y-70569666D01*
X104563333Y-70569666D01*
X104648000Y-70527333D01*
X104690333Y-70485000D01*
X104732666Y-70400333D01*
X104732666Y-70315666D01*
X104690333Y-70231000D01*
X104648000Y-70188666D01*
X104563333Y-70146333D01*
X104394000Y-70104000D01*
X104309333Y-70061666D01*
X104267000Y-70019333D01*
X104224666Y-69934666D01*
X104224666Y-69850000D01*
X104267000Y-69765333D01*
X104309333Y-69723000D01*
X104394000Y-69680666D01*
X104605666Y-69680666D01*
X104732666Y-69723000D01*
X104986666Y-69680666D02*
X105494666Y-69680666D01*
X105240666Y-70569666D02*
X105240666Y-69680666D01*
X106214333Y-70569666D02*
X105791000Y-70569666D01*
X105791000Y-69680666D01*
X106426000Y-69680666D02*
X106976333Y-69680666D01*
X106680000Y-70019333D01*
X106807000Y-70019333D01*
X106891666Y-70061666D01*
X106934000Y-70104000D01*
X106976333Y-70188666D01*
X106976333Y-70400333D01*
X106934000Y-70485000D01*
X106891666Y-70527333D01*
X106807000Y-70569666D01*
X106553000Y-70569666D01*
X106468333Y-70527333D01*
X106426000Y-70485000D01*
X107315000Y-69765333D02*
X107357333Y-69723000D01*
X107442000Y-69680666D01*
X107653666Y-69680666D01*
X107738333Y-69723000D01*
X107780666Y-69765333D01*
X107823000Y-69850000D01*
X107823000Y-69934666D01*
X107780666Y-70061666D01*
X107272666Y-70569666D01*
X107823000Y-70569666D01*
X108161666Y-70315666D02*
X108585000Y-70315666D01*
X108077000Y-70569666D02*
X108373333Y-69680666D01*
X108669666Y-70569666D01*
D16*
X150446619Y-73285047D02*
X150446619Y-72078547D01*
X150906238Y-72078547D01*
X151021142Y-72136000D01*
X151078595Y-72193452D01*
X151136047Y-72308357D01*
X151136047Y-72480714D01*
X151078595Y-72595619D01*
X151021142Y-72653071D01*
X150906238Y-72710523D01*
X150446619Y-72710523D01*
X151882928Y-72078547D02*
X152112738Y-72078547D01*
X152227642Y-72136000D01*
X152342547Y-72250904D01*
X152400000Y-72480714D01*
X152400000Y-72882880D01*
X152342547Y-73112690D01*
X152227642Y-73227595D01*
X152112738Y-73285047D01*
X151882928Y-73285047D01*
X151768023Y-73227595D01*
X151653119Y-73112690D01*
X151595666Y-72882880D01*
X151595666Y-72480714D01*
X151653119Y-72250904D01*
X151768023Y-72136000D01*
X151882928Y-72078547D01*
X152802166Y-72078547D02*
X153606500Y-72078547D01*
X153089428Y-73285047D01*
X154583190Y-72480714D02*
X154583190Y-73285047D01*
X154295928Y-72021095D02*
X154008666Y-72882880D01*
X154755547Y-72882880D01*
X155847142Y-72136000D02*
X155732238Y-72078547D01*
X155559880Y-72078547D01*
X155387523Y-72136000D01*
X155272619Y-72250904D01*
X155215166Y-72365809D01*
X155157714Y-72595619D01*
X155157714Y-72767976D01*
X155215166Y-72997785D01*
X155272619Y-73112690D01*
X155387523Y-73227595D01*
X155559880Y-73285047D01*
X155674785Y-73285047D01*
X155847142Y-73227595D01*
X155904595Y-73170142D01*
X155904595Y-72767976D01*
X155674785Y-72767976D01*
X156594023Y-72595619D02*
X156479119Y-72538166D01*
X156421666Y-72480714D01*
X156364214Y-72365809D01*
X156364214Y-72308357D01*
X156421666Y-72193452D01*
X156479119Y-72136000D01*
X156594023Y-72078547D01*
X156823833Y-72078547D01*
X156938738Y-72136000D01*
X156996190Y-72193452D01*
X157053642Y-72308357D01*
X157053642Y-72365809D01*
X156996190Y-72480714D01*
X156938738Y-72538166D01*
X156823833Y-72595619D01*
X156594023Y-72595619D01*
X156479119Y-72653071D01*
X156421666Y-72710523D01*
X156364214Y-72825428D01*
X156364214Y-73055238D01*
X156421666Y-73170142D01*
X156479119Y-73227595D01*
X156594023Y-73285047D01*
X156823833Y-73285047D01*
X156938738Y-73227595D01*
X156996190Y-73170142D01*
X157053642Y-73055238D01*
X157053642Y-72825428D01*
X156996190Y-72710523D01*
X156938738Y-72653071D01*
X156823833Y-72595619D01*
X158087785Y-72078547D02*
X157857976Y-72078547D01*
X157743071Y-72136000D01*
X157685619Y-72193452D01*
X157570714Y-72365809D01*
X157513261Y-72595619D01*
X157513261Y-73055238D01*
X157570714Y-73170142D01*
X157628166Y-73227595D01*
X157743071Y-73285047D01*
X157972880Y-73285047D01*
X158087785Y-73227595D01*
X158145238Y-73170142D01*
X158202690Y-73055238D01*
X158202690Y-72767976D01*
X158145238Y-72653071D01*
X158087785Y-72595619D01*
X157972880Y-72538166D01*
X157743071Y-72538166D01*
X157628166Y-72595619D01*
X157570714Y-72653071D01*
X157513261Y-72767976D01*
X158662309Y-72940333D02*
X159236833Y-72940333D01*
X158547404Y-73285047D02*
X158949571Y-72078547D01*
X159351738Y-73285047D01*
X122273301Y-83762547D02*
X122273301Y-82556047D01*
X122790373Y-83705095D02*
X122962730Y-83762547D01*
X123249992Y-83762547D01*
X123364897Y-83705095D01*
X123422349Y-83647642D01*
X123479801Y-83532738D01*
X123479801Y-83417833D01*
X123422349Y-83302928D01*
X123364897Y-83245476D01*
X123249992Y-83188023D01*
X123020182Y-83130571D01*
X122905278Y-83073119D01*
X122847825Y-83015666D01*
X122790373Y-82900761D01*
X122790373Y-82785857D01*
X122847825Y-82670952D01*
X122905278Y-82613500D01*
X123020182Y-82556047D01*
X123307444Y-82556047D01*
X123479801Y-82613500D01*
X124226682Y-82556047D02*
X124456492Y-82556047D01*
X124571397Y-82613500D01*
X124686301Y-82728404D01*
X124743754Y-82958214D01*
X124743754Y-83360380D01*
X124686301Y-83590190D01*
X124571397Y-83705095D01*
X124456492Y-83762547D01*
X124226682Y-83762547D01*
X124111778Y-83705095D01*
X123996873Y-83590190D01*
X123939420Y-83360380D01*
X123939420Y-82958214D01*
X123996873Y-82728404D01*
X124111778Y-82613500D01*
X124226682Y-82556047D01*
X125892801Y-83762547D02*
X125203373Y-83762547D01*
X125548087Y-83762547D02*
X125548087Y-82556047D01*
X125433182Y-82728404D01*
X125318278Y-82843309D01*
X125203373Y-82900761D01*
X126984397Y-82556047D02*
X126409873Y-82556047D01*
X126352420Y-83130571D01*
X126409873Y-83073119D01*
X126524778Y-83015666D01*
X126812040Y-83015666D01*
X126926944Y-83073119D01*
X126984397Y-83130571D01*
X127041849Y-83245476D01*
X127041849Y-83532738D01*
X126984397Y-83647642D01*
X126926944Y-83705095D01*
X126812040Y-83762547D01*
X126524778Y-83762547D01*
X126409873Y-83705095D01*
X126352420Y-83647642D01*
X127788730Y-82556047D02*
X127903635Y-82556047D01*
X128018540Y-82613500D01*
X128075992Y-82670952D01*
X128133444Y-82785857D01*
X128190897Y-83015666D01*
X128190897Y-83302928D01*
X128133444Y-83532738D01*
X128075992Y-83647642D01*
X128018540Y-83705095D01*
X127903635Y-83762547D01*
X127788730Y-83762547D01*
X127673825Y-83705095D01*
X127616373Y-83647642D01*
X127558920Y-83532738D01*
X127501468Y-83302928D01*
X127501468Y-83015666D01*
X127558920Y-82785857D01*
X127616373Y-82670952D01*
X127673825Y-82613500D01*
X127788730Y-82556047D01*
X128650516Y-83417833D02*
X129225040Y-83417833D01*
X128535611Y-83762547D02*
X128937778Y-82556047D01*
X129339944Y-83762547D01*
X129742111Y-82556047D02*
X129742111Y-83532738D01*
X129799563Y-83647642D01*
X129857016Y-83705095D01*
X129971920Y-83762547D01*
X130201730Y-83762547D01*
X130316635Y-83705095D01*
X130374087Y-83647642D01*
X130431540Y-83532738D01*
X130431540Y-82556047D01*
X122273301Y-99002547D02*
X122273301Y-97796047D01*
X122790373Y-98945095D02*
X122962730Y-99002547D01*
X123249992Y-99002547D01*
X123364897Y-98945095D01*
X123422349Y-98887642D01*
X123479801Y-98772738D01*
X123479801Y-98657833D01*
X123422349Y-98542928D01*
X123364897Y-98485476D01*
X123249992Y-98428023D01*
X123020182Y-98370571D01*
X122905278Y-98313119D01*
X122847825Y-98255666D01*
X122790373Y-98140761D01*
X122790373Y-98025857D01*
X122847825Y-97910952D01*
X122905278Y-97853500D01*
X123020182Y-97796047D01*
X123307444Y-97796047D01*
X123479801Y-97853500D01*
X124226682Y-97796047D02*
X124456492Y-97796047D01*
X124571397Y-97853500D01*
X124686301Y-97968404D01*
X124743754Y-98198214D01*
X124743754Y-98600380D01*
X124686301Y-98830190D01*
X124571397Y-98945095D01*
X124456492Y-99002547D01*
X124226682Y-99002547D01*
X124111778Y-98945095D01*
X123996873Y-98830190D01*
X123939420Y-98600380D01*
X123939420Y-98198214D01*
X123996873Y-97968404D01*
X124111778Y-97853500D01*
X124226682Y-97796047D01*
X125892801Y-99002547D02*
X125203373Y-99002547D01*
X125548087Y-99002547D02*
X125548087Y-97796047D01*
X125433182Y-97968404D01*
X125318278Y-98083309D01*
X125203373Y-98140761D01*
X126984397Y-97796047D02*
X126409873Y-97796047D01*
X126352420Y-98370571D01*
X126409873Y-98313119D01*
X126524778Y-98255666D01*
X126812040Y-98255666D01*
X126926944Y-98313119D01*
X126984397Y-98370571D01*
X127041849Y-98485476D01*
X127041849Y-98772738D01*
X126984397Y-98887642D01*
X126926944Y-98945095D01*
X126812040Y-99002547D01*
X126524778Y-99002547D01*
X126409873Y-98945095D01*
X126352420Y-98887642D01*
X127788730Y-97796047D02*
X127903635Y-97796047D01*
X128018540Y-97853500D01*
X128075992Y-97910952D01*
X128133444Y-98025857D01*
X128190897Y-98255666D01*
X128190897Y-98542928D01*
X128133444Y-98772738D01*
X128075992Y-98887642D01*
X128018540Y-98945095D01*
X127903635Y-99002547D01*
X127788730Y-99002547D01*
X127673825Y-98945095D01*
X127616373Y-98887642D01*
X127558920Y-98772738D01*
X127501468Y-98542928D01*
X127501468Y-98255666D01*
X127558920Y-98025857D01*
X127616373Y-97910952D01*
X127673825Y-97853500D01*
X127788730Y-97796047D01*
X128650516Y-98657833D02*
X129225040Y-98657833D01*
X128535611Y-99002547D02*
X128937778Y-97796047D01*
X129339944Y-99002547D01*
X129742111Y-97796047D02*
X129742111Y-98772738D01*
X129799563Y-98887642D01*
X129857016Y-98945095D01*
X129971920Y-99002547D01*
X130201730Y-99002547D01*
X130316635Y-98945095D01*
X130374087Y-98887642D01*
X130431540Y-98772738D01*
X130431540Y-97796047D01*
X106591825Y-65982547D02*
X106017301Y-65982547D01*
X106017301Y-64776047D01*
X106879087Y-64776047D02*
X107683420Y-64776047D01*
X107166349Y-65982547D01*
X108028135Y-64776047D02*
X108775016Y-64776047D01*
X108372849Y-65235666D01*
X108545206Y-65235666D01*
X108660111Y-65293119D01*
X108717563Y-65350571D01*
X108775016Y-65465476D01*
X108775016Y-65752738D01*
X108717563Y-65867642D01*
X108660111Y-65925095D01*
X108545206Y-65982547D01*
X108200492Y-65982547D01*
X108085587Y-65925095D01*
X108028135Y-65867642D01*
X183426825Y-99383547D02*
X182852301Y-99383547D01*
X182852301Y-98177047D01*
X183714087Y-98177047D02*
X184518420Y-98177047D01*
X184001349Y-99383547D01*
X185495111Y-98579214D02*
X185495111Y-99383547D01*
X185207849Y-98119595D02*
X184920587Y-98981380D01*
X185667468Y-98981380D01*
X183680825Y-86683547D02*
X183106301Y-86683547D01*
X183106301Y-85477047D01*
X183968087Y-85477047D02*
X184772420Y-85477047D01*
X184255349Y-86683547D01*
X185806563Y-85477047D02*
X185232040Y-85477047D01*
X185174587Y-86051571D01*
X185232040Y-85994119D01*
X185346944Y-85936666D01*
X185634206Y-85936666D01*
X185749111Y-85994119D01*
X185806563Y-86051571D01*
X185864016Y-86166476D01*
X185864016Y-86453738D01*
X185806563Y-86568642D01*
X185749111Y-86626095D01*
X185634206Y-86683547D01*
X185346944Y-86683547D01*
X185232040Y-86626095D01*
X185174587Y-86568642D01*
X171615825Y-121100547D02*
X171041301Y-121100547D01*
X171041301Y-119894047D01*
X172190349Y-120411119D02*
X172075444Y-120353666D01*
X172017992Y-120296214D01*
X171960540Y-120181309D01*
X171960540Y-120123857D01*
X172017992Y-120008952D01*
X172075444Y-119951500D01*
X172190349Y-119894047D01*
X172420159Y-119894047D01*
X172535063Y-119951500D01*
X172592516Y-120008952D01*
X172649968Y-120123857D01*
X172649968Y-120181309D01*
X172592516Y-120296214D01*
X172535063Y-120353666D01*
X172420159Y-120411119D01*
X172190349Y-120411119D01*
X172075444Y-120468571D01*
X172017992Y-120526023D01*
X171960540Y-120640928D01*
X171960540Y-120870738D01*
X172017992Y-120985642D01*
X172075444Y-121043095D01*
X172190349Y-121100547D01*
X172420159Y-121100547D01*
X172535063Y-121043095D01*
X172592516Y-120985642D01*
X172649968Y-120870738D01*
X172649968Y-120640928D01*
X172592516Y-120526023D01*
X172535063Y-120468571D01*
X172420159Y-120411119D01*
X173396849Y-119894047D02*
X173511754Y-119894047D01*
X173626659Y-119951500D01*
X173684111Y-120008952D01*
X173741563Y-120123857D01*
X173799016Y-120353666D01*
X173799016Y-120640928D01*
X173741563Y-120870738D01*
X173684111Y-120985642D01*
X173626659Y-121043095D01*
X173511754Y-121100547D01*
X173396849Y-121100547D01*
X173281944Y-121043095D01*
X173224492Y-120985642D01*
X173167040Y-120870738D01*
X173109587Y-120640928D01*
X173109587Y-120353666D01*
X173167040Y-120123857D01*
X173224492Y-120008952D01*
X173281944Y-119951500D01*
X173396849Y-119894047D01*
X162725825Y-109670547D02*
X162151301Y-109670547D01*
X162151301Y-108464047D01*
X163300349Y-108981119D02*
X163185444Y-108923666D01*
X163127992Y-108866214D01*
X163070540Y-108751309D01*
X163070540Y-108693857D01*
X163127992Y-108578952D01*
X163185444Y-108521500D01*
X163300349Y-108464047D01*
X163530159Y-108464047D01*
X163645063Y-108521500D01*
X163702516Y-108578952D01*
X163759968Y-108693857D01*
X163759968Y-108751309D01*
X163702516Y-108866214D01*
X163645063Y-108923666D01*
X163530159Y-108981119D01*
X163300349Y-108981119D01*
X163185444Y-109038571D01*
X163127992Y-109096023D01*
X163070540Y-109210928D01*
X163070540Y-109440738D01*
X163127992Y-109555642D01*
X163185444Y-109613095D01*
X163300349Y-109670547D01*
X163530159Y-109670547D01*
X163645063Y-109613095D01*
X163702516Y-109555642D01*
X163759968Y-109440738D01*
X163759968Y-109210928D01*
X163702516Y-109096023D01*
X163645063Y-109038571D01*
X163530159Y-108981119D01*
X164909016Y-109670547D02*
X164219587Y-109670547D01*
X164564301Y-109670547D02*
X164564301Y-108464047D01*
X164449397Y-108636404D01*
X164334492Y-108751309D01*
X164219587Y-108808761D01*
X92748825Y-111067547D02*
X92174301Y-111067547D01*
X92174301Y-109861047D01*
X93323349Y-110378119D02*
X93208444Y-110320666D01*
X93150992Y-110263214D01*
X93093540Y-110148309D01*
X93093540Y-110090857D01*
X93150992Y-109975952D01*
X93208444Y-109918500D01*
X93323349Y-109861047D01*
X93553159Y-109861047D01*
X93668063Y-109918500D01*
X93725516Y-109975952D01*
X93782968Y-110090857D01*
X93782968Y-110148309D01*
X93725516Y-110263214D01*
X93668063Y-110320666D01*
X93553159Y-110378119D01*
X93323349Y-110378119D01*
X93208444Y-110435571D01*
X93150992Y-110493023D01*
X93093540Y-110607928D01*
X93093540Y-110837738D01*
X93150992Y-110952642D01*
X93208444Y-111010095D01*
X93323349Y-111067547D01*
X93553159Y-111067547D01*
X93668063Y-111010095D01*
X93725516Y-110952642D01*
X93782968Y-110837738D01*
X93782968Y-110607928D01*
X93725516Y-110493023D01*
X93668063Y-110435571D01*
X93553159Y-110378119D01*
X94242587Y-109975952D02*
X94300040Y-109918500D01*
X94414944Y-109861047D01*
X94702206Y-109861047D01*
X94817111Y-109918500D01*
X94874563Y-109975952D01*
X94932016Y-110090857D01*
X94932016Y-110205761D01*
X94874563Y-110378119D01*
X94185135Y-111067547D01*
X94932016Y-111067547D01*
X93510825Y-123513547D02*
X92936301Y-123513547D01*
X92936301Y-122307047D01*
X94085349Y-122824119D02*
X93970444Y-122766666D01*
X93912992Y-122709214D01*
X93855540Y-122594309D01*
X93855540Y-122536857D01*
X93912992Y-122421952D01*
X93970444Y-122364500D01*
X94085349Y-122307047D01*
X94315159Y-122307047D01*
X94430063Y-122364500D01*
X94487516Y-122421952D01*
X94544968Y-122536857D01*
X94544968Y-122594309D01*
X94487516Y-122709214D01*
X94430063Y-122766666D01*
X94315159Y-122824119D01*
X94085349Y-122824119D01*
X93970444Y-122881571D01*
X93912992Y-122939023D01*
X93855540Y-123053928D01*
X93855540Y-123283738D01*
X93912992Y-123398642D01*
X93970444Y-123456095D01*
X94085349Y-123513547D01*
X94315159Y-123513547D01*
X94430063Y-123456095D01*
X94487516Y-123398642D01*
X94544968Y-123283738D01*
X94544968Y-123053928D01*
X94487516Y-122939023D01*
X94430063Y-122881571D01*
X94315159Y-122824119D01*
X94947135Y-122307047D02*
X95694016Y-122307047D01*
X95291849Y-122766666D01*
X95464206Y-122766666D01*
X95579111Y-122824119D01*
X95636563Y-122881571D01*
X95694016Y-122996476D01*
X95694016Y-123283738D01*
X95636563Y-123398642D01*
X95579111Y-123456095D01*
X95464206Y-123513547D01*
X95119492Y-123513547D01*
X95004587Y-123456095D01*
X94947135Y-123398642D01*
X88969547Y-69823269D02*
X88395023Y-70225436D01*
X88969547Y-70512698D02*
X87763047Y-70512698D01*
X87763047Y-70053079D01*
X87820500Y-69938174D01*
X87877952Y-69880721D01*
X87992857Y-69823269D01*
X88165214Y-69823269D01*
X88280119Y-69880721D01*
X88337571Y-69938174D01*
X88395023Y-70053079D01*
X88395023Y-70512698D01*
X88969547Y-68674221D02*
X88969547Y-69363650D01*
X88969547Y-69018936D02*
X87763047Y-69018936D01*
X87935404Y-69133840D01*
X88050309Y-69248745D01*
X88107761Y-69363650D01*
X90747547Y-70007721D02*
X90747547Y-70697150D01*
X90747547Y-70352436D02*
X89541047Y-70352436D01*
X89713404Y-70467340D01*
X89828309Y-70582245D01*
X89885761Y-70697150D01*
X89541047Y-69260840D02*
X89541047Y-69145936D01*
X89598500Y-69031031D01*
X89655952Y-68973579D01*
X89770857Y-68916126D01*
X90000666Y-68858674D01*
X90287928Y-68858674D01*
X90517738Y-68916126D01*
X90632642Y-68973579D01*
X90690095Y-69031031D01*
X90747547Y-69145936D01*
X90747547Y-69260840D01*
X90690095Y-69375745D01*
X90632642Y-69433198D01*
X90517738Y-69490650D01*
X90287928Y-69548102D01*
X90000666Y-69548102D01*
X89770857Y-69490650D01*
X89655952Y-69433198D01*
X89598500Y-69375745D01*
X89541047Y-69260840D01*
X89541047Y-68111793D02*
X89541047Y-67996888D01*
X89598500Y-67881983D01*
X89655952Y-67824531D01*
X89770857Y-67767079D01*
X90000666Y-67709626D01*
X90287928Y-67709626D01*
X90517738Y-67767079D01*
X90632642Y-67824531D01*
X90690095Y-67881983D01*
X90747547Y-67996888D01*
X90747547Y-68111793D01*
X90690095Y-68226698D01*
X90632642Y-68284150D01*
X90517738Y-68341602D01*
X90287928Y-68399055D01*
X90000666Y-68399055D01*
X89770857Y-68341602D01*
X89655952Y-68284150D01*
X89598500Y-68226698D01*
X89541047Y-68111793D01*
X91763547Y-79983269D02*
X91189023Y-80385436D01*
X91763547Y-80672698D02*
X90557047Y-80672698D01*
X90557047Y-80213079D01*
X90614500Y-80098174D01*
X90671952Y-80040721D01*
X90786857Y-79983269D01*
X90959214Y-79983269D01*
X91074119Y-80040721D01*
X91131571Y-80098174D01*
X91189023Y-80213079D01*
X91189023Y-80672698D01*
X90671952Y-79523650D02*
X90614500Y-79466198D01*
X90557047Y-79351293D01*
X90557047Y-79064031D01*
X90614500Y-78949126D01*
X90671952Y-78891674D01*
X90786857Y-78834221D01*
X90901761Y-78834221D01*
X91074119Y-78891674D01*
X91763547Y-79581102D01*
X91763547Y-78834221D01*
X93668547Y-80548721D02*
X93668547Y-81238150D01*
X93668547Y-80893436D02*
X92462047Y-80893436D01*
X92634404Y-81008340D01*
X92749309Y-81123245D01*
X92806761Y-81238150D01*
X92462047Y-79801840D02*
X92462047Y-79686936D01*
X92519500Y-79572031D01*
X92576952Y-79514579D01*
X92691857Y-79457126D01*
X92921666Y-79399674D01*
X93208928Y-79399674D01*
X93438738Y-79457126D01*
X93553642Y-79514579D01*
X93611095Y-79572031D01*
X93668547Y-79686936D01*
X93668547Y-79801840D01*
X93611095Y-79916745D01*
X93553642Y-79974198D01*
X93438738Y-80031650D01*
X93208928Y-80089102D01*
X92921666Y-80089102D01*
X92691857Y-80031650D01*
X92576952Y-79974198D01*
X92519500Y-79916745D01*
X92462047Y-79801840D01*
X92462047Y-78652793D02*
X92462047Y-78537888D01*
X92519500Y-78422983D01*
X92576952Y-78365531D01*
X92691857Y-78308079D01*
X92921666Y-78250626D01*
X93208928Y-78250626D01*
X93438738Y-78308079D01*
X93553642Y-78365531D01*
X93611095Y-78422983D01*
X93668547Y-78537888D01*
X93668547Y-78652793D01*
X93611095Y-78767698D01*
X93553642Y-78825150D01*
X93438738Y-78882602D01*
X93208928Y-78940055D01*
X92921666Y-78940055D01*
X92691857Y-78882602D01*
X92576952Y-78825150D01*
X92519500Y-78767698D01*
X92462047Y-78652793D01*
X89096547Y-90397269D02*
X88522023Y-90799436D01*
X89096547Y-91086698D02*
X87890047Y-91086698D01*
X87890047Y-90627079D01*
X87947500Y-90512174D01*
X88004952Y-90454721D01*
X88119857Y-90397269D01*
X88292214Y-90397269D01*
X88407119Y-90454721D01*
X88464571Y-90512174D01*
X88522023Y-90627079D01*
X88522023Y-91086698D01*
X87890047Y-89995102D02*
X87890047Y-89248221D01*
X88349666Y-89650388D01*
X88349666Y-89478031D01*
X88407119Y-89363126D01*
X88464571Y-89305674D01*
X88579476Y-89248221D01*
X88866738Y-89248221D01*
X88981642Y-89305674D01*
X89039095Y-89363126D01*
X89096547Y-89478031D01*
X89096547Y-89822745D01*
X89039095Y-89937650D01*
X88981642Y-89995102D01*
X90747547Y-91724721D02*
X90747547Y-92414150D01*
X90747547Y-92069436D02*
X89541047Y-92069436D01*
X89713404Y-92184340D01*
X89828309Y-92299245D01*
X89885761Y-92414150D01*
X89541047Y-90977840D02*
X89541047Y-90862936D01*
X89598500Y-90748031D01*
X89655952Y-90690579D01*
X89770857Y-90633126D01*
X90000666Y-90575674D01*
X90287928Y-90575674D01*
X90517738Y-90633126D01*
X90632642Y-90690579D01*
X90690095Y-90748031D01*
X90747547Y-90862936D01*
X90747547Y-90977840D01*
X90690095Y-91092745D01*
X90632642Y-91150198D01*
X90517738Y-91207650D01*
X90287928Y-91265102D01*
X90000666Y-91265102D01*
X89770857Y-91207650D01*
X89655952Y-91150198D01*
X89598500Y-91092745D01*
X89541047Y-90977840D01*
X89541047Y-89828793D02*
X89541047Y-89713888D01*
X89598500Y-89598983D01*
X89655952Y-89541531D01*
X89770857Y-89484079D01*
X90000666Y-89426626D01*
X90287928Y-89426626D01*
X90517738Y-89484079D01*
X90632642Y-89541531D01*
X90690095Y-89598983D01*
X90747547Y-89713888D01*
X90747547Y-89828793D01*
X90690095Y-89943698D01*
X90632642Y-90001150D01*
X90517738Y-90058602D01*
X90287928Y-90116055D01*
X90000666Y-90116055D01*
X89770857Y-90058602D01*
X89655952Y-90001150D01*
X89598500Y-89943698D01*
X89541047Y-89828793D01*
X112718547Y-76935269D02*
X112144023Y-77337436D01*
X112718547Y-77624698D02*
X111512047Y-77624698D01*
X111512047Y-77165079D01*
X111569500Y-77050174D01*
X111626952Y-76992721D01*
X111741857Y-76935269D01*
X111914214Y-76935269D01*
X112029119Y-76992721D01*
X112086571Y-77050174D01*
X112144023Y-77165079D01*
X112144023Y-77624698D01*
X111512047Y-75901126D02*
X111512047Y-76130936D01*
X111569500Y-76245840D01*
X111626952Y-76303293D01*
X111799309Y-76418198D01*
X112029119Y-76475650D01*
X112488738Y-76475650D01*
X112603642Y-76418198D01*
X112661095Y-76360745D01*
X112718547Y-76245840D01*
X112718547Y-76016031D01*
X112661095Y-75901126D01*
X112603642Y-75843674D01*
X112488738Y-75786221D01*
X112201476Y-75786221D01*
X112086571Y-75843674D01*
X112029119Y-75901126D01*
X111971666Y-76016031D01*
X111971666Y-76245840D01*
X112029119Y-76360745D01*
X112086571Y-76418198D01*
X112201476Y-76475650D01*
X114242547Y-76992721D02*
X114242547Y-77682150D01*
X114242547Y-77337436D02*
X113036047Y-77337436D01*
X113208404Y-77452340D01*
X113323309Y-77567245D01*
X113380761Y-77682150D01*
X114242547Y-76475650D02*
X113036047Y-76475650D01*
X114242547Y-75786221D02*
X113553119Y-76303293D01*
X113036047Y-75786221D02*
X113725476Y-76475650D01*
X163010547Y-80618269D02*
X162436023Y-81020436D01*
X163010547Y-81307698D02*
X161804047Y-81307698D01*
X161804047Y-80848079D01*
X161861500Y-80733174D01*
X161918952Y-80675721D01*
X162033857Y-80618269D01*
X162206214Y-80618269D01*
X162321119Y-80675721D01*
X162378571Y-80733174D01*
X162436023Y-80848079D01*
X162436023Y-81307698D01*
X163010547Y-79469221D02*
X163010547Y-80158650D01*
X163010547Y-79813936D02*
X161804047Y-79813936D01*
X161976404Y-79928840D01*
X162091309Y-80043745D01*
X162148761Y-80158650D01*
X161804047Y-79067055D02*
X161804047Y-78262721D01*
X163010547Y-78779793D01*
X163984214Y-80917626D02*
X164788547Y-80917626D01*
X163524595Y-81204888D02*
X164386380Y-81492150D01*
X164386380Y-80745269D01*
X164788547Y-80285650D02*
X163582047Y-80285650D01*
X164788547Y-79596221D02*
X164099119Y-80113293D01*
X163582047Y-79596221D02*
X164271476Y-80285650D01*
X163582047Y-79194055D02*
X163582047Y-78389721D01*
X164788547Y-78906793D01*
X164153547Y-70585269D02*
X163579023Y-70987436D01*
X164153547Y-71274698D02*
X162947047Y-71274698D01*
X162947047Y-70815079D01*
X163004500Y-70700174D01*
X163061952Y-70642721D01*
X163176857Y-70585269D01*
X163349214Y-70585269D01*
X163464119Y-70642721D01*
X163521571Y-70700174D01*
X163579023Y-70815079D01*
X163579023Y-71274698D01*
X164153547Y-69436221D02*
X164153547Y-70125650D01*
X164153547Y-69780936D02*
X162947047Y-69780936D01*
X163119404Y-69895840D01*
X163234309Y-70010745D01*
X163291761Y-70125650D01*
X163464119Y-68746793D02*
X163406666Y-68861698D01*
X163349214Y-68919150D01*
X163234309Y-68976602D01*
X163176857Y-68976602D01*
X163061952Y-68919150D01*
X163004500Y-68861698D01*
X162947047Y-68746793D01*
X162947047Y-68516983D01*
X163004500Y-68402079D01*
X163061952Y-68344626D01*
X163176857Y-68287174D01*
X163234309Y-68287174D01*
X163349214Y-68344626D01*
X163406666Y-68402079D01*
X163464119Y-68516983D01*
X163464119Y-68746793D01*
X163521571Y-68861698D01*
X163579023Y-68919150D01*
X163693928Y-68976602D01*
X163923738Y-68976602D01*
X164038642Y-68919150D01*
X164096095Y-68861698D01*
X164153547Y-68746793D01*
X164153547Y-68516983D01*
X164096095Y-68402079D01*
X164038642Y-68344626D01*
X163923738Y-68287174D01*
X163693928Y-68287174D01*
X163579023Y-68344626D01*
X163521571Y-68402079D01*
X163464119Y-68516983D01*
X165000214Y-70757626D02*
X165804547Y-70757626D01*
X164540595Y-71044888D02*
X165402380Y-71332150D01*
X165402380Y-70585269D01*
X165804547Y-70125650D02*
X164598047Y-70125650D01*
X165804547Y-69436221D02*
X165115119Y-69953293D01*
X164598047Y-69436221D02*
X165287476Y-70125650D01*
X164598047Y-69034055D02*
X164598047Y-68229721D01*
X165804547Y-68746793D01*
X147516547Y-74268269D02*
X146942023Y-74670436D01*
X147516547Y-74957698D02*
X146310047Y-74957698D01*
X146310047Y-74498079D01*
X146367500Y-74383174D01*
X146424952Y-74325721D01*
X146539857Y-74268269D01*
X146712214Y-74268269D01*
X146827119Y-74325721D01*
X146884571Y-74383174D01*
X146942023Y-74498079D01*
X146942023Y-74957698D01*
X147516547Y-73119221D02*
X147516547Y-73808650D01*
X147516547Y-73463936D02*
X146310047Y-73463936D01*
X146482404Y-73578840D01*
X146597309Y-73693745D01*
X146654761Y-73808650D01*
X147516547Y-72544698D02*
X147516547Y-72314888D01*
X147459095Y-72199983D01*
X147401642Y-72142531D01*
X147229285Y-72027626D01*
X146999476Y-71970174D01*
X146539857Y-71970174D01*
X146424952Y-72027626D01*
X146367500Y-72085079D01*
X146310047Y-72199983D01*
X146310047Y-72429793D01*
X146367500Y-72544698D01*
X146424952Y-72602150D01*
X146539857Y-72659602D01*
X146827119Y-72659602D01*
X146942023Y-72602150D01*
X146999476Y-72544698D01*
X147056928Y-72429793D01*
X147056928Y-72199983D01*
X146999476Y-72085079D01*
X146942023Y-72027626D01*
X146827119Y-71970174D01*
X149167547Y-74325721D02*
X149167547Y-75015150D01*
X149167547Y-74670436D02*
X147961047Y-74670436D01*
X148133404Y-74785340D01*
X148248309Y-74900245D01*
X148305761Y-75015150D01*
X149167547Y-73808650D02*
X147961047Y-73808650D01*
X149167547Y-73119221D02*
X148478119Y-73636293D01*
X147961047Y-73119221D02*
X148650476Y-73808650D01*
X148532547Y-84428269D02*
X147958023Y-84830436D01*
X148532547Y-85117698D02*
X147326047Y-85117698D01*
X147326047Y-84658079D01*
X147383500Y-84543174D01*
X147440952Y-84485721D01*
X147555857Y-84428269D01*
X147728214Y-84428269D01*
X147843119Y-84485721D01*
X147900571Y-84543174D01*
X147958023Y-84658079D01*
X147958023Y-85117698D01*
X147440952Y-83968650D02*
X147383500Y-83911198D01*
X147326047Y-83796293D01*
X147326047Y-83509031D01*
X147383500Y-83394126D01*
X147440952Y-83336674D01*
X147555857Y-83279221D01*
X147670761Y-83279221D01*
X147843119Y-83336674D01*
X148532547Y-84026102D01*
X148532547Y-83279221D01*
X147326047Y-82532340D02*
X147326047Y-82417436D01*
X147383500Y-82302531D01*
X147440952Y-82245079D01*
X147555857Y-82187626D01*
X147785666Y-82130174D01*
X148072928Y-82130174D01*
X148302738Y-82187626D01*
X148417642Y-82245079D01*
X148475095Y-82302531D01*
X148532547Y-82417436D01*
X148532547Y-82532340D01*
X148475095Y-82647245D01*
X148417642Y-82704698D01*
X148302738Y-82762150D01*
X148072928Y-82819602D01*
X147785666Y-82819602D01*
X147555857Y-82762150D01*
X147440952Y-82704698D01*
X147383500Y-82647245D01*
X147326047Y-82532340D01*
X150056547Y-83342721D02*
X150056547Y-84032150D01*
X150056547Y-83687436D02*
X148850047Y-83687436D01*
X149022404Y-83802340D01*
X149137309Y-83917245D01*
X149194761Y-84032150D01*
X150056547Y-82825650D02*
X148850047Y-82825650D01*
X150056547Y-82136221D02*
X149367119Y-82653293D01*
X148850047Y-82136221D02*
X149539476Y-82825650D01*
X160343547Y-101319269D02*
X159769023Y-101721436D01*
X160343547Y-102008698D02*
X159137047Y-102008698D01*
X159137047Y-101549079D01*
X159194500Y-101434174D01*
X159251952Y-101376721D01*
X159366857Y-101319269D01*
X159539214Y-101319269D01*
X159654119Y-101376721D01*
X159711571Y-101434174D01*
X159769023Y-101549079D01*
X159769023Y-102008698D01*
X159251952Y-100859650D02*
X159194500Y-100802198D01*
X159137047Y-100687293D01*
X159137047Y-100400031D01*
X159194500Y-100285126D01*
X159251952Y-100227674D01*
X159366857Y-100170221D01*
X159481761Y-100170221D01*
X159654119Y-100227674D01*
X160343547Y-100917102D01*
X160343547Y-100170221D01*
X159251952Y-99710602D02*
X159194500Y-99653150D01*
X159137047Y-99538245D01*
X159137047Y-99250983D01*
X159194500Y-99136079D01*
X159251952Y-99078626D01*
X159366857Y-99021174D01*
X159481761Y-99021174D01*
X159654119Y-99078626D01*
X160343547Y-99768055D01*
X160343547Y-99021174D01*
X162121547Y-100487721D02*
X162121547Y-101177150D01*
X162121547Y-100832436D02*
X160915047Y-100832436D01*
X161087404Y-100947340D01*
X161202309Y-101062245D01*
X161259761Y-101177150D01*
X160915047Y-99740840D02*
X160915047Y-99625936D01*
X160972500Y-99511031D01*
X161029952Y-99453579D01*
X161144857Y-99396126D01*
X161374666Y-99338674D01*
X161661928Y-99338674D01*
X161891738Y-99396126D01*
X162006642Y-99453579D01*
X162064095Y-99511031D01*
X162121547Y-99625936D01*
X162121547Y-99740840D01*
X162064095Y-99855745D01*
X162006642Y-99913198D01*
X161891738Y-99970650D01*
X161661928Y-100028102D01*
X161374666Y-100028102D01*
X161144857Y-99970650D01*
X161029952Y-99913198D01*
X160972500Y-99855745D01*
X160915047Y-99740840D01*
X160089547Y-106653269D02*
X159515023Y-107055436D01*
X160089547Y-107342698D02*
X158883047Y-107342698D01*
X158883047Y-106883079D01*
X158940500Y-106768174D01*
X158997952Y-106710721D01*
X159112857Y-106653269D01*
X159285214Y-106653269D01*
X159400119Y-106710721D01*
X159457571Y-106768174D01*
X159515023Y-106883079D01*
X159515023Y-107342698D01*
X158997952Y-106193650D02*
X158940500Y-106136198D01*
X158883047Y-106021293D01*
X158883047Y-105734031D01*
X158940500Y-105619126D01*
X158997952Y-105561674D01*
X159112857Y-105504221D01*
X159227761Y-105504221D01*
X159400119Y-105561674D01*
X160089547Y-106251102D01*
X160089547Y-105504221D01*
X158883047Y-105102055D02*
X158883047Y-104355174D01*
X159342666Y-104757340D01*
X159342666Y-104584983D01*
X159400119Y-104470079D01*
X159457571Y-104412626D01*
X159572476Y-104355174D01*
X159859738Y-104355174D01*
X159974642Y-104412626D01*
X160032095Y-104470079D01*
X160089547Y-104584983D01*
X160089547Y-104929698D01*
X160032095Y-105044602D01*
X159974642Y-105102055D01*
X160534047Y-106260174D02*
X160534047Y-106834698D01*
X161108571Y-106892150D01*
X161051119Y-106834698D01*
X160993666Y-106719793D01*
X160993666Y-106432531D01*
X161051119Y-106317626D01*
X161108571Y-106260174D01*
X161223476Y-106202721D01*
X161510738Y-106202721D01*
X161625642Y-106260174D01*
X161683095Y-106317626D01*
X161740547Y-106432531D01*
X161740547Y-106719793D01*
X161683095Y-106834698D01*
X161625642Y-106892150D01*
X160534047Y-105455840D02*
X160534047Y-105340936D01*
X160591500Y-105226031D01*
X160648952Y-105168579D01*
X160763857Y-105111126D01*
X160993666Y-105053674D01*
X161280928Y-105053674D01*
X161510738Y-105111126D01*
X161625642Y-105168579D01*
X161683095Y-105226031D01*
X161740547Y-105340936D01*
X161740547Y-105455840D01*
X161683095Y-105570745D01*
X161625642Y-105628198D01*
X161510738Y-105685650D01*
X161280928Y-105743102D01*
X160993666Y-105743102D01*
X160763857Y-105685650D01*
X160648952Y-105628198D01*
X160591500Y-105570745D01*
X160534047Y-105455840D01*
X145230547Y-101065269D02*
X144656023Y-101467436D01*
X145230547Y-101754698D02*
X144024047Y-101754698D01*
X144024047Y-101295079D01*
X144081500Y-101180174D01*
X144138952Y-101122721D01*
X144253857Y-101065269D01*
X144426214Y-101065269D01*
X144541119Y-101122721D01*
X144598571Y-101180174D01*
X144656023Y-101295079D01*
X144656023Y-101754698D01*
X144138952Y-100605650D02*
X144081500Y-100548198D01*
X144024047Y-100433293D01*
X144024047Y-100146031D01*
X144081500Y-100031126D01*
X144138952Y-99973674D01*
X144253857Y-99916221D01*
X144368761Y-99916221D01*
X144541119Y-99973674D01*
X145230547Y-100663102D01*
X145230547Y-99916221D01*
X144426214Y-98882079D02*
X145230547Y-98882079D01*
X143966595Y-99169340D02*
X144828380Y-99456602D01*
X144828380Y-98709721D01*
X147516547Y-96804721D02*
X147516547Y-97494150D01*
X147516547Y-97149436D02*
X146310047Y-97149436D01*
X146482404Y-97264340D01*
X146597309Y-97379245D01*
X146654761Y-97494150D01*
X146310047Y-96057840D02*
X146310047Y-95942936D01*
X146367500Y-95828031D01*
X146424952Y-95770579D01*
X146539857Y-95713126D01*
X146769666Y-95655674D01*
X147056928Y-95655674D01*
X147286738Y-95713126D01*
X147401642Y-95770579D01*
X147459095Y-95828031D01*
X147516547Y-95942936D01*
X147516547Y-96057840D01*
X147459095Y-96172745D01*
X147401642Y-96230198D01*
X147286738Y-96287650D01*
X147056928Y-96345102D01*
X146769666Y-96345102D01*
X146539857Y-96287650D01*
X146424952Y-96230198D01*
X146367500Y-96172745D01*
X146310047Y-96057840D01*
X145357547Y-106272269D02*
X144783023Y-106674436D01*
X145357547Y-106961698D02*
X144151047Y-106961698D01*
X144151047Y-106502079D01*
X144208500Y-106387174D01*
X144265952Y-106329721D01*
X144380857Y-106272269D01*
X144553214Y-106272269D01*
X144668119Y-106329721D01*
X144725571Y-106387174D01*
X144783023Y-106502079D01*
X144783023Y-106961698D01*
X144265952Y-105812650D02*
X144208500Y-105755198D01*
X144151047Y-105640293D01*
X144151047Y-105353031D01*
X144208500Y-105238126D01*
X144265952Y-105180674D01*
X144380857Y-105123221D01*
X144495761Y-105123221D01*
X144668119Y-105180674D01*
X145357547Y-105870102D01*
X145357547Y-105123221D01*
X144151047Y-104031626D02*
X144151047Y-104606150D01*
X144725571Y-104663602D01*
X144668119Y-104606150D01*
X144610666Y-104491245D01*
X144610666Y-104203983D01*
X144668119Y-104089079D01*
X144725571Y-104031626D01*
X144840476Y-103974174D01*
X145127738Y-103974174D01*
X145242642Y-104031626D01*
X145300095Y-104089079D01*
X145357547Y-104203983D01*
X145357547Y-104491245D01*
X145300095Y-104606150D01*
X145242642Y-104663602D01*
X146437047Y-110324174D02*
X146437047Y-110898698D01*
X147011571Y-110956150D01*
X146954119Y-110898698D01*
X146896666Y-110783793D01*
X146896666Y-110496531D01*
X146954119Y-110381626D01*
X147011571Y-110324174D01*
X147126476Y-110266721D01*
X147413738Y-110266721D01*
X147528642Y-110324174D01*
X147586095Y-110381626D01*
X147643547Y-110496531D01*
X147643547Y-110783793D01*
X147586095Y-110898698D01*
X147528642Y-110956150D01*
X146437047Y-109519840D02*
X146437047Y-109404936D01*
X146494500Y-109290031D01*
X146551952Y-109232579D01*
X146666857Y-109175126D01*
X146896666Y-109117674D01*
X147183928Y-109117674D01*
X147413738Y-109175126D01*
X147528642Y-109232579D01*
X147586095Y-109290031D01*
X147643547Y-109404936D01*
X147643547Y-109519840D01*
X147586095Y-109634745D01*
X147528642Y-109692198D01*
X147413738Y-109749650D01*
X147183928Y-109807102D01*
X146896666Y-109807102D01*
X146666857Y-109749650D01*
X146551952Y-109692198D01*
X146494500Y-109634745D01*
X146437047Y-109519840D01*
X139388547Y-104113269D02*
X138814023Y-104515436D01*
X139388547Y-104802698D02*
X138182047Y-104802698D01*
X138182047Y-104343079D01*
X138239500Y-104228174D01*
X138296952Y-104170721D01*
X138411857Y-104113269D01*
X138584214Y-104113269D01*
X138699119Y-104170721D01*
X138756571Y-104228174D01*
X138814023Y-104343079D01*
X138814023Y-104802698D01*
X138296952Y-103653650D02*
X138239500Y-103596198D01*
X138182047Y-103481293D01*
X138182047Y-103194031D01*
X138239500Y-103079126D01*
X138296952Y-103021674D01*
X138411857Y-102964221D01*
X138526761Y-102964221D01*
X138699119Y-103021674D01*
X139388547Y-103711102D01*
X139388547Y-102964221D01*
X138182047Y-101930079D02*
X138182047Y-102159888D01*
X138239500Y-102274793D01*
X138296952Y-102332245D01*
X138469309Y-102447150D01*
X138699119Y-102504602D01*
X139158738Y-102504602D01*
X139273642Y-102447150D01*
X139331095Y-102389698D01*
X139388547Y-102274793D01*
X139388547Y-102044983D01*
X139331095Y-101930079D01*
X139273642Y-101872626D01*
X139158738Y-101815174D01*
X138871476Y-101815174D01*
X138756571Y-101872626D01*
X138699119Y-101930079D01*
X138641666Y-102044983D01*
X138641666Y-102274793D01*
X138699119Y-102389698D01*
X138756571Y-102447150D01*
X138871476Y-102504602D01*
X141039547Y-103408721D02*
X141039547Y-104098150D01*
X141039547Y-103753436D02*
X139833047Y-103753436D01*
X140005404Y-103868340D01*
X140120309Y-103983245D01*
X140177761Y-104098150D01*
X139833047Y-102661840D02*
X139833047Y-102546936D01*
X139890500Y-102432031D01*
X139947952Y-102374579D01*
X140062857Y-102317126D01*
X140292666Y-102259674D01*
X140579928Y-102259674D01*
X140809738Y-102317126D01*
X140924642Y-102374579D01*
X140982095Y-102432031D01*
X141039547Y-102546936D01*
X141039547Y-102661840D01*
X140982095Y-102776745D01*
X140924642Y-102834198D01*
X140809738Y-102891650D01*
X140579928Y-102949102D01*
X140292666Y-102949102D01*
X140062857Y-102891650D01*
X139947952Y-102834198D01*
X139890500Y-102776745D01*
X139833047Y-102661840D01*
X141293547Y-108050269D02*
X140719023Y-108452436D01*
X141293547Y-108739698D02*
X140087047Y-108739698D01*
X140087047Y-108280079D01*
X140144500Y-108165174D01*
X140201952Y-108107721D01*
X140316857Y-108050269D01*
X140489214Y-108050269D01*
X140604119Y-108107721D01*
X140661571Y-108165174D01*
X140719023Y-108280079D01*
X140719023Y-108739698D01*
X140201952Y-107590650D02*
X140144500Y-107533198D01*
X140087047Y-107418293D01*
X140087047Y-107131031D01*
X140144500Y-107016126D01*
X140201952Y-106958674D01*
X140316857Y-106901221D01*
X140431761Y-106901221D01*
X140604119Y-106958674D01*
X141293547Y-107648102D01*
X141293547Y-106901221D01*
X140087047Y-106499055D02*
X140087047Y-105694721D01*
X141293547Y-106211793D01*
X141865047Y-108038174D02*
X141865047Y-108612698D01*
X142439571Y-108670150D01*
X142382119Y-108612698D01*
X142324666Y-108497793D01*
X142324666Y-108210531D01*
X142382119Y-108095626D01*
X142439571Y-108038174D01*
X142554476Y-107980721D01*
X142841738Y-107980721D01*
X142956642Y-108038174D01*
X143014095Y-108095626D01*
X143071547Y-108210531D01*
X143071547Y-108497793D01*
X143014095Y-108612698D01*
X142956642Y-108670150D01*
X141865047Y-107233840D02*
X141865047Y-107118936D01*
X141922500Y-107004031D01*
X141979952Y-106946579D01*
X142094857Y-106889126D01*
X142324666Y-106831674D01*
X142611928Y-106831674D01*
X142841738Y-106889126D01*
X142956642Y-106946579D01*
X143014095Y-107004031D01*
X143071547Y-107118936D01*
X143071547Y-107233840D01*
X143014095Y-107348745D01*
X142956642Y-107406198D01*
X142841738Y-107463650D01*
X142611928Y-107521102D01*
X142324666Y-107521102D01*
X142094857Y-107463650D01*
X141979952Y-107406198D01*
X141922500Y-107348745D01*
X141865047Y-107233840D01*
X127831547Y-103605269D02*
X127257023Y-104007436D01*
X127831547Y-104294698D02*
X126625047Y-104294698D01*
X126625047Y-103835079D01*
X126682500Y-103720174D01*
X126739952Y-103662721D01*
X126854857Y-103605269D01*
X127027214Y-103605269D01*
X127142119Y-103662721D01*
X127199571Y-103720174D01*
X127257023Y-103835079D01*
X127257023Y-104294698D01*
X126739952Y-103145650D02*
X126682500Y-103088198D01*
X126625047Y-102973293D01*
X126625047Y-102686031D01*
X126682500Y-102571126D01*
X126739952Y-102513674D01*
X126854857Y-102456221D01*
X126969761Y-102456221D01*
X127142119Y-102513674D01*
X127831547Y-103203102D01*
X127831547Y-102456221D01*
X127142119Y-101766793D02*
X127084666Y-101881698D01*
X127027214Y-101939150D01*
X126912309Y-101996602D01*
X126854857Y-101996602D01*
X126739952Y-101939150D01*
X126682500Y-101881698D01*
X126625047Y-101766793D01*
X126625047Y-101536983D01*
X126682500Y-101422079D01*
X126739952Y-101364626D01*
X126854857Y-101307174D01*
X126912309Y-101307174D01*
X127027214Y-101364626D01*
X127084666Y-101422079D01*
X127142119Y-101536983D01*
X127142119Y-101766793D01*
X127199571Y-101881698D01*
X127257023Y-101939150D01*
X127371928Y-101996602D01*
X127601738Y-101996602D01*
X127716642Y-101939150D01*
X127774095Y-101881698D01*
X127831547Y-101766793D01*
X127831547Y-101536983D01*
X127774095Y-101422079D01*
X127716642Y-101364626D01*
X127601738Y-101307174D01*
X127371928Y-101307174D01*
X127257023Y-101364626D01*
X127199571Y-101422079D01*
X127142119Y-101536983D01*
X129736547Y-103662721D02*
X129736547Y-104352150D01*
X129736547Y-104007436D02*
X128530047Y-104007436D01*
X128702404Y-104122340D01*
X128817309Y-104237245D01*
X128874761Y-104352150D01*
X128530047Y-102915840D02*
X128530047Y-102800936D01*
X128587500Y-102686031D01*
X128644952Y-102628579D01*
X128759857Y-102571126D01*
X128989666Y-102513674D01*
X129276928Y-102513674D01*
X129506738Y-102571126D01*
X129621642Y-102628579D01*
X129679095Y-102686031D01*
X129736547Y-102800936D01*
X129736547Y-102915840D01*
X129679095Y-103030745D01*
X129621642Y-103088198D01*
X129506738Y-103145650D01*
X129276928Y-103203102D01*
X128989666Y-103203102D01*
X128759857Y-103145650D01*
X128644952Y-103088198D01*
X128587500Y-103030745D01*
X128530047Y-102915840D01*
X178377547Y-116559269D02*
X177803023Y-116961436D01*
X178377547Y-117248698D02*
X177171047Y-117248698D01*
X177171047Y-116789079D01*
X177228500Y-116674174D01*
X177285952Y-116616721D01*
X177400857Y-116559269D01*
X177573214Y-116559269D01*
X177688119Y-116616721D01*
X177745571Y-116674174D01*
X177803023Y-116789079D01*
X177803023Y-117248698D01*
X177171047Y-115467674D02*
X177171047Y-116042198D01*
X177745571Y-116099650D01*
X177688119Y-116042198D01*
X177630666Y-115927293D01*
X177630666Y-115640031D01*
X177688119Y-115525126D01*
X177745571Y-115467674D01*
X177860476Y-115410221D01*
X178147738Y-115410221D01*
X178262642Y-115467674D01*
X178320095Y-115525126D01*
X178377547Y-115640031D01*
X178377547Y-115927293D01*
X178320095Y-116042198D01*
X178262642Y-116099650D01*
X178377547Y-114261174D02*
X178377547Y-114950602D01*
X178377547Y-114605888D02*
X177171047Y-114605888D01*
X177343404Y-114720793D01*
X177458309Y-114835698D01*
X177515761Y-114950602D01*
X180155547Y-116489721D02*
X180155547Y-117179150D01*
X180155547Y-116834436D02*
X178949047Y-116834436D01*
X179121404Y-116949340D01*
X179236309Y-117064245D01*
X179293761Y-117179150D01*
X178949047Y-115742840D02*
X178949047Y-115627936D01*
X179006500Y-115513031D01*
X179063952Y-115455579D01*
X179178857Y-115398126D01*
X179408666Y-115340674D01*
X179695928Y-115340674D01*
X179925738Y-115398126D01*
X180040642Y-115455579D01*
X180098095Y-115513031D01*
X180155547Y-115627936D01*
X180155547Y-115742840D01*
X180098095Y-115857745D01*
X180040642Y-115915198D01*
X179925738Y-115972650D01*
X179695928Y-116030102D01*
X179408666Y-116030102D01*
X179178857Y-115972650D01*
X179063952Y-115915198D01*
X179006500Y-115857745D01*
X178949047Y-115742840D01*
X180155547Y-114134174D02*
X179581023Y-114536340D01*
X180155547Y-114823602D02*
X178949047Y-114823602D01*
X178949047Y-114363983D01*
X179006500Y-114249079D01*
X179063952Y-114191626D01*
X179178857Y-114134174D01*
X179351214Y-114134174D01*
X179466119Y-114191626D01*
X179523571Y-114249079D01*
X179581023Y-114363983D01*
X179581023Y-114823602D01*
X83635547Y-112241269D02*
X83061023Y-112643436D01*
X83635547Y-112930698D02*
X82429047Y-112930698D01*
X82429047Y-112471079D01*
X82486500Y-112356174D01*
X82543952Y-112298721D01*
X82658857Y-112241269D01*
X82831214Y-112241269D01*
X82946119Y-112298721D01*
X83003571Y-112356174D01*
X83061023Y-112471079D01*
X83061023Y-112930698D01*
X82429047Y-111149674D02*
X82429047Y-111724198D01*
X83003571Y-111781650D01*
X82946119Y-111724198D01*
X82888666Y-111609293D01*
X82888666Y-111322031D01*
X82946119Y-111207126D01*
X83003571Y-111149674D01*
X83118476Y-111092221D01*
X83405738Y-111092221D01*
X83520642Y-111149674D01*
X83578095Y-111207126D01*
X83635547Y-111322031D01*
X83635547Y-111609293D01*
X83578095Y-111724198D01*
X83520642Y-111781650D01*
X82543952Y-110632602D02*
X82486500Y-110575150D01*
X82429047Y-110460245D01*
X82429047Y-110172983D01*
X82486500Y-110058079D01*
X82543952Y-110000626D01*
X82658857Y-109943174D01*
X82773761Y-109943174D01*
X82946119Y-110000626D01*
X83635547Y-110690055D01*
X83635547Y-109943174D01*
X85413547Y-112298721D02*
X85413547Y-112988150D01*
X85413547Y-112643436D02*
X84207047Y-112643436D01*
X84379404Y-112758340D01*
X84494309Y-112873245D01*
X84551761Y-112988150D01*
X84207047Y-111551840D02*
X84207047Y-111436936D01*
X84264500Y-111322031D01*
X84321952Y-111264579D01*
X84436857Y-111207126D01*
X84666666Y-111149674D01*
X84953928Y-111149674D01*
X85183738Y-111207126D01*
X85298642Y-111264579D01*
X85356095Y-111322031D01*
X85413547Y-111436936D01*
X85413547Y-111551840D01*
X85356095Y-111666745D01*
X85298642Y-111724198D01*
X85183738Y-111781650D01*
X84953928Y-111839102D01*
X84666666Y-111839102D01*
X84436857Y-111781650D01*
X84321952Y-111724198D01*
X84264500Y-111666745D01*
X84207047Y-111551840D01*
X85413547Y-109943174D02*
X84839023Y-110345340D01*
X85413547Y-110632602D02*
X84207047Y-110632602D01*
X84207047Y-110172983D01*
X84264500Y-110058079D01*
X84321952Y-110000626D01*
X84436857Y-109943174D01*
X84609214Y-109943174D01*
X84724119Y-110000626D01*
X84781571Y-110058079D01*
X84839023Y-110172983D01*
X84839023Y-110632602D01*
X98748547Y-54583269D02*
X98174023Y-54985436D01*
X98748547Y-55272698D02*
X97542047Y-55272698D01*
X97542047Y-54813079D01*
X97599500Y-54698174D01*
X97656952Y-54640721D01*
X97771857Y-54583269D01*
X97944214Y-54583269D01*
X98059119Y-54640721D01*
X98116571Y-54698174D01*
X98174023Y-54813079D01*
X98174023Y-55272698D01*
X97542047Y-53491674D02*
X97542047Y-54066198D01*
X98116571Y-54123650D01*
X98059119Y-54066198D01*
X98001666Y-53951293D01*
X98001666Y-53664031D01*
X98059119Y-53549126D01*
X98116571Y-53491674D01*
X98231476Y-53434221D01*
X98518738Y-53434221D01*
X98633642Y-53491674D01*
X98691095Y-53549126D01*
X98748547Y-53664031D01*
X98748547Y-53951293D01*
X98691095Y-54066198D01*
X98633642Y-54123650D01*
X97542047Y-53032055D02*
X97542047Y-52285174D01*
X98001666Y-52687340D01*
X98001666Y-52514983D01*
X98059119Y-52400079D01*
X98116571Y-52342626D01*
X98231476Y-52285174D01*
X98518738Y-52285174D01*
X98633642Y-52342626D01*
X98691095Y-52400079D01*
X98748547Y-52514983D01*
X98748547Y-52859698D01*
X98691095Y-52974602D01*
X98633642Y-53032055D01*
X100526547Y-54640721D02*
X100526547Y-55330150D01*
X100526547Y-54985436D02*
X99320047Y-54985436D01*
X99492404Y-55100340D01*
X99607309Y-55215245D01*
X99664761Y-55330150D01*
X99320047Y-53893840D02*
X99320047Y-53778936D01*
X99377500Y-53664031D01*
X99434952Y-53606579D01*
X99549857Y-53549126D01*
X99779666Y-53491674D01*
X100066928Y-53491674D01*
X100296738Y-53549126D01*
X100411642Y-53606579D01*
X100469095Y-53664031D01*
X100526547Y-53778936D01*
X100526547Y-53893840D01*
X100469095Y-54008745D01*
X100411642Y-54066198D01*
X100296738Y-54123650D01*
X100066928Y-54181102D01*
X99779666Y-54181102D01*
X99549857Y-54123650D01*
X99434952Y-54066198D01*
X99377500Y-54008745D01*
X99320047Y-53893840D01*
X100526547Y-52285174D02*
X99952023Y-52687340D01*
X100526547Y-52974602D02*
X99320047Y-52974602D01*
X99320047Y-52514983D01*
X99377500Y-52400079D01*
X99434952Y-52342626D01*
X99549857Y-52285174D01*
X99722214Y-52285174D01*
X99837119Y-52342626D01*
X99894571Y-52400079D01*
X99952023Y-52514983D01*
X99952023Y-52974602D01*
X110897730Y-70427547D02*
X110495563Y-69853023D01*
X110208301Y-70427547D02*
X110208301Y-69221047D01*
X110667920Y-69221047D01*
X110782825Y-69278500D01*
X110840278Y-69335952D01*
X110897730Y-69450857D01*
X110897730Y-69623214D01*
X110840278Y-69738119D01*
X110782825Y-69795571D01*
X110667920Y-69853023D01*
X110208301Y-69853023D01*
X111989325Y-69221047D02*
X111414801Y-69221047D01*
X111357349Y-69795571D01*
X111414801Y-69738119D01*
X111529706Y-69680666D01*
X111816968Y-69680666D01*
X111931873Y-69738119D01*
X111989325Y-69795571D01*
X112046778Y-69910476D01*
X112046778Y-70197738D01*
X111989325Y-70312642D01*
X111931873Y-70370095D01*
X111816968Y-70427547D01*
X111529706Y-70427547D01*
X111414801Y-70370095D01*
X111357349Y-70312642D01*
X113080920Y-69623214D02*
X113080920Y-70427547D01*
X112793659Y-69163595D02*
X112506397Y-70025380D01*
X113253278Y-70025380D01*
X110840278Y-71951547D02*
X110150849Y-71951547D01*
X110495563Y-71951547D02*
X110495563Y-70745047D01*
X110380659Y-70917404D01*
X110265754Y-71032309D01*
X110150849Y-71089761D01*
X111587159Y-70745047D02*
X111702063Y-70745047D01*
X111816968Y-70802500D01*
X111874420Y-70859952D01*
X111931873Y-70974857D01*
X111989325Y-71204666D01*
X111989325Y-71491928D01*
X111931873Y-71721738D01*
X111874420Y-71836642D01*
X111816968Y-71894095D01*
X111702063Y-71951547D01*
X111587159Y-71951547D01*
X111472254Y-71894095D01*
X111414801Y-71836642D01*
X111357349Y-71721738D01*
X111299897Y-71491928D01*
X111299897Y-71204666D01*
X111357349Y-70974857D01*
X111414801Y-70859952D01*
X111472254Y-70802500D01*
X111587159Y-70745047D01*
X113195825Y-71951547D02*
X112793659Y-71377023D01*
X112506397Y-71951547D02*
X112506397Y-70745047D01*
X112966016Y-70745047D01*
X113080920Y-70802500D01*
X113138373Y-70859952D01*
X113195825Y-70974857D01*
X113195825Y-71147214D01*
X113138373Y-71262119D01*
X113080920Y-71319571D01*
X112966016Y-71377023D01*
X112506397Y-71377023D01*
X142817547Y-86587269D02*
X142243023Y-86989436D01*
X142817547Y-87276698D02*
X141611047Y-87276698D01*
X141611047Y-86817079D01*
X141668500Y-86702174D01*
X141725952Y-86644721D01*
X141840857Y-86587269D01*
X142013214Y-86587269D01*
X142128119Y-86644721D01*
X142185571Y-86702174D01*
X142243023Y-86817079D01*
X142243023Y-87276698D01*
X141611047Y-85495674D02*
X141611047Y-86070198D01*
X142185571Y-86127650D01*
X142128119Y-86070198D01*
X142070666Y-85955293D01*
X142070666Y-85668031D01*
X142128119Y-85553126D01*
X142185571Y-85495674D01*
X142300476Y-85438221D01*
X142587738Y-85438221D01*
X142702642Y-85495674D01*
X142760095Y-85553126D01*
X142817547Y-85668031D01*
X142817547Y-85955293D01*
X142760095Y-86070198D01*
X142702642Y-86127650D01*
X141611047Y-84346626D02*
X141611047Y-84921150D01*
X142185571Y-84978602D01*
X142128119Y-84921150D01*
X142070666Y-84806245D01*
X142070666Y-84518983D01*
X142128119Y-84404079D01*
X142185571Y-84346626D01*
X142300476Y-84289174D01*
X142587738Y-84289174D01*
X142702642Y-84346626D01*
X142760095Y-84404079D01*
X142817547Y-84518983D01*
X142817547Y-84806245D01*
X142760095Y-84921150D01*
X142702642Y-84978602D01*
X146500547Y-86644721D02*
X146500547Y-87334150D01*
X146500547Y-86989436D02*
X145294047Y-86989436D01*
X145466404Y-87104340D01*
X145581309Y-87219245D01*
X145638761Y-87334150D01*
X145294047Y-85897840D02*
X145294047Y-85782936D01*
X145351500Y-85668031D01*
X145408952Y-85610579D01*
X145523857Y-85553126D01*
X145753666Y-85495674D01*
X146040928Y-85495674D01*
X146270738Y-85553126D01*
X146385642Y-85610579D01*
X146443095Y-85668031D01*
X146500547Y-85782936D01*
X146500547Y-85897840D01*
X146443095Y-86012745D01*
X146385642Y-86070198D01*
X146270738Y-86127650D01*
X146040928Y-86185102D01*
X145753666Y-86185102D01*
X145523857Y-86127650D01*
X145408952Y-86070198D01*
X145351500Y-86012745D01*
X145294047Y-85897840D01*
X146500547Y-84289174D02*
X145926023Y-84691340D01*
X146500547Y-84978602D02*
X145294047Y-84978602D01*
X145294047Y-84518983D01*
X145351500Y-84404079D01*
X145408952Y-84346626D01*
X145523857Y-84289174D01*
X145696214Y-84289174D01*
X145811119Y-84346626D01*
X145868571Y-84404079D01*
X145926023Y-84518983D01*
X145926023Y-84978602D01*
X114369547Y-124560269D02*
X113795023Y-124962436D01*
X114369547Y-125249698D02*
X113163047Y-125249698D01*
X113163047Y-124790079D01*
X113220500Y-124675174D01*
X113277952Y-124617721D01*
X113392857Y-124560269D01*
X113565214Y-124560269D01*
X113680119Y-124617721D01*
X113737571Y-124675174D01*
X113795023Y-124790079D01*
X113795023Y-125249698D01*
X113163047Y-123468674D02*
X113163047Y-124043198D01*
X113737571Y-124100650D01*
X113680119Y-124043198D01*
X113622666Y-123928293D01*
X113622666Y-123641031D01*
X113680119Y-123526126D01*
X113737571Y-123468674D01*
X113852476Y-123411221D01*
X114139738Y-123411221D01*
X114254642Y-123468674D01*
X114312095Y-123526126D01*
X114369547Y-123641031D01*
X114369547Y-123928293D01*
X114312095Y-124043198D01*
X114254642Y-124100650D01*
X113163047Y-123009055D02*
X113163047Y-122204721D01*
X114369547Y-122721793D01*
X116020547Y-124490721D02*
X116020547Y-125180150D01*
X116020547Y-124835436D02*
X114814047Y-124835436D01*
X114986404Y-124950340D01*
X115101309Y-125065245D01*
X115158761Y-125180150D01*
X114814047Y-123743840D02*
X114814047Y-123628936D01*
X114871500Y-123514031D01*
X114928952Y-123456579D01*
X115043857Y-123399126D01*
X115273666Y-123341674D01*
X115560928Y-123341674D01*
X115790738Y-123399126D01*
X115905642Y-123456579D01*
X115963095Y-123514031D01*
X116020547Y-123628936D01*
X116020547Y-123743840D01*
X115963095Y-123858745D01*
X115905642Y-123916198D01*
X115790738Y-123973650D01*
X115560928Y-124031102D01*
X115273666Y-124031102D01*
X115043857Y-123973650D01*
X114928952Y-123916198D01*
X114871500Y-123858745D01*
X114814047Y-123743840D01*
X116020547Y-122135174D02*
X115446023Y-122537340D01*
X116020547Y-122824602D02*
X114814047Y-122824602D01*
X114814047Y-122364983D01*
X114871500Y-122250079D01*
X114928952Y-122192626D01*
X115043857Y-122135174D01*
X115216214Y-122135174D01*
X115331119Y-122192626D01*
X115388571Y-122250079D01*
X115446023Y-122364983D01*
X115446023Y-122824602D01*
X109543547Y-123290269D02*
X108969023Y-123692436D01*
X109543547Y-123979698D02*
X108337047Y-123979698D01*
X108337047Y-123520079D01*
X108394500Y-123405174D01*
X108451952Y-123347721D01*
X108566857Y-123290269D01*
X108739214Y-123290269D01*
X108854119Y-123347721D01*
X108911571Y-123405174D01*
X108969023Y-123520079D01*
X108969023Y-123979698D01*
X108337047Y-122256126D02*
X108337047Y-122485936D01*
X108394500Y-122600840D01*
X108451952Y-122658293D01*
X108624309Y-122773198D01*
X108854119Y-122830650D01*
X109313738Y-122830650D01*
X109428642Y-122773198D01*
X109486095Y-122715745D01*
X109543547Y-122600840D01*
X109543547Y-122371031D01*
X109486095Y-122256126D01*
X109428642Y-122198674D01*
X109313738Y-122141221D01*
X109026476Y-122141221D01*
X108911571Y-122198674D01*
X108854119Y-122256126D01*
X108796666Y-122371031D01*
X108796666Y-122600840D01*
X108854119Y-122715745D01*
X108911571Y-122773198D01*
X109026476Y-122830650D01*
X108337047Y-121394340D02*
X108337047Y-121279436D01*
X108394500Y-121164531D01*
X108451952Y-121107079D01*
X108566857Y-121049626D01*
X108796666Y-120992174D01*
X109083928Y-120992174D01*
X109313738Y-121049626D01*
X109428642Y-121107079D01*
X109486095Y-121164531D01*
X109543547Y-121279436D01*
X109543547Y-121394340D01*
X109486095Y-121509245D01*
X109428642Y-121566698D01*
X109313738Y-121624150D01*
X109083928Y-121681602D01*
X108796666Y-121681602D01*
X108566857Y-121624150D01*
X108451952Y-121566698D01*
X108394500Y-121509245D01*
X108337047Y-121394340D01*
X110505119Y-123807340D02*
X110447666Y-123922245D01*
X110390214Y-123979698D01*
X110275309Y-124037150D01*
X110217857Y-124037150D01*
X110102952Y-123979698D01*
X110045500Y-123922245D01*
X109988047Y-123807340D01*
X109988047Y-123577531D01*
X110045500Y-123462626D01*
X110102952Y-123405174D01*
X110217857Y-123347721D01*
X110275309Y-123347721D01*
X110390214Y-123405174D01*
X110447666Y-123462626D01*
X110505119Y-123577531D01*
X110505119Y-123807340D01*
X110562571Y-123922245D01*
X110620023Y-123979698D01*
X110734928Y-124037150D01*
X110964738Y-124037150D01*
X111079642Y-123979698D01*
X111137095Y-123922245D01*
X111194547Y-123807340D01*
X111194547Y-123577531D01*
X111137095Y-123462626D01*
X111079642Y-123405174D01*
X110964738Y-123347721D01*
X110734928Y-123347721D01*
X110620023Y-123405174D01*
X110562571Y-123462626D01*
X110505119Y-123577531D01*
X110102952Y-122888102D02*
X110045500Y-122830650D01*
X109988047Y-122715745D01*
X109988047Y-122428483D01*
X110045500Y-122313579D01*
X110102952Y-122256126D01*
X110217857Y-122198674D01*
X110332761Y-122198674D01*
X110505119Y-122256126D01*
X111194547Y-122945555D01*
X111194547Y-122198674D01*
X111194547Y-121681602D02*
X109988047Y-121681602D01*
X111194547Y-120992174D02*
X110505119Y-121509245D01*
X109988047Y-120992174D02*
X110677476Y-121681602D01*
X145484547Y-116686269D02*
X144910023Y-117088436D01*
X145484547Y-117375698D02*
X144278047Y-117375698D01*
X144278047Y-116916079D01*
X144335500Y-116801174D01*
X144392952Y-116743721D01*
X144507857Y-116686269D01*
X144680214Y-116686269D01*
X144795119Y-116743721D01*
X144852571Y-116801174D01*
X144910023Y-116916079D01*
X144910023Y-117375698D01*
X144278047Y-115652126D02*
X144278047Y-115881936D01*
X144335500Y-115996840D01*
X144392952Y-116054293D01*
X144565309Y-116169198D01*
X144795119Y-116226650D01*
X145254738Y-116226650D01*
X145369642Y-116169198D01*
X145427095Y-116111745D01*
X145484547Y-115996840D01*
X145484547Y-115767031D01*
X145427095Y-115652126D01*
X145369642Y-115594674D01*
X145254738Y-115537221D01*
X144967476Y-115537221D01*
X144852571Y-115594674D01*
X144795119Y-115652126D01*
X144737666Y-115767031D01*
X144737666Y-115996840D01*
X144795119Y-116111745D01*
X144852571Y-116169198D01*
X144967476Y-116226650D01*
X145484547Y-114388174D02*
X145484547Y-115077602D01*
X145484547Y-114732888D02*
X144278047Y-114732888D01*
X144450404Y-114847793D01*
X144565309Y-114962698D01*
X144622761Y-115077602D01*
X146573119Y-117203340D02*
X146515666Y-117318245D01*
X146458214Y-117375698D01*
X146343309Y-117433150D01*
X146285857Y-117433150D01*
X146170952Y-117375698D01*
X146113500Y-117318245D01*
X146056047Y-117203340D01*
X146056047Y-116973531D01*
X146113500Y-116858626D01*
X146170952Y-116801174D01*
X146285857Y-116743721D01*
X146343309Y-116743721D01*
X146458214Y-116801174D01*
X146515666Y-116858626D01*
X146573119Y-116973531D01*
X146573119Y-117203340D01*
X146630571Y-117318245D01*
X146688023Y-117375698D01*
X146802928Y-117433150D01*
X147032738Y-117433150D01*
X147147642Y-117375698D01*
X147205095Y-117318245D01*
X147262547Y-117203340D01*
X147262547Y-116973531D01*
X147205095Y-116858626D01*
X147147642Y-116801174D01*
X147032738Y-116743721D01*
X146802928Y-116743721D01*
X146688023Y-116801174D01*
X146630571Y-116858626D01*
X146573119Y-116973531D01*
X146170952Y-116284102D02*
X146113500Y-116226650D01*
X146056047Y-116111745D01*
X146056047Y-115824483D01*
X146113500Y-115709579D01*
X146170952Y-115652126D01*
X146285857Y-115594674D01*
X146400761Y-115594674D01*
X146573119Y-115652126D01*
X147262547Y-116341555D01*
X147262547Y-115594674D01*
X147262547Y-115077602D02*
X146056047Y-115077602D01*
X147262547Y-114388174D02*
X146573119Y-114905245D01*
X146056047Y-114388174D02*
X146745476Y-115077602D01*
X115215730Y-66744547D02*
X114813563Y-66170023D01*
X114526301Y-66744547D02*
X114526301Y-65538047D01*
X114985920Y-65538047D01*
X115100825Y-65595500D01*
X115158278Y-65652952D01*
X115215730Y-65767857D01*
X115215730Y-65940214D01*
X115158278Y-66055119D01*
X115100825Y-66112571D01*
X114985920Y-66170023D01*
X114526301Y-66170023D01*
X116249873Y-65538047D02*
X116020063Y-65538047D01*
X115905159Y-65595500D01*
X115847706Y-65652952D01*
X115732801Y-65825309D01*
X115675349Y-66055119D01*
X115675349Y-66514738D01*
X115732801Y-66629642D01*
X115790254Y-66687095D01*
X115905159Y-66744547D01*
X116134968Y-66744547D01*
X116249873Y-66687095D01*
X116307325Y-66629642D01*
X116364778Y-66514738D01*
X116364778Y-66227476D01*
X116307325Y-66112571D01*
X116249873Y-66055119D01*
X116134968Y-65997666D01*
X115905159Y-65997666D01*
X115790254Y-66055119D01*
X115732801Y-66112571D01*
X115675349Y-66227476D01*
X116766944Y-65538047D02*
X117571278Y-65538047D01*
X117054206Y-66744547D01*
X114411397Y-67062047D02*
X115158278Y-67062047D01*
X114756111Y-67521666D01*
X114928468Y-67521666D01*
X115043373Y-67579119D01*
X115100825Y-67636571D01*
X115158278Y-67751476D01*
X115158278Y-68038738D01*
X115100825Y-68153642D01*
X115043373Y-68211095D01*
X114928468Y-68268547D01*
X114583754Y-68268547D01*
X114468849Y-68211095D01*
X114411397Y-68153642D01*
X115560444Y-67062047D02*
X116307325Y-67062047D01*
X115905159Y-67521666D01*
X116077516Y-67521666D01*
X116192420Y-67579119D01*
X116249873Y-67636571D01*
X116307325Y-67751476D01*
X116307325Y-68038738D01*
X116249873Y-68153642D01*
X116192420Y-68211095D01*
X116077516Y-68268547D01*
X115732801Y-68268547D01*
X115617897Y-68211095D01*
X115560444Y-68153642D01*
X116824397Y-68268547D02*
X116824397Y-67062047D01*
X117513825Y-68268547D02*
X116996754Y-67579119D01*
X117513825Y-67062047D02*
X116824397Y-67751476D01*
X168090547Y-97636269D02*
X167516023Y-98038436D01*
X168090547Y-98325698D02*
X166884047Y-98325698D01*
X166884047Y-97866079D01*
X166941500Y-97751174D01*
X166998952Y-97693721D01*
X167113857Y-97636269D01*
X167286214Y-97636269D01*
X167401119Y-97693721D01*
X167458571Y-97751174D01*
X167516023Y-97866079D01*
X167516023Y-98325698D01*
X166884047Y-96602126D02*
X166884047Y-96831936D01*
X166941500Y-96946840D01*
X166998952Y-97004293D01*
X167171309Y-97119198D01*
X167401119Y-97176650D01*
X167860738Y-97176650D01*
X167975642Y-97119198D01*
X168033095Y-97061745D01*
X168090547Y-96946840D01*
X168090547Y-96717031D01*
X168033095Y-96602126D01*
X167975642Y-96544674D01*
X167860738Y-96487221D01*
X167573476Y-96487221D01*
X167458571Y-96544674D01*
X167401119Y-96602126D01*
X167343666Y-96717031D01*
X167343666Y-96946840D01*
X167401119Y-97061745D01*
X167458571Y-97119198D01*
X167573476Y-97176650D01*
X166884047Y-95453079D02*
X166884047Y-95682888D01*
X166941500Y-95797793D01*
X166998952Y-95855245D01*
X167171309Y-95970150D01*
X167401119Y-96027602D01*
X167860738Y-96027602D01*
X167975642Y-95970150D01*
X168033095Y-95912698D01*
X168090547Y-95797793D01*
X168090547Y-95567983D01*
X168033095Y-95453079D01*
X167975642Y-95395626D01*
X167860738Y-95338174D01*
X167573476Y-95338174D01*
X167458571Y-95395626D01*
X167401119Y-95453079D01*
X167343666Y-95567983D01*
X167343666Y-95797793D01*
X167401119Y-95912698D01*
X167458571Y-95970150D01*
X167573476Y-96027602D01*
X167392047Y-90312602D02*
X167392047Y-89565721D01*
X167851666Y-89967888D01*
X167851666Y-89795531D01*
X167909119Y-89680626D01*
X167966571Y-89623174D01*
X168081476Y-89565721D01*
X168368738Y-89565721D01*
X168483642Y-89623174D01*
X168541095Y-89680626D01*
X168598547Y-89795531D01*
X168598547Y-90140245D01*
X168541095Y-90255150D01*
X168483642Y-90312602D01*
X167392047Y-89163555D02*
X167392047Y-88416674D01*
X167851666Y-88818840D01*
X167851666Y-88646483D01*
X167909119Y-88531579D01*
X167966571Y-88474126D01*
X168081476Y-88416674D01*
X168368738Y-88416674D01*
X168483642Y-88474126D01*
X168541095Y-88531579D01*
X168598547Y-88646483D01*
X168598547Y-88991198D01*
X168541095Y-89106102D01*
X168483642Y-89163555D01*
X168598547Y-87899602D02*
X167392047Y-87899602D01*
X168598547Y-87210174D02*
X167909119Y-87727245D01*
X167392047Y-87210174D02*
X168081476Y-87899602D01*
M02*
